<?xml version="1.0" encoding="iso-8859-1"?>
<!-- Generator: Adobe Illustrator 16.0.0, SVG Export Plug-In . SVG Version: 6.00 Build 0)  -->
<!DOCTYPE svg PUBLIC "-//W3C//DTD SVG 1.1//EN" "http://www.w3.org/Graphics/SVG/1.1/DTD/svg11.dtd">
<svg version="1.1" id="Capa_1" xmlns="http://www.w3.org/2000/svg" xmlns:xlink="http://www.w3.org/1999/xlink" x="0px" y="0px"
	 width="449.1px" height="449.1px" viewBox="0 0 449.1 449.1" style="enable-background:new 0 0 449.1 449.1;" xml:space="preserve"
	>
<g>
	<g>
		<path d="M59.844,384.607c26.419,15.625,57.15,11.518,60.039-17.264c2.892-28.781,56.1-16.146,30.084,33.719
			c-22.884,43.865-49.724,35.357-76.917,24.662c0,0,89.343,62.495,128.963-37.005c39.625-99.497,113.39,0.597,45.067,18.911
			c0,0,134.99-6.921,141.667-154.715c-66.483,60.641-158.464,77.499-239.276,50.729c-17.356-52.417-16.406-109.547,2.936-161.375
			c-32.352,13.535-74.31,41.453-84.03,96.8c-16.314,92.916-47.394,42.755-47.394,42.755s12.427,37.005,35.736,29.607
			c23.305-7.406,41.95,39.473-7.774,45.224C-0.779,362.406,0,409.285,0,409.285S33.429,368.991,59.844,384.607z"/>
		<path d="M234.658,297.418c54.909,0,109.779-20.874,151.681-62.78c0.862-0.857,1.611-1.763,2.449-2.62
			c57.39-59.318,73.765-143.418,49.375-217.055c-22.041-7.302-45.023-10.96-67.998-10.96c-54.905,0-109.783,20.873-151.687,62.78
			c-20.225,20.222-35.432,43.507-45.869,68.313c-20.254,48.117-22.282,102.079-5.953,151.366
			C188.701,293.771,211.685,297.418,234.658,297.418z M235.134,83.436c36.035-36.037,83.996-55.881,135.03-55.881
			c16.627,0,33.086,2.128,49.071,6.34c15.886,59.995,1.955,122.94-37.222,170.379c-3.891,4.711-7.942,9.326-12.334,13.714
			c-36.031,36.03-83.984,55.88-135.022,55.88c-16.629,0-33.089-2.125-49.073-6.34c-12.106-45.729-6.915-93.195,13.573-134.199
			C208.223,115.205,220.251,98.323,235.134,83.436z"/>
		<path d="M255.308,181.171l-15.533,15.527c-4.601,4.592-4.601,12.06,0,16.653c2.301,2.298,5.318,3.444,8.332,3.444
			c3.013,0,6.026-1.146,8.327-3.444l15.533-15.529l17.616,17.613c2.3,2.304,5.313,3.45,8.323,3.45c3.014,0,6.027-1.146,8.336-3.45
			c4.6-4.593,4.6-12.055,0-16.647l-17.617-17.617l9.458-9.461l4.824-4.825l10.944,10.942l6.673,6.67
			c2.3,2.304,5.313,3.446,8.331,3.446c2.141,0,4.18-0.79,6.067-1.956c0.773-0.467,1.591-0.832,2.252-1.499
			c4.601-4.593,4.601-12.055,0-16.647l-17.616-17.617l14.29-14.291l17.617,17.617c2.3,2.3,5.313,3.446,8.323,3.446
			c3.014,0,6.035-1.146,8.336-3.446c4.6-4.593,4.6-12.059,0-16.651l-17.617-17.615l14.551-14.553c4.601-4.593,4.601-12.061,0-16.653
			c-4.601-4.598-12.046-4.598-16.65,0l-14.551,14.555l-17.621-17.617c-4.597-4.601-12.051-4.601-16.65,0
			c-4.602,4.593-4.602,12.059,0,16.651l17.616,17.617l-14.286,14.287l-17.613-17.617c-4.604-4.601-12.05-4.601-16.65,0
			c-4.601,4.593-4.601,12.059,0,16.651l17.608,17.619l-12.167,12.167l-2.115,2.12l-4.805-4.805l-12.82-12.822
			c-4.597-4.598-12.05-4.598-16.65,0c-0.321,0.323-0.453,0.755-0.729,1.1c-3.667,4.625-3.545,11.281,0.729,15.553L255.308,181.171z"
			/>
	</g>
</g>
<g>
</g>
<g>
</g>
<g>
</g>
<g>
</g>
<g>
</g>
<g>
</g>
<g>
</g>
<g>
</g>
<g>
</g>
<g>
</g>
<g>
</g>
<g>
</g>
<g>
</g>
<g>
</g>
<g>
</g>
</svg>
