<?xml version="1.0" encoding="UTF-8" standalone="no"?>
<!-- Created with Inkscape (http://www.inkscape.org/) -->

<svg
   xmlns:dc="http://purl.org/dc/elements/1.1/"
   xmlns:cc="http://creativecommons.org/ns#"
   xmlns:rdf="http://www.w3.org/1999/02/22-rdf-syntax-ns#"
   xmlns:svg="http://www.w3.org/2000/svg"
   xmlns="http://www.w3.org/2000/svg"
   xmlns:sodipodi="http://sodipodi.sourceforge.net/DTD/sodipodi-0.dtd"
   xmlns:inkscape="http://www.inkscape.org/namespaces/inkscape"
   width="210.25313"
   height="44.109024"
   viewBox="0 0 210.25313 44.109025"
   id="svg4163"
   version="1.1"
   inkscape:version="0.91 r13725"
   sodipodi:docname="border_aviva_prem.svg">
  <defs
     id="defs4165" />
  <sodipodi:namedview
     id="base"
     pagecolor="#ffffff"
     bordercolor="#666666"
     borderopacity="1.0"
     inkscape:pageopacity="0.0"
     inkscape:pageshadow="2"
     inkscape:zoom="3.959798"
     inkscape:cx="151.78366"
     inkscape:cy="23.557005"
     inkscape:document-units="px"
     inkscape:current-layer="layer1"
     showgrid="false"
     units="px"
     showborder="true"
     inkscape:window-width="1920"
     inkscape:window-height="1017"
     inkscape:window-x="-8"
     inkscape:window-y="-8"
     inkscape:window-maximized="1"
     fit-margin-top="0"
     fit-margin-left="0"
     fit-margin-right="0"
     fit-margin-bottom="0" />
  <metadata
     id="metadata4168">
    <rdf:RDF>
      <cc:Work
         rdf:about="">
        <dc:format>image/svg+xml</dc:format>
        <dc:type
           rdf:resource="http://purl.org/dc/dcmitype/StillImage" />
        <dc:title></dc:title>
      </cc:Work>
    </rdf:RDF>
  </metadata>
  <g
     inkscape:label="Layer 1"
     inkscape:groupmode="layer"
     id="layer1"
     transform="translate(0.32323784,-1000.9819)">
    <g
       id="layer1-5"
       transform="matrix(1.3817048,0,0,1.3817048,-0.30552167,-410.31259)">
      <g
         id="g3381"
         transform="matrix(0.11683,0,0,-0.12224,-7.8122,1061.5)">
        <g
           id="g3383">
          <g
             id="g3385"
             clip-path="url(#clipPath3387)">
            <path
               style="fill:#fddd10"
               inkscape:connector-curvature="0"
               id="path3391"
               d="m 67.801,67.805 1300.4,0 0,259.07 -1300.4,0 0,-259.07 z" />
            <path
               style="fill:none;stroke:#176fc1;stroke-width:2.08529997"
               inkscape:connector-curvature="0"
               id="path3393"
               d="m 67.801,67.805 1300.4,0 0,259.07 -1300.4,0 0,-259.07 z" />
            <g
               style="fill:#176fc1"
               id="g11">
              <path
                 inkscape:connector-curvature="0"
                 id="path3395"
                 d="m 1205.8,247.96 c -1.95,1.816 -6.32,4.16 -10.24,4.035 -1.95,-0.047 -4.54,-1.023 -4.54,-3.082 0,-2.164 2.86,-3.004 4.71,-3.539 l 2.7,-0.734 c 5.68,-1.524 10.06,-4.117 10.06,-10.106 0,-3.679 -0.98,-7.465 -4.22,-9.961 -3.19,-2.449 -7.47,-3.484 -11.57,-3.484 -5.15,0 -10,1.465 -12.97,3.012 l 0,9.316 c 2.65,-2.117 7.79,-4.289 12.58,-4.184 2.49,0.059 5.15,1.125 5.15,3.727 0,2.688 -4.17,3.633 -6.44,4.227 -6.64,1.707 -11.04,3.285 -11.04,10.449 0,7.512 5.9,12.418 14.07,12.418 4.1,0 8.13,-1.328 11.75,-3.199 l 0,-8.895" />
              <path
                 inkscape:connector-curvature="0"
                 id="path3397"
                 d="m 959.36,242.11 1.782,0 c 3.843,0 7.633,0 7.633,4.516 0,4.664 -3.524,4.707 -7.633,4.707 l -1.782,0 0,-9.223 z m -10.605,16.992 16.23,0 c 8.762,0 14.809,-3.683 14.809,-12.183 0,-8.731 -5.176,-12.555 -14.434,-12.555 l -6,0 0,-12.273 -10.605,0 0,37.011" />
              <path
                 inkscape:connector-curvature="0"
                 id="path3399"
                 d="m 994.24,242.51 1.043,0 c 3.449,0 7.345,0.578 7.345,4.617 0,4.027 -3.896,4.613 -7.345,4.613 l -1.043,0 0,-9.23 z m 23.308,-20.418 -13.21,0 -9.981,14.234 -0.117,0 0,-14.234 -10.597,0 0,37.011 15.855,0 c 8.04,0 14.17,-3.5 14.17,-11.39 0,-5.106 -3.15,-9.524 -8.93,-10.461 l 12.81,-15.16" />
              <path
                 inkscape:connector-curvature="0"
                 id="path3401"
                 d="m 1030.3,250.94 0,-6.195 13.68,0 0,-8.129 -13.68,0 0,-6.387 15,0 0,-8.14 -25.62,0 0,37.011 25.62,0 0,-8.16 -15,0" />
              <path
                 inkscape:connector-curvature="0"
                 id="path3403"
                 d="m 1097.2,222.09 10.594,0 0,37.012 -10.594,0 0,-37.012 z" />
              <path
                 inkscape:connector-curvature="0"
                 id="path3405"
                 d="m 1124.4,250.94 0,-6.195 13.68,0 0,-8.129 -13.68,0 0,-6.387 15.01,0 0,-8.14 -25.61,0 0,37.011 25.61,0 0,-8.16 -15.01,0" />
              <path
                 inkscape:connector-curvature="0"
                 id="path3407"
                 d="m 1156,242.51 1.03,0 c 3.47,0 7.37,0.578 7.37,4.617 0,4.027 -3.9,4.613 -7.37,4.613 l -1.03,0 0,-9.23 z m 23.31,-20.418 -13.19,0 -10,14.234 -0.12,0 0,-14.234 -10.59,0 0,37.011 15.84,0 c 8.06,0 14.16,-3.5 14.16,-11.39 0,-5.106 -3.12,-9.524 -8.91,-10.461 l 12.81,-15.16" />
              <path
                 inkscape:connector-curvature="0"
                 id="path3409"
                 d="m 1235,244.82 0,14.281 10.61,0 0,-37.011 -10.61,0 0,15.16 -12.6,0 0,-15.16 -10.6,0 0,37.011 10.6,0 0,-14.281 12.6,0" />
              <path
                 inkscape:connector-curvature="0"
                 id="path3411"
                 d="m 1251.6,222.09 10.598,0 0,37.012 -10.598,0 0,-37.012 z" />
              <path
                 inkscape:connector-curvature="0"
                 id="path3413"
                 d="m 1278.8,242.11 1.78,0 c 3.84,0 7.63,0 7.63,4.516 0,4.664 -3.51,4.707 -7.63,4.707 l -1.78,0 0,-9.223 z m -10.6,16.992 16.22,0 c 8.77,0 15.11,-3.683 15.11,-12.183 0,-8.731 -5.49,-12.555 -14.73,-12.555 l -6,0 0,-12.273 -10.6,0 0,37.011" />
              <path
                 inkscape:connector-curvature="0"
                 id="path3415"
                 d="m 1080.6,259.1 -9.31,-13.734 -9.3,13.734 -10.6,0 0,-37.011 10.6,0 0,21.551 8.6,-11.622 1.39,0 8.62,11.622 0,-21.551 10.59,0 0,37.011 -10.59,0" />
              <path
                 inkscape:connector-curvature="0"
                 id="path3417"
                 d="m 1195.5,155.24 -4.83,0 0,12.621 4.83,0 c 5.92,0 8.94,-2.32 8.94,-6.316 0,-3.988 -3.02,-6.305 -8.94,-6.305 z m -70.81,27.36 0,-18.622 12.98,0 c -0.69,-4.093 -4.4,-6.535 -10.2,-6.535 -9.51,0 -15.19,6.43 -15.19,17.621 0,11.082 6.03,17.731 14.5,17.731 5.09,0 8.8,-2.113 11.82,-6.543 l 25.13,8.91 0,-12.562 -39.04,0 z m 65.98,13.402 3.82,0 c 4.69,0 7.16,-1.992 7.16,-5.535 0,-3.547 -2.47,-5.539 -7.16,-5.539 l -3.82,0 0,11.074 z m -209.65,-16.609 -4.133,0 0,14.054 4.133,0 c 5.176,0 7.863,-2.703 7.863,-7.129 0,-4.418 -2.785,-6.925 -7.863,-6.925 z m 286.8,35.449 -6.62,-15.406 c -0.89,-1.993 -1.68,-4.094 -2.46,-6.536 -0.78,2.442 -1.46,4.543 -2.35,6.536 l -6.73,15.406 -32.85,0 2.79,-4.606 c -4.33,2.953 -10.25,4.606 -17.62,4.606 l -38.25,0 0,-17 c -8.43,12.23 -21.41,18.765 -37.41,18.765 -12.54,0 -23.55,-4.093 -31.78,-11.855 -3.15,-2.973 -5.74,-6.348 -7.73,-10.051 l 0,20.141 -28.73,0 0,-43.215 c 0,-8.309 -1.46,-13.184 -8.05,-13.184 -6.71,0 -7.94,4.875 -7.94,13.184 l 0,43.215 -28.72,0 0,-12.051 c -4.88,7.785 -14.439,12.051 -28.548,12.051 l -36.102,0 0,-79.215 28.168,0 0,26.148 13.969,-26.148 32.183,0 -21.34,32.234 c 4.91,0.594 8.95,3.075 11.67,6.973 l 0,-2.984 c 0,-9.532 0.77,-17.059 4.57,-23.039 6.04,-9.418 17.66,-15.293 32.09,-15.293 14.42,0 26.05,5.761 32.07,15.293 1.69,2.652 2.8,5.605 3.53,8.902 2.08,-4.606 5.07,-8.774 8.91,-12.336 8.23,-7.758 19.13,-11.859 31.78,-11.859 14.83,0 27.7,6 35.81,16.179 0.57,0.707 1.09,1.442 1.6,2.172 l 0,-16.242 38.13,0 c 19.81,0 29.88,7.754 29.88,22.371 0,10.426 -5.26,16.617 -16.11,18.84 7.82,1.773 12.41,7.754 12.41,16.398 0,1.188 -0.07,2.336 -0.22,3.45 l 15.78,-26.059 0,-35 29.04,0 0,35 27.79,44.215 -32.61,0" />
            </g>
            <path
               style="fill:#fddd10"
               inkscape:connector-curvature="0"
               id="path3419"
               d="m 235.1,156.8 -9.933,102.31 -0.008,0 -10.07,-104 c 6.519,0.718 13.191,1.285 20.011,1.695" />
            <path
               style="fill:#59c147"
               inkscape:connector-curvature="0"
               id="path3421"
               d="m 259.39,157.56 0.027,101.55 -34.246,0.008 0,-0.008 9.933,-102.31 c 7.926,0.48 16.024,0.73 24.286,0.762" />
            <g
               style="fill:#176fc1"
               id="g27">
              <path
                 inkscape:connector-curvature="0"
                 id="path3423"
                 d="m 215.09,155.1 10.07,104 0.008,0.008 -89.567,-0.008 0.043,-123.49 c 21.04,9.203 48.442,16.047 79.446,19.489" />
              <path
                 inkscape:connector-curvature="0"
                 id="path3425"
                 d="m 576.68,255.22 c 2.687,-0.489 12.304,-3.293 12.304,-10.114 l 0,-109.5 32.563,0 0,123.51 -44.867,0 0,-3.898" />
              <path
                 inkscape:connector-curvature="0"
                 id="path3427"
                 d="m 320.77,259.12 0,-3.898 c 3.945,-0.813 12.496,-3.211 9.031,-10.91 l -48.543,-108.7 25.641,0 15.199,33.879 53.761,0 13.29,-33.879 33.722,0 -48.172,123.51 -53.929,0 z m 8.214,-74.273 21.813,48.59 19.043,-48.59 -40.856,0" />
              <path
                 inkscape:connector-curvature="0"
                 id="path3429"
                 d="m 819.77,259.12 0,-3.898 c 3.929,-0.813 12.492,-3.211 9.019,-10.91 l -48.535,-108.7 25.648,0 15.172,33.879 53.785,0 13.286,-33.879 33.75,0 -48.196,123.51 -53.929,0 z m 8.222,-74.273 21.809,48.59 19.039,-48.59 -40.848,0" />
              <path
                 inkscape:connector-curvature="0"
                 id="path3431"
                 d="m 733.18,135.61 51.476,123.51 -24.336,0 -37.746,-90.566 -35.91,90.566 -45.746,0 0,-3.898 c 5.289,-1 11.215,-3.293 13.922,-10.114 l 43.418,-109.5 34.922,0" />
              <path
                 inkscape:connector-curvature="0"
                 id="path3433"
                 d="m 507.58,135.61 51.492,123.51 -24.359,0 -37.75,-90.566 -35.906,90.566 -45.742,0 0,-3.898 c 5.292,-1 11.21,-3.293 13.929,-10.114 l 43.387,-109.5 34.949,0" />
            </g>
          </g>
        </g>
      </g>
    </g>
  </g>
</svg>
