<?xml version="1.0" encoding="utf-8"?>
<!-- Generator: Adobe Illustrator 14.0.0, SVG Export Plug-In . SVG Version: 6.00 Build 43363)  -->
<!DOCTYPE svg PUBLIC "-//W3C//DTD SVG 1.1//EN" "http://www.w3.org/Graphics/SVG/1.1/DTD/svg11.dtd" [
	<!ENTITY ns_extend "http://ns.adobe.com/Extensibility/1.0/">
	<!ENTITY ns_ai "http://ns.adobe.com/AdobeIllustrator/10.0/">
	<!ENTITY ns_graphs "http://ns.adobe.com/Graphs/1.0/">
	<!ENTITY ns_vars "http://ns.adobe.com/Variables/1.0/">
	<!ENTITY ns_imrep "http://ns.adobe.com/ImageReplacement/1.0/">
	<!ENTITY ns_sfw "http://ns.adobe.com/SaveForWeb/1.0/">
	<!ENTITY ns_custom "http://ns.adobe.com/GenericCustomNamespace/1.0/">
	<!ENTITY ns_adobe_xpath "http://ns.adobe.com/XPath/1.0/">
]>
<svg version="1.1" id="Layer_1" xmlns:x="&ns_extend;" xmlns:i="&ns_ai;" xmlns:graph="&ns_graphs;"
	 xmlns="http://www.w3.org/2000/svg" xmlns:xlink="http://www.w3.org/1999/xlink" x="0px" y="0px" width="269.29px"
	 height="255.12px" viewBox="0 0 269.29 255.12" enable-background="new 0 0 269.29 255.12" xml:space="preserve">
<metadata>
	<sfw  xmlns="&ns_sfw;">
		<slices></slices>
		<sliceSourceBounds  x="21.037" y="11.342" width="228.655" height="235.466" bottomLeftOrigin="true"></sliceSourceBounds>
	</sfw>
</metadata>
<g>
	<g>
		<path fill-rule="evenodd" clip-rule="evenodd" fill="#A7A9AC" d="M122.532,143.107l28.354-21.148l10.632,10.984l12.916,6.332
			l20.043-20.667l21.936,25.154l12.303,13.248l18.527,13.014h-48.551l-1.836-2.117l0.463,2.117H23.487l15.688-18.609l25.993-25.753
			l14.661,12.548l15.834-15.688l16.207,13.877L122.532,143.107z M139.309,136.746l-16.868,11.533l8.997,1.326L139.309,136.746z
			 M63.803,131.453L51.88,144.479l-6.64,8.264l14.067-11.883L63.803,131.453z M91.174,131.26l-8.335,10.086l-10.571,10.736
			l11.925-4.945l6.642-10.738L91.174,131.26z"/>
	</g>
	<g>
		<rect x="21.037" y="174.756" fill="#FFC222" width="228.654" height="12.051"/>
		<path fill="#FFC222" d="M135.658,10.593c1.118-0.499,8.547-3.2,13.867-1.957c2.205,0.513,2.805,0.717,4.689,1.774
			c0,0-2.619,0.488-3.276,0.815c5.778,1.552,9.831,4.703,10.819,6.09c0,0-3.082-0.695-3.826-0.615
			c2.818,1.18,8.08,5.251,11.033,7.812c0,0-3.021-0.818-4.498-0.92c2.711,1.837-0.031-0.028,0.85,0.552
			c4.4,2.926,7.656,6.435,10.027,9.118c0,0-3.551-1.092-4.691-1.261c1.33,1.328,4.008,5.792,5.512,9.182
			c0,0-2.002-0.748-3.416-1.127c1.615,2.765,3.029,5.441,4.26,9.372c0,0-0.695-0.358-2.076-0.836
			c1.768,2.262,3.482,6.213,5.016,9.459l-2.414-0.443c0.445,0.72,1.561,2.364,2.721,3.53c1.264,1.268,3.613,2.676,3.613,2.676
			s-2.596,0.731-4.584,0.544c-1.469-0.13-3.459-0.709-4.166-0.998c1.148,1.286,3.758,4.215,8.301,6.294
			c0,0-2.844,2.487-10.449,0.776c-0.125,0.295,6.082,5.241,6.082,5.241c-4.746,1.261-11.459-1.809-12.938-2.673
			c0.369,0.896,1.154,2.22,1.527,2.813c3.738,5.971,6.529,8.198,9.754,10.77c1.844,1.472,3.754,2.993,5.918,5.275
			c7.557,7.942,10.717,13.13,14.213,23.442c5.227,3.463,10.43,7.225,11.707,15.158c0.258,1.594,0.35,2.992,0.35,4.264
			c0,1.773-0.182,3.279-0.357,4.674c-0.148,1.266-0.299,2.471-0.299,3.818c0,2.34,0.207,5.652,1.838,9.893l1.93,4.635
			c0,0-2.996-0.85-4.639-1.932c-1.025-0.666-2.174-1.83-2.412-2.023c0.467,1.846,0.885,4.35,1.738,7.051
			c0.508,1.607,1.703,3.943,1.703,3.943c-3.385-0.959-6.592-2.338-8.063-3.684c0.457,5.002,4.139,12.012,4.139,12.012
			c-2.9-0.666-6.84-3.072-7.639-3.955c0.736,2.176,1.357,4.662,2.707,7.436c0.834,1.719,2.418,4.258,2.418,4.258
			c-7.156-2.029-9.049-4.918-11.697-8.025c-0.158,1.752,0.967,5.803,0.967,5.803c-7.828-6.674-10.275-13.316-10.275-19.119
			c0-2.271,0.318-4.678,1.023-7.309c1.107-4.18,3.098-6.703,4.854-8.93c1.662-2.104,3.229-4.092,4.258-7.615
			c0.645-2.209,0.992-5.223,1.115-7.938c-2.139,3.366-5.109,7.356-8.559,10.149c-2.496,2.016-7.365,4.463-10.594,6.08l-1.344,0.674
			c-0.068,1.197-0.1,2.398-0.117,3.643c-0.021,1.58-0.045,3.225-0.182,4.898c-0.184,2.248-2.072,3.615-4.676,5.508
			c-2.049,1.486-4.596,3.338-6.742,5.908l-1.148,1.342c-0.547,0.641-0.85,0.998-1.063,1.314c-0.295,0.441-0.584,1.082-1.285,2.619
			l-0.609,1.346l-3.791,1.43l-1.568,6.924l-1.577,0.432c-2.753,0.762-11.438,1.18-14.725,0.369l-7.706,0.021l4.729-4.684
			c4.271-4.229,6.767-6.674,11.11-10.873c1.941-1.873,3.617-3.342,5.234-4.768c2.666-2.342,3.17-2.525,6.033-5.693
			c1.045-1.156,1.771-4.686-0.783-10.148c-2.279-4.867-3.406-7.074-4.879-12.869c-0.567-2.23-0.813-4.465-0.813-6.653
			c0-3.273,0.55-6.445,1.366-9.357l-0.188-0.158c-0.506-0.408-12.41-10.141-19.262-17.088c-7.429-7.538-10.183-11.187-14.078-20.843
			l-0.181-0.478c-2.025-0.505-3.735-1.211-5.402-1.917l-0.243-0.105c-3.916-1.644-6.461-3.706-8.925-5.694
			c-2.02-1.64-3.931-3.182-6.646-4.566c-1.435-0.734-2.705-1.444-3.939-2.132c-1.438-0.801-2.74-1.528-4.025-2.128l-1.099,0.471
			l-10.643,4.341l-1.175,5.093l-1.363,0.52c-2.166,0.829-3.526,1.177-5.831,1.482c-2.535,0.337-6.163,0.049-6.568,0.014
			l-4.874-0.404l8.783-11.995l0.564-0.773l0.757-0.285c0.026-0.01,1.976-0.758,4.061-1.595l-1.556-1.148l-5.761,2.589l-1.031-0.355
			c-2.12-0.734-3.384-1.395-5.204-2.697c-2.053-1.482-3.188-2.61-4.665-4.668l-2.642-3.674l4.477-0.639
			c7.571-1.079,12.206-1.152,19.81-0.316c6.17,0.671,9.646,1.651,15.402,3.274l0.272,0.077c2.259,0.636,3.992,1.317,5.667,1.984
			c1.911,0.759,3.72,1.472,6.157,2.02c4.345,0.976,6.983,1.328,11.008,1.394c1.068-2.034,2.088-3.516,3.783-5.536
			c2.181-2.606,4.322-4.007,6.391-5.367c1.219-0.805,2.481-1.63,3.82-2.747c2.517-2.111,3.964-3.368,6.263-5.458l0.028-0.067
			l-3.27,1.082l-6.719-0.548l-0.609,0.222l-2.851,3.835l-9.187-6.122l-1.567-4.113l2.675-6.171l2.945-1.215
			c4.364-3.365,7.178-5.097,12.243-7.531c3.309-1.595,6.187-2.729,8.295-3.555L135.658,10.593z"/>
	</g>
	<g>
		<path fill="#FFC222" d="M227.404,189.939c1.365-0.309,2.703-0.32,3.668-0.32h17.584v15.023h-2.609
			c3.146,2.037,3.635,5.002,3.635,8.307v5.525c-0.084,3.793-0.596,7.172-4.439,9.23c-1.934,1.055-3.951,1.174-6.09,1.174h-15.963
			h-1.867h-25.244h-2.561h-16.256v-1.805c-2.383,1.805-5.537,1.805-8.438,1.805h-17.023h-2.557h-13.436v-11.191l-5.46,10.029
			l-5.752-10.352v11.514h-15.85v-6.525c-0.246,1.004-0.64,1.977-1.25,2.865c-2.104,3.119-5.299,3.66-8.75,3.66h-8.063
			c-2.643-0.066-5.042-0.338-7.158-2.152c-0.453-0.383-0.833-0.799-1.149-1.23v3.383h-8.939c-4.342-0.061-7.322-0.879-7.396-5.979
			v-7.99h-0.362v13.969h-16.53v-1.887c-2.389,1.887-5.594,1.887-8.532,1.887H21.037v-12.051h2.289v-15.152h-2.289v-12.057h19.484
			c3.737,0,6.642,0.381,8.63,1.852v-1.852l20.388,0.004c4.387,0.096,7.288,1.055,8.948,3.307v-3.311h16.451h13.81h2.673h12.181
			l6.833,12.52l6.7-12.52h12.109h2.557h16.926c3.678,0,6.551,0.369,8.535,1.775v-1.775h16.256h2.561h26.578v3.24
			c0.16-0.197,0.336-0.398,0.525-0.594C224.482,190.93,225.984,190.26,227.404,189.939 M223.189,213.471h1.721
			c-0.516-0.32-1.02-0.725-1.508-1.221c-1.889-1.893-2.404-4.023-2.535-6.486h-4.004v6.635h6.326V213.471z M235.434,201.676h-0.359
			v1.379h0.359V201.676z M235.08,216.828h0.359v-2.006h-0.359V216.828z M179.494,210.541v-3.777
			c-0.32,0.738-0.752,1.398-1.318,1.979C178.742,209.287,179.17,209.887,179.494,210.541 M109.179,216.828h1.855v-15.152h-1.855
			V216.828z M51.343,206.662c-0.334,0.777-0.778,1.473-1.375,2.08c0.597,0.568,1.041,1.209,1.375,1.893V206.662z M80.723,216.828
			v-15.152H80.22c-0.063,2.648-0.409,5.311-2.358,7.326c0.118,0.127,0.239,0.26,0.356,0.404c1.727,2.148,1.823,4.584,1.871,6.133
			v1.289H80.723z M151.53,201.676h-1.964v15.152h1.964V201.676z M209.922,203.301l-0.064-1.625v1.625H209.922z M195.76,201.676
			h-1.971v15.152h1.971V201.676z"/>
		<path fill-rule="evenodd" clip-rule="evenodd" fill="#002B54" d="M40.472,219.279h-5.448v-7.256h5.448V219.279z M40.472,205.699
			h-5.448v-6.48h5.448V205.699z M23.489,199.219h2.287v20.061h-2.287v7.152h17.132c3.066,0,5.839,0,7.539-1.852
			c1.319-1.455,1.658-3.594,1.658-8.416c0-4.092-0.536-6.186-5.253-7.496c4.571-0.832,5.253-3.264,5.253-8.42
			c0-2.434-0.146-4.531-1.315-5.984c-1.75-2.191-5.158-2.191-7.979-2.191H23.489V199.219z"/>
		<path fill-rule="evenodd" clip-rule="evenodd" fill="#002B54" d="M68.491,206.033h-5.257v-6.814h5.257V206.033z M51.603,199.219
			h2.19v20.061h-2.19v7.152h11.631v-13.967h5.257v10.414c0.049,3.211,1.41,3.506,4.965,3.553h6.473v-7.152h-2.288v-3.699
			c-0.053-1.563-0.149-3.168-1.315-4.621c-1.017-1.219-2.236-1.514-3.455-1.807c4.867-1.605,4.916-4.619,4.916-9.146
			c0-2.244,0-4.48-1.848-6.186c-1.849-1.703-4.336-1.703-6.424-1.748H51.603V199.219z"/>
		<path fill="#002B54" d="M80.938,199.219h2.241v18.938c0,3.023,0.097,5.109,1.946,6.719c1.704,1.461,3.744,1.51,5.594,1.557h8.037
			c2.183,0,5.007-0.047,6.714-2.578c1.312-1.895,1.263-4.574,1.263-6.717v-17.918h2.241v-7.146H97.388v27.207h-4.819v-27.207h-11.63
			V199.219z"/>
		<path fill="#002B54" d="M111.197,192.072v7.146h2.289v20.061h-2.289v7.154h10.954v-16.309c0-1.166-0.051-1.359-0.1-2.385
			l8.277,14.893l8.03-14.744c-0.098,1.07-0.098,1.359-0.098,2.627v15.918h11.097v-7.154h-2.241v-20.061h2.241v-7.146h-10.755
			l-6.72,12.557c-0.682,1.311-0.876,1.703-1.507,3.066c-0.588-1.457-0.729-1.756-1.363-3.066l-6.862-12.557H111.197z"/>
		<path fill-rule="evenodd" clip-rule="evenodd" fill="#002B54" d="M168.68,219.279h-5.453v-7.256h5.453V219.279z M168.68,205.699
			h-5.453v-6.48h5.453V205.699z M151.693,199.219h2.287v20.061h-2.287v7.152h17.133c3.068,0,5.84,0,7.547-1.852
			c1.314-1.455,1.65-3.594,1.65-8.416c0-4.092-0.531-6.186-5.254-7.496c4.576-0.832,5.254-3.264,5.254-8.42
			c0-2.434-0.143-4.531-1.314-5.984c-1.748-2.191-5.156-2.191-7.98-2.191h-17.035V199.219z"/>
		<polygon fill="#002B54" points="179.713,199.219 181.949,199.219 181.949,219.279 179.713,219.279 179.713,226.432 
			193.631,226.432 193.631,219.279 191.342,219.279 191.342,199.219 193.631,199.219 193.631,192.072 179.713,192.072 		"/>
		<polygon fill="#002B54" points="195.971,199.219 198.207,199.219 198.207,219.279 195.971,219.279 195.971,226.432 
			220.746,226.432 220.746,214.854 212.371,214.854 212.371,219.279 207.408,219.279 207.408,212.072 214.418,212.072 
			214.418,205.742 207.408,205.742 207.408,199.219 212.371,199.219 212.371,203.314 220.207,203.314 220.207,192.072 
			195.971,192.072 		"/>
		<path fill="#002B54" d="M231.074,192.072c-1.949,0-4.332,0.041-6.135,1.896c-1.553,1.605-1.605,3.406-1.65,5.25v5.701
			c0.045,1.947,0.143,3.889,1.85,5.596c1.752,1.799,3.891,1.799,5.885,1.855h6.867v6.908h-5.258v-3.361h-8.859v10.516h15.381
			c1.699,0,3.311,0,4.914-0.881c3.113-1.65,3.113-4.77,3.166-7.102v-5.502c0-1.994,0-4.621-2.48-6.227
			c-1.754-1.174-3.945-1.174-5.846-1.215h-6.275v-6.289h5.258v2.977h8.318v-10.123H231.074z"/>
		<path fill-rule="evenodd" clip-rule="evenodd" fill="#002B54" d="M198.047,177.207c-3.287-2.824-5.027-5.357-6.756-9.666
			c-1.621-4.053-2.057-6.684-1.814-11.043c-0.625,2.213-0.863,3.508-1.084,5.809c-0.43,4.398-0.236,7.008,0.824,11.303
			c-4.316-7.076-5.996-12.896-3.857-20.908c1.957-7.334,6.758-8.49,9.096-16.479c1.785-6.098,1.768-18.96-0.387-16.287
			c0,0-4.865,10.299-11.408,15.596c-3.465,2.803-12.826,6.93-12.854,7.24c-0.33,3.414-0.111,6.639-0.387,9.957
			c-0.168,2.063-6.186,4.383-10.795,9.881c-1.359,1.627-1.926,2.223-2.377,2.895c-0.447,0.664-0.779,1.416-1.646,3.332l-4.111,1.547
			l-1.534,6.758l-0.272,0.066H198.047z M187.984,101.369c3.146,4.439,5.098,8.848,7.299,15.497
			c5.785,3.815,10.191,6.983,11.301,13.822c1.422,8.846-2.701,10.643,1.916,22.645c-1.914-1.484-2.688-2.209-3.84-4.102
			c-1.201-1.963-1.313-3.867-0.99-6.836c-0.605,2.207-0.811,3.502-0.906,5.789c-0.232,5.525,0.598,8.975,3.322,13.787
			c-1.797-1.266-2.707-2.246-3.84-4.131c-1.754-2.906-2.246-5.119-1.891-8.498c-1.648,3.637-2.115,6.07-1.908,10.061
			c0.232,4.607,1.186,7.412,3.82,11.209c-3.162-2.639-4.66-4.771-6.063-8.641c-1.227-3.369-1.484-5.568-1.09-9.133
			c-1.637,4.801-1.918,7.938-1.158,12.957c0.727,4.766,1.861,7.693,4.508,11.412h48.775v7.154H23.489v-7.154h112.134
			c4.081-4.451,7.545-7.541,11.916-11.777c4.648-4.496,9.184-7.281,10.529-11.764c1.979-6.592-3.385-10.137-6.71-23.203
			c-3.163-12.424,4.813-25.388,7.337-28.778c-2.162,1.37-2.9,2.181-4.33,3.973c-1.951,2.445-3.568,7.187-3.568,7.187
			s-6.984-5.697-13.344-11.472L187.984,101.369z"/>
		<path fill-rule="evenodd" clip-rule="evenodd" fill="#002B54" d="M84.82,57.691c-1.647-0.629-2.648-0.857-4.406-1.022
			c-1.646-0.158-4.241,0.14-4.241,0.14c-0.973,0.436-2.02,0.882-3.123,1.356c-2.763,1.187-7.155,2.87-7.155,2.87l-0.083,0.12
			l-5.899,8.047c0,0,3.672,0.313,5.982,0c2.079-0.271,3.258-0.569,5.212-1.324l1.171-5.051l11.898-4.854L84.82,57.691z
			 M135.594,20.487c-0.625,0.58-0.944,0.948-1.415,1.658l-0.718-1.658h-3.483c1.934-0.766,3.091-1.085,5.145-1.422
			c1.225-0.2,1.931-0.267,3.169-0.313C137.141,19.23,136.514,19.637,135.594,20.487 M137.453,101.369
			c-2.049-1.862-4.027-3.73-5.696-5.417c-7.436-7.545-9.813-10.836-13.493-19.944c0.34,0,0.688-0.014,1.124-0.042
			c2.803-0.197,4.443-0.671,6.92-1.995c-2.094,0.418-4.487,0.724-7.338,0.421c-3.24-0.333-5.499-1.328-8.001-2.381
			c-6.633-2.796-8.98-6.913-15.39-10.179c-6.38-3.252-10.023-6.382-17.179-6.449c-2.348-0.025-3.69,0.119-5.98,0.622l-4.665-3.425
			l-6.223,2.803c-1.872-0.653-2.901-1.188-4.506-2.339c-1.809-1.3-2.738-2.227-4.04-4.043c7.383-1.05,11.706-1.121,19.12-0.306
			c6.04,0.661,9.384,1.62,15.234,3.27c4.742,1.335,7.162,2.954,11.969,4.04c5.086,1.145,8.077,1.472,13.291,1.475
			c1.3-2.732,2.251-4.211,4.192-6.533c3.149-3.755,6.115-4.629,9.874-7.77c2.717-2.279,4.226-3.593,6.84-5.981l2.261-6.059
			l-8.173,2.719l-6.755-0.548l-1.947,0.703l-1.783,2.41l-6.296-4.194l-0.86-2.255l1.786-4.127l2.255-0.931
			c4.368-3.39,7.071-5.062,12.057-7.46c4.814-2.318,8.634-3.611,10.769-4.556c2.023-0.896,6.992-2.515,12.375-1.75
			c0,0-2.02,0.65-3.446,1.419c-1.446,0.78-1.837,1.391-2.007,1.5c1.686-0.119,3.021-0.66,4.589-0.615
			c3.058,0.099,4.874,0.98,7.976,2.582c-2.209-0.39-3.195-0.773-5.43-0.383c-1.208,0.214-2.453,0.541-3.524,1.285
			c3.458,0.653,4.606,0.292,7.841,1.686c3.063,1.324,4.736,2.266,7.463,4.194c-2.473-1.261-4.078-1.71-6.844-1.938
			c-1.693-0.144-2.672-0.109-4.35,0.158c5.123,1.1,8.02,2.318,12.395,5.202c2.686,1.767,3.922,2.88,6.145,5.202
			c0,0-5.857-3.787-10.236-4.38c-1.902-0.256-4.801,0.499-4.801,0.499c3.451,0.58,5.682,0.836,8.861,2.806
			c3.672,2.28,5.559,4.138,7.883,7.777c-2.707-2.624-5.088-3.67-8.854-3.892c-1.654-0.095-2.627-0.003-4.234,0.411
			c3.314,0.442,5.248,1.201,7.982,3.126c3.719,2.617,5.373,4.882,6.953,9.403c-2.441-2.778-4.51-4.046-8.027-5.191
			c-1.314-0.425-2.084-0.593-3.455-0.755c3.459,1.907,5.303,3.284,8.111,6.059c2.855,2.821,4.273,4.682,6.236,8.177
			c-2.832-2.434-4.594-3.656-7.873-5.448c-1.439-0.791-2.277-1.198-3.785-1.844c3.375,2.834,3.43,3.699,6.268,6.979
			c2.229,2.582,4.266,4.282,7.166,6.821c-2.836-0.408-4.453-0.927-6.994-2.251c-2.295-1.194-3.52-2.097-5.352-3.917
			c1.408,2.792,2.404,4.303,4.428,6.691c2.613,3.081,4.408,4.64,7.838,6.786c-3.586-0.39-5.691-1.138-8.707-3.112
			c-2.963-1.939-4.473-3.534-6.256-6.597c0.906,3.474,1.83,5.423,3.953,8.318c1.715,2.346,2.922,3.551,5.262,5.279
			c-3.09-0.762-4.842-1.697-7.205-3.825c-2.809-2.533-4.076-4.633-5.004-8.3c0.803,6.516,1.725,10.446,5.211,16.006
			c6.166,9.846,10.24,10.408,16.014,16.477c2.734,2.88,4.855,5.356,6.602,7.83L137.453,101.369z"/>
		<rect x="21.037" y="231.725" fill="#FFC222" width="69.155" height="12.055"/>
		<rect x="23.491" y="234.176" fill="#002B54" width="64.253" height="7.154"/>
		<rect x="180.221" y="231.725" fill="#FFC222" width="69.316" height="12.055"/>
		<rect x="182.668" y="234.176" fill="#002B54" width="64.422" height="7.154"/>
		<path fill-rule="evenodd" clip-rule="evenodd" fill="#002B54" d="M103.996,236.627h-1.844v-2.389h1.844V236.627z M98.078,234.238
			h0.764v7.029h-0.764v2.508h4.075v-4.896h1.844v3.652c0.018,1.125,0.494,1.23,1.739,1.244h2.271v-2.508h-0.803v-1.297
			c-0.016-0.543-0.051-1.102-0.462-1.619c-0.356-0.428-0.783-0.533-1.21-0.631c1.707-0.563,1.725-1.623,1.725-3.207
			c0-0.787,0-1.57-0.65-2.172c-0.648-0.594-1.516-0.594-2.248-0.607h-6.28V234.238z"/>
		<path fill="#002B54" d="M114.66,234.238h0.783v6.635c0,1.064,0.035,1.795,0.682,2.357c0.599,0.514,1.315,0.531,1.967,0.545h2.812
			c0.771,0,1.758-0.014,2.357-0.898c0.46-0.672,0.443-1.609,0.443-2.357v-6.281h0.783v-2.504h-4.062v9.533h-1.688v-9.533h-4.076
			V234.238z"/>
		<path fill="#002B54" d="M134.553,231.734c-0.973,0-1.997,0-2.592,0.879c-0.392,0.607-0.392,1.404-0.392,2.078v6.234
			c0,1.023,0.049,1.863,0.902,2.428c0.646,0.426,1.329,0.426,1.979,0.426h5.422v-7.289h-4.092v2.512h0.99v2.266h-1.878v-7.029h1.878
			v1.002h2.969v-3.506H134.553z"/>
		<path fill-rule="evenodd" clip-rule="evenodd" fill="#002B54" d="M153.371,241.268h-1.91v-2.543h1.91V241.268z M153.371,236.504
			h-1.91v-2.266h1.91V236.504z M147.416,234.238h0.801v7.029h-0.801v2.508h6.006c1.072,0,2.047,0,2.646-0.643
			c0.461-0.518,0.58-1.268,0.58-2.955c0-1.432-0.189-2.17-1.844-2.627c1.605-0.291,1.844-1.145,1.844-2.953
			c0-0.854-0.049-1.588-0.463-2.098c-0.615-0.766-1.805-0.766-2.797-0.766h-5.973V234.238z"/>
		<path fill="#002B54" d="M163.457,234.34h0.852l2.148,4.539v2.393h-0.832v2.508h4.859v-2.508h-0.834v-2.393l2.096-4.539h0.906
			v-2.605h-3.072l-1.195,3.004c-0.186,0.488-0.221,0.629-0.32,1.152c-0.07-0.404-0.104-0.541-0.24-0.984l-1.16-3.172h-3.207V234.34z
			"/>
	</g>
</g>
</svg>
