<?xml version="1.0" encoding="UTF-8" standalone="no"?>
<!-- Created with Inkscape (http://www.inkscape.org/) -->

<svg
   xmlns:dc="http://purl.org/dc/elements/1.1/"
   xmlns:cc="http://creativecommons.org/ns#"
   xmlns:rdf="http://www.w3.org/1999/02/22-rdf-syntax-ns#"
   xmlns:svg="http://www.w3.org/2000/svg"
   xmlns="http://www.w3.org/2000/svg"
   xmlns:sodipodi="http://sodipodi.sourceforge.net/DTD/sodipodi-0.dtd"
   xmlns:inkscape="http://www.inkscape.org/namespaces/inkscape"
   width="302"
   height="220.5"
   viewBox="0 0 302 220.5"
   id="svg16617"
   version="1.1"
   inkscape:version="0.91 r13725"
   sodipodi:docname="edinburgh rugby.svg">
  <defs
     id="defs16619">
    <clipPath
       id="clipPath15380"
       clipPathUnits="userSpaceOnUse">
      <path
         inkscape:connector-curvature="0"
         id="path15382"
         d="m 89.02,23.93 71.24,0 0,58.57 -71.24,0 0,-58.57 z" />
    </clipPath>
  </defs>
  <sodipodi:namedview
     id="base"
     pagecolor="#ffffff"
     bordercolor="#666666"
     borderopacity="1.0"
     inkscape:pageopacity="0.0"
     inkscape:pageshadow="2"
     inkscape:zoom="0.51598204"
     inkscape:cx="372.04724"
     inkscape:cy="526.1811"
     inkscape:document-units="px"
     inkscape:current-layer="layer1"
     showgrid="false"
     units="px"
     inkscape:window-width="1280"
     inkscape:window-height="744"
     inkscape:window-x="-4"
     inkscape:window-y="-4"
     inkscape:window-maximized="1" />
  <metadata
     id="metadata16622">
    <rdf:RDF>
      <cc:Work
         rdf:about="">
        <dc:format>image/svg+xml</dc:format>
        <dc:type
           rdf:resource="http://purl.org/dc/dcmitype/StillImage" />
        <dc:title></dc:title>
      </cc:Work>
    </rdf:RDF>
  </metadata>
  <g
     inkscape:label="Layer 1"
     inkscape:groupmode="layer"
     id="layer1"
     transform="translate(0,-831.86216)">
    <g
       id="g15376"
       transform="matrix(5.4070616,0,0,-5.4070616,-509.32388,1197.4774)">
      <g
         id="g15378"
         clip-path="url(#clipPath15380)">
        <g
           id="g15384"
           transform="translate(134.914,41.425)">
          <path
             d="m 0,0 c -6.243,-9.07 -18.804,-14.844 -25.507,-11.699 -6.734,3.158 -5.479,15.422 1.408,24.088 6.818,8.571 19.684,15.905 25.647,11.334 C 8.585,18.329 7.178,10.424 0,0"
             style="fill:#ffffff;fill-opacity:1;fill-rule:nonzero;stroke:none"
             id="path15386"
             inkscape:connector-curvature="0" />
        </g>
        <g
           id="g15388"
           transform="translate(117.797,61.837)">
          <path
             d="m 0,0 c -5.624,-4.429 -13.727,-11.964 -14.313,-24.653 0,0 3.383,12.965 12.356,21.073 7.239,6.542 15.945,8.212 20.574,4.416 5.588,-4.584 3.129,-15.539 -4.083,-24.26 -4.938,-5.974 -9.534,-7.95 -15.706,-8.666 -8.666,-1.006 -11.463,7.827 -11.463,7.827 -0.113,-6.933 3.563,-9.486 8.329,-9.614 2.941,-0.086 11.07,1.987 14.507,4.639 3.542,2.734 6.686,5.382 9.033,9.166 C 23.644,-12.936 25,-4.878 21.746,0 18.776,4.455 8.326,6.553 0,0"
             style="fill:#231f20;fill-opacity:1;fill-rule:nonzero;stroke:none"
             id="path15390"
             inkscape:connector-curvature="0" />
        </g>
        <g
           id="g15392"
           transform="translate(107.4,48.029)">
          <path
             d="m 0,0 c -2.012,-4.564 -3.132,-9.616 -3.132,-9.616 0,0 0.516,5.512 2.683,10.004 C 2.57,6.651 7.322,10.731 7.322,10.731 7.322,10.731 2.741,6.203 0,0"
             style="fill:#6c6e70;fill-opacity:1;fill-rule:nonzero;stroke:none"
             id="path15394"
             inkscape:connector-curvature="0" />
        </g>
        <g
           id="g15396"
           transform="translate(138.596,47.58)">
          <path
             d="m 0,0 c 1.796,4.65 2.459,8.44 2.459,8.44 0,0 -0.226,-4.58 -2.183,-9.166 -2.724,-6.397 -7.238,-10.517 -7.238,-10.517 0,0 4.51,4.919 6.962,11.243"
             style="fill:#6c6e70;fill-opacity:1;fill-rule:nonzero;stroke:none"
             id="path15398"
             inkscape:connector-curvature="0" />
        </g>
        <g
           id="g15400"
           transform="translate(117.825,44.283)">
          <path
             d="m 0,0 3.634,-0.031 0.697,2.602 1.718,0 0.66,-2.602 3.526,-0.024 -1.345,6.373 -0.644,0 0,-0.759 -0.835,0 0,0.74 -0.925,0 0,-0.709 -0.93,0 0,0.709 -0.83,0.019 0.009,-0.728 -0.95,0 0,0.709 -0.824,0 0,-0.709 -0.945,0 -0.005,0.728 -0.668,0 L 0,0 Z"
             style="fill:#231f20;fill-opacity:1;fill-rule:nonzero;stroke:none"
             id="path15402"
             inkscape:connector-curvature="0" />
        </g>
        <g
           id="g15404"
           transform="translate(117.46,44.252)">
          <path
             d="m 0,0 1.446,6.685 0.902,0 0.459,2.625 -0.71,0 0,-0.67 -0.519,0 -0.012,0.67 -0.827,0 -0.011,-0.67 -0.585,0 0.016,0.67 -0.801,0 0,-0.67 -0.579,0 0,0.67 -0.779,0 0.01,-0.67 -0.661,0 0,0.67 -0.803,0 L -3.446,7.781 -2.094,7.297 -5.813,0.057 0,0 Z"
             style="fill:#231f20;fill-opacity:1;fill-rule:nonzero;stroke:none"
             id="path15406"
             inkscape:connector-curvature="0" />
        </g>
        <g
           id="g15408"
           transform="translate(128.448,44.252)">
          <path
             d="m 0,0 -1.456,6.655 -0.976,0 -0.532,2.683 0.781,0 0,-0.698 0.588,0 0,0.67 0.812,0 0.005,-0.67 0.591,0 -0.008,0.698 0.808,0 0,-0.698 0.568,0 -0.008,0.67 0.81,0 0.01,-0.67 0.617,0 -0.013,0.698 0.812,0 L 3.416,7.801 2.095,7.24 4.608,0.031 0,0 Z"
             style="fill:#231f20;fill-opacity:1;fill-rule:nonzero;stroke:none"
             id="path15410"
             inkscape:connector-curvature="0" />
        </g>
        <g
           id="g15412"
           transform="translate(126.119,57.31)">
          <path
             d="m 0,0 -0.048,-1.485 -1.144,-0.558 0.796,-4.33 0.068,-0.788 -0.343,0 -0.005,0.788 -1.426,0 -0.024,-0.788 -0.297,0 0.011,0.788 -1.479,0 -0.004,-0.788 -0.279,0 0.002,0.788 -1.482,0 0.007,-0.788 -0.28,0 -0.006,0.788 -0.138,0 0.823,4.33 -1.174,0.624 0.015,1.419 0.532,0 0,-0.534 0.937,0 0.015,0.534 0.5,0 0.029,-0.534 0.923,0 0,0.534 0.545,0 0,-0.534 0.896,0 -0.015,0.534 0.628,0 -0.016,-0.534 0.87,0 0,0.534 L 0,0 Z"
             style="fill:#231f20;fill-opacity:1;fill-rule:nonzero;stroke:none"
             id="path15414"
             inkscape:connector-curvature="0" />
        </g>
        <g
           id="g15416"
           transform="translate(122.344,60.941)">
          <path
             d="M 0,0 0.373,-3.411 0.093,0.085 0,0 Z"
             style="fill:#231f20;fill-opacity:1;fill-rule:nonzero;stroke:none"
             id="path15418"
             inkscape:connector-curvature="0" />
        </g>
        <g
           id="g15420"
           transform="translate(116.802,56.776)">
          <path
             d="M 0,0 0.344,-3.102 0.083,0 0,0 Z"
             style="fill:#231f20;fill-opacity:1;fill-rule:nonzero;stroke:none"
             id="path15422"
             inkscape:connector-curvature="0" />
        </g>
        <g
           id="g15424"
           transform="translate(128.295,56.776)">
          <path
             d="M 0,0 0.321,-2.963 0.055,0 0,0 Z"
             style="fill:#231f20;fill-opacity:1;fill-rule:nonzero;stroke:none"
             id="path15426"
             inkscape:connector-curvature="0" />
        </g>
        <g
           id="g15428"
           transform="translate(123.946,57.476)">
          <path
             d="m 0,0 c 0.143,0.081 0.53,0.501 0.559,0.924 0.029,0.42 0.056,0.975 -0.169,1.228 -0.222,0.25 -0.615,0.309 -1.005,0.559 -0.391,0.252 -0.78,0.754 -0.78,0.754 0,0 0.112,-0.865 0.112,-1.258 l 0,-0.863 c 0,0 0.751,-0.369 0.975,-0.7 0.226,-0.338 0.196,-0.532 0.196,-0.532 L 0,0"
             style="fill:#d71920;fill-opacity:1;fill-rule:nonzero;stroke:none"
             id="path15430"
             inkscape:connector-curvature="0" />
        </g>
        <g
           id="g15432"
           transform="translate(129.672,53.733)">
          <path
             d="m 0,0 c 0.114,0.071 0.437,0.414 0.461,0.758 0.021,0.344 0.047,0.806 -0.137,1.006 -0.182,0.21 -0.506,0.253 -0.832,0.461 -0.318,0.207 -0.639,0.621 -0.639,0.621 0,0 0.093,-0.713 0.093,-1.035 l 0,-0.709 c 0,0 0.618,-0.3 0.804,-0.574 0.18,-0.276 0.159,-0.437 0.159,-0.437 L 0,0"
             style="fill:#d71920;fill-opacity:1;fill-rule:nonzero;stroke:none"
             id="path15434"
             inkscape:connector-curvature="0" />
        </g>
        <g
           id="g15436"
           transform="translate(118.188,53.816)">
          <path
             d="m 0,0 c 0.115,0.071 0.435,0.413 0.458,0.758 0.023,0.345 0.047,0.803 -0.136,1.01 -0.185,0.206 -0.505,0.251 -0.827,0.458 -0.321,0.208 -0.644,0.62 -0.644,0.62 0,0 0.092,-0.709 0.092,-1.032 l 0,-0.711 c 0,0 0.621,-0.298 0.806,-0.573 0.177,-0.276 0.16,-0.436 0.16,-0.436 L 0,0"
             style="fill:#d71920;fill-opacity:1;fill-rule:nonzero;stroke:none"
             id="path15438"
             inkscape:connector-curvature="0" />
        </g>
        <g
           id="g15440"
           transform="translate(122.464,53.506)">
          <path
             d="m 0,0 0.95,0 0,1.398 c 0,0 -0.11,0.168 -0.5,0.168 C 0.056,1.566 0,1.342 0,1.342 L 0,0"
             style="fill:#ffffff;fill-opacity:1;fill-rule:nonzero;stroke:none"
             id="path15442"
             inkscape:connector-curvature="0" />
        </g>
        <g
           id="g15444"
           transform="translate(130.786,38.15)">
          <path
             d="M 0,0 C 0,0 14.983,16.103 6.634,24.674 1.779,29.659 -8.998,25.97 -16.873,19.16 -22.734,14.089 -26.32,9.115 -27.354,2.982 c -0.824,-4.843 1.328,-9.473 1.328,-9.473 -3.716,6.047 -3.372,11.771 3.138,21.103 C -15.5,25.19 -1.136,32.496 6.558,27.88 14.254,23.26 10.137,9.689 0,0"
             style="fill:#d71920;fill-opacity:1;fill-rule:nonzero;stroke:none"
             id="path15446"
             inkscape:connector-curvature="0" />
        </g>
        <g
           id="g15448"
           transform="translate(114.462,56.042)">
          <path
             d="m 0,0 c 0,0 -14.761,-16.103 -6.099,-24.532 4.748,-4.622 15.642,-1.099 23.435,5.815 5.8,5.141 9.868,11.413 10.839,17.823 0.732,4.858 -2.012,7.938 -2.012,7.938 C 30.634,2.535 29.741,-5.293 23.258,-14.463 15.805,-24.996 1.344,-32.056 -5.981,-27.737 -13.717,-23.178 -10.014,-9.819 0,0"
             style="fill:#d71920;fill-opacity:1;fill-rule:nonzero;stroke:none"
             id="path15450"
             inkscape:connector-curvature="0" />
        </g>
        <g
           id="g15452"
           transform="translate(94.381,32.402)">
          <path
             d="m 0,0 53.296,0 2.187,12.03 -53.144,0 L 0,0 Z"
             style="fill:#d71920;fill-opacity:1;fill-rule:nonzero;stroke:none"
             id="path15454"
             inkscape:connector-curvature="0" />
        </g>
        <g
           id="g15456"
           transform="translate(94.819,32.672)">
          <path
             d="m 0,0 52.59,0 2.14,11.442 -52.438,0 L 0,0 Z"
             style="fill:#ffffff;fill-opacity:1;fill-rule:nonzero;stroke:none"
             id="path15458"
             inkscape:connector-curvature="0" />
        </g>
        <g
           id="g15460"
           transform="translate(146.215,33.156)">
          <path
             d="m 0,0 -50.093,0 2.09,10.436 50.091,0 L 0,0 Z"
             style="fill:#231f20;fill-opacity:1;fill-rule:nonzero;stroke:none"
             id="path15462"
             inkscape:connector-curvature="0" />
        </g>
        <g
           id="g15464"
           transform="translate(100.918,41.528)">
          <path
             d="m 0,0 3.404,-0.003 -0.176,-0.863 -1.593,0 -0.407,-1.87 1.408,0 -0.158,-0.824 -1.413,0.005 -0.536,-2.387 1.638,-0.003 -0.149,-0.861 -3.447,0 L 0,0 Z"
             style="fill:#ffffff;fill-opacity:1;fill-rule:nonzero;stroke:none"
             id="path15466"
             inkscape:connector-curvature="0" />
        </g>
        <g
           id="g15468"
           transform="translate(107.482,40.535)">
          <path
             d="m 0,0 c 0.083,-0.052 0.026,-0.336 -0.028,-0.614 -0.02,-0.085 -0.02,-0.168 -0.083,-0.475 L -0.697,-3.77 C -0.793,-4.226 -0.863,-4.512 -0.894,-4.64 -0.95,-4.86 -1.161,-4.946 -1.425,-4.946 l 1.032,5.031 C -0.193,0.085 -0.065,0.043 0,0 m -3.433,-5.842 1.927,0.026 c 0.434,0 0.763,0.023 0.99,0.067 0.224,0.048 0.542,0.128 0.715,0.244 0.305,0.211 0.471,0.309 0.583,0.645 0.074,0.215 0.151,0.533 0.28,1.145 l 0.477,2.292 c 0.135,0.641 0.245,1.036 0.25,1.255 C 1.794,0.054 1.772,0.268 1.65,0.449 1.525,0.629 1.297,0.816 1.007,0.893 0.713,0.975 -0.131,0.986 -1.008,0.986 l -0.996,-0.028 -1.429,-6.8"
             style="fill:#ffffff;fill-opacity:1;fill-rule:nonzero;stroke:none"
             id="path15470"
             inkscape:connector-curvature="0" />
        </g>
        <g
           id="g15472"
           transform="translate(112.587,41.518)">
          <path
             d="m 0,0 -1.427,-6.802 -1.754,0 L -1.754,0 0,0 Z"
             style="fill:#ffffff;fill-opacity:1;fill-rule:nonzero;stroke:none"
             id="path15474"
             inkscape:connector-curvature="0" />
        </g>
        <g
           id="g15476"
           transform="translate(118.347,41.513)">
          <path
             d="m 0,0 -1.429,-6.803 -1.75,0.012 -0.474,3.493 -0.84,-3.493 -1.43,-0.006 1.43,6.8 1.931,0.027 0.446,-3.078 0.699,3.051 L 0,0 Z"
             style="fill:#ffffff;fill-opacity:1;fill-rule:nonzero;stroke:none"
             id="path15478"
             inkscape:connector-curvature="0" />
        </g>
        <g
           id="g15480"
           transform="translate(121.544,40.591)">
          <path
             d="M 0,0 C 0.056,-0.021 0.14,-0.108 0.113,-0.251 0.072,-0.449 0.016,-0.735 -0.03,-0.951 -0.114,-1.355 -0.101,-1.367 -0.168,-1.453 -0.237,-1.54 -0.196,-1.703 -0.422,-1.79 l -0.251,-0.024 0.31,1.843 C -0.175,0.027 -0.063,0.022 0,0 m -3.306,-5.881 1.344,-0.004 c 0.737,0 1.143,0.056 1.4,0.101 0.342,0.063 0.587,0.162 0.813,0.307 0.258,0.165 0.49,0.352 0.587,0.813 l 0.224,0.975 c 0.091,0.444 0.217,0.739 0.111,0.952 -0.104,0.214 -0.441,0.439 -0.84,0.53 0.394,0.081 0.56,0.168 0.869,0.393 0.18,0.133 0.251,0.522 0.333,0.919 0.123,0.588 0.266,0.882 0.142,1.148 -0.129,0.263 -0.393,0.5 -0.67,0.584 -0.28,0.09 -1.249,0.082 -1.824,0.082 l -1.061,0.003 -1.428,-6.803 z m 2.774,3.174 c 0.054,-0.063 0.061,-0.184 0,-0.477 L -0.726,-4.22 c -0.06,-0.273 -0.11,-0.572 -0.198,-0.639 -0.086,-0.072 -0.155,-0.136 -0.419,-0.143 l 0.419,2.376 c 0.274,-0.008 0.34,-0.02 0.392,-0.081"
             style="fill:#ffffff;fill-opacity:1;fill-rule:nonzero;stroke:none"
             id="path15482"
             inkscape:connector-curvature="0" />
        </g>
        <g
           id="g15484"
           transform="translate(129.005,41.516)">
          <path
             d="m 0,0 -1.033,-5.172 c -0.105,-0.516 -0.174,-0.686 -0.251,-0.893 -0.08,-0.21 -0.279,-0.393 -0.588,-0.561 -0.269,-0.148 -0.839,-0.206 -1.23,-0.251 -0.319,-0.035 -0.157,0 -0.531,0 -0.417,0 -0.33,0.045 -0.67,0.113 -0.28,0.055 -0.502,0.165 -0.756,0.389 -0.185,0.163 -0.272,0.406 -0.25,0.642 0.023,0.24 0.119,0.607 0.278,1.373 l 0.922,4.354 1.763,0 -1.093,-5.194 c -0.055,-0.195 -0.109,-0.453 -0.082,-0.533 0.056,-0.166 0.209,-0.247 0.307,-0.223 0.074,0.021 0.168,0.038 0.225,0.15 0.082,0.166 0.11,0.376 0.166,0.606 L -1.702,-0.009 0,0"
             style="fill:#ffffff;fill-opacity:1;fill-rule:nonzero;stroke:none"
             id="path15486"
             inkscape:connector-curvature="0" />
        </g>
        <g
           id="g15488"
           transform="translate(132.409,40.535)">
          <path
             d="m 0,0 c 0.062,-0.067 -0.125,-0.714 -0.172,-0.93 l -0.09,-0.41 C -0.326,-1.641 -0.411,-1.621 -0.507,-1.674 -0.6,-1.729 -0.655,-1.696 -0.859,-1.696 l 0.391,1.808 C -0.256,0.112 -0.065,0.07 0,0 m -3.505,-5.834 1.788,0 0.671,3.226 c 0.249,0 0.464,-0.005 0.501,-0.092 0.041,-0.088 -0.405,-2.527 -0.482,-2.888 l 0.115,-0.246 1.785,0 -0.109,0.284 -0.02,0.354 c 0.114,0.547 0.368,2.056 0.391,2.18 0.057,0.316 -0.063,0.491 -0.188,0.616 -0.149,0.147 -0.329,0.21 -0.67,0.296 0.403,0.034 0.816,0.265 0.987,0.448 0.176,0.18 0.226,0.308 0.335,0.838 C 1.723,-0.24 1.79,0.145 1.654,0.41 1.524,0.677 1.033,0.887 0.744,0.953 0.454,1.017 -0.591,0.967 -1.448,0.967 l -0.645,0 -1.412,-6.801"
             style="fill:#ffffff;fill-opacity:1;fill-rule:nonzero;stroke:none"
             id="path15490"
             inkscape:connector-curvature="0" />
        </g>
        <g
           id="g15492"
           transform="translate(139.266,39.1)">
          <path
             d="m 0,0 -1.546,0 0.149,0.803 c 0.078,0.39 0.106,0.513 0.091,0.615 C -1.32,1.513 -1.435,1.547 -1.565,1.547 -1.682,1.547 -1.785,1.5 -1.846,1.418 -1.903,1.332 -1.978,0.947 -2.048,0.596 l -0.674,-3.222 c -0.065,-0.307 -0.133,-0.553 -0.109,-0.651 0.018,-0.097 -0.108,-0.225 0.018,-0.225 l 0.202,0 c 0.112,0 0.269,-0.055 0.336,0.263 l 0.211,1.139 -0.322,0.015 0.223,1.025 1.938,0 -0.709,-3.353 -0.817,0 -0.171,0.315 c -0.166,-0.209 -0.721,-0.363 -0.97,-0.373 -0.232,-0.008 -0.265,-0.052 -0.521,-0.038 -0.332,0.02 -0.519,0.096 -0.709,0.186 -0.246,0.125 -0.255,0.151 -0.406,0.357 -0.136,0.186 -0.109,0.382 -0.094,0.611 0.014,0.236 0.066,0.448 0.167,0.915 l 0.45,2.087 c 0.134,0.652 0.233,1.474 0.369,1.771 0.134,0.295 0.223,0.501 0.615,0.744 0.394,0.248 0.821,0.3 1.36,0.3 0.535,0 1.223,-0.03 1.53,-0.244 C 0.172,2.004 0.214,1.879 0.26,1.585 0.303,1.294 0.152,0.802 0.037,0.242 L 0,0"
             style="fill:#ffffff;fill-opacity:1;fill-rule:nonzero;stroke:none"
             id="path15494"
             inkscape:connector-curvature="0" />
        </g>
        <g
           id="g15496"
           transform="translate(145.061,41.491)">
          <path
             d="m 0,0 -1.425,-6.798 -1.761,0 0.679,3.266 -0.538,0 -0.685,-3.272 -1.746,0.006 1.425,6.804 1.738,-0.004 -0.549,-2.669 0.504,0 0.549,2.669 L 0,0 Z"
             style="fill:#ffffff;fill-opacity:1;fill-rule:nonzero;stroke:none"
             id="path15498"
             inkscape:connector-curvature="0" />
        </g>
      </g>
    </g>
  </g>
</svg>
