<?xml version="1.0" encoding="UTF-8" standalone="no"?>
<!-- Created with Inkscape (http://www.inkscape.org/) -->

<svg
   xmlns:dc="http://purl.org/dc/elements/1.1/"
   xmlns:cc="http://creativecommons.org/ns#"
   xmlns:rdf="http://www.w3.org/1999/02/22-rdf-syntax-ns#"
   xmlns:svg="http://www.w3.org/2000/svg"
   xmlns="http://www.w3.org/2000/svg"
   xmlns:sodipodi="http://sodipodi.sourceforge.net/DTD/sodipodi-0.dtd"
   xmlns:inkscape="http://www.inkscape.org/namespaces/inkscape"
   width="187.5"
   height="154"
   viewBox="0 0 187.5 154"
   id="svg24812"
   version="1.1"
   inkscape:version="0.91 r13725"
   sodipodi:docname="munster rugby.svg">
  <defs
     id="defs24814">
    <clipPath
       id="clipPath24018"
       clipPathUnits="userSpaceOnUse">
      <path
         inkscape:connector-curvature="0"
         id="path24020"
         d="m 34.016,682.807 157.572,0 0,126.484 -157.572,0 0,-126.484 z" />
    </clipPath>
  </defs>
  <sodipodi:namedview
     id="base"
     pagecolor="#ffffff"
     bordercolor="#666666"
     borderopacity="1.0"
     inkscape:pageopacity="0.0"
     inkscape:pageshadow="2"
     inkscape:zoom="0.51598204"
     inkscape:cx="372.04724"
     inkscape:cy="526.1811"
     inkscape:document-units="px"
     inkscape:current-layer="layer1"
     showgrid="false"
     units="px"
     inkscape:window-width="1280"
     inkscape:window-height="744"
     inkscape:window-x="-4"
     inkscape:window-y="-4"
     inkscape:window-maximized="1" />
  <metadata
     id="metadata24817">
    <rdf:RDF>
      <cc:Work
         rdf:about="">
        <dc:format>image/svg+xml</dc:format>
        <dc:type
           rdf:resource="http://purl.org/dc/dcmitype/StillImage" />
        <dc:title></dc:title>
      </cc:Work>
    </rdf:RDF>
  </metadata>
  <g
     inkscape:label="Layer 1"
     inkscape:groupmode="layer"
     id="layer1"
     transform="translate(0,-898.36216)">
    <g
       id="g24014"
       transform="matrix(1.25,0,0,-1.25,-52.93907,1909.846)">
      <g
         id="g24016"
         clip-path="url(#clipPath24018)">
        <g
           id="g24022"
           transform="translate(145.0838,710.0704)">
          <path
             d="m 0,0 c -28.723,-22.153 -67.823,-27.263 -87.325,-11.407 -19.501,15.85 -12.03,46.661 16.692,68.817 28.723,22.153 67.82,27.259 87.329,11.408 C 36.193,52.966 28.72,22.155 0,0"
             style="fill:#ffe14f;fill-opacity:1;fill-rule:nonzero;stroke:none"
             id="path24024"
             inkscape:connector-curvature="0" />
        </g>
        <g
           id="g24026"
           transform="translate(142.486,708.018)">
          <path
             d="M 0,0 C -27.118,-19.725 -63.154,-23.638 -80.489,-8.73 -97.824,6.178 -89.895,34.256 -62.778,53.987 -35.663,73.718 0.372,77.628 17.708,62.72 35.043,47.811 27.114,19.732 0,0"
             style="fill:#002d6a;fill-opacity:1;fill-rule:nonzero;stroke:none"
             id="path24028"
             inkscape:connector-curvature="0" />
        </g>
        <g
           id="g24030"
           transform="translate(59.1105,698.7655)">
          <path
             d="m 0,0 c -18.032,15.495 -9.742,44.736 18.517,65.306 28.257,20.574 65.782,24.688 83.813,9.19 12.531,-10.769 12.341,-28.17 1.584,-44.691 13.84,18.755 14.882,39.29 0.397,51.783 C 84.744,98.455 44.296,94.285 13.964,72.269 -16.367,50.253 -25.095,18.737 -5.535,1.869 -0.547,-2.433 5.805,-5.358 12.996,-6.977 8.036,-5.42 3.62,-3.113 0,0"
             style="fill:#ffe14f;fill-opacity:1;fill-rule:nonzero;stroke:none"
             id="path24032"
             inkscape:connector-curvature="0" />
        </g>
        <g
           id="g24034"
           transform="translate(79.9937,737.8564)">
          <path
             d="m 0,0 c 0,0 -0.365,-0.773 -1.05,-0.636 -0.581,0.119 -0.498,0.734 -0.498,0.734 L -1.572,6.472 -3.871,0.42 c 0,0 -0.321,-0.773 -1.005,-0.726 -0.498,0.035 -0.679,0.731 -0.679,0.731 l -0.936,6.85 -1.115,-6.798 c 0,0 -0.138,-0.546 -0.639,-0.684 -0.706,-0.188 -0.956,0.735 -0.956,0.735 l -2.074,5.976 -0.113,-6.24 c 0,0 -0.093,-0.682 -0.64,-0.725 -0.733,-0.062 -1.09,0.778 -1.09,0.778 l -2.506,5.241 1.158,-7.436 -0.33,-5.721 L 1.393,-7.653 1.097,-2.02 2.244,5.456 0,0 Z"
             style="fill:#ffe14f;fill-opacity:1;fill-rule:nonzero;stroke:none"
             id="path24036"
             inkscape:connector-curvature="0" />
        </g>
        <g
           id="g24038"
           transform="translate(81.1406,732.6893)">
          <path
             d="m 0,0 -15.675,0 c -0.513,0 -0.929,0.416 -0.929,0.929 0,0.513 0.416,0.929 0.929,0.929 L 0,1.858 C 0.513,1.858 0.929,1.442 0.929,0.929 0.929,0.416 0.513,0 0,0"
             style="fill:#002d6a;fill-opacity:1;fill-rule:nonzero;stroke:none"
             id="path24040"
             inkscape:connector-curvature="0" />
        </g>
        <g
           id="g24042"
           transform="translate(101.4661,737.8564)">
          <path
             d="m 0,0 c 0,0 -0.366,-0.773 -1.048,-0.636 -0.584,0.119 -0.499,0.734 -0.499,0.734 L -1.574,6.472 -3.873,0.42 c 0,0 -0.319,-0.773 -1.004,-0.726 -0.496,0.035 -0.678,0.731 -0.678,0.731 l -0.936,6.85 -1.115,-6.798 c 0,0 -0.138,-0.546 -0.638,-0.684 C -8.95,-0.395 -9.2,0.528 -9.2,0.528 l -2.075,5.976 -0.111,-6.24 c 0,0 -0.098,-0.682 -0.643,-0.725 -0.731,-0.062 -1.088,0.778 -1.088,0.778 l -2.508,5.241 1.157,-7.436 -0.327,-5.721 L 1.392,-7.653 1.098,-2.02 2.244,5.456 0,0 Z"
             style="fill:#ffe14f;fill-opacity:1;fill-rule:nonzero;stroke:none"
             id="path24044"
             inkscape:connector-curvature="0" />
        </g>
        <g
           id="g24046"
           transform="translate(89.9287,719.589)">
          <path
             d="m 0,0 c 0,0 -0.366,-0.774 -1.048,-0.634 -0.583,0.117 -0.498,0.733 -0.498,0.733 L -1.574,6.474 -3.872,0.42 c 0,0 -0.319,-0.773 -1.005,-0.725 -0.496,0.036 -0.678,0.73 -0.678,0.73 L -6.49,7.276 -7.607,0.477 c 0,0 -0.136,-0.544 -0.637,-0.683 -0.706,-0.187 -0.957,0.734 -0.957,0.734 l -2.073,5.978 -0.113,-6.24 c 0,0 -0.096,-0.686 -0.641,-0.727 -0.732,-0.06 -1.09,0.778 -1.09,0.778 l -2.506,5.243 1.157,-7.438 -0.327,-5.721 L 1.393,-7.651 1.097,-2.018 2.245,5.457 0,0 Z"
             style="fill:#ffe14f;fill-opacity:1;fill-rule:nonzero;stroke:none"
             id="path24048"
             inkscape:connector-curvature="0" />
        </g>
        <g
           id="g24050"
           transform="translate(159.9954,804.1079)">
          <path
             d="M 0,0 6.722,-1.383 6.297,3.446 c 0,0 0.277,1.405 1.34,0.064 l 5.232,-9.594 6.513,8.02 c 0,0 0.425,0.489 0.806,0.191 l 0.595,-0.575 c 0,0 0.277,-0.211 -0.253,-0.978 0,0 -2.064,-3.532 -0.595,-6.678 0,0 2.275,1.381 7.701,-0.384 0,0 3.913,-1.298 3.934,-2.254 0,0 0.022,-0.767 -1.042,-0.361 0,0 -5.465,1.424 -9.104,-4.512 0,0 -2.638,-3.87 -0.911,-5.317 0,0 1.145,-1.235 4.463,-1.872 0,0 0.532,0.022 0.49,-0.638 0,0 0.128,-0.617 -0.446,-0.701 0,0 -2.915,-0.022 -4.679,-1.214 0,0 -2.49,-1.34 -3.765,-4.275 0,0 2.742,-1.808 3.04,-2.255 0,0 0.574,-0.468 -0.15,-0.851 0,0 -6.556,-0.723 -6.787,-0.872 0,0 -2.746,-0.638 -0.831,-3.423 l 14.316,3.615 c 0,0 0.197,0.214 0.729,-0.34 l 0.444,-0.448 c 0,0 0.299,-0.489 -0.189,-0.744 l -0.491,-0.254 -13.551,-7.149 c 0,0 -5.872,-0.384 -7.551,-0.936 0,0 -1.34,-0.256 -1.47,-1.723 0,0 1.489,-0.702 8.214,0.509 0,0 0.38,0.13 0.701,-0.466 0,0 0.809,-0.747 0.296,-1.107 l -16.039,-5.446 c 0,0 0.487,1.147 -1.299,1.488 0,0 -2.356,0.66 -6.971,-1.319 0,0 -0.553,-0.042 -0.892,0.767 l 1.404,3.977 c 0,0 10.506,4.812 16.716,14.081 0,0 10.647,13.322 -3.15,26.601 0,0 -2.067,1.983 -3.513,2.963 0,0 -0.42,0.421 -0.096,0.809 0,0 0.206,0.245 0.544,0.155"
             style="fill:#002d6a;fill-opacity:1;fill-rule:nonzero;stroke:none"
             id="path24052"
             inkscape:connector-curvature="0" />
        </g>
        <g
           id="g24054"
           transform="translate(119.1957,763.3322)">
          <path
             d="m 0,0 c 0,0 6.274,-5.074 8.453,-6.859 0.798,-0.069 1.835,-0.256 3.118,-0.666 0.322,0.432 0.45,1.265 0.145,2.77 l 1.757,-0.135 -0.491,1.391 c 0,0 -10.507,4.811 -16.715,14.081 0,0 -10.65,13.322 3.147,26.6 0,0 2.069,1.983 3.513,2.964 0,0 0.422,0.421 0.097,0.809 0,0 -0.206,0.246 -0.544,0.155 l -6.723,-1.383 0.426,4.829 c 0,0 -0.276,1.403 -1.341,0.064 l -5.232,-9.594 -6.511,8.019 c 0,0 -0.425,0.489 -0.809,0.191 l -0.594,-0.574 c 0,0 -0.277,-0.213 0.255,-0.979 0,0 2.063,-3.531 0.595,-6.679 0,0 -2.278,1.383 -7.701,-0.382 0,0 -3.915,-1.299 -3.936,-2.255 0,0 -0.021,-0.767 1.043,-0.361 0,0 5.466,1.424 9.104,-4.51 0,0 2.636,-3.871 0.914,-5.319 0,0 -1.149,-1.232 -4.468,-1.871 0,0 -0.532,0.021 -0.489,-0.638 0,0 -0.126,-0.618 0.447,-0.701 0,0 2.914,-0.023 4.68,-1.214 0,0 2.49,-1.339 3.766,-4.275 0,0 -2.743,-1.808 -3.042,-2.256 0,0 -0.574,-0.467 0.149,-0.851 0,0 6.554,-0.723 6.788,-0.871 0,0 2.744,-0.639 0.83,-3.425 l -11.587,2.689 c 0,0 -0.015,0.165 -0.547,-0.389 l -0.389,-0.476 c 0,0 -0.644,-0.389 -0.154,-0.646 0.489,-0.254 0.419,-0.203 0.419,-0.203 l 11,-6.294 c 0,0 5.872,-0.382 7.552,-0.936 0,0 1.34,-0.255 1.47,-1.723 0,0 -1.491,-0.702 -8.213,0.51 0,0 -0.382,0.13 -0.701,-0.467 0,0 -0.809,-0.745 -0.299,-1.106 L -0.03,-6.629 C -0.773,-4.744 -0.968,-2.517 0,0"
             style="fill:#002d6a;fill-opacity:1;fill-rule:nonzero;stroke:none"
             id="path24056"
             inkscape:connector-curvature="0" />
        </g>
        <g
           id="g24058"
           transform="translate(130.3058,734.027)">
          <path
             d="m 0,0 c -5.079,2.448 -5.138,13.188 -5.138,13.644 l 1.156,0 C -3.982,13.54 -3.926,3.175 0.502,1.04 L 0,0 Z"
             style="fill:#ffe14f;fill-opacity:1;fill-rule:nonzero;stroke:none"
             id="path24060"
             inkscape:connector-curvature="0" />
        </g>
        <g
           id="g24062"
           transform="translate(148.7139,726.418)">
          <path
             d="m 0,0 c 0,0 0.16,-17.991 -13.73,-34.724 l 0.789,-5.051 c 0,0 17.675,23.518 12.941,39.775"
             style="fill:#ffe14f;fill-opacity:1;fill-rule:nonzero;stroke:none"
             id="path24064"
             inkscape:connector-curvature="0" />
        </g>
        <g
           id="g24066"
           transform="translate(115.5054,731.3802)">
          <path
             d="m 0,0 1.809,1.744 c 0,0 9.509,-24.779 1.229,-35.897 0,0 7.927,13.111 -3.038,34.153"
             style="fill:#ffe14f;fill-opacity:1;fill-rule:nonzero;stroke:none"
             id="path24068"
             inkscape:connector-curvature="0" />
        </g>
        <g
           id="g24070"
           transform="translate(115.5054,730.8796)">
          <path
             d="M 0,0 C 0.231,0.223 1.846,1.627 1.815,1.712 2.015,1.18 2.201,0.641 2.385,0.102 3.321,-2.643 4.096,-5.444 4.751,-8.268 5.84,-12.96 6.553,-17.82 6.324,-22.644 6.217,-24.914 5.796,-27.157 5.06,-29.305 4.761,-30.176 4.355,-31.003 3.913,-31.81 3.65,-32.289 3.089,-34.071 3.094,-34.061 4.995,-30.734 5.609,-26.6 5.815,-22.841 6.269,-14.505 3.773,-6.372 0.013,0.984 0.076,0.86 -0.14,0.266 -0.013,0.018 c 4.047,-7.919 6.75,-16.809 5.394,-25.768 -0.376,-2.488 -1.049,-5.226 -2.356,-7.419 -0.131,-0.22 0.087,-0.881 0.027,-0.966 4.071,5.713 3.852,13.674 2.924,20.324 C 5.195,-8.207 3.842,-2.567 1.822,2.728 1.817,2.733 1.813,2.74 1.809,2.746 1.206,2.164 0.603,1.583 0,1.002 -0.198,0.811 0.12,0.115 0,0"
             style="fill:#ffe14f;fill-opacity:1;fill-rule:nonzero;stroke:none"
             id="path24072"
             inkscape:connector-curvature="0" />
        </g>
        <g
           id="g24074"
           transform="translate(132.2063,747.9128)">
          <path
             d="m 0,0 c 0,0 2.636,-1.321 4.005,-2.689 0,0 -5.667,-0.16 -4.005,2.689"
             style="fill:#ffe14f;fill-opacity:1;fill-rule:nonzero;stroke:none"
             id="path24076"
             inkscape:connector-curvature="0" />
        </g>
        <g
           id="g24078"
           transform="translate(132.2414,747.7961)">
          <path
             d="M 0,0 C -0.287,-0.524 -0.328,-0.97 -0.122,-1.33 0.49,-2.396 3.095,-2.481 3.753,-2.485 2.51,-1.324 0.42,-0.217 0,0 m 3.811,-2.662 c -0.792,0 -3.423,0.089 -4.086,1.245 -0.25,0.434 -0.194,0.964 0.163,1.578 L -0.07,0.232 0.005,0.196 C 0.031,0.183 2.669,-1.147 4.033,-2.51 L 4.178,-2.654 3.973,-2.66 c 0,0 -0.059,-0.002 -0.162,-0.002"
             style="fill:#ffe14f;fill-opacity:1;fill-rule:nonzero;stroke:none"
             id="path24080"
             inkscape:connector-curvature="0" />
        </g>
        <g
           id="g24082"
           transform="translate(125.3788,745.1412)">
          <path
             d="m 0,0 c -0.871,-1.426 -1.773,-2.834 -2.697,-4.227 -0.761,-1.149 -1.545,-2.287 -2.394,-3.374 -0.342,-0.438 -0.894,-1.315 -1.498,-1.417 -0.377,-0.064 -0.063,-3.007 0,-2.997 1.349,0.229 2.875,3.276 3.557,4.281 1.079,1.587 2.112,3.207 3.111,4.845 0.258,0.421 0.118,1.379 0.105,1.842 C 0.182,-0.945 0.089,0.146 0,0"
             style="fill:#ffe14f;fill-opacity:1;fill-rule:nonzero;stroke:none"
             id="path24084"
             inkscape:connector-curvature="0" />
        </g>
        <g
           id="g24086"
           transform="translate(147.024,737.0806)">
          <path
             d="m 0,0 c -0.789,-0.549 -1.578,-1.097 -2.367,-1.646 -0.143,-0.1 -0.112,-1.05 -0.017,-1.187 0.563,-0.811 1.126,-1.622 1.689,-2.433 -0.077,0.11 0.213,0.905 0.032,1.166 -0.563,0.811 -1.125,1.621 -1.688,2.433 -0.006,-0.397 -0.011,-0.792 -0.016,-1.188 0.789,0.549 1.578,1.098 2.367,1.647 0.241,0.167 -0.119,1.126 0,1.208"
             style="fill:#ffe14f;fill-opacity:1;fill-rule:nonzero;stroke:none"
             id="path24088"
             inkscape:connector-curvature="0" />
        </g>
        <g
           id="g24090"
           transform="translate(129.3372,749.8113)">
          <path
             d="m 0,0 c 5.258,-1.527 9.977,-5.473 12.213,-10.452 -0.073,0.163 0.172,0.853 0.032,1.165 C 9.998,-4.281 5.282,-0.325 0,1.208 0.019,1.204 -0.186,0.054 0,0"
             style="fill:#ffe14f;fill-opacity:1;fill-rule:nonzero;stroke:none"
             id="path24092"
             inkscape:connector-curvature="0" />
        </g>
        <g
           id="g24094"
           transform="translate(113.5794,730.4025)">
          <path
             d="M 0,0 C 0,0 0.269,-1.345 0.118,-1.832 -0.032,-2.319 -0.657,-4.063 -2.31,-5.524 -4.894,-7.812 -8.531,-8.71 -8.531,-8.71 l 0,2.137 c 0,0 2.616,0.588 4.909,2.136 C -1.898,-3.276 -1.012,-2.211 0,0"
             style="fill:#ffe14f;fill-opacity:1;fill-rule:nonzero;stroke:none"
             id="path24096"
             inkscape:connector-curvature="0" />
        </g>
        <g
           id="g24098"
           transform="translate(137.2928,730.9041)">
          <path
             d="m 0,0 11.393,-1.835 c 0,0 1.763,-0.407 2.264,0.385 l 4.395,4.591 c 0,0 -8.795,6.984 -3.795,14.271 0,0 0.562,-0.992 0.13,-1.509 0,0 -4.656,-5.087 4.657,-11.856 0,0 0.344,-0.991 -0.13,-1.682 l -5.345,-5.517 c 0,0 -0.259,-0.691 -2.028,-0.303 L -0.057,-1.644 0,0 Z"
             style="fill:#ffe14f;fill-opacity:1;fill-rule:nonzero;stroke:none"
             id="path24100"
             inkscape:connector-curvature="0" />
        </g>
        <g
           id="g24102"
           transform="translate(118.5896,760.8337)">
          <path
             d="M 0,0 C -0.502,-0.381 -1.665,-0.816 -4.355,-0.553 L 0.023,-2.019 C -0.062,-1.376 -0.075,-0.702 0,0"
             style="fill:#ffe14f;fill-opacity:1;fill-rule:nonzero;stroke:none"
             id="path24104"
             inkscape:connector-curvature="0" />
        </g>
        <g
           id="g24106"
           transform="translate(161.8433,802.6168)">
          <path
             d="m 0,0 5.221,-1.05 c 0,0 0.898,-0.247 0.649,0.896 L 5.623,2.627 10.291,-5.87 c 0,0 0.338,-0.741 0.958,-0.031 0.615,0.711 4.91,6.087 4.91,6.087 0,0 -0.895,-3.676 1.207,-5.964 0,0 0.247,-0.061 1.018,0.28 0.773,0.338 3.368,0.833 7.293,-0.618 0,0 -6.334,-0.157 -9.146,-8.559 0,0 -0.959,-3.061 3.46,-4.851 0,0 -4.758,-0.897 -6.86,-5.933 0,0 -0.432,-0.741 0.434,-1.082 l 1.976,-1.329 c 0,0 -4.285,-0.426 -6.025,-0.864 0,0 -3.584,-1.297 -0.371,-5.376 0,0 0.37,-0.68 0.772,-0.463 l 10.539,2.687 -9.981,-5.377 c 0,0 -5.716,-0.154 -7.881,-1.05 0,0 -2.132,-0.649 -1.73,-3.337 0,0 0.311,-1.452 4.731,-1.021 L -6.3,-46.655 c 0,0 -2.596,0.216 -6.769,-1.545 0,0 -3.934,2.439 -3.954,2.441 0,0 4.08,3.846 4.234,11.339 0,0 3.234,-3.15 0.202,-9.964 0,0 39.167,19.553 12.587,44.384"
             style="fill:#ffe14f;fill-opacity:1;fill-rule:nonzero;stroke:none"
             id="path24108"
             inkscape:connector-curvature="0" />
        </g>
        <g
           id="g24110"
           transform="translate(132.4148,758.5657)">
          <path
             d="m 0,0 c 0,0 -39.17,19.554 -12.587,44.385 l -5.221,-1.049 c 0,0 -0.897,-0.248 -0.65,0.894 l 0.248,2.783 -4.667,-8.498 c 0,0 -0.34,-0.743 -0.958,-0.032 -0.618,0.712 -4.912,6.088 -4.912,6.088 0,0 0.895,-3.677 -1.206,-5.964 0,0 -0.248,-0.06 -1.02,0.278 -0.772,0.341 -3.367,0.835 -7.291,-0.617 0,0 6.335,-0.155 9.146,-8.559 0,0 0.957,-3.06 -3.46,-4.85 0,0 4.758,-0.896 6.859,-5.933 0,0 0.433,-0.743 -0.433,-1.081 l -1.977,-1.329 c 0,0 4.286,-0.429 6.025,-0.865 0,0 3.585,-1.298 0.37,-5.376 0,0 -0.369,-0.681 -0.771,-0.463 l -10.537,2.688 9.98,-5.378 c 0,0 5.716,-0.153 7.88,-1.049 0,0 1.402,-0.428 1.716,-2.024 0.073,0.236 0.153,0.475 0.247,0.718 0,0 7.103,-5.747 8.818,-7.159 0.684,-0.1 1.54,-0.277 2.544,-0.577 0.463,0.341 0.716,1.179 0.354,2.98 l 1.2,-0.091"
             style="fill:#ffe14f;fill-opacity:1;fill-rule:nonzero;stroke:none"
             id="path24112"
             inkscape:connector-curvature="0" />
        </g>
        <g
           id="g24114"
           transform="translate(135.3705,758.2365)">
          <path
             d="M 0,0 C 4.056,7.658 0.414,11.299 0.414,11.299 0.17,5.682 -1.749,2.254 -3.51,0.268 L 0,0 Z"
             style="fill:#ffe14f;fill-opacity:1;fill-rule:nonzero;stroke:none"
             id="path24116"
             inkscape:connector-curvature="0" />
        </g>
        <g
           id="g24118"
           transform="translate(151.7048,747.7635)">
          <path
             d="M 0,0 C 2.414,0.51 4.259,3.702 5.469,5.672 5.641,5.951 5.71,7.62 5.439,7.833 3.467,9.389 -0.181,7.989 -2.274,7.292 -3.105,7.015 -2.987,7.272 -3.519,7.934 c -1.072,1.334 -2.624,1.719 -4.254,1.457 -1.725,-0.276 -3.137,0.066 -4.547,1.09 -0.706,0.514 -0.702,0.839 -1.553,0.905 -2.306,0.175 -4.613,0.351 -6.92,0.527 -0.177,0.014 -0.086,-1.865 -0.055,-2.05 0.502,-3.054 -4.023,0.613 -4.429,0.944 -2.406,1.959 -4.819,3.911 -7.232,5.862 -0.01,-0.014 -0.019,-0.026 -0.029,-0.039 -2.19,-6.309 0.72,-12.619 6.503,-15.758 -0.164,0.089 0.421,1.972 0,2.201 -2.341,1.271 -4.396,3.238 -5.785,5.497 -0.558,0.909 -0.916,1.925 -1.146,2.962 -0.178,0.803 -0.198,3.465 0.989,2.505 1.343,-1.086 2.686,-2.173 4.028,-3.261 1.6,-1.297 3.323,-3.307 5.271,-4.079 2.875,-1.14 2.179,3.617 1.94,5.066 -0.018,-0.683 -0.037,-1.367 -0.055,-2.05 1.436,-0.11 2.871,-0.219 4.306,-0.329 0.751,-0.057 2.893,0.18 3.424,-0.42 1.607,-1.819 3.709,-2.027 5.97,-1.664 1.682,0.27 3.394,-0.977 4.149,-2.397 0.01,-0.013 0.02,-0.025 0.03,-0.039 2.198,0.825 6.262,2.419 8.353,0.768 C 5.429,6.353 5.42,7.073 5.41,7.794 4.222,5.859 2.407,2.709 0,2.2 -0.3,2.137 -0.017,-0.004 0,0"
             style="fill:#ffe14f;fill-opacity:1;fill-rule:nonzero;stroke:none"
             id="path24120"
             inkscape:connector-curvature="0" />
        </g>
        <g
           id="g24122"
           transform="translate(53.9348,734.6407)">
          <path
             d="m 0,0 -1.03,-2.153 -6.009,2.876 1.631,3.41 4.511,-0.265 0.036,0.076 -3.073,3.267 1.672,3.498 L 3.748,7.833 2.718,5.682 -1.786,8.102 -1.822,8.026 1.807,3.777 0.916,1.915 -4.68,2.054 -4.71,1.99 0,0 Z"
             style="fill:#002d6a;fill-opacity:1;fill-rule:nonzero;stroke:none"
             id="path24124"
             inkscape:connector-curvature="0" />
        </g>
        <g
           id="g24126"
           transform="translate(57.9701,753.6194)">
          <path
             d="M 0,0 3.524,-2.705 C 4.934,-3.785 4.645,-4.977 3.048,-7.059 0.869,-9.9 0.101,-9.791 -1.167,-8.819 l -3.524,2.705 1.452,1.892 3.496,-2.682 c 0.599,-0.458 0.954,-0.01 1.565,0.785 0.617,0.804 0.778,1.116 0.158,1.593 L -1.452,-1.894 0,0 Z"
             style="fill:#002d6a;fill-opacity:1;fill-rule:nonzero;stroke:none"
             id="path24128"
             inkscape:connector-curvature="0" />
        </g>
        <g
           id="g24130"
           transform="translate(65.9003,752.3362)">
          <path
             d="M 0,0 -1.69,-1.685 -6.393,3.034 -3.536,5.882 1.892,4.067 1.96,4.134 -1.752,7.658 -0.063,9.342 4.64,4.622 1.758,1.751 -3.645,3.591 -3.713,3.524 0,0 Z"
             style="fill:#002d6a;fill-opacity:1;fill-rule:nonzero;stroke:none"
             id="path24132"
             inkscape:connector-curvature="0" />
        </g>
        <g
           id="g24134"
           transform="translate(72.2511,763.6406)">
          <path
             d="M 0,0 C 2.13,1.58 2.794,1.807 3.768,0.631 4.471,-0.218 5.209,-1.014 2.177,-3.526 0.422,-4.98 -0.767,-5.918 -2.161,-4.236 l 1.764,1.462 c 0.442,-0.534 0.744,-0.376 1.645,0.37 0.864,0.715 1.114,0.992 0.757,1.423 -0.368,0.445 -0.464,0.353 -1.362,-0.32 L 0.222,-1.615 c -1.773,-1.319 -2.76,-2.148 -3.978,-0.678 -1.217,1.471 -0.186,2.488 1.615,3.98 1.506,1.247 2.809,2.292 3.982,0.877 L 2.017,2.351 0.253,0.891 c -0.437,0.526 -0.73,0.282 -1.465,-0.327 -0.992,-0.821 -0.95,-1.041 -0.712,-1.327 0.34,-0.411 0.618,-0.205 1.127,0.172 L 0,0 Z"
             style="fill:#002d6a;fill-opacity:1;fill-rule:nonzero;stroke:none"
             id="path24136"
             inkscape:connector-curvature="0" />
        </g>
        <g
           id="g24138"
           transform="translate(81.6071,765.7179)">
          <path
             d="M 0,0 -1.934,-1.397 -4.93,2.75 -6.787,1.409 -7.692,2.662 -1.949,6.812 -1.044,5.558 -2.996,4.146 0,0 Z"
             style="fill:#002d6a;fill-opacity:1;fill-rule:nonzero;stroke:none"
             id="path24140"
             inkscape:connector-curvature="0" />
        </g>
        <g
           id="g24142"
           transform="translate(84.289,772.2054)">
          <path
             d="M 0,0 3.293,1.931 3.917,0.867 0.624,-1.065 1.28,-2.185 4.861,-0.084 5.599,-1.341 -0.041,-4.647 -3.411,1.098 2.156,4.364 2.893,3.107 -0.617,1.05 0,0 Z"
             style="fill:#002d6a;fill-opacity:1;fill-rule:nonzero;stroke:none"
             id="path24144"
             inkscape:connector-curvature="0" />
        </g>
        <g
           id="g24146"
           transform="translate(93.6766,776.3601)">
          <path
             d="M 0,0 C 0.932,0.429 0.78,0.672 0.465,1.358 0.216,1.899 -0.038,1.967 -0.754,1.638 L -2.433,0.864 -1.68,-0.773 0,0 Z m -5.247,1.272 4.183,1.924 C 0.822,4.035 1.881,4.161 2.575,2.651 3.039,1.642 3.31,1.054 1.894,0.079 l 0.03,-0.065 c 0.9,0.386 1.641,0.287 1.957,-0.399 l 0.56,-1.218 -2.167,-0.999 -0.39,0.849 c -0.186,0.461 -0.588,0.648 -1.238,0.349 l -1.679,-0.774 0.739,-1.605 -2.168,-0.998 -2.785,6.053 z"
             style="fill:#002d6a;fill-opacity:1;fill-rule:nonzero;stroke:none"
             id="path24148"
             inkscape:connector-curvature="0" />
        </g>
        <g
           id="g24150"
           transform="translate(122.0663,784.1556)">
          <path
             d="M 0,0 C 1.021,0.114 0.953,0.393 0.868,1.143 0.8,1.734 0.58,1.88 -0.2,1.792 L -2.037,1.584 -1.836,-0.207 0,0 Z m -4.582,2.853 4.575,0.515 C 2.046,3.573 3.092,3.36 3.277,1.708 3.401,0.605 3.474,-0.038 1.823,-0.519 L 1.831,-0.59 C 2.806,-0.507 3.48,-0.833 3.564,-1.583 L 3.713,-2.917 1.343,-3.184 1.24,-2.256 c -0.033,0.496 -0.355,0.799 -1.067,0.72 l -1.837,-0.208 0.199,-1.757 -2.372,-0.266 -0.745,6.62 z"
             style="fill:#002d6a;fill-opacity:1;fill-rule:nonzero;stroke:none"
             id="path24152"
             inkscape:connector-curvature="0" />
        </g>
        <g
           id="g24154"
           transform="translate(134.8,787.9575)">
          <path
             d="m 0,0 -0.016,-4.442 c -0.005,-1.776 -1.128,-2.27 -3.752,-2.262 -3.579,0.013 -3.959,0.69 -3.954,2.288 l 0.016,4.442 2.386,-0.008 -0.015,-4.406 c -0.004,-0.756 0.571,-0.766 1.572,-0.769 1.012,-0.004 1.361,0.057 1.362,0.838 L -2.387,0.007 0,0 Z"
             style="fill:#002d6a;fill-opacity:1;fill-rule:nonzero;stroke:none"
             id="path24156"
             inkscape:connector-curvature="0" />
        </g>
        <g
           id="g24158"
           transform="translate(142.2398,784.9784)">
          <path
             d="M 0,0 C 0.05,0.674 -0.719,0.776 -1.428,0.879 -3.127,1.124 -3.23,0.744 -3.407,-0.317 L -3.561,-1.39 c -0.17,-1.168 0.354,-1.369 1.584,-1.546 1.203,-0.175 1.551,-0.018 1.683,0.896 l -1.628,0.234 0.175,1.222 4.026,-0.58 -0.165,-1.152 c -0.32,-2.224 -1.136,-2.519 -4.3,-2.063 -2.785,0.403 -4.152,0.958 -3.845,3.095 l 0.248,1.706 C -5.47,2.602 -3.816,2.695 -1.219,2.32 1.072,1.99 2.699,1.747 2.398,-0.346 L 0,0 Z"
             style="fill:#002d6a;fill-opacity:1;fill-rule:nonzero;stroke:none"
             id="path24160"
             inkscape:connector-curvature="0" />
        </g>
        <g
           id="g24162"
           transform="translate(148.5493,782.8883)">
          <path
             d="M 0,0 1.63,-0.54 C 2.422,-0.803 2.648,-0.766 2.815,-0.26 2.941,0.119 2.911,0.288 2.282,0.516 L 0.38,1.147 0,0 Z m -0.799,-2.411 1.708,-0.567 c 0.736,-0.245 1.084,-0.219 1.256,0.295 0.172,0.523 -0.064,0.686 -0.799,0.93 l -1.755,0.582 -0.41,-1.24 z M -1.426,3.28 3.035,1.802 C 4.722,1.241 5.639,0.675 5.18,-0.707 4.917,-1.509 4.527,-1.96 3.363,-1.723 L 3.34,-1.791 c 1.237,-0.476 1.265,-1.112 1.003,-1.904 -0.514,-1.552 -1.56,-1.44 -3.36,-0.842 l -4.505,1.493 2.096,6.324 z"
             style="fill:#002d6a;fill-opacity:1;fill-rule:nonzero;stroke:none"
             id="path24164"
             inkscape:connector-curvature="0" />
        </g>
        <g
           id="g24166"
           transform="translate(158.3636,776.565)">
          <path
             d="m 0,0 -1.229,-1.987 -2.029,1.255 1.229,1.986 -0.423,5.348 2.321,-1.436 0.01,-3.025 L -0.05,2.099 2.7,3.416 5.055,1.961 0,0 Z"
             style="fill:#002d6a;fill-opacity:1;fill-rule:nonzero;stroke:none"
             id="path24168"
             inkscape:connector-curvature="0" />
        </g>
        <g
           id="g24170"
           transform="translate(102.661,732.7015)">
          <path
             d="m 0,0 -15.675,0 c -0.513,0 -0.929,0.416 -0.929,0.929 0,0.513 0.416,0.929 0.929,0.929 L 0,1.858 C 0.513,1.858 0.929,1.442 0.929,0.929 0.929,0.416 0.513,0 0,0"
             style="fill:#002d6a;fill-opacity:1;fill-rule:nonzero;stroke:none"
             id="path24172"
             inkscape:connector-curvature="0" />
        </g>
        <g
           id="g24174"
           transform="translate(91.0212,714.4504)">
          <path
             d="m 0,0 -15.675,0 c -0.513,0 -0.929,0.416 -0.929,0.929 0,0.513 0.416,0.929 0.929,0.929 L 0,1.858 C 0.513,1.858 0.929,1.442 0.929,0.929 0.929,0.416 0.513,0 0,0"
             style="fill:#002d6a;fill-opacity:1;fill-rule:nonzero;stroke:none"
             id="path24176"
             inkscape:connector-curvature="0" />
        </g>
        <g
           id="g24178"
           transform="translate(151.7375,708.1934)">
          <path
             d="M 0,0 0.315,0 C 0.674,0 0.98,0.129 0.98,0.468 0.98,0.707 0.806,0.946 0.315,0.946 0.174,0.946 0.076,0.935 0,0.924 L 0,0 Z m 0,-1.514 -0.436,0 0,2.733 c 0.229,0.032 0.447,0.066 0.774,0.066 0.413,0 0.685,-0.088 0.848,-0.208 0.163,-0.121 0.252,-0.305 0.252,-0.566 0,-0.359 -0.241,-0.577 -0.534,-0.664 l 0,-0.022 c 0.239,-0.043 0.402,-0.261 0.457,-0.664 0.064,-0.424 0.13,-0.587 0.173,-0.675 l -0.457,0 c -0.065,0.088 -0.13,0.337 -0.184,0.698 -0.066,0.347 -0.24,0.478 -0.588,0.478 L 0,-0.338 0,-1.514 Z M 0.457,1.98 c -1.077,0 -1.959,-0.925 -1.959,-2.068 0,-1.165 0.882,-2.079 1.97,-2.079 1.089,-0.011 1.96,0.914 1.96,2.068 0,1.154 -0.871,2.079 -1.96,2.079 l -0.011,0 z m 0.011,0.381 c 1.339,0 2.406,-1.088 2.406,-2.449 0,-1.383 -1.067,-2.46 -2.417,-2.46 -1.339,0 -2.428,1.077 -2.428,2.46 0,1.361 1.089,2.449 2.428,2.449 l 0.011,0 z"
             style="fill:#002d6a;fill-opacity:1;fill-rule:nonzero;stroke:none"
             id="path24180"
             inkscape:connector-curvature="0" />
        </g>
      </g>
    </g>
  </g>
</svg>
