<?xml version="1.0" encoding="utf-8"?>
<!-- Generator: Adobe Illustrator 15.1.0, SVG Export Plug-In  -->
<!DOCTYPE svg PUBLIC "-//W3C//DTD SVG 1.1//EN" "http://www.w3.org/Graphics/SVG/1.1/DTD/svg11.dtd" [
	<!ENTITY ns_flows "http://ns.adobe.com/Flows/1.0/">
]>
<svg version="1.1"
	 xmlns="http://www.w3.org/2000/svg" xmlns:xlink="http://www.w3.org/1999/xlink" xmlns:a="http://ns.adobe.com/AdobeSVGViewerExtensions/3.0/"
	 x="0px" y="0px" width="1000px" height="1000px" viewBox="0 -12.905 1000 1000"
	 overflow="visible" enable-background="new 0 -12.905 1000 1000" xml:space="preserve">
<defs>
</defs>
<path d="M172.593,139.953c-14.317,53.7-22.317,132.719,41.72,159.231c100.773,41.719,183.064-13.129,215.863-45.926L172.593,139.953
	z M820.744,139.953L563.162,253.258c32.797,32.797,115.09,87.645,215.863,45.926C843.061,272.672,835.062,193.653,820.744,139.953
	 M195.602,40.14c7.604,2.594,13.506,5.357,18.953,7.809c5.451,2.456,10.454,4.598,16.267,5.957
	c23.262,5.431,27.045-7.297,15.683-18.656c-14.501-14.501-43.622-29.431-82.87-31.256c-0.813-0.035-0.863-1.057-0.063-1.175
	c20.232-3.057,36.616-3.855,71.758-1.258c61.74,4.563,124.348,63.613,152.312,103.561c27.966,39.945,63.289,73.347,109.039,73.347
	c45.748,0,81.067-33.402,109.036-73.347c27.964-39.948,90.57-98.998,152.313-103.561c35.141-2.597,51.522-1.799,71.754,1.258
	c0.803,0.119,0.75,1.14-0.061,1.175c-39.248,1.825-68.369,16.755-82.869,31.256c-11.367,11.359-7.58,24.087,15.684,18.656
	c5.811-1.358,10.816-3.501,16.266-5.957c5.45-2.452,11.35-5.215,18.954-7.809c15.211-5.185,37.245-9.695,76.167-9.695
	c57.022,0,103.542,41.982,117.292,63.931c0.324,0.515,0.042,0.96-0.564,0.901c-5.181-0.523-11.759-1.261-18.775-1.511
	c-7.569-0.268-15.656,0.035-23.069,1.792c-14.829,3.511-26.989,12.838-26.989,35.064c0,46.303,7.506,77.775,15.008,107.262
	c3.752,14.744,7.503,28.99,10.316,44.348c2.814,15.358,4.689,31.822,4.689,51.003c0,31.608-6.953,56.934-15.542,76.997
	c-4.296,10.037-8.994,18.753-13.437,26.284c-4.439,7.529-8.623,13.872-11.886,19.155c-8.885,14.394-18.105,14.405-29.216,4.697
	c-39.133-34.178-125.234-82.169-209.587-75.115c-62.558,5.233-91.717,77.902-131.305,194.077
	c-13.737,40.301-22.578,79.237-29.089,108.097c-3.312,14.711-6.008,26.516-8.335,34.645c-2.243,7.801-4.3,10.152-6.765,10.152
	s-4.527-2.352-6.761-10.152c-2.331-8.129-5.017-19.934-8.331-34.645c-6.504-28.859-15.34-67.796-29.075-108.097
	c-39.591-116.175-68.754-188.844-131.31-194.077c-84.352-7.055-170.452,40.937-209.584,75.115
	c-11.115,9.708-20.333,9.696-29.218-4.697c-3.261-5.283-7.446-11.625-11.891-19.155c-4.442-7.531-9.142-16.247-13.435-26.284
	c-8.584-20.062-15.539-45.389-15.539-76.997c0-19.181,1.875-35.645,4.69-51.003c2.814-15.358,6.565-29.604,10.317-44.348
	c7.501-29.487,15.005-60.959,15.005-107.262c0-22.227-12.156-31.554-26.989-35.064c-7.413-1.756-15.5-2.059-23.063-1.792
	c-7.021,0.25-13.597,0.988-18.782,1.511c-0.607,0.059-0.884-0.386-0.561-0.901C15.891,72.428,62.41,30.445,119.435,30.445
	C158.36,30.445,180.392,34.956,195.602,40.14"/>
<path fill-rule="evenodd" clip-rule="evenodd" d="M141.505,941.917v-108.98l-32.274-32.271H32.275L0,832.937v108.98l32.275,32.272
	h76.955L141.505,941.917z M91.853,918.374l-4.962,9.907l-9.933,4.955h-12.41l-9.929-4.955l-4.968-9.907v-64.375l4.968-9.898
	l9.929-4.955h12.41l9.933,4.955l4.962,9.898V918.374z"/>
<polygon fill-rule="evenodd" clip-rule="evenodd" points="281.698,941.917 281.698,893.617 258.114,870.094 219.638,861.435 
	214.67,856.481 214.67,851.533 218.395,844.103 225.839,840.384 258.612,840.384 279.955,847.814 264.32,800.666 197.298,800.666 
	165.021,832.937 165.021,873.809 187.362,896.099 225.839,904.758 232.048,910.956 232.048,922.092 228.324,929.522 
	220.875,933.236 203.499,933.236 196.052,925.803 196.052,912.183 156.329,931.995 156.329,941.917 163.78,956.814 181.156,974.19 
	249.423,974.19 "/>
<path fill-rule="evenodd" clip-rule="evenodd" d="M435.596,881.096v-48.159l-32.275-32.271h-107.99l6.205,19.864v133.802
	l-6.205,19.858h60.819l-7.448-22.341v-33.515l2.484-2.478h49.651L435.596,881.096z M387.184,861.344l-4.967,9.856l-9.931,4.932
	h-21.1l-2.484-2.467v-30.81l2.484-2.472h21.1l9.931,4.938l4.967,9.857V861.344z"/>
<path fill-rule="evenodd" clip-rule="evenodd" d="M595.614,973.941l-13.655-23.492L564.58,903.44l22.347-22.344v-48.159
	l-32.276-32.271H446.666l6.206,19.864v133.62l-6.206,19.791h59.579l-6.207-19.791v-35.82l2.483-2.473h13.652l4.965,2.473
	l18.62,55.611H595.614z M538.512,861.344l-4.965,9.856l-9.927,4.938h-21.1l-2.483-2.465v-30.824l2.483-2.465h21.1l9.927,4.926
	l4.965,9.869V861.344z"/>
<polygon fill-rule="evenodd" clip-rule="evenodd" points="727.863,923.125 701.797,931.743 660.093,931.743 656.368,928.043 
	656.368,904.664 658.851,902.204 674.985,902.204 693.601,908.35 693.601,856.345 674.985,862.478 658.851,862.478 656.368,860.031 
	656.368,842.845 658.354,840.386 701.053,840.386 722.9,847.747 707.258,800.666 602.997,800.666 609.199,820.53 609.199,954.087 
	602.997,973.941 710.984,973.941 "/>
<polygon fill-rule="evenodd" clip-rule="evenodd" points="884.666,800.666 830.046,800.666 827.564,818.021 808.946,855.206 
	806.464,862.636 803.981,855.206 785.364,818.021 782.876,800.666 722.058,800.666 735.713,820.491 780.397,909.736 780.397,948.16 
	771.706,974.19 836.257,974.19 827.564,948.16 827.564,907.25 871.011,820.491 "/>
<polygon fill-rule="evenodd" clip-rule="evenodd" points="1000,941.917 1000,893.617 976.417,870.094 937.93,861.435 
	932.966,856.481 932.966,851.533 936.69,844.103 944.137,840.384 976.909,840.384 998.257,847.814 982.616,800.666 915.591,800.666 
	883.319,832.937 883.319,873.809 905.664,896.099 944.137,904.758 950.349,910.956 950.349,922.092 946.625,929.522 
	939.171,933.236 921.8,933.236 914.35,925.803 914.35,912.183 874.63,931.995 874.63,941.917 882.077,956.814 899.458,974.19 
	967.724,974.19 "/>
</svg>
