<?xml version="1.0" encoding="utf-8"?>
<!-- Generator: Adobe Illustrator 14.0.0, SVG Export Plug-In . SVG Version: 6.00 Build 43363)  -->
<!DOCTYPE svg PUBLIC "-//W3C//DTD SVG 1.1//EN" "http://www.w3.org/Graphics/SVG/1.1/DTD/svg11.dtd" [
	<!ENTITY ns_extend "http://ns.adobe.com/Extensibility/1.0/">
	<!ENTITY ns_ai "http://ns.adobe.com/AdobeIllustrator/10.0/">
	<!ENTITY ns_graphs "http://ns.adobe.com/Graphs/1.0/">
	<!ENTITY ns_vars "http://ns.adobe.com/Variables/1.0/">
	<!ENTITY ns_imrep "http://ns.adobe.com/ImageReplacement/1.0/">
	<!ENTITY ns_sfw "http://ns.adobe.com/SaveForWeb/1.0/">
	<!ENTITY ns_custom "http://ns.adobe.com/GenericCustomNamespace/1.0/">
	<!ENTITY ns_adobe_xpath "http://ns.adobe.com/XPath/1.0/">
]>
<svg version="1.1" id="Layer_1" xmlns:x="&ns_extend;" xmlns:i="&ns_ai;" xmlns:graph="&ns_graphs;"
	 xmlns="http://www.w3.org/2000/svg" xmlns:xlink="http://www.w3.org/1999/xlink" x="0px" y="0px" width="269.29px"
	 height="255.12px" viewBox="0 0 269.29 255.12" enable-background="new 0 0 269.29 255.12" xml:space="preserve">
<metadata>
	<sfw  xmlns="&ns_sfw;">
		<slices></slices>
		<sliceSourceBounds  x="3.932" y="22.693" width="260.152" height="208.81" bottomLeftOrigin="true"></sliceSourceBounds>
	</sfw>
</metadata>
<g>
	<g>
		<path fill-rule="evenodd" clip-rule="evenodd" fill="#FFFFFF" d="M223.036,90.65c-0.157-3.113-0.992-10.694-5.295-13.692
			l-0.538-0.342c-0.742-4.687-2.516-10.077-5.59-16.264l-0.014-0.036c-3.231-7.268-8.709-12.083-13.11-14.987
			c0.919-0.381,2.161-0.887,2.161-0.887l-6.66-3.606c-9.637-5.219-21.349-6.572-28.168-6.884
			c-19.555-14.81-53.018-9.387-54.259-9.278c0,0,4.982,1.35,7.045,3.452c-16.744,1.984-25.123,9.498-25.54,9.86l-4.237,3.656
			l6.846,2.608c1.191-0.122,2.668,0.026,4.058,0.262c-0.299,1.294-0.366,2.362-0.389,2.736l1.962,5.948l3.685-2.985
			c1.413-1.133,3.288-1.741,5.103-2.053c-1.481,4.237-1.537,8.119-1.537,8.644l0.064,7.528l5.648-4.772l0.46-0.358
			c0.246,0.808,0.535,1.553,0.807,2.237c0.385,0.979,0.752,1.895,0.959,2.92l0.023,0.22c0,1.215-0.719,4.936-3.445,8.132l3.14,3.761
			c1.924-1.432,3.248-0.917,3.958-1.137c-1.376,1.304-1.961,2.316-2.204,2.989l1.796,4.428c-3.83,1.426-5.896,2.962-5.896,2.962
			s4.167,0.985,8.175,5.203c4.004,4.201,5.149,7.873,5.149,7.873c-8.891,4.808-14.52,11.055-18.129,16.809
			c18.047,1.747,23.497,9.18,23.497,9.18s0.664-0.837,2.611-2.42c1.943-1.589-0.03,0.033-0.03,0.033
			c0.188-0.204,4.705-4.934,15.846-5.732c10.621-0.762,20.633,2.631,29.771,10.09c6.976,5.695,10.779,11.739,10.817,11.804
			l0.04,0.056l0.039,0.063c1.563,2.299,2.996,2.549,3.462,2.624c0.999,0.174,1.997-0.072,2.805-0.68
			c0.795-0.591,1.557-1.59,1.557-3.235c0-0.798-0.184-1.76-0.63-2.896c-1.044-2.65-4.171-9.847-9.873-17.477
			c8.861-0.351,16.697-7.469,18.189-9.538c0.781-1.097,0.814-2.145,0.696-2.867c1.063,0.292,2.365,0.496,3.941,0.542
			c4.059,0.135,5.846-0.739,7.54-2.298C221.395,100.969,223.332,96.473,223.036,90.65"/>
	</g>
	<g>
		<path fill-rule="evenodd" clip-rule="evenodd" fill="#D31245" d="M203.698,81.934c-0.086-0.131-1.715-0.296-3.488-1.603
			c-1.767-1.304-4.315-4.617-5.846-5.55c0,0-0.809,0.158-0.539,0.47c0.414,0.453,2.03,2.358,2.588,4.47
			c0.545,2.122,1.662,5.714,2.674,5.679C199.954,85.372,204.217,82.807,203.698,81.934"/>
		<path fill-rule="evenodd" clip-rule="evenodd" fill="#D31245" d="M206.352,99.669c0,0.792,1.202,2.089,5.466,2.224
			c3.225,0.102,4.118-0.486,5.104-1.386c0.979-0.899,2.799-4.148,2.536-9.357c-0.264-5.209-2.116-12.875-6.727-11.305
			c-3.593,1.212-0.395,6.303-1.537,10.891C209.544,97.291,206.352,98.881,206.352,99.669"/>
		<path fill="#D31245" d="M152.744,80.918c13.17,0.588,25.04-15.456,16.179-29.444c-8.933-14.094-24.009-12.222-24.009-12.222
			c12.337,1.912,18.308,13.981,18.308,13.981c-10.629-9.945-19.897-8.191-19.897-8.191c15.45,2.914,20.527,21.234,20.527,21.234
			c-8.973-14.498-23.7-13.365-23.7-13.365c13.321,2.48,19.07,18.793,19.07,18.793c-9.229-10.03-21.474-8.177-21.474-8.177
			c9.524,0.988,14.819,11.909,14.819,11.909c-7.252-2.397-19.019-0.664-19.019-0.664c2.046-2.5,5.191-4.135,5.191-4.135
			c-4.16-3.896-13.38-3.889-13.38-3.889c0.953-3.298-1.55-6.194-2.449-10.149c-0.904-3.961,1.198-6.372,1.198-6.372
			c-2.949-0.372-5.251,0.897-5.251,0.897c0.479-3.383,4.539-8.813,4.539-8.813c-3.537-2.604-11.686-3.258-11.686-3.258
			c13.144-5.376,24.472-2.863,24.472-2.863c-0.992-1.633-2.506-2.983-2.506-2.983c24.382-1.199,36.73,12.1,36.73,12.1
			c-0.67-1.297-1.425-2.493-2.278-3.609c9.53,0.463,15.042,3.678,15.042,3.678c-1.229,0.184-2.871,2.053-2.871,2.053
			c12.901,0.766,23.713,8.796,27.556,14.957c0.315,0.499,0.422,0.286,0.532,0.207l-0.053-0.496
			c-5.386-12.086-17.958-16.724-17.958-16.724c0.716-0.611,1.892-1.081,1.892-1.081c-9.847-5.327-22.354-6.338-27.832-6.519
			c-15.181-13.167-44.59-10.658-44.59-10.658c4.385,1.291,5.932,4.352,5.932,4.352c-20.001,0.427-30.546,9.551-30.546,9.551
			c3.933-0.407,9.39,1.333,9.39,1.333c-1.713,1.698-1.876,5.367-1.876,5.367c5.076-4.076,13.186-2.959,13.186-2.959
			c-4.043,4.988-3.974,12.362-3.974,12.362c3.195-2.7,5.81-2.27,5.81-2.27c-0.729,3.323,1.324,5.475,2.053,9.084
			c0.739,3.616-3.521,9.446-3.521,9.446c7.971-4.135,13.988-0.187,13.988-0.187c-8.228,4.139-9.13,6.654-9.13,6.654
			C140.599,73.988,152.317,80.899,152.744,80.918"/>
		<path fill-rule="evenodd" clip-rule="evenodd" fill="#D31245" d="M186.967,113.302c-5.543-5.324-30.281-28.866-56.679-17.154
			c0,0-2.729-7.768-8.806-11.009c0,0,22.013-6.563,40.078,3.774c10.608,6.076,21.289,19.065,28.784,19.66
			c3.481,0.275,4.959-2.154,6.221-2.473c0,0-2.884-4.08-5.466-3.938c-2.049,0.115-2.705,0.762-2.857,0.335
			c-0.15-0.42,1.314-3.078,4.487-3.285c3.061-0.203,5.497,3.557,7.37,4.552c2.306,1.218,4.125,1.432,4.229,1.751
			c0.105,0.315-8.125,8.522-16.736,8.398"/>
		<path fill-rule="evenodd" clip-rule="evenodd" fill="#D31245" d="M195.763,138.054c-0.388,0.286-1.326-1.104-1.326-1.104
			s-15.817-25.55-43.781-23.54c-12.928,0.933-18.174,6.868-18.174,6.868s-5.18-5.333-17.939-6.786c-0.401-0.043,0,0,0,0
			s14.97-17.956,35.725-15.821c30.446,3.123,43.4,33.77,45.246,38.454C195.514,136.126,196.163,137.762,195.763,138.054"/>
		<path fill-rule="evenodd" clip-rule="evenodd" fill="#D31245" d="M182.337,193.396c-0.407-0.397-2.136,0.971-2.136,0.971
			s-32.541,25.001-68.894,17.085c-14.393-3.136-22.244-13.643-26.619-20.937l37.559,0.02l7.791-12.771h-0.496
			c-4.956,3.886-10.376,4.642-15.972,4.638c-3.5,0-7.15-0.17-10.118-1.271l4.725-15.916l3.297,0.006
			c3.699,0.004,8.395-0.335,8.786,3.051h0.506l3.512-11.853h-0.493c-1.001,0.345-2.431,0.434-3.826,0.424l-9.292-0.004l4.07-13.709
			l3.202,0.004c4.891,0,10.717-0.418,12.231,3.561l0.299,0.003l3.518-11.85l-39.473-0.023l-0.074,0.253
			c4.147,2.545,2.01,7.366,0.703,11.768l-9.395,31.648c-0.749,2.503-1.498,5.912-3.119,8.092l-0.103-0.143
			c-1.835-4.401-3.61-8.274-4.431-10.019l-8.559-20.931c9.287-3.012,17.775-8.931,20.173-17.001
			c2.145-7.205,0.026-12.917-6.451-16.366c-4.949-2.582-10.068-2.483-16.295-2.486l-37.626-0.023l-0.097,0.325
			c5.236,3.344,2.524,9.476,0.864,15.072l-11.89,40.036c-1.667,5.594-2.596,11.729-9.814,15.066l-0.099,0.318l34.197,0.025
			l0.093-0.321c-5.239-3.344-2.525-9.476-0.86-15.075l4.44-14.957c0,0,6.062,20.419,13.154,35.579
			c5.711,12.208,15.33,31.255,46.05,33.313c41.426,2.779,71.905-28.616,75.971-33.494
			C181.345,195.507,182.764,193.803,182.337,193.396 M65.554,140.612c-2.015,6.776-9.554,12.48-17.788,13.659l7.223-24.327h1.272
			c2.546,0,5.151,0.224,6.927,1.514C66.007,133.505,66.575,137.164,65.554,140.612"/>
		<path fill="#FFFFFF" d="M182.337,193.396l2.272-2.329c-0.4-0.395-0.899-0.671-1.34-0.814c-0.446-0.143-0.828-0.181-1.143-0.181
			c-0.54,0.003-0.9,0.096-1.196,0.184c-0.52,0.161-0.854,0.338-1.169,0.502c-0.894,0.503-1.505,1.012-1.583,1.061l2.022,2.549
			l-1.989-2.577l-0.047,0.036c-0.585,0.449-6.699,4.975-16.14,9.347c-9.445,4.382-22.215,8.589-36.097,8.583
			c-4.539,0-9.206-0.455-13.925-1.475c-6.572-1.439-11.591-4.514-15.571-8.143c-3.977-3.62-6.863-7.794-8.958-11.295l-2.786,1.672
			l-0.004,3.248l39.386,0.022l11.758-19.275h-7.413l-0.887,0.696c-2.096,1.642-4.217,2.594-6.519,3.179
			c-2.29,0.588-4.762,0.771-7.41,0.771h-0.112l0.083,3.245v-3.245c-3.386,0.01-6.734-0.223-8.99-1.077l-1.128,3.052l3.112,0.923
			l4.037-13.585l0.867,0.004h0.053c0.61,0,1.219-0.014,1.8-0.014c1.547-0.013,2.972,0.102,3.58,0.315l0.286,0.118l0.023,0.017
			l0.262-0.377l-0.384,0.229l0.122,0.147l0.262-0.377l-0.384,0.229l0.47-0.283l-0.519,0.175l0.049,0.108l0.47-0.283l-0.519,0.175
			l0.007-0.004h-0.01l0.003,0.004l0.007-0.004h-0.01l0.334,2.874h5.817l5.456-18.35h-5.396l-0.509,0.175
			c-0.131,0.045-0.522,0.134-1.019,0.174c-0.502,0.052-1.106,0.075-1.736,0.075h-0.007h-0.096l0.079,3.245v-3.245l-4.936-0.004
			l2.138-7.212h0.772h0.056c0.851,0,1.698-0.013,2.519-0.013c2.02-0.007,3.898,0.102,5.061,0.439
			c0.588,0.158,0.966,0.358,1.173,0.516c0.204,0.171,0.286,0.264,0.394,0.526l0.792,2.072l4.959,0.049l5.461-18.373l-46.296-0.029
			l-1.41,4.999l2.101,1.28c0.475,0.3,0.589,0.49,0.693,0.674c0.093,0.197,0.181,0.476,0.181,0.995
			c0.01,0.653-0.165,1.616-0.47,2.726c-0.304,1.114-0.728,2.358-1.12,3.676l-9.397,31.647c-0.397,1.348-0.76,2.772-1.194,4.05
			c-0.423,1.288-0.938,2.404-1.416,3.032l2.609,1.937l2.643-1.887l-0.104-0.143l-2.642,1.887l3-1.252
			c-1.859-4.464-3.657-8.369-4.484-10.14l-2.946,1.373l3.01-1.225l-8.562-20.938l-3.007,1.232l1,3.09
			c4.961-1.612,9.735-3.987,13.696-7.156c3.956-3.156,7.15-7.153,8.595-12.001c0.613-2.063,0.94-4.086,0.94-6.057
			c0.01-2.939-0.762-5.777-2.324-8.205c-1.552-2.43-3.841-4.404-6.657-5.908l-0.01-0.004l-0.012-0.003
			c-2.735-1.436-5.534-2.155-8.301-2.503c-2.78-0.351-5.545-0.354-8.428-0.354h-0.738h-0.341l-40.031-0.027l-1.506,4.992
			l2.071,1.321c0.721,0.473,1.02,0.857,1.229,1.268c0.206,0.417,0.334,0.949,0.334,1.714c0.006,0.969-0.235,2.276-0.634,3.728
			c-0.397,1.452-0.938,3.048-1.432,4.703l-11.891,40.033c-0.862,2.952-1.5,5.679-2.606,7.837c-1.126,2.157-2.506,3.807-5.452,5.202
			l-1.333,0.613l-1.771,5.909l40.986,0.026l1.486-4.998l-2.066-1.313c-0.721-0.474-1.015-0.857-1.232-1.271
			c-0.205-0.417-0.332-0.95-0.332-1.712c-0.004-0.973,0.235-2.275,0.634-3.725c0.399-1.455,0.942-3.047,1.432-4.706l4.444-14.954
			l-3.116-0.926l-3.118,0.923c0.026,0.075,6.083,20.531,13.331,36.032c2.883,6.155,6.896,14.425,14.364,21.454
			c7.452,7.041,18.411,12.679,34.409,13.729c1.824,0.121,3.623,0.181,5.405,0.181c20.204-0.01,37.5-7.54,50.205-15.587
			c6.358-4.03,11.588-8.194,15.489-11.677c3.908-3.481,6.464-6.23,7.587-7.576c0.046-0.06,0.368-0.435,0.742-0.986
			c0.185-0.285,0.381-0.598,0.585-1.012c0.105-0.206,0.21-0.443,0.309-0.748c0.086-0.302,0.184-0.671,0.19-1.226
			c0-0.334-0.04-0.739-0.197-1.199c-0.158-0.453-0.453-0.958-0.867-1.355l0.007,0.007L182.337,193.396l-2.26,2.335l2.095-2.162
			l-2.838,0.992c0.125,0.387,0.388,0.824,0.743,1.17l2.095-2.162l-2.838,0.992l2.714-0.949l-2.878,0.003
			c0,0.236,0.027,0.56,0.164,0.946l2.714-0.949l-2.878,0.003h2.397l-2.299-0.726c-0.033,0.118-0.099,0.315-0.099,0.726h2.397
			l-2.299-0.726l1.143,0.354l-1.083-0.506l-0.06,0.151l1.143,0.354l-1.083-0.506l-0.014,0.03l-0.295,0.439l-0.138,0.181l-0.04,0.046
			c-0.82,0.981-3.238,3.61-6.91,6.877c-5.518,4.914-13.919,11.354-24.403,16.528c-10.497,5.176-23.051,9.084-36.968,9.084
			c-1.641,0-3.296-0.05-4.968-0.165c-14.719-1.014-23.935-5.934-30.395-11.98c-6.447-6.057-10.098-13.417-12.929-19.47
			c-3.467-7.394-6.731-16.215-9.106-23.148c-1.19-3.472-2.166-6.477-2.835-8.604c-0.334-1.067-0.598-1.909-0.775-2.493
			c-0.175-0.578-0.266-0.877-0.266-0.877l-3.116-10.504l-7.56,25.457c-0.438,1.488-0.998,3.127-1.468,4.842
			c-0.469,1.718-0.859,3.518-0.865,5.438c-0.003,1.487,0.256,3.088,1.01,4.605c0.746,1.517,1.979,2.856,3.554,3.852l1.749-2.735
			l-3.115-0.923l-0.096,0.312l3.117,0.933v-3.254l-34.192-0.02l-0.004,3.248l3.112,0.936l0.1-0.318l-3.113-0.936l1.362,2.946
			c4.269-1.939,6.968-5.02,8.526-8.159c1.58-3.146,2.242-6.282,3.04-8.93l11.89-40.037c0.443-1.487,1-3.12,1.468-4.841
			c0.466-1.712,0.863-3.515,0.869-5.436c0-1.488-0.258-3.083-1.011-4.602c-0.746-1.514-1.979-2.864-3.556-3.859l-1.747,2.742
			l3.109,0.936l0.1-0.321l-3.112-0.94v3.255l37.619,0.023h0.341h0.738c2.864,0,5.376,0.017,7.606,0.306
			c2.241,0.282,4.18,0.805,6.111,1.81l-0.016-0.01l-0.011-0.003c2.043,1.084,3.385,2.335,4.245,3.675
			c0.854,1.347,1.288,2.832,1.294,4.697c0.005,1.241-0.207,2.647-0.669,4.204c-0.953,3.222-3.204,6.21-6.415,8.779
			c-3.208,2.562-7.319,4.65-11.65,6.046l-3.329,1.084l9.919,24.252l0.034,0.069c0.803,1.718,2.562,5.55,4.366,9.886l0.145,0.338
			l0.313,0.446l2.596,3.634l2.66-3.584c1.145-1.55,1.815-3.231,2.358-4.827c0.536-1.594,0.918-3.117,1.265-4.277l9.398-31.65
			c0.34-1.147,0.782-2.438,1.159-3.807c0.371-1.373,0.695-2.835,0.703-4.444c0-1.248-0.22-2.624-0.883-3.935
			c-0.657-1.308-1.754-2.464-3.099-3.277l-1.698,2.771l3.127,0.887l0.074-0.26l-3.127-0.88l-0.005,3.252l35.124,0.016l-2.279,7.683
			l3.117,0.923l0.03-3.248l-0.299-0.007l-0.03,3.252l3.035-1.156c-0.516-1.383-1.439-2.562-2.509-3.366
			c-1.616-1.229-3.406-1.725-5.114-1.998c-1.728-0.269-3.452-0.299-5.074-0.302c-0.884,0-1.724,0.01-2.519,0.01h-0.049l-5.623-0.003
			l-6.002,20.212l13.681,0.007h0.04l-0.069-2.775l-0.004,2.775h0.073l-0.069-2.775l-0.004,2.775h0.021
			c0.765,0,1.56-0.026,2.364-0.099c0.808-0.082,1.619-0.207,2.48-0.499l-1.042-3.081v3.255h0.493v-3.255l-3.114-0.919l-3.517,11.847
			l3.12,0.925v-3.251h-0.506v3.251l3.232-0.374c-0.141-1.329-0.759-2.67-1.672-3.576c-1.39-1.383-2.993-1.83-4.404-2.093
			c-1.432-0.242-2.815-0.266-4.096-0.269c-0.634,0-1.249,0.007-1.8,0.007h-0.046l-5.724-0.004l-6.283,21.155l2.854,1.057
			c3.683,1.341,7.638,1.459,11.242,1.479h0.043h0.033l-0.053-2.559v2.559h0.053l-0.053-2.559v2.559h0.014
			c2.939,0,5.961-0.197,9.006-0.969c3.044-0.762,6.099-2.132,8.94-4.372l-2.003-2.549v3.245h0.496v-3.245l-2.771-1.7l-6.842,11.218
			l-41.477-0.025l2.951,4.923c2.276,3.797,5.507,8.526,10.151,12.764c4.64,4.237,10.741,7.987,18.564,9.686
			c5.216,1.13,10.349,1.625,15.315,1.625c15.694-0.006,29.686-4.843,39.782-9.633c10.103-4.794,16.337-9.58,16.468-9.672l0.02-0.014
			l0.014-0.017l-0.428-0.548l0.428,0.553v-0.005l-0.428-0.548l0.428,0.553l0.525-0.375l0.21-0.118l-0.82-1.81v1.954
			c0.709-0.033,0.788-0.152,0.82-0.145l-0.82-1.81v1.954v-2.868l-0.9,2.721c0.367,0.118,0.67,0.147,0.9,0.147v-2.868l-0.9,2.721
			l0.938-2.858l-2.088,2.154c0.348,0.349,0.781,0.581,1.149,0.704l0.938-2.858l-2.088,2.154l0.032,0.033l-0.032-0.025
			L182.337,193.396z M65.554,140.612l-3.115-0.93c-0.748,2.562-2.69,5.192-5.419,7.275c-2.719,2.082-6.188,3.589-9.713,4.089
			l0.459,3.225l3.113,0.924l7.228-24.325l-3.118-0.926v3.249h1.272c1.18,0,2.288,0.059,3.171,0.223
			c0.889,0.154,1.509,0.417,1.85,0.677c0.517,0.378,0.848,0.801,1.104,1.354c0.244,0.548,0.392,1.231,0.392,2.029
			c0,0.687-0.112,1.441-0.342,2.21L65.554,140.612l3.121,0.923c0.386-1.32,0.601-2.687,0.601-4.06c0-1.583-0.289-3.192-0.966-4.7
			s-1.762-2.903-3.21-3.947c-1.442-1.038-3.014-1.537-4.504-1.807c-1.5-0.272-2.961-0.322-4.329-0.328h-1.277h-2.424l-9.361,31.517
			l5.023-0.726c4.703-0.681,9.131-2.608,12.74-5.364c3.6-2.755,6.439-6.365,7.702-10.585L65.554,140.612z"/>
		<path fill-rule="evenodd" clip-rule="evenodd" fill="#D31245" d="M160.785,144.432l-11.017,37.064
			c1.648,0.509,3.396,0.68,5.196,0.68c6.299,0.003,10.772-1.599,15.449-6.25c3.856-3.896,6.018-8.46,7.351-12.944
			c2.588-8.72,2.082-19.131-10.214-19.144C165.356,143.838,163.083,144.097,160.785,144.432 M191.132,188.009l0.368-14.156
			c-3.232,4.264-7.527,8.113-12.632,10.964c-10.924,6.171-20.797,5.738-31.989,5.732l-22.484-0.014l0.079-0.253
			c5.669-2.625,6.405-7.445,7.712-11.841l7.717-25.982c0.854-2.874,3.14-10.575,3.376-13.029c0.099-1.698-0.847-3.561-2.424-4.322
			l0.079-0.252l21.185,0.009c10.799,0.007,21.02-0.406,28.43,4.934c7.409,5.331,9.314,14.051,6.601,23.19
			c-1.011,3.429-2.758,6.904-5.116,10.159c5.609,4.653,14.603,7.862,23.357,7.865c5.65,0.004,13.769-1.583,15.529-7.527
			c3.855-12.947-35.176-10.316-28.107-34.095c1.793-6.047,7.035-11.886,13.847-15.377c7.528-3.82,15.674-5.088,23.326-5.084
			c7.021,0.003,14.228,1.071,20.113,3.196l-3.691,12.416c-4.415-2.861-9.919-4.989-16.192-4.993
			c-4.894-0.003-11.442,1.8-12.921,6.779c-1.517,5.101,5.157,7.124,9.288,8.818c5.36,2.233,10.392,4.253,14.307,7.972
			c4.69,4.467,6.536,9.242,4.513,16.037c-2.042,6.895-7.252,13.052-15.134,17.187c-8.75,4.56-17.061,5.509-25.954,5.503
			C206.036,191.835,198.147,190.558,191.132,188.009"/>
		<path fill="#FFFFFF" d="M160.785,144.432l-3.121-0.93l-11.929,40.155l3.074,0.943c2.083,0.643,4.158,0.823,6.155,0.823h0.039
			l-0.007-1.03v1.03h0.007l-0.007-1.03v1.03c3.409,0,6.55-0.443,9.512-1.608c2.956-1.17,5.636-3.035,8.198-5.587l0.006-0.007
			l0.014-0.01c4.329-4.375,6.727-9.492,8.158-14.311c0.828-2.808,1.386-5.804,1.386-8.785c0-3.518-0.788-7.167-3.284-10.051
			c-1.235-1.432-2.87-2.591-4.802-3.347c-1.931-0.755-4.145-1.126-6.634-1.126v3.245l0.045-3.245h-0.059
			c-2.437,0-4.861,0.275-7.22,0.624l-2.062,0.296l-0.592,1.989L160.785,144.432l0.466,3.216c2.22-0.325,4.349-0.559,6.286-0.559
			v-2.354l-0.033,2.354h0.033v-2.354l-0.033,2.354h0.014h0.033c1.846,0,3.231,0.286,4.263,0.684c1.536,0.63,2.345,1.435,2.995,2.614
			c0.617,1.176,0.966,2.811,0.959,4.729c0.007,2.145-0.42,4.595-1.116,6.937c-1.241,4.154-3.167,8.171-6.543,11.584l0.007-0.003
			l0.014-0.017c-2.116,2.092-4.001,3.35-6.011,4.15c-2.017,0.792-4.25,1.154-7.121,1.16h-0.039l0.007,1.028v-1.028h-0.007
			l0.007,1.028v-1.028c-1.597,0-3.016-0.154-4.237-0.535l-0.959,3.104l3.113,0.93l11.017-37.064L160.785,144.432l0.466,3.216
			L160.785,144.432z M191.132,188.009l3.245,0.09l0.637-24.246l-6.102,8.033c-2.969,3.918-6.938,7.476-11.62,10.09l-0.014,0.01
			c-4.421,2.49-8.572,3.797-12.822,4.516c-4.249,0.713-8.618,0.809-13.328,0.809c-1.386,0-2.798-0.006-4.243-0.006l-22.49-0.017
			v3.248l3.121,0.916l0.072-0.25l-3.114-0.919l1.36,2.949c3.498-1.58,5.757-4.157,7.032-6.73c1.297-2.584,1.819-5.094,2.437-7.14
			l7.72-25.979c0.428-1.438,1.216-4.103,1.938-6.743c0.362-1.323,0.703-2.631,0.979-3.803c0.27-1.187,0.479-2.175,0.572-3.107
			v-0.053l0.006-0.052l0.014-0.45c-0.007-1.436-0.395-2.782-1.091-4.004c-0.696-1.198-1.747-2.292-3.166-2.988l-1.419,2.926
			l3.113,0.939l0.08-0.256l-3.114-0.936v3.247l21.185,0.014h0.282c1.301,0,2.595-0.004,3.862-0.004
			c4.592-0.003,8.895,0.079,12.678,0.68c3.797,0.611,7.016,1.705,9.708,3.636c2.233,1.617,3.797,3.515,4.855,5.663
			c1.044,2.154,1.569,4.575,1.569,7.232c0.007,2.125-0.342,4.397-1.038,6.743c-0.9,3.024-2.477,6.188-4.638,9.173l-1.786,2.463
			l2.345,1.944c6.365,5.232,15.89,8.582,25.434,8.618h0.041l-0.014-1.428v1.428h0.014l-0.014-1.428v1.428
			c3.127-0.007,6.877-0.414,10.379-1.757c1.746-0.68,3.448-1.6,4.926-2.923c1.465-1.314,2.699-3.071,3.311-5.176
			c0.271-0.874,0.407-1.765,0.407-2.654c0.014-2.066-0.821-3.984-1.977-5.39c-1.019-1.251-2.254-2.221-3.581-3.081
			c-2.324-1.494-5.018-2.677-7.764-3.896c-4.118-1.803-8.362-3.694-11.312-6.029c-1.478-1.17-2.628-2.415-3.39-3.774
			c-0.768-1.366-1.208-2.854-1.215-4.771c0-1.288,0.21-2.77,0.723-4.493c1.432-4.957,6.096-10.304,12.219-13.42l-0.008,0.003
			l-0.006,0.006c6.917-3.518,14.523-4.733,21.808-4.733h0.02h0.02c6.694,0,13.599,1.035,19.012,3.002l1.109-3.055l-3.121-0.926
			l-3.684,12.421l3.113,0.921l1.773-2.723c-4.821-3.141-10.951-5.519-17.966-5.521v3.251l0.072-3.251h-0.079
			c-2.845,0.01-6.063,0.485-9.051,1.796c-1.492,0.66-2.93,1.541-4.172,2.743c-1.241,1.188-2.273,2.739-2.812,4.568
			c-0.229,0.775-0.348,1.563-0.348,2.352c-0.02,1.804,0.688,3.475,1.655,4.66c1.45,1.811,3.284,2.851,5.044,3.721
			c1.761,0.852,3.521,1.479,4.822,2.015l-0.014-0.007v0.003c5.405,2.233,10.018,4.164,13.314,7.324
			c1.524,1.445,2.596,2.831,3.284,4.194c0.69,1.376,1.025,2.738,1.032,4.372c0,1.214-0.197,2.594-0.677,4.19
			c-1.768,5.947-6.3,11.433-13.525,15.235l0.006-0.003c-8.118,4.214-15.704,5.121-24.349,5.127h-0.112h0.006
			c-7.94,0-15.469-1.231-22.07-3.632L191.132,188.009l3.245,0.09L191.132,188.009l-1.116,3.052
			c7.429,2.703,15.686,4.023,24.297,4.033h0.014h0.093c9.071,0.01,18.044-1.009,27.345-5.869l0.02-0.007
			c8.521-4.471,14.412-11.292,16.737-19.142c0.624-2.086,0.945-4.099,0.945-6.039c0.008-2.612-0.604-5.088-1.732-7.299
			c-1.118-2.213-2.708-4.167-4.604-5.975c-4.527-4.279-9.992-6.392-15.299-8.618l-0.014-0.003c-1.979-0.812-4.218-1.615-5.709-2.525
			c-0.748-0.446-1.28-0.896-1.518-1.219c-0.242-0.335-0.256-0.41-0.269-0.644l0.085-0.499c0.197-0.667,0.545-1.212,1.098-1.754
			c0.828-0.815,2.193-1.544,3.777-2.01c1.596-0.478,3.389-0.696,4.926-0.696v-2.895l-0.072,2.895h0.072v-2.895l-0.072,2.895h0.039
			h0.04c5.518,0.003,10.418,1.872,14.425,4.473l3.646,2.372l5.8-19.529l-2.884-1.041c-6.358-2.293-13.865-3.383-21.216-3.396v3.254
			l0.039-3.254h-0.086c-7.986,0-16.645,1.327-24.751,5.442l-0.014,0.003c-7.487,3.873-13.321,10.205-15.482,17.346
			c-0.663,2.239-0.991,4.351-0.991,6.349c0,2.597,0.572,4.988,1.583,7.071c1.773,3.648,4.743,6.246,7.909,8.275
			c4.756,3.039,10.194,4.989,14.201,6.957c1.991,0.962,3.593,1.94,4.486,2.775c0.446,0.42,0.723,0.781,0.86,1.064
			c0.145,0.292,0.191,0.492,0.205,0.798c0,0.204-0.041,0.463-0.14,0.805c-0.263,0.867-0.709,1.533-1.425,2.184
			c-1.063,0.979-2.824,1.8-4.835,2.303c-2.009,0.516-4.236,0.722-6.128,0.722h-0.033l0.006,1.433v-1.433h-0.006l0.006,1.433v-1.433
			c-7.968,0.03-16.435-3.044-21.289-7.123l-2.068,2.503l2.627,1.908c2.563-3.534,4.474-7.321,5.604-11.141
			c0.86-2.881,1.313-5.764,1.313-8.592c0-3.521-0.71-6.963-2.233-10.077c-1.511-3.117-3.843-5.892-6.897-8.089
			c-3.77-2.713-8.065-4.086-12.486-4.782c-4.435-0.696-9.046-0.762-13.696-0.765c-1.294,0-2.575,0.01-3.862,0.01h-0.282
			l-23.596-0.021l-1.576,5.223l2.49,1.212c0.071,0.029,0.242,0.164,0.381,0.403l0.217,0.736l-0.007,0.063l3.251,0.193l-3.244-0.309
			c-0.02,0.299-0.185,1.199-0.428,2.229c-0.742,3.177-2.181,8.044-2.817,10.179l-7.721,25.982c-0.689,2.355-1.182,4.457-2.003,6.043
			c-0.837,1.593-1.78,2.736-3.958,3.774l-1.34,0.621l-1.714,5.836l26.826,0.014c1.425,0,2.844,0.006,4.249,0.006
			c4.789,0,9.531-0.085,14.398-0.899c4.862-0.812,9.841-2.379,14.945-5.262l-0.027,0.013l0.014-0.003
			c5.505-3.081,10.129-7.219,13.63-11.834l-2.588-1.968l-3.245-0.085l-0.439,16.499l2.2,0.794L191.132,188.009z"/>
		<path fill-rule="evenodd" clip-rule="evenodd" fill="#D31245" d="M182.337,193.396c-0.407-0.397-2.136,0.971-2.136,0.971
			s-32.541,25.001-68.894,17.085c-14.393-3.136-22.244-13.643-26.619-20.937l37.559,0.02l7.791-12.771h-0.496
			c-4.956,3.886-10.376,4.642-15.972,4.638c-3.5,0-7.15-0.17-10.118-1.271l4.725-15.916l3.297,0.006
			c3.699,0.004,8.395-0.335,8.786,3.051h0.506l3.512-11.853h-0.493c-1.001,0.345-2.431,0.434-3.826,0.424l-9.292-0.004l4.07-13.709
			l3.202,0.004c4.891,0,10.717-0.418,12.231,3.561l0.299,0.003l3.518-11.85l-39.473-0.023l-0.074,0.253
			c4.147,2.545,2.01,7.366,0.703,11.768l-9.395,31.648c-0.749,2.503-1.498,5.912-3.119,8.092l-0.103-0.143
			c-1.835-4.401-3.61-8.274-4.431-10.019l-8.559-20.931c9.287-3.012,17.775-8.931,20.173-17.001
			c2.145-7.205,0.026-12.917-6.451-16.366c-4.949-2.582-10.068-2.483-16.295-2.486l-37.626-0.023l-0.097,0.325
			c5.236,3.344,2.524,9.476,0.864,15.072l-11.89,40.036c-1.667,5.594-2.596,11.729-9.814,15.066l-0.099,0.318l34.197,0.025
			l0.093-0.321c-5.239-3.344-2.525-9.476-0.86-15.075l4.44-14.957c0,0,6.062,20.419,13.154,35.579
			c5.711,12.208,15.33,31.255,46.05,33.313c41.426,2.779,71.905-28.616,75.971-33.494
			C181.345,195.507,182.764,193.803,182.337,193.396 M65.554,140.612c-2.015,6.776-9.554,12.48-17.788,13.659l7.223-24.327h1.272
			c2.546,0,5.151,0.224,6.927,1.514C66.007,133.505,66.575,137.164,65.554,140.612"/>
		<path fill-rule="evenodd" clip-rule="evenodd" fill="#D31245" d="M160.785,144.432l-11.017,37.064
			c1.648,0.509,3.396,0.68,5.196,0.68c6.299,0.003,10.772-1.599,15.449-6.25c3.856-3.896,6.018-8.46,7.351-12.944
			c2.588-8.72,2.082-19.131-10.214-19.144C165.356,143.838,163.083,144.097,160.785,144.432 M191.132,188.009l0.368-14.156
			c-3.232,4.264-7.527,8.113-12.632,10.964c-10.924,6.171-20.797,5.738-31.989,5.732l-22.484-0.014l0.079-0.253
			c5.669-2.625,6.405-7.445,7.712-11.841l7.717-25.982c0.854-2.874,3.14-10.575,3.376-13.029c0.099-1.698-0.847-3.561-2.424-4.322
			l0.079-0.252l21.185,0.009c10.799,0.007,21.02-0.406,28.43,4.934c7.409,5.331,9.314,14.051,6.601,23.19
			c-1.011,3.429-2.758,6.904-5.116,10.159c5.609,4.653,14.603,7.862,23.357,7.865c5.65,0.004,13.769-1.583,15.529-7.527
			c3.855-12.947-35.176-10.316-28.107-34.095c1.793-6.047,7.035-11.886,13.847-15.377c7.528-3.82,15.674-5.088,23.326-5.084
			c7.021,0.003,14.228,1.071,20.113,3.196l-3.691,12.416c-4.415-2.861-9.919-4.989-16.192-4.993
			c-4.894-0.003-11.442,1.8-12.921,6.779c-1.517,5.101,5.157,7.124,9.288,8.818c5.36,2.233,10.392,4.253,14.307,7.972
			c4.69,4.467,6.536,9.242,4.513,16.037c-2.042,6.895-7.252,13.052-15.134,17.187c-8.75,4.56-17.061,5.509-25.954,5.503
			C206.036,191.835,198.147,190.558,191.132,188.009"/>
	</g>
</g>
</svg>
