<?xml version="1.0" encoding="utf-8"?>
<!-- Generator: Adobe Illustrator 15.1.0, SVG Export Plug-In  -->
<!DOCTYPE svg PUBLIC "-//W3C//DTD SVG 1.1//EN" "http://www.w3.org/Graphics/SVG/1.1/DTD/svg11.dtd" [
	<!ENTITY ns_flows "http://ns.adobe.com/Flows/1.0/">
]>
<svg version="1.1"
	 xmlns="http://www.w3.org/2000/svg" xmlns:xlink="http://www.w3.org/1999/xlink" xmlns:a="http://ns.adobe.com/AdobeSVGViewerExtensions/3.0/"
	 x="0px" y="0px" width="1000px" height="1000px" viewBox="-61.586 0 1000 1000"
	 overflow="visible" enable-background="new -61.586 0 1000 1000" xml:space="preserve">
<defs>
</defs>
<path fill="#FFFFFF" d="M415.981,23.383c12.557-4.725,97.338-20.452,105.187-15.731c7.85,4.712,32.963,34.607,32.963,70.791
	c0,36.186,7.854,100.688-75.36,92.823c-83.2-7.864-87.911-6.291-75.351-22.022c12.562-15.734,29.831-25.172,20.411-31.465
	c-9.425-6.299-20.411-28.316-7.849-29.895c12.557-1.568,31.396,3.144,34.544-3.147c3.137-6.293,6.273-20.451-12.567-18.875
	c-18.84,1.571-31.397-3.149-28.255-29.892C412.844,9.222,403.419,28.103,415.981,23.383z"/>
<path fill="#0062AE" d="M591.811,289.888c-11.929,6.296-24.8,10.702-38.309,13.218c-2.514,1.568-7.845-0.948-10.357,2.513
	c16.013,31.468,34.538,62.302,52.431,93.14c4.09,4.72,9.421,11.008,16.014,12.268c10.048,1.576,20.725,0.314,27.317-7.865
	c0-1.262,0.314-2.83-1.252-3.147c-16.646,0-32.03-8.179-40.817-22.342c-7.54-12.584-7.226-33.036,1.886-44.676
	c10.043-12.587,24.171-20.451,40.184-18.875c22.61,3.456,39.57,21.708,48.362,42.158c10.043,25.485,6.269,57.582-10.996,78.034
	c-17.27,19.192-44.906,30.204-72.848,23.282c-30.135-5.349-49.295-35.241-62.479-60.099h-1.571
	c-6.598,9.757-11.929,20.141-17.27,30.521c12.567,10.697,25.752,24.544,22.925,42.794c-2.514,4.715-2.204,11.011-7.54,13.527
	c-3.132,0.953-7.53-2.516-8.473,2.519c1.257,7.244-0.319,15.425-3.142,22.022c-3.456,3.149-7.854,3.463-11.929,5.042
	c2.504,17.3-5.341,33.034-16.955,44.05c-0.314,10.375-10.996,17.302-20.097,21.396c-11.929,3.456-28.58,5.66-38.623-3.78
	c-12.557,3.152-15.385-12.266-21.04-19.192c-4.708-9.121-6.273-23.591-2.199-34.293c10.053-8.181,6.912-23.289,20.097-29.259
	c3.774-0.955,7.226-3.777,11.934-3.463c1.57-3.783,8.791-8.184,3.461-11.961c-10.368-6.607-19.16-17.308-21.354-28.949
	c-11.305-9.438-19.783,5.977-31.088,5.977c-4.708,0.319-7.224-5.032-10.043-8.176c-8.482,2.199-16.955,8.495-26.378,4.089
	c-4.712-3.775-12.25-0.631-17.581,0.945c-11.936,2.833-26.692,4.718-39.563,0c-15.389,1.885-29.517-5.034-38.623-17.934
	c-10.048-10.388-2.511-24.857-3.77-37.444c0.945-11.957,10.051-23.287,20.414-29.269c13.813-10.064,23.55,2.207,38.935-1.882
	c10.048,2.827,15.379,19.195,28.26,11.64c3.76-20.449-2.199-45.307,17.267-57.266c4.71-1.571,9.729-1.883,14.756-3.142
	c6.909,0.628,19.149,0.628,27.632,0l0.938-0.948c-3.765-8.178-7.844-16.676-12.243-24.543c-2.513-4.721-5.653-9.755-8.473-14.158
	c-5.343,0.314-5.658,6.607-9.739,9.438c-1.254,1.262-2.511,2.517-4.079,4.092c-5.964,5.667-13.819,11.326-21.979,9.757
	c-6.278-0.948-10.989-13.85-17.581-5.04c-4.71,2.833-10.996,3.778-16.646,2.519c-5.967-1.254-7.852-10.383-15.382-6.293
	c-9.737,9.76-25.75,10.383-37.992,6.293c-7.538,4.411-17.589,2.207-25.436-0.939c-4.082-1.579-7.852-3.775-10.986-6.296
	c-27.949-19.506-37.052-54.75-43.328-86.215c-4.396-46.571,4.388-91.25,36.419-123.975c12.24-12.582,29.821-18.556,47.098-13.839
	c14.444-2.833,9.417-22.028,23.229-26.748c1.573-0.942,3.772,0.316,5.032-1.566l3.137-4.414c10.991-0.94,21.977-10.066,32.025-4.72
	c12.559,3.78,18.837,17.622,29.512,22.973c10.365,10.066,10.679,26.748,8.796,40.586l1.254,5.037l22.919,36.5
	c3.137,1.887,6.907-0.948,10.048-2.516c2.508-1.579,4.713-4.406,3.142-7.55c-4.084-3.775-3.77-9.44-3.77-15.108l-0.314-25.803
	l1.262-2.833c16.322-1.256,31.392-1.566,48.348-1.256c3.455,1.887,3.77,5.662,2.822,8.495c-0.938,2.523-4.079,2.83-5.959,4.72
	c-9.421,1.574-21.978-1.57-29.198,2.831c-1.885,1.579-1.571,4.728-0.948,7.239c0.314,2.201,2.514,2.832,4.713,3.146
	c10.048,0.314,24.496-3.146,34.224,1.885c1.566,2.519,2.199,5.979,1.262,9.126c-8.487,12.592-26.071,13.849-35.177,25.494
	c-4.708,4.713-8.792,10.38-12.238,16.353l1.251,1.578l93.254,0.316c13.499-1.895,27.951-10.383,33.597-24.229
	c11.613-24.541,1.256-52.234,1.885-78.663c-1.262-18.25-26.066-20.14-28.884-38.385c-6.278-7.553-15.709-0.947-22.61-1.576
	c-20.092,2.835-40.193,6.293-61.229,9.438c-5.335,2.519-12.562,2.202-15.07,8.184c-1.262,8.495-0.628,18.25,6.278,22.973
	l28.575-0.634c3.137,0.943,5.65,2.833,7.221,5.663c1.885,4.72-0.947,8.81-5.645,10.074c-16.966,0.94-29.837,1.566-46.792,0.94
	l-1.571-3.461c-0.628-14.475-0.628-29.575-1.257-43.738c3.147-5.979,9.106-8.493,15.07-10.383
	C452.4,11.741,485.692,5.447,519.283,0.096c5.336-0.314,10.043,0,13.818,3.146c2.514,5.349,4.703,12.268,10.986,13.841
	c21.349,5.04,40.812,15.42,59.338,28.319c43.331,33.353,73.79,86.218,61.543,144.112
	C657.751,232.934,629.492,270.067,591.811,289.888z"/>
<path fill="#FFFFFF" d="M570.143,77.504c-1.885,28.63,12.562,61.983-5.649,86.21c-15.39,29.261-50.232,29.892-79.75,27.371
	l-82.891-0.31l2.508-12.909c1.89-0.938,2.823-0.309,4.712,0c38.304-2.192,76.922,3.468,113.031-3.147
	c17.584-2.825,31.711-20.446,37.995-36.493c5.959-22.975,0.313-48.142-0.629-71.743c-1.57-8.181-3.77-16.048-6.906-23.913
	c0-1.573,0.314-3.461,1.565-4.089C570.143,46.034,567.321,62.71,570.143,77.504z"/>
<path fill="#FFFFFF" d="M340.622,58.621c-0.94,1.26,0.314,2.521,1.257,3.145c4.082-0.623,8.166-6.605,12.245-1.885
	c1.257,11.645,0.314,21.713-0.94,33.036c11.617,19.192,22.922,38.704,34.855,57.583v2.519c-6.283,6.607-11.311,14.786-15.075,22.968
	c-5.341-4.403-12.243-7.865-19.152-4.403c-3.768-0.631-7.538-2.202-9.111-5.982c0-3.461,2.833-3.775,5.032-5.346
	c2.82,0.938,4.391-1.576,6.278-2.83c0-5.982-4.712-10.386-7.852-15.101c-6.281-3.466-14.447,3.768-19.466-4.411
	c-1.254-4.089,2.197-5.668,4.708-6.605c2.83,1.568,4.712-0.631,5.964-3.152c-0.621-3.461-2.514-7.55-5.653-10.066
	c-6.904,0.314-12.557,0.314-16.953-4.718c-4.712-7.864-14.13-17.305-9.42-27.371c-0.31-2.523-1.571-4.726-4.082-5.04
	c-4.398,0.633-5.019-4.403-6.592-7.236c0-7.553,1.573-16.991,9.103-20.14c2.514,0.945,6.279,2.204,7.85,0.945
	c-1.571-3.775-4.396-7.236-4.077-11.956l2.191-1.259C322.099,45.717,339.997,44.149,340.622,58.621z"/>
<path fill="#FFFFFF" d="M596.837,94.487c-0.628,30.206,11.301,64.821-8.482,89.993c-14.751,20.143-35.167,36.188-59.029,39.649
	c-42.073,0.938-85.398,0-126.844-0.948c-1.262-4.089-0.948-9.124-1.576-13.53l1.262-0.94c22.605,0.625,46.467,0.312,70.643,0.312
	c0.943-1.576,1.257,0,2.199,0c34.225-2.202,75.042,5.035,97.647-25.489c24.495-27.373,14.761-67.33,13.813-101.942
	c-1.885-6.299-2.508-14.163,0.314-19.828C597.781,68.689,595.262,82.853,596.837,94.487z"/>
<path fill="#FFFFFF" d="M285.046,101.095c0.948,2.832,0,5.662-0.94,7.867c-15.07,8.181-34.848,6.291-50.24,0
	c-3.763-2.205-4.077-6.293-2.197-9.747c3.142-7.559,11.303-15.111,19.466-17.305C266.211,79.387,277.2,90.086,285.046,101.095z"/>
<path fill="#FFFFFF" d="M619.449,89.46c4.383,17.933,2.503,39.639,5.021,59.151c-2.833,1.254,0.938,2.204,0.304,3.777
	c3.146,39.959-24.805,75.825-59.338,92.816c-34.544,16.996-76.922,7.241-115.859,10.071l-37.366-0.631l-5.026-12.584
	c32.973-1.571,64.056-1.257,97.338-0.626c26.065-1.262,52.122-4.411,72.848-20.138c18.84-14.475,32.653-35.871,36.104-59.473
	c2.204-23.913-0.31-47.508-3.451-71.104c0.314-3.152-0.314-6.299,2.514-8.189C615.354,82.853,617.553,86.625,619.449,89.46z"/>
<path fill="#FFFFFF" d="M306.717,141.061c8.159,22.968,9.104,50.975,2.506,74.885c-16.953,11.645-25.745-16.991-43.011-6.294
	c-4.394-1.259-7.538-5.029-12.243-5.665c-14.761,0.636-26.064,11.959-36.115,22.027l-3.137-1.885
	c-10.365-27.693-6.595-67.028,3.765-92.193c5.65-4.092,14.442-2.204,21.351-1.89c16.955,2.827,35.167,2.513,51.497-1.571
	c1.566-1.267,3.137-1.89,5.021-2.204C304.518,126.9,303.889,136.026,306.717,141.061z"/>
<path fill="#FFFFFF" d="M648.332,141.377c10.672,46.878-7.226,96.282-47.42,122.71c-32.339,25.488-80.691,19.509-120.252,20.766
	c-15.693-1.257-33.596,0.629-49.609-0.945c-5.021-1.576-5.964-7.55-7.535-11.642h49.294l1.257-1.571l1.886,1.571
	c27.945-1.571,58.405,3.783,84.147-4.713c1.885,0.624,3.77-2.209,6.273-1.893c36.424-12.273,67.507-47.511,72.848-85.896
	c5.026-14.792-2.199-30.838,2.827-45.629C645.819,134.136,646.132,138.856,648.332,141.377z"/>
<path fill="#FFFFFF" d="M366.686,193.921l0.938,2.199l-1.566,24.232l-33.285-1.574c-2.825-11.956,1.571-20.768,1.571-33.039
	c3.77-0.314,7.535,2.833,11.617,3.775C352.867,191.086,359.462,193.292,366.686,193.921z"/>
<path fill="#FFFFFF" d="M258.048,221.923c1.568,2.835,0.312,7.556,4.077,9.126c3.458-3.775,10.051-3.775,15.075-2.516
	c5.964,2.199,7.224,10.38,13.502,7.864c27.004,1.888,52.748,2.202,79.126,5.037c3.765,7.545,5.021,15.729,9.413,22.968v2.204
	l-9.104,0.626c-4.079,5.665-9.729,15.415-18.523,13.529c-1.88-3.777-0.314-9.118-1.568-13.208c-4.398,0-10.991-2.209-14.444,1.883
	c-1.888,4.715-4.71,6.922-9.106,9.443c-3.142,0.314-8.789,1.882-8.789-2.521c0.314-4.715,0.938-11.956-6.279-9.752
	c-9.737-1.576-8.478,11.011-16.96,12.273c-11.303-0.633-21.349,2.197-30.141,8.179c-2.508,1.254-3.453-1.262-3.453-3.149
	c-1.571-4.084,3.142-7.55-0.626-10.383c-3.458,2.833-7.852,4.721-12.562,3.147c-7.223-2.202-8.163-12.271-16.015-11.957
	c-3.136-2.516-5.024-6.922-7.844-9.44c0-0.945,0-3.461,1.88-3.775c1.568-0.314,4.084,0.945,6.279,0.628
	c7.849-7.238,0.316-23.915,14.13-28.316C247.685,220.352,256.161,213.113,258.048,221.923z"/>
<path fill="#FFFFFF" d="M524.304,305.934c19.154,33.351,38.623,66.706,57.464,100.059c8.158,14.475,24.485,23.913,42.702,22.025
	c6.278-1.573,12.242-5.349,18.207-6.293c12.242-7.55,21.981-22.022,22.291-37.442c-1.257-11.643-5.336-22.337-14.123-30.519
	c-10.682,1.891-20.411-0.313-26.071-9.44c-1.565-5.668,2.209-10.069,6.278-12.271c16.337-3.147,29.522,8.809,38.005,21.397
	c11.3,14.152,11.609,36.18,5.021,52.542c-8.168,18.881-27.009,32.722-47.096,34.298c-49.933,8.179-62.171-48.454-85.724-77.718
	c-2.827,1.257-5.021,5.029-6.901,7.867c-10.362,20.452-21.981,40.587-32.664,61.353c-1.57,5.034,2.204,8.812,5.97,11.017
	c8.163,7.55,24.805,11.328,21.354,25.483c-5.655,3.463-15.07-7.551-17.274,4.097c-6.907,8.174,9.105,16.043,0,24.541
	c-5.964,3.456-8.792-6.613-13.813-1.579c-3.765,3.778-9.105,8.81-5.021,14.48c5.336,11.956-2.828,23.279-7.216,33.351
	c-2.199,3.146-7.227,0.94-7.854,5.343c-0.942,5.354,12.242,9.126,4.707,12.587c-8.791,1.885-17.578,1.576-26.689,2.209
	c-7.221-0.633-5.654-8.812-10.357-12.272c-4.084,3.146-6.906,8.173-10.367,12.272c-2.509-0.324-4.394-3.157-5.017-5.351
	c2.199-9.132-4.398-24.86,9.106-28.007c0.938-2.511,3.451-3.775,2.194-6.924c-1.885-3.772-7.226-3.145-8.164-7.55
	c4.708-9.126,16.327-5.027,24.171-10.692c6.603-9.446,12.566-19.826,17.274-29.897c-0.629-3.144-4.394-3.144-6.907-4.403
	c-10.99-4.406-22.605-11.956-24.49-24.227l1.885-11.331c10.044-17.936,20.716-33.35,31.712-50.344
	c1.875-3.775,4.084-8.495,1.875-12.896c-13.5-21.087-26.994-42.793-40.179-64.507c-1.262-0.945,0.313-2.828,1.565-3.149
	L524.304,305.934z"/>
<path fill="#FFFFFF" d="M404.047,333.312c10.357,0.942,20.411-1.888,29.203,2.519l21.977,31.463c0,3.461,3.142,5.663,2.514,9.438
	c-14.757,1.888-27.952,0.314-43.336,1.573l-4.079,4.406l-0.314,44.048c-3.76,5.351-8.158,9.126-14.756,10.068
	c-2.511-4.087-0.312-11.323-3.451-14.784c-4.398,1.885-16.013-2.83-14.13,6.919c-3.77,3.461-8.168,5.66-13.502,5.977
	c-2.825-2.83,0.628-9.435-3.142-11.956c-5.65,0-13.811-3.461-17.267,3.775c-6.286,13.218-23.239,7.864-32.654,16.362h-1.568
	c-1.888-4.09-1.259-9.75-4.084-12.896c-8.163,4.089-18.214-0.636-25.121-6.927c-2.197-3.459-8.161-5.66-8.478-10.064
	c2.516-5.351,9.42,1.885,11.619-4.406c3.458-5.982-5.024-9.126-2.513-16.051c6.278-4.72,10.677-12.582,18.529-15.417
	c3.456,2.521,0.945,15.103,8.789,9.443l1.259-0.947c11.614-5.349,17.576,9.442,29.203,6.922c10.046-1.579,21.663,2.204,28.879-5.032
	c0.945-15.105-0.31-27.376,0.945-42.477c3.142-8.181,10.989-12.271,20.097-12.271c4.079,0,10.355,1.885,13.502-1.264
	L404.047,333.312z"/>
<path fill="#FFFFFF" d="M610.641,360.369c9.111,11.331,23.239,18.881,38.628,15.417l0.634,0.628
	c-5.655,5.665-16.022,6.613-23.244,4.406c-8.473-3.147-17.264-10.38-17.264-20.452H610.641z"/>
<path fill="#FFFFFF" d="M448.634,396.558c-4.079,9.435-11.305,16.99-15.384,25.797h-0.938c0.309-8.807-2.523-18.248,0.309-26.745
	L448.634,396.558z"/>
<path fill="#0062AE" d="M617.877,408.828c-0.324,0-0.634,0.314-0.947,0.314l0.947-1.259V408.828z"/>
<path fill="#0062AE" d="M456.656,32.613c0,0,0.542,16.694,2.686,17.769c6.456-2.148,23.649-10.766,26.335-15.078
	C479.763,32.073,460.953,32.073,456.656,32.613z"/>
<path fill="#008E5B" d="M24.315,677.917c2.8,0,5.794,0.192,8.602,0.375c4.862,0.37,20.753,1.12,29.92,14.797
	c2.055,2.999,5.792,9.567,5.792,19.124c0,4.125-0.745,14.238-9.344,22.488c-2.808,2.615-5.615,4.317-8.79,6.188
	c5.604,1.312,7.847,2.062,10.284,3.369c5.419,2.636,19.071,11.24,19.071,29.604c0,3.38-0.552,6.375-0.93,7.51
	c-1.125,4.683-5.052,17.057-18.141,23.421c-4.302,2.067-8.227,2.62-13.091,3.567c-3,0.365-5.8,0.74-8.79,0.923H0V677.917H24.315z
	 M11.784,799.543h14.581c5.245,0,8.792,0,18.706-1.115c3.367-0.76,5.981-1.141,8.972-2.625
	c12.156-5.447,13.279-17.816,13.279-22.307c0-16.682-12.901-22.296-18.514-23.988c-5.982-1.692-13.271-1.875-14.958-2.057H11.784
	V799.543z M11.966,737.889h12.716c11.224-0.745,20.196-1.692,27.308-10.677c4.865-6,5.417-11.624,5.417-14.624
	c0-2.438-0.367-7.495-3.93-13.119c-6.727-10.115-16.448-11.438-27.667-12.188H11.966V737.889z"/>
<path fill="#008E5B" d="M168.258,678.109v10.297h-56.86v49.295h56.291v10.672h-56.291v50.055h58.54v11.239H99.621V678.109H168.258z"
	/>
<path fill="#008E5B" d="M196.305,678.109l93.877,112.246V678.109h10.654v131.558h-7.667l-95.002-113.954
	c0.38,12.942,0.755,25.682,0.755,38.623c0,12.178,0,24.354-0.192,36.536c0,12.932,0.192,25.671,0.192,38.603h-11.599V678.109
	H196.305z"/>
<path fill="#008E5B" d="M390.917,678.109v10.297h-56.85v49.295h56.292v10.672h-56.292v50.055h58.527v11.239h-70.307V678.109H390.917
	z"/>
<path fill="#008E5B" d="M505.738,677.917v9.933h-46.011v121.817h-11.401V687.656h-45.637v-9.739H505.738z"/>
<path fill="#008E5B" d="M622.139,677.917v9.933h-46.006v121.817h-11.412V687.656H519.09v-9.739H622.139z"/>
<path fill="#008E5B" d="M628.022,697.974c12.151-13.864,31.042-20.989,50.116-20.989c17.958,0,35.531,6.183,47.5,18.547
	c11.777,12.182,18.142,29.993,18.142,47.602c0,16.5-5.609,32.807-16.267,44.982c-12.354,14.053-30.859,22.302-49.933,22.302
	c-7.297,0-25.063-1.5-41.329-13.874c-22.073-16.677-24.495-41.978-24.495-51.535C611.371,727.571,617.173,710.348,628.022,697.974z
	 M635.501,779.111c10.094,12.749,25.99,20.066,42.262,20.066c6.922,0,24.317-1.51,37.781-15.374
	c10.656-10.683,16.271-26.239,16.271-41.785c0-6.942-0.938-24.937-14.589-38.8c-14.026-14.245-32.167-15.938-39.089-15.938
	c-4.678,0-14.401,0.568-25.428,6c-24.313,12.557-28.621,37.665-28.985,47.035C623.35,747.258,623.725,764.314,635.501,779.111z"/>
<path fill="#008E5B" d="M772.289,678.109l93.887,112.246V678.109h10.651v131.558h-7.667l-95.002-113.954
	c0.37,12.942,0.745,25.682,0.745,38.623c0,12.178,0,24.354-0.183,36.536c0,12.932,0.183,25.671,0.183,38.603h-11.584V678.109
	H772.289z"/>
<path fill="#0062AE" d="M230.588,997.183c-4.11-8.239-11.219-22.488-24.678-40.285c-6.172-8.432-12.537-15.932-23.563-17.807
	c-2.995-0.375-6.734-0.375-7.104-0.375v58.467H156.16V864.878h28.62c14.583,0.375,30.11,2.245,39.084,15.921
	c2.245,3.386,5.609,9.75,5.609,19.88c0,13.866-6.359,22.105-10.474,26.048c-2.62,2.24-5.047,3.933-11.225,6.922
	c1.5,0.761,2.99,1.693,4.308,2.433c7.287,5.067,12.901,14.624,17.391,21.759l14.959,24.729c4.115,6.74,5.609,8.625,11.031,14.614
	H230.588z M187.582,921.285c8.037-0.365,15.526-1.5,19.818-9.365c0.943-1.692,2.625-5.25,2.625-10.314
	c0-1.864-0.182-6.927-3.739-11.239c-6.354-7.869-16.267-7.682-25.063-7.489h-5.979v38.408H187.582z"/>
<path fill="#0062AE" d="M366.22,941.523c0,1.317,0.188,9.75-0.75,16.124c-2.057,16.864-9.537,27.921-24.683,35.603
	c-5.047,2.443-15.151,6.75-29.177,6.75c-15.516,0-32.725-5.817-43.381-18.182c-1.5-1.875-4.489-5.797-6.922-11.807
	c-3.557-9.182-3.745-17.796-3.932-27.546v-77.588h18.713v74.963c0.188,9.172,0.37,19.124,5.792,27.171
	c1.677,2.817,4.307,5.25,7.104,7.125c8.787,6.182,19.073,6.182,22.255,6.182c3.922,0,15.516,0,24.871-7.682
	c5.047-3.933,7.104-8.442,8.037-10.5c2.995-6.932,3.182-15.921,3.37-23.229v-74.03h18.704V941.523z"/>
<path fill="#0062AE" d="M503.331,988.943c-6.729,2.808-24.495,11.057-46.011,11.057c-8.219,0-27.11-0.76-44.496-15.557
	c-8.047-6.932-24.693-24.556-24.693-53.784c0-8.067,1.5-27.923,16.646-45.542c7.292-8.433,23.375-23.041,51.798-23.041
	c11.969,0,22.636,2.619,33.667,7.484c4.484,1.875,8.792,4.124,13.089,6.385v20.035c-5.239-2.994-24.87-15.354-46.563-15.354
	c-3.552,0-11.974,0.172-21.146,4.49c-17.381,8.057-27.667,26.053-27.667,44.975c0,22.316,13.287,35.978,19.448,41.045
	c12.344,9.932,25.063,10.317,31.042,10.317c10.849,0,17.391-2.261,27.495-5.817V948.08h-24.12v-16.113h41.511V988.943z"/>
<path fill="#0062AE" d="M526.934,864.878h28.803c14.948,0,28.793,1.125,37.584,14.999c2.428,3.547,5.798,10.297,5.798,20.979
	c0,3.94-0.562,14.257-9.542,21.929c-2.615,2.067-5.229,3.75-8.047,5.24c6.364,0.942,8.792,1.51,11.791,2.817
	c11.964,5.239,17.574,16.682,17.574,29.421c0,10.874-4.11,17.806-6.542,21.363c-10.657,14.614-26.553,15.182-42.829,15.557h-34.59
	V864.878z M567.701,979.568c2.984,0,6.354-0.192,9.35-0.75c13.651-3.182,14.584-13.488,14.584-18.738
	c0-14.999-11.22-18.932-16.459-19.682c-3.172-0.558-11.406-0.558-20.198-0.558h-9.72v39.728H567.701z M557.602,921.66
	c11.026-0.375,14.958-2.808,18.323-7.308c3.557-5.058,3.932-10.499,3.932-12.554c0-2.443-0.567-10.125-6.922-14.99
	c-5.047-3.749-12.901-3.749-18.511-3.749h-9.167v38.601H557.602z"/>
<path fill="#0062AE" d="M675.685,927.102v70.081h-18.703v-70.081l-44.876-62.224h23.005l31.407,44.042l31.423-44.042h23.193
	L675.685,927.102z"/>
</svg>
