<?xml version="1.0" encoding="utf-8"?>
<!-- Generator: Adobe Illustrator 15.1.0, SVG Export Plug-In  -->
<!DOCTYPE svg PUBLIC "-//W3C//DTD SVG 1.1//EN" "http://www.w3.org/Graphics/SVG/1.1/DTD/svg11.dtd" [
	<!ENTITY ns_flows "http://ns.adobe.com/Flows/1.0/">
]>
<svg version="1.1"
	 xmlns="http://www.w3.org/2000/svg" xmlns:xlink="http://www.w3.org/1999/xlink" xmlns:a="http://ns.adobe.com/AdobeSVGViewerExtensions/3.0/"
	 x="0px" y="0px" width="1000px" height="1000px" viewBox="-110.729 0 1000 1000"
	 overflow="visible" enable-background="new -110.729 0 1000 1000" xml:space="preserve">
<defs>
</defs>
<path fill="#231F20" d="M695.77,602.059c95.312-56.775,64.036-225.301-69.864-376.417
	C523.752,110.356,391.388,38.511,292.039,36.135c84.588,26.148,179.338,88.562,256.742,175.917
	c133.9,151.115,165.177,319.641,69.861,376.419c-22.598,13.46-50.283,19.432-81.158,18.694
	C599.225,626.25,655.551,626.016,695.77,602.059z"/>
<path fill="none" stroke="#231F20" stroke-width="0.2799" stroke-miterlimit="3.8637" d="M695.77,602.059
	c95.312-56.775,64.036-225.301-69.864-376.417C523.752,110.356,391.388,38.511,292.039,36.135
	c84.588,26.148,179.338,88.562,256.742,175.917c133.9,151.115,165.177,319.641,69.861,376.419
	c-22.598,13.46-50.283,19.432-81.158,18.694C599.225,626.25,655.551,626.016,695.77,602.059z"/>
<path fill="#231F20" d="M288.485,20.33c-61.74-19.085-118.068-18.853-158.284,5.103c-95.315,56.776-64.036,225.303,69.864,376.418
	C302.217,517.138,434.583,588.982,533.931,591.36c-84.588-26.15-179.339-88.562-256.743-175.918
	c-133.9-151.117-165.178-319.642-69.864-376.418C229.924,25.562,257.61,19.591,288.485,20.33z"/>
<path fill="none" stroke="#231F20" stroke-width="0.2799" stroke-miterlimit="3.8637" d="M288.485,20.33
	c-61.74-19.085-118.068-18.853-158.284,5.103c-95.315,56.776-64.036,225.303,69.864,376.418
	C302.217,517.138,434.583,588.982,533.931,591.36c-84.588-26.15-179.339-88.562-256.743-175.918
	c-133.9-151.117-165.178-319.642-69.864-376.418C229.924,25.562,257.61,19.591,288.485,20.33z"/>
<path fill="#CC0000" d="M96.195,595.883C0.88,539.107,32.159,370.58,166.06,219.464C268.212,104.178,400.579,32.333,499.925,29.956
	c-84.589,26.149-179.338,88.563-256.743,175.919c-133.9,151.115-165.178,319.641-69.863,376.418
	c22.599,13.462,50.285,19.434,81.16,18.693C192.739,620.072,136.413,619.836,96.195,595.883z"/>
<path fill="none" stroke="#CC0000" stroke-miterlimit="3.8637" d="M96.195,595.883C0.88,539.107,32.159,370.58,166.06,219.464
	C268.212,104.178,400.579,32.333,499.925,29.956c-84.589,26.149-179.338,88.563-256.743,175.919
	c-133.9,151.115-165.178,319.641-69.863,376.418c22.599,13.462,50.285,19.434,81.16,18.693
	C192.739,620.072,136.413,619.836,96.195,595.883z"/>
<path fill="#CC0000" d="M503.479,14.151c61.738-19.086,118.067-18.853,158.283,5.104c95.315,56.777,64.039,225.303-69.864,376.418
	C489.745,510.96,357.381,582.802,258.034,585.181c84.588-26.15,179.339-88.563,256.741-175.917
	C648.675,258.148,679.954,89.622,584.639,32.846C562.041,19.384,534.353,13.413,503.479,14.151z"/>
<path fill="none" stroke="#CC0000" stroke-miterlimit="3.8637" d="M503.479,14.151c61.738-19.086,118.067-18.853,158.283,5.104
	c95.315,56.777,64.039,225.303-69.864,376.418C489.745,510.96,357.381,582.802,258.034,585.181
	c84.588-26.15,179.339-88.563,256.741-175.917C648.675,258.148,679.954,89.622,584.639,32.846
	C562.041,19.384,534.353,13.413,503.479,14.151z"/>
<polygon fill="#CC0000" points="362.947,420.179 334.448,413.553 325.923,388.663 311.983,355.936 312.892,303.208 314.71,283.207 
	313.761,239.597 314.461,199.515 317.425,189.925 324.051,186.263 331.984,186.538 336.226,191.994 339.889,228.606 342.852,269.28 
	345.924,270.466 348.995,267.396 345.316,202.599 346.227,148.962 349.863,142.295 357.439,138.356 365.014,139.871 
	369.257,145.629 373.802,200.478 377.438,245.328 378.044,256.54 382.893,252.903 382.342,235.933 382.59,177.75 383.526,142.625 
	388.044,126.234 388.213,126.099 387.59,125.477 392.741,120.628 398.197,119.113 402.892,119.871 406.379,123.507 407.895,126.386 
	408.149,128.864 410.773,137.447 412.288,178.356 413.5,234.721 414.106,243.812 419.561,240.781 420.43,230.492 423.5,150.477 
	426.833,143.508 433.805,140.78 441.381,141.993 446.532,146.235 448.956,172.599 451.405,229.307 454.408,282.601 457.44,284.116 
	464.713,255.328 473.501,245.631 485.016,232.296 499.864,227.448 508.349,229.873 507.702,239.003 496.821,266.209 
	487.743,292.297 477.44,341.389 454.408,403.208 435.674,414.737 419.242,415.922 416.28,421.957 434.975,423.249 445.373,419.585 
	440.469,437.754 442.287,453.512 407.768,463.223 381.64,463.816 359.257,458.36 338.044,455.33 338.004,440.166 339.889,431.061 
	336.226,424.435 355.621,427.505 372.537,427.505 372.537,425.027 "/>
<polygon fill-rule="evenodd" clip-rule="evenodd" fill="#FFFFFF" points="447.741,297.751 441.684,299.57 402.592,336.844 
	402.892,354.117 405.622,393.511 408.349,391.087 407.137,343.51 410.773,334.723 "/>
<polygon fill-rule="evenodd" clip-rule="evenodd" fill="none" stroke="#FFFFFF" stroke-miterlimit="3.8637" points="
	447.741,297.751 441.684,299.57 402.592,336.844 402.892,354.117 405.622,393.511 408.349,391.087 407.137,343.51 410.773,334.723 
	"/>
<polygon fill-rule="evenodd" clip-rule="evenodd" fill="#FFFFFF" points="498.046,240.934 495.016,243.737 490.016,255.782 
	489.715,259.494 492.818,261.918 494.185,260.251 493.046,256.009 493.273,251.994 "/>
<polygon fill-rule="evenodd" clip-rule="evenodd" fill="none" stroke="#FFFFFF" stroke-miterlimit="3.8637" points="
	498.046,240.934 495.016,243.737 490.016,255.782 489.715,259.494 492.818,261.918 494.185,260.251 493.046,256.009 
	493.273,251.994 "/>
<path fill-rule="evenodd" clip-rule="evenodd" fill="#231F20" d="M427.644,627.682c0-21.034-17.126-38.163-38.16-38.163
	c-21.035,0-38.162,17.129-38.162,38.163c0,20.851,17.312,38.161,38.162,38.161C410.331,665.843,427.644,648.533,427.644,627.682z
	 M417.591,627.682c0,15.449-12.658,28.295-28.107,28.295c-15.452,0-28.11-12.846-28.11-28.295c0-15.451,12.475-28.481,28.11-28.481
	S417.591,612.231,417.591,627.682z M397.301,644.25h8.748c-1.116-2.235-1.675-3.538-1.859-5.215
	c-0.187-1.674-0.187-3.349-0.561-4.838c-0.184-1.49-0.742-2.793-3.164-4.839c3.352-2.795,4.468-5.401,4.468-8.565
	c0-8.188-6.702-9.865-13.401-9.865h-15.825v33.322h7.817v-12.475h4.283c4.467,0,7.446,0.747,8.005,5.772
	c0.187,1.303,0.374,2.606,0.558,3.722C396.557,642.203,396.743,643.131,397.301,644.25z M391.716,617.817
	c2.793,0,4.841,0.187,4.841,3.537c0,1.487-0.745,2.604-1.861,3.164c-0.932,0.188-2.048,0.188-2.979,0.188h-8.192v-6.889H391.716z"/>
<path fill-rule="evenodd" clip-rule="evenodd" fill="#CC0000" d="M273.58,977.856c-1.945-4.446-2.084-9.308-2.362-14.032
	c-0.972-13.752-3.195-21.81-16.81-27.368c12.365-3.749,18.478-12.502,18.478-25.284c0-6.669-2.362-13.338-7.085-18.06
	c-7.641-7.642-19.589-7.919-29.73-7.919h-43.623v92.663h16.949v-37.372h15.281c18.756,0,26.675,4.725,28.619,24.173
	c0.417,4.444,0.277,9.03,2.083,13.199H273.58z M254.408,912.56c0,5.836-2.361,11.255-8.335,13.061
	c-2.639,0.833-5.557,0.833-8.197,0.833h-28.479v-27.367h29.313C248.157,899.086,254.408,902.28,254.408,912.56z"/>
<path fill-rule="evenodd" clip-rule="evenodd" fill="#CC0000" d="M348.229,977.856V910.2h-15.838v55.291h-16.114
	c-10.42,0-13.059-4.169-13.059-14.03V910.2H287.38v40.703c0,15.144,5.14,25.703,21.533,26.814c2.224,0.139,4.307,0.139,6.529,0.139
	H348.229z"/>
<path fill-rule="evenodd" clip-rule="evenodd" fill="#CC0000" d="M428.568,976.881V910.2h-30.981c-9.309,0-17.366,0.694-24.588,7.36
	c-7.363,6.947-10.283,17.366-10.283,27.231c0,17.921,8.752,31.537,27.646,32.926c3.194,0.275,6.391,0.275,9.585,0.275
	c4.309,0,8.616-0.137,12.922-0.137c0,9.583-1.806,10.28-10.975,10.28h-32.509v12.363h33.759
	C421.344,1000.5,428.568,996.055,428.568,976.881z M412.869,965.491h-15.282c-7.225,0-12.78-1.389-16.255-8.336
	c-1.806-3.75-2.5-8.055-2.5-12.225c0-4.585,0.694-10.004,2.777-14.171c3.475-7.222,9.586-8.196,16.811-8.196h14.449V965.491z"/>
<path fill-rule="evenodd" clip-rule="evenodd" fill="#CC0000" d="M513.053,942.844c0-10.693-3.333-21.948-12.78-28.06
	c-5.833-3.752-12.504-4.585-19.31-4.585h-17.782v-25.007h-15.699v92.663h28.343c10,0,18.475-0.139,26.393-7.085
	C510.277,963.685,513.053,953.125,513.053,942.844z M496.801,943.68c0,6.114-1.392,14.863-6.669,18.755
	c-3.336,2.5-8.058,3.056-12.086,3.056h-14.865v-42.928h15.279C492.493,922.563,496.801,930.898,496.801,943.68z"/>
<path fill-rule="evenodd" clip-rule="evenodd" fill="#CC0000" d="M586.444,971.187V910.2h-15.838v55.291h-16.115
	c-11.811,0-12.366-6.947-12.366-16.672V910.2H526.29v41.678c0,3.472,0.139,6.944,0.972,10.419
	c2.361,9.03,10.558,14.585,19.588,15.421c2.083,0.139,4.03,0.139,6.113,0.139h17.644c-0.277,8.473-2.5,10.28-10.835,10.28H526.29
	v12.363h33.617c3.336,0,6.669,0,10.005-0.833C584.084,996.331,586.444,983.829,586.444,971.187z"/>
<path fill-rule="evenodd" clip-rule="evenodd" fill="#231F20" d="M121.628,781.746V699.83H92.029v83.373
	c0,9.382,0.208,20.429-7.92,26.891c-5.627,4.377-15.632,6.46-22.719,6.46c-10.423,0-23.345-3.96-28.348-13.967
	c-3.126-6.043-3.336-12.922-3.336-19.384V699.83H0.317v84c0,12.921,0.417,25.012,8.338,35.85
	c12.089,16.886,32.932,20.219,52.318,20.219c19.593,0,44.188-5.002,54.192-23.971C120.168,806.341,121.628,792.375,121.628,781.746z
	"/>
<path fill-rule="evenodd" clip-rule="evenodd" fill="none" stroke="#231F20" stroke-width="0.6337" stroke-miterlimit="3.8637" d="
	M121.628,781.746V699.83H92.029v83.373c0,9.382,0.208,20.429-7.92,26.891c-5.627,4.377-15.632,6.46-22.719,6.46
	c-10.423,0-23.345-3.96-28.348-13.967c-3.126-6.043-3.336-12.922-3.336-19.384V699.83H0.317v84c0,12.921,0.417,25.012,8.338,35.85
	c12.089,16.886,32.932,20.219,52.318,20.219c19.593,0,44.188-5.002,54.192-23.971C120.168,806.341,121.628,792.375,121.628,781.746z
	"/>
<path fill-rule="evenodd" clip-rule="evenodd" fill="#231F20" d="M242.123,838.855V814.05h-28.348
	c-9.172,0-23.346,0.836-30.641-5.835c-6.67-6.046-6.045-13.755-6.462-21.886c-0.208-2.71-0.417-5.626-0.417-8.339V699.83h-29.389
	v83.164c0,13.757,1.25,28.767,10.213,39.814c10.839,13.128,27.098,16.047,43.354,16.047H242.123z"/>
<path fill-rule="evenodd" clip-rule="evenodd" fill="none" stroke="#231F20" stroke-width="0.6337" stroke-miterlimit="3.8637" d="
	M242.123,838.855V814.05h-28.348c-9.172,0-23.346,0.836-30.641-5.835c-6.67-6.046-6.045-13.755-6.462-21.886
	c-0.208-2.71-0.417-5.626-0.417-8.339V699.83h-29.389v83.164c0,13.757,1.25,28.767,10.213,39.814
	c10.839,13.128,27.098,16.047,43.354,16.047H242.123z"/>
<path fill-rule="evenodd" clip-rule="evenodd" fill="#231F20" d="M381.377,797.793c0-14.591-5.211-29.805-18.969-36.686
	c-9.588-4.793-20.634-5.21-31.265-5.21H308.84c-11.464,0-25.43-0.833-25.43-15.843c0-13.964,10.006-15.421,21.469-15.421h68.576
	V699.83h-74.62c-12.089,0-25.013,0.833-34.602,9.171c-8.545,7.503-13.547,20.636-13.547,31.891c0,14.798,7.712,30.224,21.886,35.85
	c7.712,3.127,17.716,3.753,26.055,3.753h25.637c6.67,0,14.174,0.417,19.176,5.419c3.127,3.129,5.004,7.712,5.004,12.091
	c0,15.84-16.05,16.047-27.723,16.047h-63.366v24.805h76.08c15.009,0,28.556-0.833,38.771-13.34
	C378.458,817.805,381.377,807.591,381.377,797.793z"/>
<path fill-rule="evenodd" clip-rule="evenodd" fill="none" stroke="#231F20" stroke-width="0.6337" stroke-miterlimit="3.8637" d="
	M381.377,797.793c0-14.591-5.211-29.805-18.969-36.686c-9.588-4.793-20.634-5.21-31.265-5.21H308.84
	c-11.464,0-25.43-0.833-25.43-15.843c0-13.964,10.006-15.421,21.469-15.421h68.576V699.83h-74.62
	c-12.089,0-25.013,0.833-34.602,9.171c-8.545,7.503-13.547,20.636-13.547,31.891c0,14.798,7.712,30.224,21.886,35.85
	c7.712,3.127,17.716,3.753,26.055,3.753h25.637c6.67,0,14.174,0.417,19.176,5.419c3.127,3.129,5.004,7.712,5.004,12.091
	c0,15.84-16.05,16.047-27.723,16.047h-63.366v24.805h76.08c15.009,0,28.556-0.833,38.771-13.34
	C378.458,817.805,381.377,807.591,381.377,797.793z"/>
<polygon fill-rule="evenodd" clip-rule="evenodd" fill="#231F20" points="508.129,724.634 508.129,699.83 388.276,699.83 
	388.276,724.634 432.674,724.634 432.674,838.855 462.064,838.855 462.064,724.634 "/>
<polygon fill-rule="evenodd" clip-rule="evenodd" fill="none" stroke="#231F20" stroke-width="0.6337" stroke-miterlimit="3.8637" points="
	508.129,724.634 508.129,699.83 388.276,699.83 388.276,724.634 432.674,724.634 432.674,838.855 462.064,838.855 462.064,724.634 
	"/>
<path fill-rule="evenodd" clip-rule="evenodd" fill="#231F20" d="M627.603,838.855V814.05h-37.31
	c-24.386,0-38.562-5.209-40.854-32.097h78.164v-24.596h-78.164c0.626-7.715,1.252-16.05,6.255-22.512
	c7.921-10.631,21.469-10.212,33.35-10.212h38.56V699.83h-50.023c-11.048,0-22.096,0.833-31.891,6.669
	c-21.26,12.717-29.808,38.146-29.808,61.697c0,25.012,8.338,56.278,34.393,65.867c11.465,4.166,26.472,4.792,38.77,4.792H627.603z"
	/>
<path fill-rule="evenodd" clip-rule="evenodd" fill="none" stroke="#231F20" stroke-width="0.6337" stroke-miterlimit="3.8637" d="
	M627.603,838.855V814.05h-37.31c-24.386,0-38.562-5.209-40.854-32.097h78.164v-24.596h-78.164c0.626-7.715,1.252-16.05,6.255-22.512
	c7.921-10.631,21.469-10.212,33.35-10.212h38.56V699.83h-50.023c-11.048,0-22.096,0.833-31.891,6.669
	c-21.26,12.717-29.808,38.146-29.808,61.697c0,25.012,8.338,56.278,34.393,65.867c11.465,4.166,26.472,4.792,38.77,4.792H627.603z"
	/>
<path fill-rule="evenodd" clip-rule="evenodd" fill="#231F20" d="M778.105,838.855c-4.166-12.921-1.664-27.305-6.876-40.019
	c-4.796-11.672-10.007-15.634-21.679-19.803c18.967-6.042,26.472-21.469,26.472-40.436c0-16.883-9.798-30.848-26.055-35.643
	c-10.005-2.919-20.843-3.126-31.058-3.126h-67.95v139.025h29.598v-52.732h23.765c25.843,0,34.391,7.085,37.517,32.931
	c0.836,6.671,1.043,13.343,3.126,19.802H778.105z M743.508,742.141c0,14.591-7.921,19.176-21.472,19.176h-41.479v-36.683h41.479
	C734.544,724.634,743.508,727.967,743.508,742.141z"/>
<path fill-rule="evenodd" clip-rule="evenodd" fill="none" stroke="#231F20" stroke-width="0.6337" stroke-miterlimit="3.8637" d="
	M778.105,838.855c-4.166-12.921-1.664-27.305-6.876-40.019c-4.796-11.672-10.007-15.634-21.679-19.803
	c18.967-6.042,26.472-21.469,26.472-40.436c0-16.883-9.798-30.848-26.055-35.643c-10.005-2.919-20.843-3.126-31.058-3.126h-67.95
	v139.025h29.598v-52.732h23.765c25.843,0,34.391,7.085,37.517,32.931c0.836,6.671,1.043,13.343,3.126,19.802H778.105z
	 M743.508,742.141c0,14.591-7.921,19.176-21.472,19.176h-41.479v-36.683h41.479C734.544,724.634,743.508,727.967,743.508,742.141z"
	/>
<path fill-rule="evenodd" clip-rule="evenodd" fill="#FFFFFF" d="M332.982,343.31c0,0,6.341-15.028,9.274-17.961
	c2.933-2.933,86.092-37.293,86.092-37.293l14.638-2.737c0,0-94.887,40.431-98.882,43.951
	C340.111,332.787,332.982,343.31,332.982,343.31z"/>
<path fill-rule="evenodd" clip-rule="evenodd" fill="none" stroke="#FFFFFF" stroke-miterlimit="3.8637" d="M332.982,343.31
	c0,0,6.341-15.028,9.274-17.961c2.933-2.933,86.092-37.293,86.092-37.293l14.638-2.737c0,0-94.887,40.431-98.882,43.951
	C340.111,332.787,332.982,343.31,332.982,343.31z"/>
</svg>
