<?xml version="1.0" encoding="UTF-8" standalone="no"?>
<!-- Generator: Adobe Illustrator 14.0.0, SVG Export Plug-In . SVG Version: 6.00 Build 43363)  -->

<svg
   xmlns:ns="http://ns.adobe.com/SaveForWeb/1.0/"
   xmlns:dc="http://purl.org/dc/elements/1.1/"
   xmlns:cc="http://creativecommons.org/ns#"
   xmlns:rdf="http://www.w3.org/1999/02/22-rdf-syntax-ns#"
   xmlns:svg="http://www.w3.org/2000/svg"
   xmlns="http://www.w3.org/2000/svg"
   xmlns:sodipodi="http://sodipodi.sourceforge.net/DTD/sodipodi-0.dtd"
   xmlns:inkscape="http://www.inkscape.org/namespaces/inkscape"
   version="1.1"
   id="Layer_1"
   x="0px"
   y="0px"
   width="180"
   height="230"
   viewBox="0 0 179.99999 230"
   enable-background="new 0 0 269.29 255.12"
   xml:space="preserve"
   inkscape:version="0.48.1 "
   sodipodi:docname="Western_Force_logo.svg"><defs
   id="defs3061">
	
	
	
	
	
	
	
	
	
	
	
	
	
	
	
</defs><sodipodi:namedview
   pagecolor="#ffffff"
   bordercolor="#666666"
   borderopacity="1"
   objecttolerance="10"
   gridtolerance="10"
   guidetolerance="10"
   inkscape:pageopacity="0"
   inkscape:pageshadow="2"
   inkscape:window-width="1366"
   inkscape:window-height="706"
   id="namedview3059"
   showgrid="false"
   inkscape:zoom="1.1406397"
   inkscape:cx="134.645"
   inkscape:cy="127.56"
   inkscape:window-x="-8"
   inkscape:window-y="-8"
   inkscape:window-maximized="1"
   inkscape:current-layer="Layer_1" />
<metadata
   id="metadata3025">
	<ns:sfw>
		<ns:slices />
		<ns:sliceSourceBounds
   x="-1.279"
   y="6.996"
   width="270.569"
   height="242.79"
   bottomLeftOrigin="true" />
	</ns:sfw>
<rdf:RDF><cc:Work
     rdf:about=""><dc:format>image/svg+xml</dc:format><dc:type
       rdf:resource="http://purl.org/dc/dcmitype/StillImage" /></cc:Work></rdf:RDF></metadata>
<g
   id="g3078"
   transform="translate(-46,44)"><polygon
     transform="translate(0,-55.119996)"
     points="70.072,220.308 67.937,231.285 59.18,231.285 61.32,220.277 57.164,220.273 58.465,213.694 62.605,213.7 64.879,201.983 86.063,201.983 84.708,208.948 72.282,208.948 71.354,213.734 80.87,213.734 79.594,220.308 "
     id="polygon3031"
     style="fill:#fbb040" /><path
     d="m 110.559,161.841 c -1.599,8.19 -7.919,14.751 -16.661,14.751 -8.738,0 -12.501,-6.561 -10.907,-14.751 1.668,-8.613 7.899,-14.918 16.681,-14.918 8.777,0 12.559,6.305 10.887,14.918 m -18.126,0.04 c -0.542,2.774 -1.276,8.112 2.75,8.112 4.041,0 5.367,-5.338 5.902,-8.112 0.552,-2.811 1.226,-8.444 -2.686,-8.444 -3.901,0 -5.416,5.633 -5.966,8.444"
     id="path3033"
     inkscape:connector-curvature="0"
     style="fill:#fbb040" /><path
     d="m 119.177,176.165 h -8.951 l 5.61,-28.821 h 14.666 c 2.512,0 5.228,0.338 7.094,1.764 2.104,1.509 2.736,4.075 2.189,6.891 -0.744,3.783 -2.859,6.056 -6.563,7.61 l 2.765,12.557 h -9.834 l -2.061,-11.008 h -2.77 l -2.145,11.007 m 3.342,-17.18 h 3.231 c 1.937,0 4.305,-0.298 4.791,-2.78 0.188,-0.963 -0.144,-1.891 -0.923,-2.348 -0.685,-0.387 -1.614,-0.387 -2.458,-0.387 h -3.565 l -1.076,5.515 z"
     id="path3035"
     inkscape:connector-curvature="0"
     style="fill:#fbb040" /><path
     d="m 164.4,165.664 c -1.832,6.643 -7.496,10.928 -14.145,10.928 -8.664,0 -11.976,-6.267 -10.382,-14.453 1.614,-8.331 6.951,-15.216 16.026,-15.216 7.353,0 10.703,4.363 9.899,11.558 l -8.32,0.417 c 0.561,-2.442 0.229,-5.501 -2.756,-5.501 -3.911,0 -5.247,6.006 -5.778,8.742 -0.561,2.905 -1.346,7.814 2.646,7.814 2.73,0 4.245,-2.398 4.836,-4.796 l 7.974,0.507"
     id="path3037"
     inkscape:connector-curvature="0"
     style="fill:#fbb040" /><polygon
     transform="translate(0,-55.119996)"
     points="185.777,219.737 175.282,219.737 174.358,224.398 187.347,224.398 186.011,231.285 164.37,231.285 169.975,202.464 191.621,202.464 190.325,209.106 177.343,209.106 176.519,213.303 187.028,213.303 "
     id="polygon3039"
     style="fill:#fbb040" /><polygon
     transform="translate(0,-55.119996)"
     points="77.022,194.983 77.068,194.983 82.613,181.861 84.385,181.861 77.35,198.046 75.325,198.046 74.247,185.5 68.503,198.046 66.448,198.046 65.49,181.861 67.575,181.861 68.25,194.983 68.294,194.983 74.263,181.861 75.896,181.861 "
     id="polygon3041"
     style="fill:#fbb040" /><polygon
     transform="translate(0,-55.119996)"
     points="98.207,190.38 91.698,190.38 90.542,196.303 98.981,196.303 98.649,198.046 88.178,198.046 91.316,181.861 101.558,181.861 101.215,183.609 93.004,183.609 92.01,188.752 98.524,188.752 "
     id="polygon3043"
     style="fill:#fbb040" /><path
     d="m 107.858,138.159 c 0.213,2.239 1.876,3.282 4.15,3.282 0.963,0 2.185,-0.209 3.058,-0.8 0.705,-0.477 1.246,-1.296 1.39,-2.08 0.313,-1.618 -0.898,-2.288 -2.244,-2.641 l -2.566,-0.655 c -1.028,-0.263 -1.971,-0.517 -2.671,-1.301 -0.704,-0.755 -0.958,-1.866 -0.734,-2.994 0.6,-3.122 3.55,-4.463 6.354,-4.463 2.716,0 4.627,1.341 4.995,3.967 l -1.936,0.496 c -0.015,-1.771 -1.693,-2.859 -3.411,-2.859 -1.534,0 -3.624,0.805 -3.972,2.582 -0.353,1.802 0.983,2.209 2.428,2.562 l 2.319,0.585 c 1.013,0.244 2.016,0.552 2.706,1.252 0.854,0.829 1.136,1.94 0.879,3.207 -0.278,1.47 -1.167,2.795 -2.527,3.684 -1.355,0.898 -2.994,1.182 -4.453,1.182 -3.307,0 -5.188,-1.46 -5.659,-4.603 l 1.894,-0.403"
     id="path3045"
     inkscape:connector-curvature="0"
     style="fill:#fbb040" /><polygon
     transform="translate(0,-55.119996)"
     points="130.347,198.046 128.322,198.046 131.127,183.633 126.524,183.633 126.863,181.861 138.097,181.861 137.744,183.633 133.152,183.633 "
     id="polygon3047"
     style="fill:#fbb040" /><polygon
     transform="translate(0,-55.119996)"
     points="151.983,190.38 145.47,190.38 144.328,196.303 152.768,196.303 152.43,198.046 141.949,198.046 145.103,181.861 155.329,181.861 154.997,183.609 146.79,183.609 145.783,188.752 152.296,188.752 "
     id="polygon3049"
     style="fill:#fbb040" /><path
     d="m 169.29,142.926 -1.628,-7.005 h -4.488 l -1.361,7.005 h -2.029 l 3.152,-16.18 h 6.062 c 1.316,0 2.557,0.164 3.485,0.988 0.928,0.833 1.301,2.18 1.033,3.55 -0.373,1.905 -1.837,3.623 -3.823,4.141 l 1.723,7.501 h -2.126 m -1.99,-8.653 c 1.077,0 1.985,-0.069 2.954,-0.898 0.674,-0.565 1.086,-1.346 1.24,-2.125 0.185,-0.943 -0.024,-1.718 -0.699,-2.239 -0.611,-0.497 -1.292,-0.521 -2.14,-0.521 h -4.032 l -1.122,5.783 h 3.799 z"
     id="path3051"
     inkscape:connector-curvature="0"
     style="fill:#fbb040" /><polygon
     transform="translate(0,-55.119996)"
     points="184.75,181.861 189.854,195.052 192.415,181.861 194.113,181.861 190.966,198.046 188.984,198.046 183.499,183.941 180.753,198.046 179.056,198.046 182.198,181.861 "
     id="polygon3053"
     style="fill:#fbb040" /><path
     d="m 74.526,17.445004 c 0,0 -28.924,77.319 54.431,50.55 51.881,-19.601 47.204,-79.181 21.175,-70.1510002 -0.943,1.67900003 -17.928,15.5250002 -22.336,7.67 -4.324,1.708 -7.899,3.927 -15.975,9.6670002 -0.119,-0.854 12.203,-11.6620002 31.837,-20.1960002 -5.639,0.997 -14.213,5.63900003 -14.213,5.63900003 0,0 6.678,-7.68000003 21.045,-10.69299983 20.539,-3.451 37.031,16.9549998 24.545,54.889 21.462,-28.631 13.816,-53.2950002 1.072,-61.616 7.706,-0.432 31.218,10.9369998 18.364,51.062 18.076,-33.97800017 7.909,-60.574 -29.808,-68.433 36.837,0.277 70.473,30.4529998 40.531,87.129 C 166.306,117.691 100.346,122.779 77.648,108.486 c 19.526,1.539 42.14,2.735 71.014,-15.037996 -10.664,4.523 -91.975,32.045996 -92.561,-25.825 3.669,11.393 23.324,34.324996 70.18,17.173 -74.856,11.269 -76.157,-36.694 -51.755,-67.351"
     id="path3055"
     inkscape:connector-curvature="0" /><path
     d="m 128.129,-16.467996 c -33.174,10.9819998 -66.546,49.085 -41.028,78.615 -5.481,-18.528 -15.103,-46.678 41.028,-78.615"
     id="path3057"
     inkscape:connector-curvature="0" /></g>
</svg>