<?xml version="1.0" encoding="utf-8"?>
<!-- Generator: Adobe Illustrator 15.1.0, SVG Export Plug-In  -->
<!DOCTYPE svg PUBLIC "-//W3C//DTD SVG 1.1//EN" "http://www.w3.org/Graphics/SVG/1.1/DTD/svg11.dtd" [
	<!ENTITY ns_flows "http://ns.adobe.com/Flows/1.0/">
]>
<svg version="1.1"
	 xmlns="http://www.w3.org/2000/svg" xmlns:xlink="http://www.w3.org/1999/xlink" xmlns:a="http://ns.adobe.com/AdobeSVGViewerExtensions/3.0/"
	 x="0px" y="0px" width="1000px" height="1000px" viewBox="-209.056 0 1000 1000"
	 overflow="visible" enable-background="new -209.056 0 1000 1000" xml:space="preserve">
<defs>
</defs>
<path d="M16.89,893.551h18.645v32.555h34.329v-32.555h18.649v84.835H69.863V941.78H35.535v36.606H16.89V893.551z"/>
<path d="M96.462,935.85c0.954-15.792,15.095-20.562,28.867-20.562c12.248,0,26.979,2.739,26.979,17.46v31.964
	c0,5.586,0.584,11.172,2.123,13.675h-17.1c-0.59-1.913-1.067-3.929-1.185-5.944c-5.339,5.57-13.187,7.596-20.66,7.596
	c-11.653,0-20.921-5.826-20.921-18.413c0-13.9,10.458-17.224,20.921-18.655c10.325-1.549,19.947-1.189,19.947-8.078
	c0-7.247-4.985-8.314-10.93-8.314c-6.417,0-10.571,2.616-11.166,9.273H96.462z M135.433,948.33
	c-2.852,2.498-8.791,2.605-14.012,3.55c-5.232,1.066-9.981,2.852-9.981,9.032c0,6.298,4.868,7.837,10.33,7.837
	c13.187,0,13.664-10.443,13.664-14.136V948.33z"/>
<path d="M159.427,916.956h16.023v11.412h0.246c3.093-7.72,9.083-13.08,17.285-13.08c1.185,0,0.852,0.236,1.934,0.611v15.669
	c-1.544-0.354-2.298-0.59-4.319-0.59c-12.351,0-14.295,8.914-14.295,19.727v27.682h-16.875V916.956z"/>
<path d="M200.167,893.551h16.869v84.835h-16.869V893.551z"/>
<path d="M238.292,951.761c0.482,10.699,5.709,15.562,15.085,15.562c6.786,0,12.243-4.145,13.31-7.966h14.849
	c-4.745,14.495-14.849,20.681-28.749,20.681c-19.362,0-31.359-13.311-31.359-32.313c0-18.423,12.71-32.437,31.359-32.437
	c20.906,0,31.01,17.588,29.825,36.474H238.292z M265.743,941.067c-1.544-8.555-5.231-13.063-13.428-13.063
	c-10.699,0-13.777,8.319-14.023,13.063H265.743z"/>
<path d="M350.09,1000h-16.87v-29.344h-0.24c-3.908,6.652-11.997,9.381-19.357,9.381c-11.289,0-26.02-8.201-26.02-31.959
	c0-16.865,8.91-32.791,27.564-32.791c7.601,0,14.849,2.739,18.649,9.515h0.241v-7.847h16.033V1000z M319.08,967.323
	c10.936,0,14.736-9.264,14.736-19.367c0-9.607-3.801-19.952-14.377-19.952c-10.925,0-14.962,9.739-14.962,19.721
	C304.477,957.592,308.037,967.323,319.08,967.323z"/>
<path d="M414.47,978.386h-16.044v-8.571h-0.349c-4.272,6.894-11.638,10.223-18.762,10.223c-17.937,0-22.461-10.094-22.461-25.307
	v-37.775h16.87v34.692c0,10.084,2.97,15.079,10.802,15.079c9.146,0,13.074-5.103,13.074-17.576v-32.195h16.869V978.386z"/>
<path d="M438.695,907.461h-16.869v-13.91h16.869V907.461z M421.826,916.956h16.869v61.431h-16.869V916.956z"/>
<path d="M446.055,916.956h16.038v8.545h0.359c4.268-6.873,11.648-10.213,18.772-10.213c17.941,0,22.445,10.104,22.445,25.312v37.786
	h-16.864v-34.693c0-10.104-2.976-15.09-10.812-15.09c-9.146,0-13.063,5.108-13.063,17.577v32.206h-16.875V916.956z"/>
<path d="M523.627,958.414c0.118,7.365,6.293,10.335,12.95,10.335c4.868,0,11.043-1.897,11.043-7.837
	c0-5.108-7.006-6.889-19.131-9.499c-9.74-2.145-19.476-5.586-19.476-16.398c0-15.674,13.536-19.727,26.738-19.727
	c13.418,0,25.769,4.52,27.081,19.604h-16.043c-0.478-6.523-5.473-8.314-11.525-8.314c-3.796,0-9.381,0.724-9.381,5.704
	c0,6.067,9.499,6.889,19.116,9.14c9.862,2.272,19.49,5.838,19.49,17.239c0,16.156-14.013,21.378-28.03,21.378
	c-14.264,0-28.164-5.345-28.887-21.624H523.627z"/>
<path fill="#FFFFFF" d="M251.181,107.18c0.092,0.195,1.057,1.118,1.282,2.564c0.903,5.647,2.113,19.183,5.734,27.374
	c0.8,1.821,1.847,3.595,2.616,5.534c5.027,12.769,17.265,27.11,31.595,26.135c29.431-2.011,34.134-42.61,34.134-62.306
	c0-16.551-38.391-22.537-38.391-22.537C272.703,86.417,253.694,102.071,251.181,107.18"/>
<path fill="#FFFFFF" d="M281.602,853.534l-0.01,0.006c-1.118-1.452-1.6-3.16-1.6-4.766l0,0c0.195-5.77,4.873-10.468,7.17-12.223l0,0
	c6.514-4.585,13.694-7.627,16.311-14.068l0,0c1.046-2.339,0.615-5.534,1.436-9.684l0,0c0.247-1.164,0.514-4.438,0.503-7.16l0,0
	c0.011-1.621-0.103-3.149-0.256-3.821l0,0c-0.482-2.227-0.555-4.447-0.555-6.597l0,0c0-0.969,0-1.928,0-2.887l0,0
	c0.011-2.113-0.071-4.14-0.461-5.971l0,0c-0.729-3.421-0.359-6.785-1.036-9.499l0,0c-2.093-9.217-2.247-18.47-5.067-25.999l0,0
	c-4.247-11.484-10.808-21.66-17.521-31.195l0,0c-1.938-2.795-4.359-5.586-6.478-8.674l0,0c-2.846,2.949-4.754,8.238-7.062,12.812
	l0,0c-3.98,7.643-7.047,15.301-9.371,24.769l0,0c-0.621,2.519-0.744,5.406-0.744,8.54l0,0c0,1.56,0.036,3.186,0.036,4.883l0,0
	c0,1.492-0.016,2.975-0.016,4.447l0,0c0,6.176,0.134,12.074,1.257,16.987l0,0c0.764,3.56,0.349,6.242,1.01,8.704l0,0
	c1.103,4.411,1.955,8.761,3.498,12.289l0,0c0.893,2.334,4.032,4.493,5.458,8.392l0,0c0.328,0.959,0.431,1.929,0.431,2.847l0,0
	c-0.01,2.59-0.841,5-1.139,6.457l0,0l-0.174,0.785l-0.662,0.456c-2.046,1.375-4.426,1.878-6.765,1.878l0,0
	c-6.929-0.057-14.254-4.078-17.793-6.201l0,0c-7.032-4.334-14.233-8.566-18.926-16.096l0,0c-1.441-2.339-2.395-5.129-3.072-7.766
	l0,0c-0.328-1.317-0.405-2.584-0.405-3.759l0,0c0-1.277,0.077-2.452,0.077-3.468l0,0c0-1.098-0.108-1.97-0.349-2.539l0,0
	c-3.221-7.821-8.925-14.762-13.936-21.727l0,0c-2.549-3.56-5.473-7.058-8.211-10.797l0,0c-1.159-1.631-3.488-3.4-4.842-6.262l0,0
	c-0.708-1.57-1.251-3.673-1.262-5.92l0,0c0-0.969,0.097-1.969,0.39-2.938l0,0c2.975-9.971,12.782-14.787,20.557-18.829l0,0
	c1.385-0.482,2.77-0.99,4.165-1.492l0,0c4.006-2.391,8.217-6.848,11.386-11.018l0,0c0.841-0.718,1.693-1.492,2.288-1.984l0,0
	c2.975-3.944,6.288-7.182,9.211-11.022l0,0c0.923-0.929,1.857-1.888,2.636-2.642l0,0c1.416-1.862,2.791-3.842,4.473-5.786l0,0
	c0.688-0.697,1.795-1.811,2.329-2.437l0,0c-0.446-0.477-1.251-1.128-2.174-2.215l0,0c-2.493-3.345-5.396-6.545-7.986-10.053l0,0
	c-6.657-9.033-13.782-17.654-20.583-26.764l0,0c-2.164-2.919-5.16-5.622-7.714-8.997l0,0c-3.365-4.555-9.961-8.313-14.177-13.915
	l0,0c-3.18-4.313-4.903-9.406-6.242-15.156l0,0l-0.057-0.241v-0.205c0-1.385,0-2.77,0-4.145l0,0c0-8.627,2.462-14.895,4.186-21.378
	l0,0c1.277-4.596,0.513-10.488,1.774-16.397l0,0c0.082-0.359,0.123-0.944,0.123-1.59l0,0c0-0.651-0.03-1.37-0.041-2.103l0,0
	c0.011-0.575,0.021-1.149,0.144-1.775l0,0c0.175-8.17,0.349-16.336,0.508-24.507l0,0v-0.194l0.046-0.205
	c0.379-1.693,0.467-3.575,0.467-5.591l0,0c0-1.329-0.046-2.724-0.046-4.149l0,0c0-2.19,0.093-4.457,0.601-6.734l0,0
	c0.795-3.283,0.036-7.725,1.046-12.346l0,0c0.457-1.831,0.087-4.621,0.765-7.734l0,0c1.651-7.119,1.385-15.049,3.354-22.697l0,0
	c4.514-17.259,7.725-34.821,13.705-50.885l0,0c1.169-3.108,1.672-6.309,3.119-9.838l0,0c3.467-8.412,6.637-17.039,10.309-25.532l0,0
	c1.441-3.247,4.083-7.602,4.929-10.361l0,0c-0.062-0.379-0.133-0.821-0.21-1.446l0,0c0-2.657,0-5.309,0-7.965l0,0
	c0-1.678,0.01-3.257,0.01-4.786l0,0c0-5.699-0.154-10.351-1.472-15.264l0,0c-2.19-8.083-3.062-15.449-5.853-22.163l0,0
	c-5.231-12.736-10.699-25.025-15.951-37.827l0,0c-2.473-6.104-2.503-12.479-3.965-18.854l0,0l-0.057-0.226v-0.205
	c0-2.975,0-5.939,0-8.904l0,0c-0.271-0.457-1.062-1.231-1.908-2.257l0,0c-3.754-5.067-9.027-7.878-15.13-11.582l0,0
	c-12.638-7.714-27.092-13.674-40.14-21.619l0,0c-3.242-1.985-7.006-3.113-10.812-5.391l0,0c-7.693-4.688-15.951-8.874-23.327-14.254
	l0,0c-4.062-3.042-7.14-6.98-10.545-9.545l0,0c-4.088-3.093-8.109-7.104-11.212-11.202l0,0c-1.601-2.165-4.247-4.103-6.422-6.939
	l0,0c-2.021-2.724-5.411-5.142-7.981-8.499l0,0c-7.74-10.243-16.823-19.47-24.712-30.115l0,0c-2.072-2.824-4.883-5.601-7.216-8.761
	l0,0c-4.242-5.752-8.073-11.507-11.91-17.608l0,0c-1.457-2.38-3.914-4.686-4.775-8.688l0,0c-0.226-0.2-0.59-0.323-0.872-1.144l0,0
	c-2.677-2.8-3.513-4.762-3.908-5.083l0,0c-2.698-2.034-5.19-4.347-7.201-7.214l0,0c-1.139,0.608-2.441,1.262-3.991,1.633l0,0
	c-0.651,0.154-1.312,0.229-1.99,0.229l0,0C7.509,90.946,0.446,87.199,0,80.901l0,0c0-0.567,0.077-1.167,0.251-1.71l0,0
	c1.513-5.014,5.57-7.161,8.196-9.394l0,0c-0.379-1.057-0.482-2.167-0.503-3.234l0,0c0.021-1.657,0.272-3.203,0.97-4.521l0,0
	l0.139-0.261l0.185-0.188c1.133-1.292,2.688-2.267,4.795-2.554l0,0c0.816-3.452,3.801-5.526,6.812-5.508l0,0
	c0.036,0,0.174,0,0.154,0.013l0,0c0.251,0.005,0.508,0.01,0.733,0.018l0,0c0.482-0.838,1.113-2.139,3.078-3.462l0,0
	c1.077-0.457,2.134-0.631,3.067-0.631l0,0c0.923,0.005,1.713,0.146,2.359,0.282l0,0c0.523-0.716,1.293-1.721,2.75-2.452l0,0
	l0.154-0.077l0.205-0.054c0.954-0.239,1.826-0.359,2.646-0.359l0,0c2.514-0.011,4.119,1.187,5.293,1.861l0,0
	c2.195,1.59,2.985,3.178,3.791,3.696l0,0c2.877-1.644,7.473-2.413,9.853-3.172l0,0c1.2-0.162,2.4-0.326,3.611-0.487l0,0
	c0.667-0.333,1.969-1.372,3.318-2.203l0,0c1.359-0.59,2.744-1.197,3.985-1.733l0,0c2.651-1.372,5.673-3.126,8.611-4.434l0,0
	c7.181-3.17,14.531-5.839,21.66-8.771l0,0c2.821-1.144,30.795-10.188,43.007-13.217l0,0c21.476-5.296,36.791-8.335,54.281-11.343
	l0,0c12.454-2.133,37.638-5.031,56.913-5.96l0,0c7.047-0.685,25.635-0.882,38.263-1.033l0,0C289.147,0,289.906,0,290.844,0l0,0
	c8.925,0,33.719,0.305,50.963,1.829l0,0c13.52,1.156,60.44,6.757,91.092,13.674l0,0c18.301,4.132,35.011,8.512,51.403,13.949l0,0
	c5.468,1.818,10.721,3.377,15.962,5.152l0,0c1.724,0.59,5.919,1.69,8.166,2.288l0,0c0.39-0.384,0.831-0.846,0.995-1.154l0,0
	l0.164-0.272l0.267-0.218c1.2-0.993,1.21-1.341,3.046-3.183l0,0c1.396-1.362,3.231-3.203,5.355-4.293l0,0
	c1.23-0.62,2.564-0.859,3.836-0.859l0,0c1.129,0,2.227,0.185,3.242,0.631l0,0c1.99,0.818,3.385,1.982,4.452,3.75l0,0
	c0.349,0.598,0.595,1.233,0.759,1.882l0,0c1.221-0.423,2.555-0.595,3.898-0.608l0,0c1.508,0,3.047,0.238,4.482,0.785l0,0
	l0.205,0.075l0.226,0.144c1.478,0.91,2.257,2.306,2.637,3.785l0,0c2.195,0.154,4.493,0.867,5.826,3.372l0,0
	c0.175,0.478,0.503,1.131,0.708,2.034l0,0c4.523,1.195,6.504,5.508,6.34,9.373l0,0c0,2.683-0.678,5.396-1.683,7.804l0,0
	c-3.088,7.235-8.36,12.867-12.945,18.042l0,0c-2.134,2.19-5.714,5.052-6.863,7.204l0,0l1.519,1.352l-1.364,1.502
	c-0.657,0.631-0.975,2.124-2.083,4.075l0,0c-1.928,3.149-3.446,6.896-5.683,10.548l0,0c-4.996,8.214-8.873,17.847-14.146,26.51l0,0
	c-1.785,2.888-2.771,6.353-4.904,9.784l0,0c-11.499,18.5-26.578,33.593-39.196,50.329l0,0
	c-10.433,13.782-26.373,22.599-43.053,29.461l0,0c-4.329,1.754-8.617,2.103-12.484,3.4l0,0c-5.663,1.872-10.925,4.293-15.121,7.422
	l0,0c-1.385,1.021-2.954,3.016-4.226,4.739l0,0c-2.083,2.801-4.35,5.509-6.073,8.345l0,0c-4.124,6.724-6.288,15.797-8.75,24.46l0,0
	c-0.688,4.544-1.364,9.099-2.103,13.9l0,0c-2.113,7.458-4.524,15.315-6.966,22.722l0,0c-1.539,4.616-1.99,9.602-3.898,14.741l0,0
	c-3.733,10.115-6.894,20.855-9.16,32.211l0,0c-0.154,0.718-0.226,1.241-0.226,1.641l0,0c0,0.431,0.051,0.744,0.236,1.452l0,0
	c0.431,2.995,0.861,6.006,1.292,9.176l0,0c0.175,2.821,0.339,5.652,0.513,8.479l0,0c1.416,4.334,5.591,10.269,8.217,14.521l0,0
	c4.914,8.042,8.771,16.967,12.475,25.737l0,0c4.38,10.351,6.493,21.953,9.611,32.918l0,0c1.088,3.918,1.098,7.252,2.062,10.556l0,0
	c3.959,13.977,6.749,27.6,10.555,41.176l0,0c1.58,5.684,1.621,11.556,2.903,16.757l0,0c1.344,10.807,2.729,21.614,4.113,32.544l0,0
	c0.175,2.585,0.349,5.154,0.473,7.432l0,0c2.144,9.895,0.267,21.696,2.318,30.626l0,0l0.03,0.153l0.011,0.211
	c0.082,2.093,0.164,4.19,0.256,6.277l0,0c0.749,3.822,0.257,7.556,0.985,10.607l0,0c0.276,1.257,0.789,3.544,0.8,5.832l0,0
	c-0.011,0.861-0.082,1.733-0.308,2.615l0,0c-1.159,4.021-3.98,5.586-5.231,7.376l0,0c-3.324,4.391-7.633,8.452-11.664,11.453l0,0
	c-0.595,0.661-1.189,1.37-2.103,2.318l0,0c-3.56,2.683-7.017,5.816-10.863,8.556l0,0c-13.767,9.719-28.087,18.695-42.562,27.584l0,0
	c-7.129,4.38-14.525,8.438-21.696,12.402l0,0c-1.59,0.8-5.385,2.528-6.482,3.508l0,0c1.005,2.601,1.189,4.826,1.949,6.602l0,0
	c1.897,4.667,3.446,9.406,5.385,13.838l0,0c1.693,3.836,4.094,8.012,5.93,12.094l0,0c3.446,7.781,6.78,15.321,10.945,22.163l0,0
	c2.421,4.021,3.775,8.104,6.031,11.361l0,0c0.042,0.046,0.093,0.097,0.145,0.144l0,0c0.789,0.723,1.969,1.811,3.56,3.303l0,0
	c2.421,2.4,4.523,4.96,6.708,7.227l0,0c3.919,4.032,8.443,9.936,11.141,15.111l0,0c0.574,1.123,1.621,3.312,1.651,5.754l0,0
	c0,0.795-0.133,1.652-0.563,2.478l0,0c-0.79,1.867-2.093,2.514-2.268,2.924l0,0c-2.318,3.139-4.77,6.047-6.955,9.001l0,0
	c-4.893,6.647-9.355,13.295-13.808,20.45l0,0c-1.303,2.103-2.872,4.241-3.724,6.19l0,0c-0.902,2.062-1.6,4.457-2.195,6.879l0,0
	c-0.789,2.959-0.235,6.195-1.641,9.791l0,0c-2.688,6.529-8.453,10.802-14.434,13.438l0,0c-6.873,2.996-15.603,5.283-25.01,5.314l0,0
	c-0.923,0-2.041,0.025-3.189,0.025l0,0C287.792,856.468,283.725,856.956,281.602,853.534L281.602,853.534z M276.165,706.915
	c2.092,3.482,5.078,6.796,7.642,10.447l0,0c6.766,9.623,13.541,20.091,17.982,32.108l0,0c3.118,8.458,3.2,17.839,5.222,26.477l0,0
	c0.82,3.621,0.451,7.062,1.046,9.565l0,0c0.493,2.303,0.555,4.611,0.564,6.822l0,0c0,0.969-0.01,1.938-0.01,2.887l0,0
	c0,2.062,0.082,3.991,0.472,5.745l0,0c0.256,1.262,0.338,2.878,0.349,4.673l0,0c-0.011,2.995-0.246,6.211-0.605,7.985l0,0
	c-0.738,3.272-0.144,6.647-1.651,10.407l0,0c-3.611,8.371-11.869,11.515-17.68,15.787l0,0c-1.493,0.918-5.678,5.821-5.483,8.955l0,0
	c0,0.872,0.205,1.58,0.774,2.334l0,0l0.175,0.23l0.107,0.283c0,0.01,0.277,0.425,1.508,0.687l0,0
	c1.165,0.272,2.831,0.349,4.483,0.349l0,0c1.098,0,2.205-0.025,3.189-0.025l0,0c8.74-0.01,16.978-2.175,23.399-4.965l0,0
	c5.427-2.391,10.228-6.124,12.33-11.289l0,0c0.975-2.159,0.544-5.299,1.446-9.228l0,0c0.637-2.519,1.375-5.124,2.432-7.54l0,0
	c1.128-2.528,2.82-4.774,3.99-6.683l0,0c4.503-7.231,9.017-13.987,13.992-20.711l0,0c2.277-3.104,4.729-6.007,6.944-9.022l0,0
	c1.149-1.364,1.733-1.667,1.785-2.025l0,0l0.062-0.205l0.093-0.154c0.041-0.057,0.112-0.262,0.112-0.621l0,0
	c0.041-1.092-0.779-3.159-1.2-3.867l0,0c-2.421-4.698-6.821-10.483-10.453-14.197l0,0c-2.359-2.441-4.441-4.97-6.616-7.14l0,0
	c-1.539-1.426-2.708-2.503-3.498-3.236l0,0c-0.913-0.872-0.913-0.795-1.426-1.385l0,0c0-0.011-0.011-0.025-0.011-0.036l0,0
	c-0.01-0.016-0.021-0.03-0.03-0.046l0,0c-0.052-0.036-0.123-0.062-0.216-0.354l0,0c-0.123-0.261-0.194-0.522-0.153-0.743l0,0
	c-1.97-3.375-3.222-6.837-5.047-9.812l0,0c-4.34-7.141-7.745-14.854-11.182-22.609l0,0c-1.703-3.816-4.124-7.996-5.939-12.115l0,0
	c-2.052-4.678-3.611-9.457-5.427-13.945l0,0c-1.118-2.837-1.231-5.232-2.277-7.371l0,0l-0.246-0.533l0.071-0.584
	c0.657-2.662,2.606-3.35,4.329-4.447l0,0c1.785-0.97,3.734-1.801,4.422-2.19l0,0c7.181-3.975,14.535-8.007,21.542-12.3l0,0
	c14.464-8.883,28.712-17.828,42.346-27.45l0,0c3.59-2.55,7.026-5.652,10.483-8.228l0,0c0.585-0.641,1.17-1.328,2.083-2.308l0,0
	c4.072-3.072,8.165-6.93,11.181-10.931l0,0c2.113-2.656,3.97-3.656,4.555-5.99l0,0c0.113-0.416,0.175-0.97,0.164-1.59l0,0
	c0.011-1.678-0.431-3.77-0.687-4.949l0,0c-0.883-4.062-0.359-7.93-1.037-10.828l0,0l-0.03-0.164l-0.011-0.174
	c-0.082-2.083-0.174-4.191-0.246-6.264l0,0c-2.144-10.012-0.287-21.747-2.328-30.764l0,0c-0.175-2.58-0.339-5.149-0.513-7.611l0,0
	c-1.364-10.812-2.739-21.609-4.062-32.2l0,0c-1.354-5.611-1.405-11.418-2.821-16.408l0,0c-3.847-13.761-6.646-27.369-10.556-41.166
	l0,0c-1.098-3.955-1.107-7.288-2.052-10.545l0,0c-3.169-11.212-5.293-22.675-9.447-32.447l0,0c-3.693-8.76-7.499-17.5-12.207-25.214
	l0,0c-2.534-4.185-6.955-10.253-8.688-15.613l0,0l-0.082-0.251l-0.011-0.241c-0.174-2.929-0.349-5.837-0.513-8.597l0,0
	c-0.421-2.995-0.841-6.001-1.2-8.704l0,0c-0.246-0.784-0.349-1.559-0.349-2.313l0,0c0-0.815,0.123-1.61,0.297-2.452l0,0
	c2.309-11.561,5.54-22.506,9.346-32.795l0,0c1.692-4.498,2.154-9.417,3.836-14.597l0,0c2.421-7.355,4.821-15.172,6.873-22.316l0,0
	c0.688-4.544,1.364-9.099,2.104-13.895l0,0c2.503-8.791,4.637-18.162,9.232-25.712l0,0c1.938-3.185,4.287-5.97,6.268-8.653l0,0
	c1.333-1.754,2.985-3.99,5.067-5.555l0,0c4.688-3.498,10.319-6.047,16.249-8.006l0,0c4.473-1.452,8.657-1.826,12.218-3.303l0,0
	c16.423-6.745,31.687-15.331,41.36-28.179l0,0c12.874-17.029,27.841-32.021,39.012-50.034l0,0c1.774-2.788,2.78-6.252,4.894-9.75
	l0,0c5.047-8.271,8.924-17.89,14.146-26.509l0,0c2.011-3.28,3.528-7.006,5.662-10.538l0,0c0.391-0.585,0.646-1.388,1.057-2.295l0,0
	l-0.246-0.069l0.195-1.721c0.852-5.252,6.504-8.445,8.227-10.635l0,0c4.627-5.206,9.54-10.558,12.249-16.931l0,0
	c0.82-1.962,1.364-4.272,1.364-6.245l0,0c-0.185-3.377-0.975-5.175-4.36-5.665l0,0l-1.148-0.131l-0.472-1.046
	c-0.134-0.272-0.185-0.642-0.175-0.849l0,0V44.42c-0.01-0.936-0.185-1.034-0.554-2.113l0,0c-0.123-0.426-1.159-0.99-3.19-0.979l0,0
	c-0.175,0-0.369,0-0.595,0.01l0,0l-1.837,0.077l-0.226-1.821c-0.39-2.1-0.205-1.893-1.066-2.593l0,0
	c-0.841-0.274-1.826-0.426-2.79-0.426l0,0c-1.334-0.018-2.605,0.315-3.231,0.618l0,0c-0.031,0.203-0.093,0.461-0.246,0.831l0,0
	c-0.134,0.261-0.554,1.297-2.042,1.395l0,0h-2.093l0.093-2.09c0.01-0.241,0.021-0.459,0.021-0.677l0,0
	c0.052-1.167-0.4-3.16-0.513-3.17l0,0c-1.047-1.472-0.975-1.428-2.739-2.277l0,0c-0.339-0.154-0.943-0.285-1.601-0.285l0,0
	c-0.738,0-1.508,0.175-2.01,0.436l0,0c-1.303,0.621-3.047,2.234-4.35,3.552l0,0c-1.426,1.402-1.631,1.946-3.057,3.19l0,0
	c-0.975,1.416-2.34,2.482-2.391,2.564l0,0l-0.82,0.674l-1.026-0.282c-1.456-0.416-7.067-1.841-9.468-2.649l0,0
	c-5.15-1.744-10.392-3.311-15.941-5.142l0,0c-16.219-5.383-32.806-9.743-51.014-13.838l0,0
	c-30.282-6.842-77.265-12.466-90.559-13.597l0,0c-16.978-1.505-41.782-1.821-50.614-1.821l0,0c-0.929,0-1.677,0.01-2.221,0.023l0,0
	c-12.571,0.131-31.303,0.349-38.017,1.013l0,0c-19.147,0.916-44.326,3.824-56.528,5.916l0,0c-17.434,3.006-32.6,6.004-53.999,11.287
	l0,0c-11.776,2.9-40.207,12.094-42.438,13.022l0,0c-7.227,2.972-14.556,5.642-21.562,8.737l0,0c-2.662,1.167-5.626,2.888-8.504,4.38
	l0,0c-1.359,0.6-2.744,1.198-3.877,1.667l0,0c-0.831,0.469-2.221,1.788-3.918,2.485l0,0l-0.236,0.074l-0.215,0.034
	c-1.292,0.174-2.57,0.349-3.56,0.459l0,0c-2.508,0.674-8.319,2.133-9.058,2.952l0,0l-0.687,0.577l-0.893-0.121
	c-4.011-0.805-4.965-4.237-5.857-4.38l0,0c-1.539-0.893-2.062-1.305-3.283-1.318l0,0c-0.379,0-0.867,0.057-1.487,0.198l0,0
	c-0.508,0.31-0.923,1.105-2.087,2.354l0,0l-0.718,0.718l-1.01-0.164c-1.18-0.195-2.031-0.457-2.811-0.446l0,0
	c-0.472,0-0.918,0.067-1.169,0.141l0,0c-1.036,0.633-0.872,1.274-2.411,3.236l0,0l-0.246,0.285l-0.328,0.174
	c-0.764,0.292-0.903,0.272-1.067,0.262l0,0c-0.067-0.013-0.144-0.023-0.287,0.01l0,0c-0.416,0-0.923-0.021-1.523-0.041l0,0v0.008
	c-1.677,0.121-2.888,0.762-3.021,3.431l0,0l-0.021,1.972l-1.97,0.013c-2.564,0.153-2.288,0.123-3.513,1.246l0,0
	c-0.18,0.482-0.375,1.449-0.354,2.349l0,0c-0.031,1.121,0.303,2.19,0.523,2.395l0,0l1.118,1.385l-1.252,1.274
	c-3.498,3.4-7.355,5.111-8.258,8.707l0,0c-0.051,0.174-0.087,0.369-0.087,0.577l0,0c-0.057,1.1,1.021,2.79,2.939,4.108l0,0
	c1.856,1.318,4.349,2.167,6.062,2.146l0,0c0.4,0,0.759-0.044,1.067-0.11l0,0c1.426-0.326,2.964-1.274,4.708-2.157l0,0l1.651-0.818
	l0.964,1.592c1.815,3.039,4.277,5.447,7.427,7.845l0,0c1.539,1.656,1.841,3.005,4.534,5.698l0,0l1.733,1.721l-0.343,0.229
	c0.082,0.236,0.164,0.531,0.241,0.905l0,0c0.016,0.087,0.011,0.182,0,0.279l0,0c0.616,2.403,2.344,4.19,4.145,6.955l0,0
	c3.816,6.058,7.591,11.725,11.746,17.38l0,0c2.062,2.811,4.873,5.601,7.211,8.748l0,0c7.663,10.353,16.736,19.57,24.691,30.084l0,0
	c2.016,2.713,5.406,5.142,7.976,8.499l0,0c1.667,2.244,4.293,4.162,6.417,6.937l0,0c2.857,3.775,6.668,7.576,10.443,10.433l0,0
	c3.97,3.026,7.017,6.95,10.499,9.499l0,0c7.006,5.129,15.167,9.273,23.035,14.054l0,0c3.211,1.964,6.996,3.108,10.812,5.396l0,0
	c12.679,7.745,27.138,13.705,40.15,21.629l0,0c5.904,3.616,11.797,6.642,16.244,12.592l0,0c0.395,0.636,1.893,1.626,2.626,3.693l0,0
	l0.087,0.297v0.318c0,3,0,6.001,0,9.012l0,0c1.488,6.816,1.621,12.951,3.714,18.008l0,0c5.231,12.741,10.699,25.03,15.951,37.832
	l0,0c3.042,7.396,3.914,14.925,6.017,22.64l0,0c1.472,5.478,1.616,10.556,1.616,16.311l0,0c0,1.539,0,3.119,0,4.786l0,0
	c0,2.657,0,5.309-0.036,7.657l0,0c0.087,0.493,0.174,1.005,0.262,1.56l0,0l0.067,0.415l-0.108,0.416
	c-1.036,3.744-3.959,8.319-5.252,11.314l0,0c-3.611,8.35-6.77,16.957-10.278,25.471l0,0c-1.231,2.97-1.744,6.135-3.057,9.715l0,0
	c-5.821,15.592-9.038,33.052-13.582,50.501l0,0c-1.816,6.853-1.56,14.756-3.334,22.578l0,0c-0.534,2.18-0.164,4.847-0.759,7.714l0,0
	c-0.862,3.564-0.092,7.93-1.046,12.356l0,0c-0.405,1.784-0.502,3.77-0.502,5.842l0,0c0,1.338,0.041,2.733,0.041,4.149l0,0
	c0,2.062-0.072,4.165-0.513,6.272l0,0c-0.164,8.182-0.338,16.352-0.508,24.518l0,0v0.199l-0.066,0.246
	c-0.031,0.123-0.072,0.534-0.062,1.037l0,0c-0.01,0.59,0.031,1.317,0.031,2.103l0,0c0,0.774-0.021,1.601-0.215,2.462l0,0
	c-1.139,4.949-0.328,10.854-1.826,16.562l0,0c-1.815,6.802-4.042,12.51-4.042,20.342l0,0c0,1.298,0,2.616,0,3.919l0,0
	c1.282,5.416,2.872,9.863,5.519,13.443l0,0c3.405,4.693,9.955,8.432,14.161,13.89l0,0c2.21,2.975,5.206,5.667,7.714,9.012l0,0
	c6.725,9.001,13.849,17.618,20.594,26.784l0,0c2.431,3.277,5.329,6.478,7.965,10.021l0,0c0.349,0.652,2.18,1.473,3.124,3.878l0,0
	l-1.046,0.56l1.149-0.134c0,0,0.01,0.066,0.01,0.241l0,0c0,0.005-0.005,0.016-0.005,0.021l0,0c0,0.046-0.005,0.097-0.005,0.164l0,0
	l-0.026-0.005l-1.4-0.139l-0.585,0.308l-0.01,1.646c1.19-0.062,1.693-0.872,1.898-1.385l0,0c-0.713,2.642-2.842,3.56-3.452,4.555
	l0,0c-1.482,1.708-2.811,3.616-4.457,5.76l0,0c-0.949,0.959-1.897,1.908-2.646,2.642l0,0c-2.985,3.929-6.288,7.176-9.284,11.1l0,0
	c-0.852,0.754-1.713,1.538-2.308,2.005l0,0c-3.16,4.195-7.622,9.002-12.433,11.854l0,0l-0.175,0.103l-0.174,0.051
	c-1.426,0.514-2.893,1.047-4.108,1.452l0,0c-7.637,3.888-16.141,8.529-18.295,16.29l0,0c-0.154,0.497-0.226,1.133-0.226,1.805l0,0
	c-0.01,1.529,0.431,3.258,0.903,4.263l0,0c0.708,1.677,2.734,3.334,4.411,5.544l0,0c2.647,3.606,5.581,7.114,8.248,10.833l0,0
	c4.883,6.821,10.833,13.967,14.382,22.532l0,0c0.569,1.385,0.656,2.765,0.656,4.072l0,0c0,1.2-0.077,2.365-0.077,3.468l0,0
	c0,0.989,0.077,1.929,0.282,2.765l0,0c0.601,2.39,1.493,4.872,2.596,6.637l0,0c4.011,6.483,10.515,10.463,17.618,14.797l0,0
	c3.18,1.996,10.361,5.658,15.69,5.602l0,0c1.498,0,2.8-0.257,3.882-0.806l0,0c0.385-1.574,0.857-3.318,0.847-4.749l0,0
	c0-0.61-0.077-1.134-0.231-1.57l0,0c-0.621-2.256-3.595-4.39-5.329-8.053l0,0c-1.785-4.139-2.626-8.662-3.703-12.925l0,0
	c-0.841-3.462-0.4-6.134-1.036-8.802l0,0c-1.251-5.503-1.349-11.647-1.349-17.869l0,0c0-1.492,0.011-2.975,0.011-4.447l0,0
	c0-1.646-0.036-3.268-0.036-4.883l0,0c0-3.231,0.113-6.416,0.862-9.499l0,0c2.39-9.771,5.601-17.793,9.699-25.661l0,0
	c2.529-4.738,4.458-11.514,9.351-15.146l0,0c0.097-0.098,0.154-0.149,0.195-0.205l0,0l1.805-2.006L276.165,706.915L276.165,706.915z
	 M339.252,751.173c-0.011-0.016-0.021-0.016-0.041-0.016l0,0c-0.011,0.005-0.011,0.005-0.021,0.005l0,0
	C339.211,751.163,339.232,751.168,339.252,751.173L339.252,751.173z M340.443,747.562c-0.041-0.036-0.072-0.066-0.113-0.092l0,0
	c0.01,0.005,0.01,0.015,0.01,0.021l0,0c0.031,0.021,0.062,0.046,0.104,0.066l0,0C340.443,747.557,340.443,747.557,340.443,747.562
	L340.443,747.562z M340.207,747.383c-0.113-0.072-0.226-0.113-0.318-0.123l0,0c0.062,0.02,0.113,0.046,0.175,0.071l0,0
	C340.125,747.352,340.166,747.368,340.207,747.383L340.207,747.383z M311.125,682.895L311.125,682.895L311.125,682.895
	L311.125,682.895z M530.71,88.189l0.021-0.013l0,0l0,0L530.71,88.189L530.71,88.189z M540.282,39.345l1.989-0.262L540.282,39.345
	L540.282,39.345z M252.74,682.665l0.026,0.005c0,0.011-0.031,0.185-0.123,0.426l0,0C252.679,682.957,252.715,682.813,252.74,682.665
	L252.74,682.665z M287.121,630.727c-1.149-1.979-1.626-3.026-2.498-4.236l0,0c-2.046-2.955-4.816-5.821-7.483-8.479l0,0
	c-6.134-6.263-15.459-11.253-19.028-21.911l0,0c-0.749-2.396-1.057-5.991-1.067-9.612l0,0c0.011-3.016,0.231-5.914,0.8-8.027l0,0
	c1.744-6.406,5.391-10.658,8.237-14.992l0,0c2.493-3.785,4.76-7.826,7.16-11.771l0,0c0.174,0.097-0.133-0.815,0.78-2.591l0,0
	c5.539-9.119,8.314-19.311,12.151-30.979l0,0c4.713-14.351,9.822-29.333,9.822-47.736l0,0c0-0.692-0.01-1.379-0.021-2.077l0,0
	l-0.062-5.108l3.529,3.693c2.729,3.406,1.979,9.52,3.118,11.72l0,0c2.924,7.16,5.509,15.008,8.012,22.512l0,0
	c1.497,4.533,2.195,8.575,3.806,12.479l0,0c6.35,15.49,12.74,29.831,20.978,43.223l0,0c3.088,5.021,5.868,10.232,8.986,15.167l0,0
	c0.985,1.59,2.801,3.549,3.97,5.826l0,0c1.057,2.277,0.985,5.006,1.098,7.694l0,0c0.021,2.595,0.298,5.2,0.637,5.59l0,0l0.451,0.806
	l-0.298,0.861c-1.312,3.19-4.35,3.673-5.58,4.478l0,0c-2.4,1.268-4.935,2.78-7.602,4.176l0,0c-1.385,0.61-2.76,1.195-3.878,1.677
	l0,0c-9.57,5.816-19.705,10.448-28.794,16.203l0,0c-3.58,2.267-6.853,5.175-10.207,7.724l0,0c-1.098,1.078-2.185,2.176-3.282,3.263
	l0,0v6.935L287.121,630.727L287.121,630.727z M276.678,553.77c-2.359,3.878-4.647,7.956-7.252,11.91l0,0
	c-3.062,4.621-6.257,8.412-7.714,13.838l0,0c-0.405,1.447-0.657,4.196-0.657,6.971l0,0c-0.01,3.313,0.359,6.842,0.872,8.371l0,0
	c2.832,8.848,11.192,13.541,18.055,20.311l0,0c2.693,2.698,5.622,5.699,7.935,9.007l0,0c0.523,0.749,0.918,1.405,1.308,2.093l0,0
	c0.719-0.718,1.468-1.462,2.268-2.252l0,0c3.405-2.595,6.771-5.601,10.709-8.099l0,0c9.396-5.95,19.562-10.581,29.093-16.366l0,0
	c1.364-0.596,2.738-1.195,3.979-1.739l0,0c2.421-1.267,4.935-2.77,7.458-4.099l0,0c1.467-0.687,2.749-1.303,3.334-1.779l0,0
	c-0.626-1.929-0.554-4.083-0.667-6.304l0,0c-0.03-2.616-0.246-5.288-0.688-6.017l0,0c-0.738-1.539-2.472-3.457-3.765-5.473l0,0
	c-3.211-5.108-6.011-10.324-9.017-15.207l0,0c-8.422-13.695-14.895-28.257-21.255-43.803l0,0c-1.826-4.422-2.514-8.565-3.908-12.735
	l0,0c-2.339-7.012-4.729-14.244-7.355-20.85l0,0c-1.528,14.212-5.683,26.409-9.427,37.837l0,0
	c-3.801,11.525-6.622,22.029-12.536,31.826l0,0c-0.01-0.006-0.01-0.006-0.01-0.006h-0.005
	C277.293,551.206,277.529,551.996,276.678,553.77L276.678,553.77z M296.527,469.664l1.468-1.375L296.527,469.664L296.527,469.664z
	 M336.554,173.309c-3.508-0.91-9.991-0.013-14.248-2.277l0,0h-1.785l-0.205-1.765c-0.595-4.914-2.103-9.12-4.011-16.246l0,0
	c-0.195-0.454-0.164-0.813-0.175-0.882l0,0c0.072-1.157,0.41-1.865,0.729-2.693l0,0c0.995-2.254,2.227-4.813,2.975-6.873l0,0
	c0.698-2.834,1.385-5.657,2.062-8.499l0,0l0.062-0.274l0.123-0.218c1.005-1.698,2.462-2.865,2.903-3.67l0,0
	c1.754-2.857,2.984-7.727,3.046-12.356l0,0c0.021-1.408,0.236-2.649,0.226-3.565l0,0c0.011-0.685-0.092-1.133-0.235-1.382l0,0
	c0.03-0.057-1.651-1.396-2.473-1.885l0,0l-0.861-0.61v-1.036c0-0.621,0.03-1.198,0.03-1.688l0,0c0.041-1.06-0.123-1.801-0.185-1.801
	l0,0l-0.379-0.543l0.021-0.664c0.021-0.087-0.031-0.372,0.164-1.09l0,0c0.082-0.051,0.062-0.364,0.317-0.702l0,0
	c-0.563-19.152-9.745-32.254-23.204-37.989l0,0c-3.539-1.503-8.75-2.636-13.822-2.626l0,0c-2.877-0.01-5.719,0.359-8.201,1.154l0,0
	c-3.734,1.188-7.606,2.78-10.602,4.665l0,0c-6.97,4.401-12.269,11.766-15.125,20.55l0,0c-0.729,2.2-0.862,5.121-1.487,8.062l0,0
	c-0.221,0.903-0.308,2.026-0.308,3.247l0,0c0,2.792,0.477,5.962,0.733,8.707l0,0h0.559l0.318,1.633
	c0.338,1.788,0.687,3.596,1.036,5.394l0,0l0.077,0.446l-0.098,0.436c-0.461,1.298-1.123,2.049-1.046,2.07l0,0
	c-0.123,0.426-0.195,1.177-0.195,2.049l0,0c-0.01,2.723,0.749,6.58,1.2,7.888l0,0c0.893,2.757,2.216,6.017,3.637,8.304l0,0
	c0.292,0.631,1.913,1.644,2.939,3.542l0,0l0.103,0.205l0.051,0.218c0.174,0.774,0.338,1.549,0.416,1.995l0,0
	c1.513,3.813,4.703,11.243,6.878,12.846l0,0l0.954,0.785l-0.272,1.208c-0.708,3.139-1.729,5.547-2.877,9.166l0,0l-0.271,0.839
	l-0.785,0.369c-2.462,1.156-5.221,2.224-8.334,3.019l0,0c-2.046,0.251-4.098,0.513-5.904,0.718l0,0
	c-2.575,0.688-5.437,1.626-7.955,2.311l0,0l-0.262,0.077h-0.271c-1.985,0-3.944,0-5.914,0l0,0c-2.359,0-5.149,0.164-7.868,0.174l0,0
	c-2.051-0.01-4.077-0.097-5.939-0.49l0,0c-1.036-0.218-2.19-0.305-3.411-0.305l0,0c-2.662,0-5.647,0.403-8.586,0.413l0,0
	c-1.257,0-2.508-0.069-3.744-0.315l0,0c-3.708,0-7.412,0-11.29-0.01l0,0c-5.832-0.546-12.627-0.285-18.218-1.536l0,0
	c-1.528-0.087-3.067-0.175-4.611-0.251l0,0l-0.185-0.01l-0.164-0.044c-4.786-1.113-10.602-1.297-15.536-2.539l0,0
	c-1.79-0.262-3.601-0.513-5.406-0.774l0,0l-0.241-0.034l-0.22-0.087c-3.375-1.416-5.642-4.739-7.273-6.832l0,0
	c-2.093-2.811-5.601-5.306-8.237-8.737l0,0c-1.093-1.459-2.216-2.995-3.227-3.736l0,0c-4.231-3.216-8.017-6.865-12.048-9.743l0,0
	c-10.31-7.409-20.66-14.522-31.123-21.868l0,0c-9.499-6.688-18.491-14.01-27.6-20.885l0,0c-1.113-0.885-2.519-2.496-4.042-4.119l0,0
	c-1.072-1.2-2.333-2.38-2.888-2.836l0,0l-2.472,0.613l0.688-3.149c0.718-3.27,0.913-7.681,1.795-11.812l0,0
	c0.133-0.621,0.174-1.405,0.165-2.277l0,0c0-0.564-0.011-1.164-0.011-1.775l0,0c0-0.523,0.021-1.067,0.052-1.459l0,0
	c0-1.275,0.144-4.306,0.338-5.742l0,0l0.056-0.469l0.272-0.402c1.841-1.908,3.262-1.375,5.262-1.58l0,0
	c3.139,0.01,6.935,0.511,9.022,1.121l0,0c2.616,0.828,4.349,2.549,5.755,3.236l0,0c1.364,0.777,1.472,1.023,2.021,1.054l0,0
	c3.452-0.559,8.622-6.898,13.351-9.553l0,0c13.777-7.158,28.518-12.835,43.135-18.859l0,0c16.967-6.973,35.155-11.659,53.84-16.039
	l0,0c11.823-2.78,42.443-8.193,57.39-9.578l0,0c10.284-1.046,43.669-2.583,47.167-2.583l0,0c1.241-0.077,3.231-0.097,5.673-0.097
	l0,0c7.652,0,19.521,0.262,22.804,0.349l0,0c4.062,0.098,25.061,1.285,41.617,2.593l0,0c10.258,1.111,16.987,1.982,25.276,3.096l0,0
	c7.693,1.033,12.053,1.677,18.115,2.844l0,0c16.772,3.224,29.041,5.632,45.085,9.281l0,0c10.729,2.431,21.604,5.047,32.108,8.542
	l0,0c3.682,1.231,7.775,2.311,11.816,3.596l0,0c2.647,0.841,6.053,1.918,8.012,2.572l0,0l0.503,0.165l0.359,0.402
	c0.021,0.033,0.062,0.077,0.071,0.087l0,0l0.811,0.697l-0.133,1.057c-0.195,1.503-0.257,3.008-0.257,4.534l0,0
	c-0.021,4.958,0.779,10.022,0.79,15.808l0,0c-0.011,1.832-0.349,3.803-0.339,5.306l0,0c-0.021,1.146,0.257,1.841,0.328,1.854l0,0
	l0.77,0.859l-0.358,1.1c-1.99,5.722-7.54,8.686-9.817,11.91l0,0c-2.688,3.532-5.898,6.168-8.679,8.968l0,0
	c-4.688,4.675-9.335,9.622-14.874,13.815l0,0c-2.247,1.656-4.257,4.665-7.212,6.942l0,0c-4.298,3.247-8.452,7.419-11.95,11.974l0,0
	c-0.954,0.872-1.898,1.721-2.575,2.298l0,0c-2.41,3.162-5.313,5.439-7.211,7.988l0,0c-2.698,3.529-7.346,9.489-11.254,12.269l0,0
	c-9.15,6.363-23.614,10.415-35.093,13.674l0,0c-5.099,1.416-9.694,1.352-14.187,2.583l0,0c-6.576,1.731-13.244,2.331-19.542,4.108
	l0,0c-4.606,1.285-9.745,2.482-14.27,3.626l0,0c-0.481,0.1-0.984,0.144-1.538,0.144l0,0
	C344.074,174.976,338.36,173.691,336.554,173.309L336.554,173.309z M337.406,169.388c1.683,0.379,7.581,1.623,10.033,1.6l0,0
	c0.349,0,0.604-0.033,0.636-0.043l0,0c4.493-1.134,9.602-2.332,14.095-3.585l0,0c6.76-1.885,13.448-2.482,19.582-4.119l0,0
	c5.171-1.362,9.756-1.318,14.137-2.57l0,0c11.427-3.205,25.706-7.345,33.872-13.086l0,0c2.995-2.07,7.816-8.009,10.351-11.407l0,0
	c2.369-3.095,5.262-5.362,7.457-8.25l0,0c0.944-0.872,1.908-1.731,2.596-2.308l0,0c3.478-4.598,7.868-9.001,12.484-12.487l0,0
	c2.236-1.646,4.236-4.655,7.19-6.942l0,0c5.19-3.911,9.735-8.717,14.464-13.457l0,0c2.985-2.964,6.021-5.491,8.32-8.542l0,0
	c2.984-3.79,7.375-6.552,8.894-9.886l0,0c-0.544-1.131-0.605-2.316-0.626-3.418l0,0c0.01-1.972,0.339-3.998,0.328-5.306l0,0
	c0.011-5.393-0.779-10.427-0.79-15.808l0,0c0-1.162,0.031-2.347,0.134-3.552l0,0c-1.929-0.628-4.555-1.459-6.688-2.136l0,0
	c-3.919-1.244-8.032-2.334-11.879-3.608l0,0c-10.289-3.432-21.029-6.014-31.718-8.442l0,0c-15.993-3.639-28.2-6.027-44.951-9.25l0,0
	c-5.98-1.157-10.218-1.777-17.901-2.813l0,0c-8.278-1.111-14.945-1.973-25.111-3.083l0,0c-16.393-1.285-37.494-2.472-41.351-2.559
	l0,0c-3.242-0.1-15.142-0.349-22.701-0.349l0,0c-2.411,0-4.391,0.021-5.55,0.087l0,0c-3.241,0-36.96,1.546-46.911,2.57l0,0
	c-14.566,1.341-45.336,6.768-56.84,9.481l0,0c-18.634,4.368-36.622,9.009-53.24,15.841l0,0
	c-14.68,6.057-29.308,11.702-42.807,18.718l0,0c-3.652,1.71-8.643,8.73-14.746,9.981l0,0l-0.159,0.023h-0.164
	c-2.298,0-3.565-1.341-4.021-1.505l0,0c-2.082-1.144-3.652-2.583-5.057-2.962l0,0c-1.375-0.426-5.221-0.97-7.858-0.949l0,0
	c-0.667-0.01-1.282,0.039-1.723,0.095l0,0c-0.103,1.385-0.195,3.4-0.195,4.231l0,0c-0.031,0.426-0.041,0.861-0.041,1.318l0,0
	c0,0.567,0.01,1.167,0.01,1.775l0,0c-0.01,0.982-0.031,2.016-0.262,3.105l0,0c-0.703,3.195-0.928,6.904-1.503,10.297l0,0
	c1.098,0.764,1.78,1.852,3.073,2.985l0,0c1.6,1.713,3.38,3.662,3.857,4.001l0,0c9.176,6.929,18.131,14.218,27.476,20.798l0,0
	c10.433,7.324,20.804,14.448,31.154,21.88l0,0c4.339,3.116,8.16,6.809,12.125,9.807l0,0c1.765,1.349,2.965,3.159,4.011,4.521l0,0
	c2.062,2.777,5.581,5.273,8.237,8.737l0,0c1.462,2.016,3.673,4.698,5.345,5.439l0,0c1.724,0.239,3.462,0.49,5.365,0.772l0,0
	c4.482,1.144,10.237,1.349,15.521,2.529l0,0c1.492,0.082,2.975,0.159,4.76,0.292l0,0c5.149,1.146,11.853,0.938,17.849,1.495l0,0
	c3.754,0,7.54,0,11.314,0l0,0h0.21l0.21,0.043c0.903,0.195,1.959,0.272,3.113,0.272l0,0c2.559,0,5.544-0.416,8.586-0.416l0,0
	c1.405,0,2.836,0.101,4.242,0.393l0,0c1.39,0.295,3.19,0.403,5.108,0.393l0,0c2.56,0.01,5.334-0.164,7.868-0.164l0,0
	c1.877,0,3.744,0,5.632,0l0,0c2.318-0.639,5.119-1.552,8.006-2.308l0,0c2.067-0.251,4.119-0.523,5.924-0.721l0,0
	c2.267-0.59,4.519-1.426,6.585-2.354l0,0c0.923-2.831,1.698-4.832,2.257-6.911l0,0c-3.216-3.524-5.565-9.974-7.201-13.823l0,0
	c-0.164-0.695-0.318-1.385-0.472-2.088l0,0c-0.37-0.5-1.652-1.541-2.636-2.967l0,0c-1.693-2.747-3.072-6.201-4.042-9.174l0,0
	c-0.61-1.897-1.375-5.742-1.395-9.132l0,0c0-1.067,0.062-2.093,0.328-3.083l0,0c0.256-0.864,0.641-1.408,0.877-1.79l0,0
	c-0.2-1.046-0.405-2.095-0.601-3.146l0,0h-1.041l-0.077-1.929c-0.087-2.603-0.861-6.821-0.872-10.786l0,0
	c0-1.405,0.097-2.811,0.4-4.142l0,0c0.559-2.429,0.656-5.458,1.595-8.412l0,0c3.103-9.522,8.889-17.692,16.788-22.696l0,0
	c3.446-2.167,7.575-3.844,11.53-5.098l0,0c2.985-0.959,6.211-1.338,9.422-1.351l0,0c5.668,0.013,11.258,1.21,15.382,2.954l0,0
	c15.408,6.493,25.687,22.009,25.687,43.276l0,0v2.265c0.011,0.318,0.021,0.631,0.031,0.941l0,0c0,0.22,0,0.436-0.011,0.644l0,0
	c0.882,0.587,2.021,1.39,2.821,2.646l0,0c0.615,1.131,0.729,2.288,0.738,3.311l0,0c-0.01,1.418-0.236,2.68-0.236,3.608l0,0
	c-0.102,5.283-1.364,10.623-3.641,14.393l0,0c-0.944,1.477-2.217,2.618-2.678,3.313l0,0c-0.646,2.744-1.313,5.488-2.052,8.432l0,0
	c-0.923,2.529-2.206,5.155-3.139,7.312l0,0c-0.082,0.195-0.206,0.523-0.277,0.795l0,0c-0.03,0.077-0.062,0.133-0.071,0.174l0,0
	c1.713,6.386,3.2,10.584,3.938,15.479l0,0C325.907,168.805,332.882,168.534,337.406,169.388L337.406,169.388z M251.545,110.362
	l-1.975,0.372L251.545,110.362v-0.028V110.362L251.545,110.362z"/>
<polygon points="200.172,504.264 217.714,513.507 198.634,523.56 "/>
<polygon fill="#C4014B" points="257.075,534.25 217.704,555.012 197.772,544.502 198.685,535.172 198.624,523.55 217.704,513.497 
	"/>
<polygon fill="#BEBEBE" points="278.565,545.569 270.184,561.536 263.137,571.378 232.281,564.813 217.693,555.001 257.075,534.239 
	"/>
<polygon fill="#8FC4EB" points="407.253,575.318 374.756,595.352 374.756,600.604 383.404,637.174 410.865,608.821 "/>
<polygon fill="#BEBEBE" points="374.818,599.435 367.863,585.504 345.828,577.185 348.31,592.121 339.632,597.65 357.03,607.508 "/>
<polygon fill="#2D8E2D" points="308.56,614.524 302.375,621.879 348.321,631.378 334.493,599.25 "/>
<path d="M339.263,595.885c-0.35-0.195-5.181,1.293-4.422,4.504c2.318,9.816,16.875,37.596,16.875,37.596s37.801-4.668,36.539-5.037
	c-6.37-1.897-13.438-33.513-13.438-33.513S346.351,599.711,339.263,595.885z"/>
<path fill="#8FC4EB" d="M303.318,618.73c0,0,14.146,40.191,18.455,44.5c3.528,3.529,11.242,4.965,11.242,4.965l24.261-15.079
	l-8.996-21.819C348.28,631.296,315.875,624.895,303.318,618.73z"/>
<path d="M290.557,627.377l-10.463,22.117l-1.877,4.575c0,0,38.889,12.269,43.566,9.171c0.995-0.656-18.115-46.039-18.115-46.039
	L290.557,627.377z"/>
<path fill="#C4014B" d="M348.269,631.296l7.868,22.312l15.736-9.838l16.382-10.822C376.5,635.616,348.269,631.296,348.269,631.296z"
	/>
<polygon fill="#7E4806" points="321.609,663.189 321.865,675.571 332.205,669.836 340.555,665.405 "/>
<path fill="#C4014B" d="M278.062,654.018c0,0,9.232,22.527,17.244,35.155l30.99-16.064c0,0-4.514-9.909-4.667-9.92
	C310.828,662.44,278.062,654.018,278.062,654.018z"/>
<path fill="#C4014B" d="M241.215,693.933L230.557,707.7c0,0,39.063,13.294,37.832,10.524c-4.791-10.771-12.587-39.863-12.587-39.863
	L241.215,693.933z"/>
<path fill="#7E4806" d="M256.141,680.372c0,0-3.785,26.682,11.674,39.166l5.17-10.423l-2.79-9.52
	C270.195,699.595,262.47,686.711,256.141,680.372z"/>
<path fill="#BEBEBE" d="M231.213,707.371c0,0-24.65,10.771,23.502,38.786c2,1.17,1.949-6.709,1.949-6.709l11.92-20.413
	L231.213,707.371z"/>
<path fill="#2D8E2D" d="M263.137,571.378l-8.237,1.79l-26.21,16.172l0.482,9.807l34.057,8.576c0,0,3.19-2.934,2.944-2.934
	s-5.396-6.135-5.396-6.135l-2.206-16.915L263.137,571.378z"/>
<polygon fill="#C4014B" points="195.372,581.493 229.654,595.352 212.513,625.131 203.394,625.573 193.167,614.35 191.443,600.122 
	"/>
<polygon points="288.537,628.896 292.352,637.718 245.626,633.676 268.061,606.851 "/>
<path fill="#BEBEBE" d="M264.45,602.246c0.39-0.082,4.596,2.729,2.954,5.591c-5.026,8.74-26.917,31.195-26.917,31.195
	s-38.406-13.459-37.093-13.459c6.637,0,25.984-30.088,25.984-30.088S256.572,603.897,264.45,602.246z"/>
<path fill="#2D8E2D" d="M292.352,634.436c0,0-25.04,34.457-30.405,37.35c-4.391,2.369-15.223,5.98-15.223,5.98l-17.726-23.307
	l16.69-20.855C245.688,633.604,278.565,636.733,292.352,634.436z"/>
<path fill="#8FC4EB" d="M293.666,637.575l12.146,32.97l0.482,4.913c0,0-40.766,0.646-44.356-3.662
	c-0.77-0.923,28.097-34.519,28.097-34.519L293.666,637.575z"/>
<path fill="#7E4806" d="M245.698,633.615l-17.029,23.471l-10.504-16.741l-13.131-14.443
	C215.539,631.809,245.698,633.615,245.698,633.615z"/>
<polygon fill="#BEBEBE" points="262.111,671.795 254.931,688.598 248.694,678.422 238.518,668.575 "/>
<path d="M306.467,675.458c0,0-16.823,24.702-28.107,34.52l-26.681-26.538c0,0,10.269-11.685,10.422-11.653
	C272.657,674.155,306.467,675.458,306.467,675.458z"/>
<path fill="#C4014B" d="M313.689,696.477l8.945,17.233l-46.531-4.441c4.104,0.667,30.272-33.739,30.272-33.739L313.689,696.477z"/>
<path fill="#7E4806" d="M326.501,727.005l8.863,14.443c0,0-41.699,1.642-39.729-0.657c7.673-8.944,21.009-34.795,21.009-34.795
	L326.501,727.005z"/>
<path fill="#8FC4EB" d="M319.926,706.981c0,0-4.924,26.918-23.307,34.468l-3.939-8.863l-15.756-23.307
	C276.924,709.279,312.048,711.249,319.926,706.981z"/>
<path fill="#C4014B" d="M335.693,740.463c0,0-11.161,21.994-29.226,33.812c-1.938,1.271-3.938-10.833-3.938-10.833l-5.581-22.979
	H335.693z"/>
<path fill="#7E4806" d="M263.465,570.066c0,0-22.65,14.453-33.811,25.286l-34.467-12.146l0.657-9.53l21.624-18.438
	C217.468,555.238,249.022,569.737,263.465,570.066z"/>
<path fill="#C4014B" d="M51.173,93.575l9.848,21.26l11.407-13.053c0,0-8.483-6.626-12.402-11.407
	C57.123,86.835,51.173,93.575,51.173,93.575z"/>
<path fill="#8FC4EB" d="M37.55,111.86l18.013,25.286l5.622-23.301l-10.012-20.27C51.173,93.575,39.705,101.945,37.55,111.86z"/>
<path fill="#2D8E2D" d="M71.936,156.975l28.753,32.062l9.879-23.876c0,0-31.288-25.148-32.354-24.05
	C72.592,146.896,71.936,156.975,71.936,156.975z"/>
<path fill="#BEBEBE" d="M59.862,112.85c-2.216,5.796,19.06,29.8,19.06,29.8l23.85-17.039c0,0-18.875-10.299-29.359-24.158
	C73.413,101.453,63.667,102.94,59.862,112.85z"/>
<path fill="#7E4806" d="M53.419,135.161c0,0,26.609,30.241,21.491,23.63c-5.129-6.606,3.303-17.68,3.303-17.68
	c-11.899-12.228-17.459-29.246-18.352-28.261C51.101,122.605,53.419,135.161,53.419,135.161z"/>
<path d="M78.213,141.111c1.61,6.729,31.236,26.112,31.236,26.112l24.291-20.988l-30.58-21.814
	C88.431,127.026,78.213,141.111,78.213,141.111z"/>
<path fill="#C4014B" d="M108.291,167.551l31.236,25.122l30.241-23.471c0,0-13.94-0.513-23.142-6.442
	c-7.919-5.108-11.202-15.767-12.228-15.7C123.4,147.763,108.291,167.551,108.291,167.551z"/>
<path fill="#8FC4EB" d="M99.858,188.375l37.35,27.769l6.001-29.543c0,0-17.398-6.986-34.426-19.87
	C108.783,166.731,99.448,179.758,99.858,188.375z"/>
<path fill="#2D8E2D" d="M185.298,170.526c-2.308,8.088,33.021,11.705,33.021,11.705l20.793-10.694l-48.521-0.513
	C190.591,171.024,185.791,168.803,185.298,170.526z"/>
<path fill="#7E4806" d="M135.854,214.452c0,0,30.169,17.885,30.077,16.731c-1.19-14.023,15.151-26.876,15.151-26.876l-37.391-18.321
	C143.691,185.985,133.997,200.09,135.854,214.452z"/>
<polygon fill="#BEBEBE" points="237.02,373.166 235.153,376.776 233.317,381.034 257.075,368.519 238.127,358.527 237.82,366.877 
	"/>
<polygon fill="#2D8E2D" points="232.445,339.447 235.891,356.517 238.487,358.722 257.075,368.529 296.456,347.777 257.075,327.024 
	"/>
<polygon fill="#7E4806" points="231.296,330.913 232.773,336 233.593,339.283 257.034,327.014 222.761,308.919 228.013,322.049 "/>
<path fill="#BEBEBE" d="M219.807,305.144l2.626,4.76c0.523-0.123,5.632,1.856,5.632,1.856l28.958,15.264l39.371-20.752
	l-39.371-20.752L219.807,305.144z"/>
<polygon fill="#C4014B" points="209.333,269.035 211.436,283.807 218.001,298.907 221.284,304.323 257.034,285.541 217.663,264.789 
	"/>
<polygon fill="#8FC4EB" points="186.201,241.656 201.917,250.95 208.338,260.583 215.508,263.711 217.683,264.86 257.064,244.108 
	217.683,223.356 "/>
<polygon fill="#7E4806" points="217.642,264.798 257.023,285.551 296.404,264.798 257.023,244.046 "/>
<polygon fill="#C4014B" points="214.011,221.335 257.064,244.118 296.445,223.366 257.064,202.624 "/>
<path d="M170.239,198.572l47.454,24.825c2.698-3.139,39.371-20.752,39.371-20.752l-39.381-20.752L170.239,198.572z"/>
<polygon fill="#8FC4EB" points="237.84,171.275 217.683,181.892 257.054,202.645 296.435,181.892 270.851,168.413 258.346,168.49 
	"/>
<polygon fill="#7E4806" points="257.043,202.624 296.424,223.376 296.424,181.872 "/>
<polygon fill="#BEBEBE" points="257.013,244.057 296.394,264.798 296.394,223.304 "/>
<polygon fill="#2D8E2D" points="257.013,285.53 296.394,306.283 296.394,264.778 "/>
<polygon points="257.064,327.024 296.445,347.787 296.445,306.283 "/>
<polygon fill="#8FC4EB" points="257.064,368.508 296.445,389.25 296.445,347.756 "/>
<polygon fill="#BEBEBE" points="257.034,409.931 296.415,430.693 296.415,389.189 "/>
<polygon fill="#2D8E2D" points="257.023,451.405 296.404,472.157 296.404,430.652 "/>
<path fill="#2D8E2D" d="M160.525,227.125l20.783,11.15c0,0,9.776,8.653,10.638,6.252c2.37-6.591,25.892-21.049,25.892-21.049
	l-36.755-19.173C181.082,204.306,165.336,216.185,160.525,227.125z"/>
<path fill="#BEBEBE" d="M143.25,186.642c13.531,8.453,37.832,17.665,37.832,17.665c15.829-12.002,18.783-14.73,37.237-22.075
	c0,0-14.177-2.616-45.741-14.182C172.578,168.049,155.755,170.701,143.25,186.642z"/>
<polygon fill="#8FC4EB" points="316.212,523.94 335.806,534.27 324.05,540.465 "/>
<polygon points="299.656,473.788 335.775,492.817 310.211,506.276 308.427,501.393 303.687,487.493 299.81,478.188 "/>
<polygon fill="#7E4806" points="383.496,435.083 375.043,430.632 381.628,427.154 "/>
<polygon fill="#8FC4EB" points="375.659,411.583 381.321,427.329 375.053,430.642 335.672,409.89 367.914,392.892 371.104,402.094 
	"/>
<polygon points="209.138,260.254 217.683,264.86 209.333,269.035 "/>
<polygon fill="#2D8E2D" points="361.01,381.751 364.549,388.307 367.339,393.21 335.672,409.9 296.281,389.148 335.672,368.396 "/>
<polygon fill="#BEBEBE" points="395.057,482.6 375.074,472.064 390.42,463.971 "/>
<polygon fill="#8FC4EB" points="236.415,357.512 256.972,368.344 236.814,378.961 236.938,371.319 "/>
<polygon points="296.333,389.086 256.952,409.838 228.783,394.995 232.393,387.373 235.963,379.403 256.952,368.334 "/>
<polygon fill="#C4014B" points="335.713,409.829 296.322,430.591 256.941,409.829 296.322,389.086 "/>
<polygon points="375.084,430.581 335.713,451.323 296.312,430.581 335.713,409.818 "/>
<polygon fill="#C4014B" points="383.527,435.022 387.292,454.79 390,464.207 375.074,472.075 335.703,451.323 375.074,430.57 "/>
<polygon fill="#8FC4EB" points="296.342,430.56 256.961,451.312 217.581,430.56 256.961,409.808 "/>
<polygon fill="#7E4806" points="335.724,451.302 296.333,472.054 256.952,451.302 296.333,430.55 "/>
<polygon fill="#8FC4EB" points="375.084,472.054 335.703,492.806 296.312,472.054 335.703,451.302 "/>
<polygon fill="#7E4806" points="395.703,482.907 397.724,491.975 399.15,500.859 375.084,513.538 335.703,492.796 375.084,472.044 
	"/>
<polygon fill="#2D8E2D" points="228.792,394.975 256.961,409.818 217.591,430.57 215.652,429.544 218.617,423.492 219.817,416.804 
	"/>
<polygon fill="#2D8E2D" points="403.038,528.269 375.074,513.538 399.519,500.654 "/>
<polygon fill="#BEBEBE" points="299.625,473.737 296.866,483.882 294.055,501.731 291.008,510.697 257.034,492.796 296.415,472.044 
	"/>
<polygon fill="#C4014B" points="375.176,513.538 335.795,534.28 317.269,524.535 313.115,516.185 310.006,506.368 335.795,492.786 
	"/>
<polygon fill="#BEBEBE" points="403.274,528.34 404.012,534.239 404.525,539.563 375.156,555.032 335.786,534.28 375.156,513.528 
	"/>
<polygon points="405.879,562.875 407.089,568.363 407.931,574.241 375.156,555.032 404.627,539.501 405.345,549.622 "/>
<polygon fill="#C4014B" points="296.424,472.054 257.043,492.806 217.663,472.054 257.043,451.302 "/>
<polygon fill="#7E4806" points="375.176,555.022 344.001,574.897 339.201,567.953 330.779,554.109 324.04,540.46 335.806,534.259 
	"/>
<path fill="#2D8E2D" d="M407.11,573.092l0.38,3.293c0,0,4.821-1.939,0.092,5.836c-4.729,7.766-32.764,17.214-32.764,17.214
	s-24.866-15.347-28.303-20.712c-3.446-5.354-0.688-1.538-0.688-1.538l-2.318-2.616l31.657-19.557L407.11,573.092z"/>
<polygon fill="#2D8E2D" points="277.427,545.015 257.034,534.27 288.578,517.652 "/>
<polygon fill="#8FC4EB" points="197.516,544.338 217.724,554.991 197.485,574.004 "/>
<polygon points="257.043,451.323 217.663,472.075 206.502,466.187 209.651,450.779 215.354,431.791 217.663,430.581 "/>
<polygon fill="#2D8E2D" points="206.512,466.166 217.673,472.054 203.127,479.717 "/>
<polygon fill="#8FC4EB" points="257.043,492.796 217.673,513.538 200.306,504.398 202.296,491.165 203.773,479.368 217.673,472.044 
	"/>
<polygon fill="#7E4806" points="291.008,510.686 290.239,514.174 289.131,517.375 257.034,534.291 217.663,513.538 257.034,492.786 
	"/>
<path d="M249.396,683.936l2.754-2.918c0.031,0.025,12.484,11.838,22.958,23.901l0,0l-3.037,2.626
	C261.885,695.805,249.673,684.208,249.396,683.936L249.396,683.936z M249.391,683.931c0,0,0,0,0.005,0.005l0,0l-0.005,0.006V683.931
	L249.391,683.931z"/>
<polygon fill="#FFFFFF" points="262.901,169.029 280.442,179.995 306.488,179.174 323.486,172.044 318.193,152.313 267.835,154.775 
	"/>
<path fill-rule="evenodd" clip-rule="evenodd" fill="#BEBEBE" d="M85.209,62.595c0,0,159.596-101.197,421.404-17.121l4.534-5.539
	c0,0-254.258-94.642-453.636,13.089"/>
<path d="M90.359,60.267c-2.564-6.524-31.379-9.181-31.379-9.181c-8.658,0.174-36.068,12.33-47.896,19.788
	c-18.311,11.551-1.692,17.542,2.739,18.085c3.16,0.431,7.037-1.405,12.32-4.462c5.98-3.457,15.9-8.227,18.034-9.796
	c4.442-3.519,14.382-10.75,22.404-10.75c6.381,0,6.617,2.893,12.402,4.647C79.834,68.883,90.575,60.779,90.359,60.267"/>
<path fill="#FFFFFF" d="M55.369,63.416l0.564-5.837c-5.642-3.99-12.884-9.889-20.557-8.278c-1.949,0.4-2.359,2.288-3.796,2.832
	c0,0-5.99-2.832-7.611,3.703c-4.637,0-6.534,0.985-6.534,5.201c-4.432,0-8.381,2.688-6.258,5.693
	c4.268,6.062,4.278,9.622,9.786,9.622c2.339,0,4.237-1.877,3.714-3.128c8.586,7.324,10.125,0.543,10.125-1.221
	c1.344,1.21,3.313,0.933,4.729,0.667c1.21-0.236,2.011-0.461,1.621,0.257c-2.318,4.206-11.202,8.832-14.875,11.253
	c-1.867,1.221-2.288,1.354-5.006,3.057l11.274,12.782c-0.482,1.323,1.21,7.683,2.4,6.955c3.713-2.277,16.772-11.756,17.49-12.454
	c0.544-0.554,5.57-4.473,5.57-4.473c0.297-1.528-3.17-2.605-3.067-2.841c3.262-7.55,2.944-19.87,2.944-20.978
	C57.882,65.498,56.076,63.416,55.369,63.416"/>
<path fill="#FFFFFF" d="M503.824,42.951l13.613,0.123c0.071-0.236-7.961-4.493-7.961-4.493l9.981-8.463
	c6.216-2.995,8.278,5.909,9.704,6.442c0,0,10.36-5.222,11.253,3.077c4.627,0,6.422,1.046,6.422,5.252
	c4.421,0,6.771,4.452,6.227,8.104c-2.503,16.023-21.316,28.22-22.055,33.113c-0.195,1.21-25.215-10.228-26.281-11.305
	c-2.853-2.8,0.522-4.186-1.837-24.178C502.798,49.926,503.106,42.951,503.824,42.951"/>
<path d="M513.231,50.88c2.902-0.995,2.697-0.626,4.298-2.175c2.667-2.605,1.262-6.955,4.227-6.001
	c0.811,0.267,2.359,3.529,1.99,4.329c-0.934,2.01-1.067,2.277-2.411,4.144l0,0c-0.328,1.21-2.811,1.477-2.811,1.477
	c-1.601-0.338-2.934,0.872-2.934,2.462c0,4.032,2.123,3.478,1.354,4.894c-0.77,1.395-3.046-0.626-3.046-0.626
	c-0.544-1.149-0.801-2.257-1.057-3.795c-0.216-1.323-0.432-3.272,0.112-4.35"/>
<path fill="#FFFFFF" d="M219.325,717.988c1.128-0.8,2.503-2.03,3.99-3.446c2.144,3.847,6.237,10.442,10.945,14.341
	c1.231,0.995,2.564,1.888,3.898,2.718c-0.082,0.021,0.523,0.432,1.446,0.873c2.831,1.59,5.601,2.77,7.745,3.59
	c0.811,0.359,1.559,0.697,2.062,0.902c0,0,4.391,1.385,7.375,2.38c0.616,0.195,1.149,0.298,1.672,0.38
	c-1.683,5.14-2.411,10.114-2.903,15.623c-0.82,9.089,0.236,21.184,0.236,21.184c-0.041-0.462-31.616-9.664-38.376-57.025
	L219.325,717.988"/>
<path d="M256.408,782.625c-0.226-1.897-0.431-3.908-0.615-6.093c-0.041-0.462-31.616-9.664-38.376-57.025
	c-0.051-0.41-11.438,3.508-18.321,10.166c-5.149,4.985-8.545,11.622-3.128,18.495c36.734,46.654,21.542,36.099,26.456,48.921
	c6.401,16.742,42.069,32.088,43.864,23.102C269.159,805.849,260.336,817.739,256.408,782.625"/>
<path d="M256.408,782.625l0.185-0.01c-0.215-1.908-0.42-3.909-0.605-6.094v-0.011c-0.03-0.133-0.071-0.133-0.103-0.153
	c-0.092-0.082-0.267-0.153-0.554-0.276c-4.216-1.847-31.482-12.987-37.719-56.605l-0.133-0.174l-0.123-0.031
	c-0.185,0-0.431,0.082-0.821,0.205c-2.688,0.903-11.181,4.771-16.967,10.371c-3.231,3.129-5.632,6.822-5.642,10.895
	c0,2.421,0.872,4.975,2.924,7.57c11.776,14.957,18.27,24.097,21.809,30.036c3.549,5.95,4.145,8.647,4.145,10.761
	c0,1.107-0.175,2.072-0.175,3.252c0,1.375,0.226,3.057,1.18,5.529c2.564,6.688,9.438,12.977,16.916,17.613
	c7.499,4.637,15.603,7.621,20.701,7.621c1.364,0,2.523-0.215,3.396-0.688c0.872-0.461,1.467-1.21,1.672-2.215
	c0.379-1.949,0.554-3.416,0.554-4.606c0.01-1.867-0.451-3.026-1.19-4.113c-1.077-1.651-2.739-3.17-4.473-7.119
	c-1.733-3.98-3.519-10.401-4.791-21.768L256.408,782.625l-0.205,0.031c1.703,15.182,4.329,21.604,6.534,25.163
	c1.108,1.785,2.093,2.842,2.801,3.888c0.697,1.057,1.118,2.083,1.118,3.908c0,1.149-0.164,2.605-0.554,4.544
	c-0.185,0.893-0.677,1.498-1.477,1.949c-0.78,0.421-1.877,0.626-3.201,0.626c-4.965,0.011-13.048-2.944-20.485-7.57
	c-7.448-4.596-14.279-10.863-16.762-17.397c-0.944-2.473-1.159-4.062-1.159-5.406c0-1.139,0.164-2.104,0.164-3.252
	c0-2.205-0.626-5.006-4.186-10.956c-3.56-5.96-10.063-15.12-21.829-30.087c-2.011-2.533-2.841-4.996-2.841-7.324
	c-0.011-3.898,2.328-7.509,5.519-10.617c3.262-3.17,7.437-5.796,10.884-7.602c1.734-0.923,3.293-1.621,4.473-2.113
	c0.585-0.256,1.077-0.431,1.446-0.554c0.369-0.134,0.636-0.185,0.708-0.185l0.01-0.123l-0.062,0.103l0.051,0.021l0.01-0.123
	l-0.062,0.103l0.092-0.144l-0.174,0.031l0.082,0.112l0.092-0.144l-0.174,0.031c3.385,23.717,12.997,37.914,21.768,46.213
	c4.391,4.144,8.566,6.832,11.643,8.504c1.549,0.83,2.821,1.415,3.703,1.826c0.431,0.184,0.79,0.338,1.016,0.43
	c0.113,0.052,0.205,0.104,0.267,0.124l0.031,0.03l0.103-0.123l-0.154,0.01c0.031,0.124,0.072,0.104,0.051,0.113l0.103-0.123
	l-0.154,0.01l0.195-0.02l-0.195,0.02c0.195,2.186,0.39,4.207,0.605,6.104L256.408,782.625"/>
<path d="M307.185,817.616c0.031-0.195,0.052-0.452,0.082-0.667C307.237,817.154,307.207,817.379,307.185,817.616"/>
<path d="M307.185,817.616l0.195,0.02c0.031-0.205,0.052-0.431,0.082-0.677l-0.39-0.041c-0.031,0.205-0.062,0.441-0.082,0.688
	l0.39,0.03L307.185,817.616l0.195,0.01c0.021-0.226,0.041-0.462,0.072-0.656l-0.186-0.021l-0.194-0.021
	c-0.031,0.226-0.052,0.451-0.082,0.666L307.185,817.616l0.195,0.01L307.185,817.616"/>
<path fill="#FFFFFF" d="M339.14,748.732c0.041-0.113,0.738,0.481,1.795,1.487l-0.77-0.051c0,0-1.826-4.422-5.703-11.623
	c-2.688,1.56-8.053,4.452-17.501,8.688c-9.417,4.237-13.849,5.171-15.839,5.283c3.478,12.022,5.591,30.487,6.422,47.033
	c0.421,8.505,0.134,13.972-0.277,17.398C308.221,811.553,315.32,819.329,339.14,748.732"/>
<path d="M340.935,750.219c-1.057-1.006-1.754-1.601-1.795-1.487c-23.82,70.597-30.919,62.821-31.873,68.217
	c-0.03,0.215-0.051,0.472-0.082,0.667c-0.01,0.092-0.02,0.174-0.02,0.287c-0.083,1.518-0.4,2.861-0.811,4.134
	c-4.534,14.095-27.441,14.648-22.476,30.005c1.6,4.914,41.577,2.123,47.977-14.607c4.925-12.854-6.021-8.791,30.733-55.425
	C366.704,776.767,347.028,755.903,340.935,750.219"/>
<path d="M340.935,750.219l0.133-0.144c-0.481-0.482-0.902-0.841-1.21-1.108c-0.154-0.123-0.287-0.235-0.4-0.297l-0.133-0.093
	l-0.175-0.051l-0.195,0.144c-11.899,35.288-19.634,50.993-24.496,58.533c-2.421,3.754-4.124,5.478-5.293,6.596
	c-1.17,1.118-1.847,1.703-2.093,3.118v0.011c-0.031,0.226-0.052,0.451-0.082,0.666c-0.011,0.093-0.021,0.186-0.021,0.309
	c-0.082,1.477-0.39,2.811-0.801,4.072c-2.021,6.288-7.755,9.879-13.037,13.314c-2.647,1.724-5.181,3.427-7.058,5.417
	c-1.877,2.011-3.087,4.339-3.087,7.272c0,1.252,0.226,2.616,0.718,4.124c0.277,0.841,1.354,1.364,2.954,1.754
	c1.61,0.38,3.775,0.564,6.31,0.564c6.329,0,14.915-1.21,22.516-3.938c7.602-2.698,14.219-6.914,16.557-12.998
	c1.231-3.211,1.478-5.396,1.714-7.55c0.379-3.241,0.718-6.421,4.432-13.191c3.703-6.781,10.781-17.132,24.558-34.622
	c0.421-0.522,0.605-1.189,0.605-1.959c-0.011-1.867-1.067-4.298-2.719-7.067c-4.975-8.258-15.408-19.142-19.562-23.02
	L340.935,750.219l-0.134,0.133c2.76,2.564,8.299,8.269,13.161,14.197c2.432,2.976,4.688,6.012,6.34,8.74
	c1.642,2.729,2.657,5.17,2.657,6.873c0,0.708-0.175,1.282-0.523,1.734c-18.383,23.316-24.846,33.975-27.338,40.416
	c-1.241,3.222-1.487,5.417-1.733,7.581c-0.236,2.144-0.473,4.278-1.693,7.468c-2.236,5.898-8.76,10.074-16.311,12.762
	c-7.55,2.708-16.115,3.908-22.393,3.908c-2.514,0-4.658-0.185-6.217-0.554c-1.57-0.349-2.523-0.913-2.678-1.487
	c-0.482-1.478-0.708-2.812-0.708-4.012c0-2.841,1.169-5.047,2.995-6.996c2.75-2.923,7.006-5.252,10.976-8.021
	c3.96-2.78,7.652-6.031,9.202-10.854c0.42-1.292,0.738-2.656,0.82-4.195c0-0.103,0-0.174,0.021-0.287l-0.195-0.01l0.195,0.02
	c0.031-0.205,0.052-0.431,0.082-0.677l-0.195-0.01l0.186,0.021c0.235-1.272,0.789-1.744,1.979-2.873
	c1.774-1.723,4.79-4.82,9.581-14.094c4.791-9.264,11.387-24.723,20.312-51.209l-0.175-0.062v0.185l0.175-0.123l-0.175-0.062v0.185
	v-0.123l-0.041,0.123h0.041v-0.123l-0.041,0.123c0,0,0.257,0.144,0.554,0.41c0.287,0.236,0.677,0.585,1.139,1.025L340.935,750.219"
	/>
<line fill="#2D8E2D" x1="152.083" y1="190.078" x2="152.072" y2="190.088"/>
<path d="M285.182,629.768l-0.154,0.041L285.182,629.768z"/>
<polygon points="289.049,629.009 289.018,629.265 289.203,629.235 "/>
<polygon fill="#8FC4EB" points="339.817,216.308 339.817,216.308 339.714,216.267 "/>
<path fill="#E6E7E8" d="M348.72,591.782c-0.02-0.164-0.041-0.379-0.061-0.604c0.02,0.123,0.03,0.246,0.041,0.369
	C348.701,591.628,348.71,591.71,348.72,591.782"/>
<path fill="#EB5A99" d="M326.317,543.23c-0.052-0.092-0.112-0.194-0.175-0.292c0.123,0.041,0.257,0.092,0.38,0.123L326.317,543.23"
	/>
<path fill="#FFFFFF" d="M353.008,655.906c0,0-0.041-0.052-0.062-0.071c0.062,0,0.123,0,0.123,0S353.04,655.875,353.008,655.906"/>
<path fill="#FFFFFF" d="M506.593,124.165L506.593,124.165h0.257H506.593 M352.752,354.865v-0.051v-0.01V354.865"/>
<path fill="#FFFFFF" d="M532.229,86.661l-1.057-0.451c0,0,0.021-0.051,0.021-0.062l1.066,0.451
	C532.259,86.599,532.25,86.62,532.229,86.661"/>
<path fill="#FDE3D2" d="M530.783,86.004c0,0-0.062-0.01-0.093-0.01l-3.323-1.416c0,0,0.041-0.031,0.062-0.052l3.396,1.457v0.01
	L530.783,86.004"/>
<path fill="#FDE3D2" d="M531.172,86.209l-0.482-0.215c0.031,0,0.072,0.01,0.072,0.01l0.062-0.01v-0.01l0.369,0.164
	c0,0.01-0.011,0.041-0.011,0.041"/>
<path fill="#EED2BE" d="M511.118,77.624l-4.206-1.806c-0.328-0.164-0.626-0.318-0.882-0.451l5.118,2.185L511.118,77.624"/>
<path fill="#EED2BE" d="M506.912,75.818l-2.523-1.087c-0.052-0.041-0.082-0.082-0.123-0.123l1.765,0.759
	C506.286,75.5,506.583,75.654,506.912,75.818"/>
<path fill="#FDE3D2" d="M53.953,88.559l1.867-1.169c0,0-0.021,0.041-0.031,0.072L53.953,88.559"/>
<path fill="#3C3C3D" d="M218.853,727.302c-0.543-2.513-1.036-5.077-1.436-7.827l-0.021-0.02c-0.113,0-0.256,0.03-0.421,0.082
	c0.124-0.093,0.247-0.186,0.37-0.268h0.01l0.123,0.031l0.072,0.103l0.062,0.071c0.39,2.698,0.852,5.273,1.385,7.715
	C218.955,727.22,218.904,727.261,218.853,727.302"/>
<path fill="#3C3C3D" d="M199.28,730.431l-0.123-0.103c0,0,0.185-0.113,0.462-0.277C199.506,730.165,199.383,730.308,199.28,730.431"
	/>
<path fill="#FFFFFF" d="M255.936,776.387l-0.031-0.03c-0.041-0.03-0.082-0.052-0.123-0.071c-0.154-1.765-0.975-12.587-0.226-20.896
	C255.279,763.493,255.587,771.187,255.936,776.387"/>
<path fill="#565759" d="M256.039,777.947h-0.103c-0.041-0.503-0.093-0.923-0.144-1.456c0-0.134-3.375-1.252-8.125-4.258
	c0-0.062,0.011-0.123,0.011-0.164c3.662,2.329,6.503,3.509,7.652,4.012c0.195,0.102,0.349,0.153,0.451,0.205
	c0.041,0.02,0.082,0.041,0.103,0.071l0.052,0.03C255.966,776.942,256.007,777.465,256.039,777.947"/>
<path fill="#FFFFFF" d="M296.65,466.987l-0.246-0.072l0.062-0.03L296.65,466.987 M297.153,467.356
	c-0.051-0.144-0.092-0.267-0.133-0.369c0-0.164-0.011-0.4-0.011-0.718c0.011,0.195,0.021,0.39,0.031,0.584l0,0l0,0l0,0v0.031v-0.031
	c0,0,0.092-0.071,0.256-0.194c-0.164,0.123-0.246,0.185-0.246,0.185s0.082,0.01,0.246,0.021c-0.164-0.011-0.246-0.011-0.246-0.011
	l-0.01,0.031L297.153,467.356 M290.619,512.358c0.103-0.41,0.205-0.83,0.308-1.23c0.062-0.205,0.123-0.41,0.175-0.615
	C290.937,511.137,290.773,511.753,290.619,512.358 M281.489,515.138L281.489,515.138h0.123H281.489 M265.661,607.005
	c0.154-0.031,0.318-0.062,0.472-0.093C265.979,606.944,265.814,606.974,265.661,607.005"/>
<path fill="#565759" d="M337.15,754.692c-0.062-0.082-0.113-0.164-0.175-0.236c0.646-1.877,1.303-3.795,1.979-5.785l0.195-0.144
	l0.175,0.051l0.133,0.093c0.021,0.01,0.041,0.021,0.072,0.03c0.092,0.072,0.194,0.165,0.328,0.267
	c0.276,0.227,0.646,0.564,1.077,0.975c0.03,0.041,0.041,0.072,0.041,0.072l-0.041,0.144c-0.965-0.882-1.621-1.446-1.734-1.446
	c0,0-0.01,0-0.02,0.021C338.483,750.793,337.816,752.784,337.15,754.692"/>
<path fill="#009B40" d="M309.626,681.449c-0.041-0.123-0.082-0.246-0.112-0.38c0.062,0.195,0.093,0.308,0.093,0.308h0.02
	c0,0.031,0.011,0.041,0.011,0.041C309.637,681.449,309.626,681.449,309.626,681.449"/>
<path fill="#565759" d="M289.018,629.265l0.031-0.256l0,0c0.041,0.071,0.082,0.144,0.123,0.226
	C289.131,629.245,289.08,629.255,289.018,629.265"/>
<path fill="#6AC5EC" d="M297.296,466.864c-0.164-0.011-0.246-0.011-0.246-0.011s0.082-0.071,0.246-0.194V466.864"/>
<path fill="#565759" d="M297.307,467.766c-0.052-0.154-0.113-0.287-0.154-0.41l-0.112-0.472v-0.031c0,0,0.092,0,0.256,0.011
	L297.307,467.766"/>
<path fill="#E6E7E8" d="M33.406,102.705c-0.256-0.39-0.441-0.657-0.564-0.852l0.041-0.021c0.072,0.123,0.164,0.267,0.277,0.462
	l8.483,0.267l-8.483-0.267C33.231,102.417,33.313,102.551,33.406,102.705 M51.07,128.75c-2.472-3.242-4.77-6.38-6.883-9.386
	C46.3,122.37,48.608,125.498,51.07,128.75 M209.99,268.646c-0.421-5.027-0.123-7.602-0.164-8.976
	c0.051,1.251-0.206,3.529,0.082,7.817C209.928,267.866,209.958,268.246,209.99,268.646 M198.511,554.375v-0.01V554.375
	 M266.728,687.163L266.728,687.163c0.195,0,0.297,0,0.297,0S266.922,687.163,266.728,687.163 M275.354,707.35
	c0.041-0.062,0.092-0.112,0.154-0.185C275.447,707.238,275.396,707.289,275.354,707.35 M307.637,812.476c0,0,0-0.082,0-0.134
	c0,0.052,0,0.093,0,0.093 M307.38,815.902c0.093-0.984,0.185-2.093,0.246-3.375C307.565,813.799,307.473,814.917,307.38,815.902
	L307.38,815.902"/>
<path fill="#3C3C3D" d="M307.042,819.195l-0.112-0.021c0.153-0.852,0.318-1.918,0.451-3.272l0,0
	c0.359-0.769,0.943-1.282,1.785-2.103c1.169-1.118,2.872-2.842,5.293-6.596c0.503-0.78,1.047-1.652,1.601-2.616
	c0.01,0.144,0.021,0.267,0.021,0.4c-5.889,9.96-8.248,9.026-8.771,11.961c-0.02,0.215-0.051,0.472-0.071,0.667
	c-0.011,0.092-0.021,0.174-0.03,0.287C307.185,818.354,307.103,818.764,307.042,819.195"/>
<polygon fill="#2D8E2D" points="335.703,202.521 296.312,223.273 296.312,181.769 "/>
<polygon points="335.734,243.954 296.342,264.696 296.342,223.202 "/>
<polygon fill="#8FC4EB" points="335.734,285.428 296.342,306.18 296.342,264.675 "/>
<polygon fill="#C4014B" points="335.683,326.922 296.292,347.685 296.292,306.18 "/>
<polygon fill="#7E4806" points="335.683,368.406 296.292,389.148 296.292,347.654 "/>
<polygon fill="#BEBEBE" points="335.713,409.829 296.322,430.591 296.322,389.086 "/>
<polygon fill="#2D8E2D" points="335.724,451.302 296.333,472.054 296.333,430.55 "/>
<polygon fill="#8FC4EB" points="379.649,222.586 335.683,244.016 296.292,223.263 335.683,202.521 "/>
<polygon fill="#7E4806" points="391.671,232.014 382.614,245.729 377.239,263.609 375.064,264.757 335.683,244.005 375.064,223.253 
	"/>
<path fill="#BEBEBE" d="M423.195,218.673l-22.804,5.227c0,0-8.217,13.29-9.469,11.068c-1.989-3.539-16.013-11.591-16.013-11.591
	l36.755-19.173C411.665,204.204,418.384,207.732,423.195,218.673z"/>
<polygon points="354.907,171.172 375.064,181.79 335.693,202.542 296.301,181.79 321.885,168.311 337.898,172.208 "/>
<path fill="#C4014B" d="M425.318,197.341c0,0-50.254,25.922-50.265,25.953c-2.698-3.139-39.37-20.752-39.37-20.752l39.37-20.752
	L425.318,197.341z"/>
<path fill="#8FC4EB" d="M531.551,84.558l-9.622,22.101l-4.555-6.447c0,0,8.638-10.987,11.776-16.311
	C532.291,78.572,531.551,84.558,531.551,84.558z"/>
<polygon fill="#2D8E2D" points="530.967,82.337 517.447,100.386 487.565,92.215 505.373,73.807 "/>
<path fill="#BEBEBE" d="M517.816,100.284l-16.68,31.872l-40.704-14.772c0,0,27.573-27.138,29.103-27.138
	C506.173,90.246,517.816,100.284,517.816,100.284z"/>
<path d="M522.586,106.223l-17.07,30.636l-15.541-11.351c0,0,17.357-11.355,27.841-25.225L522.586,106.223z"/>
<path fill="#7E4806" d="M491.289,124.852l-31.175,24.394l-19.818-10.417c0,0,19.069-21.994,20.383-21.773
	C481.646,120.533,491.289,124.852,491.289,124.852z"/>
<path fill="#2D8E2D" d="M507.044,134.889l-24.075,32.385l-28.221-21.732c0,0,25.994-11.607,36.294-20.69
	C492.437,123.621,507.044,134.889,507.044,134.889z"/>
<path fill="#C4014B" d="M455.713,145.758l-35.493,20.04l-6.843-7.93c0,0,9.171-2.693,15.973-7.442
	c7.14-4.985,10.72-10.884,11.058-10.884C445.455,139.542,455.713,145.758,455.713,145.758z"/>
<path fill="#BEBEBE" d="M484.272,166.905l-33.739,20.526l-30.918-24.178c0,0,15.91-5.576,35.483-17.803
	C456.411,144.629,484.272,166.905,484.272,166.905z"/>
<polygon points="484.015,166.402 454.687,200.757 449.538,186.498 482.179,165.059 "/>
<path fill="#8FC4EB" d="M421.369,162.515c2.309,8.088-46.941,19.614-46.941,19.614l-20.793-10.694l56.328-13.679
	C409.962,157.755,420.876,160.792,421.369,162.515z"/>
<path fill="#2D8E2D" d="M455.395,199.008c-0.913,7.032-33.749,20.486-33.646,19.332c0.349-3.929-10.084-14.136-10.084-14.136
	l37.381-18.321C449.045,185.883,456.052,193.976,455.395,199.008z"/>
<path fill="#7E4806" d="M449.487,186.539c-13.521,8.453-37.822,17.665-37.822,17.665c-15.828-12.002-18.782-14.73-37.237-22.075
	c0,0,26.641-7.284,46.941-19.614C421.369,162.515,436.992,170.598,449.487,186.539z"/>
<polygon fill="#C4014B" points="375.105,264.696 335.724,285.448 296.333,264.696 335.724,243.944 "/>
<polygon fill="#BEBEBE" points="376.654,265.517 373.792,280.463 369.503,294.414 367.329,302.097 335.713,285.438 375.084,264.686 
	"/>
<path fill="#7E4806" d="M367.339,302.077l-0.513,4.113c-0.523-0.123-2.145,5.468-2.145,5.468l-28.958,15.264l-39.382-20.752
	l39.382-20.752L367.339,302.077z"/>
<polygon fill="#2D8E2D" points="358.671,329.322 357.194,334.144 355.943,337.57 335.713,326.912 364.672,311.647 362.149,321.167 
	"/>
<polygon points="355.727,373.063 357.594,376.674 359.43,380.931 335.672,368.416 354.619,358.425 354.927,366.775 "/>
<polygon fill="#BEBEBE" points="355.932,337.601 351.983,351.254 354.26,358.62 335.672,368.426 296.281,347.674 335.672,326.922 
	"/>
<path d="M285.12,137.351L285.12,137.351c-1.416,2.401,0.082,3.534,1.036,3.796l3.56,0.23c1.066-2.318-5.909,0.898-1.58-6.104
	c2.082-3.364,1.692-8.381,1.774-12.566c0.031-0.949,0.893-2.226,0.893-2.226c-2.472,1.098-1.569,6.319-2.472,10.648
	C287.531,134.879,286.259,135.274,285.12,137.351"/>
<path fill="#C4014B" d="M291.142,147.41c-1.58-2.626-11.746,0.584-11.746,1.938c0,0.585,8.873,2.985,12.464,2.985
	c1.785,0,11.54-1.765,11.54-2.831c0-1.334-10.638-4.719-11.715-1.908C291.357,148.466,291.634,148.209,291.142,147.41"/>
<path d="M250.776,110.367c-4.996-33.277,15.203-50.285,39.258-50.234c20.947,0.041,37.135,19.552,37.135,43.638
	c-7.868-4.975-16.085-13.879-36.991-13.879c-20.947,0-30.764,13.438-38.652,20.526"/>
<path d="M251.709,110.254l0.195-0.021c-0.472-3.149-0.698-6.145-0.698-8.996c0-27.01,20.045-40.756,38.766-40.766
	c10.34,0,19.562,4.903,26.199,12.782c6.638,7.889,10.699,18.762,10.699,30.682h0.195l0.103-0.164
	c-7.775-4.914-16.218-14.105-37.053-14.095c-20.916,0-30.733,13.438-38.54,20.444L251.709,110.254l0.195-0.021L251.709,110.254
	l0.123,0.154c7.878-7.078,17.562-20.352,38.283-20.352c20.722,0.01,28.989,9.068,36.837,14.043l0.309,0.185v-0.349
	c0-12.012-4.094-22.968-10.792-30.928c-6.698-7.96-16.023-12.915-26.497-12.915c-9.448,0-19.234,3.478-26.671,10.36
	c-7.427,6.873-12.484,17.183-12.484,30.785c0,2.872,0.226,5.888,0.698,9.058l0.051,0.359l0.267-0.247L251.709,110.254z"/>
<path d="M290.352,112.604c-9.581-3.693-13.141-6.319-24.876-6.319c-7.109,0-14.936,6.319-12.095,13.366
	c1.908,4.729,12.638,9.868,17.788,9.868c5.693,0,20.075-7.765,20.27-7.765c7.447,0,13.295,7.817,23.43,5.98
	c7.838-1.395,14.393-7.273,13.151-15.838c-0.708-4.924-6.575-8.073-13.151-8.073C304.57,103.823,297.276,109.27,290.352,112.604"/>
<path d="M266.337,156.667l1.816-1.59c8.524,9.802,16.198,13.076,22.793,13.076l0,0c12.638,0.085,22.353-12.428,25.902-17.572l0,0
	v0.011l1.979,1.375c-3.683,5.196-13.592,18.511-27.882,18.595l0,0C283.494,170.572,275.119,166.792,266.337,156.667L266.337,156.667
	z"/>
<path d="M252.181,116.419c-0.861,1.231-0.697,4.042-0.697,5.632c0,6.504,3.724,14.249,6.75,18.301
	c2.482-1.221-3.56-12.484-3.56-15.849C254.674,120.646,254.848,117.989,252.181,116.419"/>
<path d="M287.008,630.255h0.01l3.678-1.575c0.021,0.067,17.259,40.351,20.87,54.666l0,0l-3.898,0.965
	C304.303,670.78,287.039,630.301,287.008,630.255L287.008,630.255z"/>
<path d="M502.388,42.61c4.831-2.203,6.626-2.388,10.802-2.572l0,0c0.892-0.044,1.456-0.067,1.929-0.067l0,0
	c0.789,0.013,1.18,0.057,2.185,0.121l0,0c2.575,0.054,6.134,1.444,6.216,5.201l0,0h-4.031c0.031-0.511-0.317-0.944-2.441-1.195l0,0
	c-1.107-0.064-1.385-0.108-1.928-0.108l0,0c-0.35,0-0.852,0.021-1.724,0.064l0,0c-4.35,0.261-4.545,0.121-9.366,2.226l0,0
	L502.388,42.61L502.388,42.61z"/>
<polygon points="507.978,41.15 509.148,37.319 519.549,40.456 518.37,44.29 507.978,41.15 "/>
<path fill="#FFFFFF" d="M551.596,55.343c3.878,1.815,8.288,4.554,11.909,6.237c3.386,1.58,6.494,3.847,11.11,7.252
	c-5.222-0.595-12.546-2.575-15.911-3.693c-4.175-1.375-6.441-1.856-10.535-3.447c-0.502-1.118-0.174-2.247,0.062-2.923
	c0.615-1.344,0.892-2.083,1.846-2.801C550.745,55.456,551.596,55.343,551.596,55.343z"/>
<path d="M574.379,70.822c-5.488-0.631-12.812-2.621-16.311-3.775l0,0c-4.072-1.347-6.411-1.847-10.638-3.488l0,0l-0.77-0.295
	l-0.328-0.749c-0.328-0.698-0.451-1.426-0.451-2.1l0,0c0-1.021,0.257-1.836,0.523-2.488l0,0c0.543-1.208,1.046-2.513,2.441-3.557
	l0,0c1.221-0.89,2.318-0.977,2.482-1.021l0,0l0.574-0.077l0.533,0.251c4.031,1.89,8.453,4.631,11.91,6.24l0,0
	c3.631,1.695,6.832,4.054,11.448,7.447l0,0l6.093,4.48L574.379,70.822L574.379,70.822z M559.331,63.231
	c1.467,0.493,3.806,1.172,6.37,1.816l0,0c-1.035-0.636-2.041-1.182-3.046-1.652l0,0c-3.56-1.654-7.663-4.172-11.233-5.914l0,0
	c-0.062,0.023-0.112,0.051-0.133,0.087l0,0c-0.503,0.39-0.564,0.554-1.19,1.923l0,0c-0.082,0.215-0.164,0.477-0.194,0.713l0,0
	C553.268,61.451,555.422,61.954,559.331,63.231L559.331,63.231z"/>
<path d="M260.491,169.062l0.01,0.01l6.114-5.199c9.376,10.969,17.941,14.028,25.687,14.085l0,0
	c7.673,0.021,14.895-3.332,20.516-6.791l0,0c3.058-1.89,5.089-3.242,6.329-4.106l0,0c1.252-0.864,1.621-1.167,1.632-1.167l0,0
	l5.016,6.257c-0.174,0.142-2.431,1.934-8.771,5.857l0,0c-6.217,3.796-14.721,7.956-24.722,7.976l0,0c-0.052,0-0.113,0-0.175,0l0,0
	C282.053,185.985,270.826,181.354,260.491,169.062L260.491,169.062z"/>
<path d="M293.255,227.218l-1.129-43.782c-0.051-1.764,1.344-3.247,3.118-3.293l0,0c1.775-0.041,3.252,1.364,3.293,3.134l0,0
	l1.139,43.777c0.052,1.775-1.354,3.252-3.128,3.293l0,0c-0.021,0-0.052,0-0.083,0l0,0
	C294.732,230.347,293.306,228.972,293.255,227.218L293.255,227.218z"/>
<path d="M281.602,853.534l-0.01,0.006c-1.118-1.452-1.6-3.16-1.6-4.766l0,0c0.195-5.77,4.873-10.468,7.17-12.223l0,0
	c6.514-4.585,13.694-7.627,16.311-14.068l0,0c1.046-2.339,0.615-5.534,1.436-9.684l0,0c0.247-1.164,0.514-4.438,0.503-7.16l0,0
	c0.011-1.621-0.103-3.149-0.256-3.821l0,0c-0.482-2.227-0.555-4.447-0.555-6.597l0,0c0-0.969,0-1.928,0-2.887l0,0
	c0.011-2.113-0.071-4.14-0.461-5.971l0,0c-0.729-3.421-0.359-6.785-1.036-9.499l0,0c-2.093-9.217-2.247-18.47-5.067-25.999l0,0
	c-4.247-11.484-10.808-21.66-17.521-31.195l0,0c-1.938-2.795-4.359-5.586-6.478-8.674l0,0c-2.846,2.949-4.754,8.238-7.062,12.812
	l0,0c-3.98,7.643-7.047,15.301-9.371,24.769l0,0c-0.621,2.519-0.744,5.406-0.744,8.54l0,0c0,1.56,0.036,3.186,0.036,4.883l0,0
	c0,1.492-0.016,2.975-0.016,4.447l0,0c0,6.176,0.134,12.074,1.257,16.987l0,0c0.764,3.56,0.349,6.242,1.01,8.704l0,0
	c1.103,4.411,1.955,8.761,3.498,12.289l0,0c0.893,2.334,4.032,4.493,5.458,8.392l0,0c0.328,0.959,0.431,1.929,0.431,2.847l0,0
	c-0.01,2.59-0.841,5-1.139,6.457l0,0l-0.174,0.785l-0.662,0.456c-2.046,1.375-4.426,1.878-6.765,1.878l0,0
	c-6.929-0.057-14.254-4.078-17.793-6.201l0,0c-7.032-4.334-14.233-8.566-18.926-16.096l0,0c-1.441-2.339-2.395-5.129-3.072-7.766
	l0,0c-0.328-1.317-0.405-2.584-0.405-3.759l0,0c0-1.277,0.077-2.452,0.077-3.468l0,0c0-1.098-0.108-1.97-0.349-2.539l0,0
	c-3.221-7.821-8.925-14.762-13.936-21.727l0,0c-2.549-3.56-5.473-7.058-8.211-10.797l0,0c-1.159-1.631-3.488-3.4-4.842-6.262l0,0
	c-0.708-1.57-1.251-3.673-1.262-5.92l0,0c0-0.969,0.097-1.969,0.39-2.938l0,0c2.975-9.971,12.782-14.787,20.557-18.829l0,0
	c1.385-0.482,2.77-0.99,4.165-1.492l0,0c4.006-2.391,8.217-6.848,11.386-11.018l0,0c0.841-0.718,1.693-1.492,2.288-1.984l0,0
	c2.975-3.944,6.288-7.182,9.211-11.022l0,0c0.923-0.929,1.857-1.888,2.636-2.642l0,0c1.416-1.862,2.791-3.842,4.473-5.786l0,0
	c0.688-0.697,1.795-1.811,2.329-2.437l0,0c-0.446-0.477-1.251-1.128-2.174-2.215l0,0c-2.493-3.345-5.396-6.545-7.986-10.053l0,0
	c-6.657-9.033-13.782-17.654-20.583-26.764l0,0c-2.164-2.919-5.16-5.622-7.714-8.997l0,0c-3.365-4.555-9.961-8.313-14.177-13.915
	l0,0c-3.18-4.313-4.903-9.406-6.242-15.156l0,0l-0.057-0.241v-0.205c0-1.385,0-2.77,0-4.145l0,0c0-8.627,2.462-14.895,4.186-21.378
	l0,0c1.277-4.596,0.513-10.488,1.774-16.397l0,0c0.082-0.359,0.123-0.944,0.123-1.59l0,0c0-0.651-0.03-1.37-0.041-2.103l0,0
	c0.011-0.575,0.021-1.149,0.144-1.775l0,0c0.175-8.17,0.349-16.336,0.508-24.507l0,0v-0.194l0.046-0.205
	c0.379-1.693,0.467-3.575,0.467-5.591l0,0c0-1.329-0.046-2.724-0.046-4.149l0,0c0-2.19,0.093-4.457,0.601-6.734l0,0
	c0.795-3.283,0.036-7.725,1.046-12.346l0,0c0.457-1.831,0.087-4.621,0.765-7.734l0,0c1.651-7.119,1.385-15.049,3.354-22.697l0,0
	c4.514-17.259,7.725-34.821,13.705-50.885l0,0c1.169-3.108,1.672-6.309,3.119-9.838l0,0c3.467-8.412,6.637-17.039,10.309-25.532l0,0
	c1.441-3.247,4.083-7.602,4.929-10.361l0,0c-0.062-0.379-0.133-0.821-0.21-1.446l0,0c0-2.657,0-5.309,0-7.965l0,0
	c0-1.678,0.01-3.257,0.01-4.786l0,0c0-5.699-0.154-10.351-1.472-15.264l0,0c-2.19-8.083-3.062-15.449-5.853-22.163l0,0
	c-5.231-12.736-10.699-25.025-15.951-37.827l0,0c-2.473-6.104-2.503-12.479-3.965-18.854l0,0l-0.057-0.226v-0.205
	c0-2.975,0-5.939,0-8.904l0,0c-0.271-0.457-1.062-1.231-1.908-2.257l0,0c-3.754-5.067-9.027-7.878-15.13-11.582l0,0
	c-12.638-7.714-27.092-13.674-40.14-21.619l0,0c-3.242-1.985-7.006-3.113-10.812-5.391l0,0c-7.693-4.688-15.951-8.874-23.327-14.254
	l0,0c-4.062-3.042-7.14-6.98-10.545-9.545l0,0c-4.088-3.093-8.109-7.104-11.212-11.202l0,0c-1.601-2.165-4.247-4.103-6.422-6.939
	l0,0c-2.021-2.724-5.411-5.142-7.981-8.499l0,0c-7.74-10.243-16.823-19.47-24.712-30.115l0,0c-2.072-2.824-4.883-5.601-7.216-8.761
	l0,0c-4.242-5.752-8.073-11.507-11.91-17.608l0,0c-1.457-2.38-3.914-4.686-4.775-8.688l0,0c-0.226-0.2-0.59-0.323-0.872-1.144l0,0
	c-2.677-2.8-3.513-4.762-3.908-5.083l0,0c-2.698-2.034-5.19-4.347-7.201-7.214l0,0c-1.139,0.608-2.441,1.262-3.991,1.633l0,0
	c-0.651,0.154-1.312,0.229-1.99,0.229l0,0C7.509,90.946,0.446,87.199,0,80.901l0,0c0-0.567,0.077-1.167,0.251-1.71l0,0
	c1.513-5.014,5.57-7.161,8.196-9.394l0,0c-0.379-1.057-0.482-2.167-0.503-3.234l0,0c0.021-1.657,0.272-3.203,0.97-4.521l0,0
	l0.139-0.261l0.185-0.188c1.133-1.292,2.688-2.267,4.795-2.554l0,0c0.816-3.452,3.801-5.526,6.812-5.508l0,0
	c0.036,0,0.174,0,0.154,0.013l0,0c0.251,0.005,0.508,0.01,0.733,0.018l0,0c0.482-0.838,1.113-2.139,3.078-3.462l0,0
	c1.077-0.457,2.134-0.631,3.067-0.631l0,0c0.923,0.005,1.713,0.146,2.359,0.282l0,0c0.523-0.716,1.293-1.721,2.75-2.452l0,0
	l0.154-0.077l0.205-0.054c0.954-0.239,1.826-0.359,2.646-0.359l0,0c2.514-0.011,4.119,1.187,5.293,1.861l0,0
	c2.195,1.59,2.985,3.178,3.791,3.696l0,0c2.877-1.644,7.473-2.413,9.853-3.172l0,0c1.2-0.162,2.4-0.326,3.611-0.487l0,0
	c0.667-0.333,1.969-1.372,3.318-2.203l0,0c1.359-0.59,2.744-1.197,3.985-1.733l0,0c2.651-1.372,5.673-3.126,8.611-4.434l0,0
	c7.181-3.17,14.531-5.839,21.66-8.771l0,0c2.821-1.144,30.795-10.188,43.007-13.217l0,0c21.476-5.296,36.791-8.335,54.281-11.343
	l0,0c12.454-2.133,37.638-5.031,56.913-5.96l0,0c7.047-0.685,25.635-0.882,38.263-1.033l0,0C289.147,0,289.906,0,290.844,0l0,0
	c8.925,0,33.719,0.305,50.963,1.829l0,0c13.52,1.156,60.44,6.757,91.092,13.674l0,0c18.301,4.132,35.011,8.512,51.403,13.949l0,0
	c5.468,1.818,10.721,3.377,15.962,5.152l0,0c1.724,0.59,5.919,1.69,8.166,2.288l0,0c0.39-0.384,0.831-0.846,0.995-1.154l0,0
	l0.164-0.272l0.267-0.218c1.2-0.993,1.21-1.341,3.046-3.183l0,0c1.396-1.362,3.231-3.203,5.355-4.293l0,0
	c1.23-0.62,2.564-0.859,3.836-0.859l0,0c1.129,0,2.227,0.185,3.242,0.631l0,0c1.99,0.818,3.385,1.982,4.452,3.75l0,0
	c0.349,0.598,0.595,1.233,0.759,1.882l0,0c1.221-0.423,2.555-0.595,3.898-0.608l0,0c1.508,0,3.047,0.238,4.482,0.785l0,0
	l0.205,0.075l0.226,0.144c1.478,0.91,2.257,2.306,2.637,3.785l0,0c2.195,0.154,4.493,0.867,5.826,3.372l0,0
	c0.175,0.478,0.503,1.131,0.708,2.034l0,0c4.523,1.195,6.504,5.508,6.34,9.373l0,0c0,2.683-0.678,5.396-1.683,7.804l0,0
	c-3.088,7.235-8.36,12.867-12.945,18.042l0,0c-2.134,2.19-5.714,5.052-6.863,7.204l0,0l1.519,1.352l-1.364,1.502
	c-0.657,0.631-0.975,2.124-2.083,4.075l0,0c-1.928,3.149-3.446,6.896-5.683,10.548l0,0c-4.996,8.214-8.873,17.847-14.146,26.51l0,0
	c-1.785,2.888-2.771,6.353-4.904,9.784l0,0c-11.499,18.5-26.578,33.593-39.196,50.329l0,0
	c-10.433,13.782-26.373,22.599-43.053,29.461l0,0c-4.329,1.754-8.617,2.103-12.484,3.4l0,0c-5.663,1.872-10.925,4.293-15.121,7.422
	l0,0c-1.385,1.021-2.954,3.016-4.226,4.739l0,0c-2.083,2.801-4.35,5.509-6.073,8.345l0,0c-4.124,6.724-6.288,15.797-8.75,24.46l0,0
	c-0.688,4.544-1.364,9.099-2.103,13.9l0,0c-2.113,7.458-4.524,15.315-6.966,22.722l0,0c-1.539,4.616-1.99,9.602-3.898,14.741l0,0
	c-3.733,10.115-6.894,20.855-9.16,32.211l0,0c-0.154,0.718-0.226,1.241-0.226,1.641l0,0c0,0.431,0.051,0.744,0.236,1.452l0,0
	c0.431,2.995,0.861,6.006,1.292,9.176l0,0c0.175,2.821,0.339,5.652,0.513,8.479l0,0c1.416,4.334,5.591,10.269,8.217,14.521l0,0
	c4.914,8.042,8.771,16.967,12.475,25.737l0,0c4.38,10.351,6.493,21.953,9.611,32.918l0,0c1.088,3.918,1.098,7.252,2.062,10.556l0,0
	c3.959,13.977,6.749,27.6,10.555,41.176l0,0c1.58,5.684,1.621,11.556,2.903,16.757l0,0c1.344,10.807,2.729,21.614,4.113,32.544l0,0
	c0.175,2.585,0.349,5.154,0.473,7.432l0,0c2.144,9.895,0.267,21.696,2.318,30.626l0,0l0.03,0.153l0.011,0.211
	c0.082,2.093,0.164,4.19,0.256,6.277l0,0c0.749,3.822,0.257,7.556,0.985,10.607l0,0c0.276,1.257,0.789,3.544,0.8,5.832l0,0
	c-0.011,0.861-0.082,1.733-0.308,2.615l0,0c-1.159,4.021-3.98,5.586-5.231,7.376l0,0c-3.324,4.391-7.633,8.452-11.664,11.453l0,0
	c-0.595,0.661-1.189,1.37-2.103,2.318l0,0c-3.56,2.683-7.017,5.816-10.863,8.556l0,0c-13.767,9.719-28.087,18.695-42.562,27.584l0,0
	c-7.129,4.38-14.525,8.438-21.696,12.402l0,0c-1.59,0.8-5.385,2.528-6.482,3.508l0,0c1.005,2.601,1.189,4.826,1.949,6.602l0,0
	c1.897,4.667,3.446,9.406,5.385,13.838l0,0c1.693,3.836,4.094,8.012,5.93,12.094l0,0c3.446,7.781,6.78,15.321,10.945,22.163l0,0
	c2.421,4.021,3.775,8.104,6.031,11.361l0,0c0.042,0.046,0.093,0.097,0.145,0.144l0,0c0.789,0.723,1.969,1.811,3.56,3.303l0,0
	c2.421,2.4,4.523,4.96,6.708,7.227l0,0c3.919,4.032,8.443,9.936,11.141,15.111l0,0c0.574,1.123,1.621,3.312,1.651,5.754l0,0
	c0,0.795-0.133,1.652-0.563,2.478l0,0c-0.79,1.867-2.093,2.514-2.268,2.924l0,0c-2.318,3.139-4.77,6.047-6.955,9.001l0,0
	c-4.893,6.647-9.355,13.295-13.808,20.45l0,0c-1.303,2.103-2.872,4.241-3.724,6.19l0,0c-0.902,2.062-1.6,4.457-2.195,6.879l0,0
	c-0.789,2.959-0.235,6.195-1.641,9.791l0,0c-2.688,6.529-8.453,10.802-14.434,13.438l0,0c-6.873,2.996-15.603,5.283-25.01,5.314l0,0
	c-0.923,0-2.041,0.025-3.189,0.025l0,0C287.792,856.468,283.725,856.956,281.602,853.534L281.602,853.534z M276.165,706.915
	c2.092,3.482,5.078,6.796,7.642,10.447l0,0c6.766,9.623,13.541,20.091,17.982,32.108l0,0c3.118,8.458,3.2,17.839,5.222,26.477l0,0
	c0.82,3.621,0.451,7.062,1.046,9.565l0,0c0.493,2.303,0.555,4.611,0.564,6.822l0,0c0,0.969-0.01,1.938-0.01,2.887l0,0
	c0,2.062,0.082,3.991,0.472,5.745l0,0c0.256,1.262,0.338,2.878,0.349,4.673l0,0c-0.011,2.995-0.246,6.211-0.605,7.985l0,0
	c-0.738,3.272-0.144,6.647-1.651,10.407l0,0c-3.611,8.371-11.869,11.515-17.68,15.787l0,0c-1.493,0.918-5.678,5.821-5.483,8.955l0,0
	c0,0.872,0.205,1.58,0.774,2.334l0,0l0.175,0.23l0.107,0.283c0,0.01,0.277,0.425,1.508,0.687l0,0
	c1.165,0.272,2.831,0.349,4.483,0.349l0,0c1.098,0,2.205-0.025,3.189-0.025l0,0c8.74-0.01,16.978-2.175,23.399-4.965l0,0
	c5.427-2.391,10.228-6.124,12.33-11.289l0,0c0.975-2.159,0.544-5.299,1.446-9.228l0,0c0.637-2.519,1.375-5.124,2.432-7.54l0,0
	c1.128-2.528,2.82-4.774,3.99-6.683l0,0c4.503-7.231,9.017-13.987,13.992-20.711l0,0c2.277-3.104,4.729-6.007,6.944-9.022l0,0
	c1.149-1.364,1.733-1.667,1.785-2.025l0,0l0.062-0.205l0.093-0.154c0.041-0.057,0.112-0.262,0.112-0.621l0,0
	c0.041-1.092-0.779-3.159-1.2-3.867l0,0c-2.421-4.698-6.821-10.483-10.453-14.197l0,0c-2.359-2.441-4.441-4.97-6.616-7.14l0,0
	c-1.539-1.426-2.708-2.503-3.498-3.236l0,0c-0.913-0.872-0.913-0.795-1.426-1.385l0,0c0-0.011-0.011-0.025-0.011-0.036l0,0
	c-0.01-0.016-0.021-0.03-0.03-0.046l0,0c-0.052-0.036-0.123-0.062-0.216-0.354l0,0c-0.123-0.261-0.194-0.522-0.153-0.743l0,0
	c-1.97-3.375-3.222-6.837-5.047-9.812l0,0c-4.34-7.141-7.745-14.854-11.182-22.609l0,0c-1.703-3.816-4.124-7.996-5.939-12.115l0,0
	c-2.052-4.678-3.611-9.457-5.427-13.945l0,0c-1.118-2.837-1.231-5.232-2.277-7.371l0,0l-0.246-0.533l0.071-0.584
	c0.657-2.662,2.606-3.35,4.329-4.447l0,0c1.785-0.97,3.734-1.801,4.422-2.19l0,0c7.181-3.975,14.535-8.007,21.542-12.3l0,0
	c14.464-8.883,28.712-17.828,42.346-27.45l0,0c3.59-2.55,7.026-5.652,10.483-8.228l0,0c0.585-0.641,1.17-1.328,2.083-2.308l0,0
	c4.072-3.072,8.165-6.93,11.181-10.931l0,0c2.113-2.656,3.97-3.656,4.555-5.99l0,0c0.113-0.416,0.175-0.97,0.164-1.59l0,0
	c0.011-1.678-0.431-3.77-0.687-4.949l0,0c-0.883-4.062-0.359-7.93-1.037-10.828l0,0l-0.03-0.164l-0.011-0.174
	c-0.082-2.083-0.174-4.191-0.246-6.264l0,0c-2.144-10.012-0.287-21.747-2.328-30.764l0,0c-0.175-2.58-0.339-5.149-0.513-7.611l0,0
	c-1.364-10.812-2.739-21.609-4.062-32.2l0,0c-1.354-5.611-1.405-11.418-2.821-16.408l0,0c-3.847-13.761-6.646-27.369-10.556-41.166
	l0,0c-1.098-3.955-1.107-7.288-2.052-10.545l0,0c-3.169-11.212-5.293-22.675-9.447-32.447l0,0c-3.693-8.76-7.499-17.5-12.207-25.214
	l0,0c-2.534-4.185-6.955-10.253-8.688-15.613l0,0l-0.082-0.251l-0.011-0.241c-0.174-2.929-0.349-5.837-0.513-8.597l0,0
	c-0.421-2.995-0.841-6.001-1.2-8.704l0,0c-0.246-0.784-0.349-1.559-0.349-2.313l0,0c0-0.815,0.123-1.61,0.297-2.452l0,0
	c2.309-11.561,5.54-22.506,9.346-32.795l0,0c1.692-4.498,2.154-9.417,3.836-14.597l0,0c2.421-7.355,4.821-15.172,6.873-22.316l0,0
	c0.688-4.544,1.364-9.099,2.104-13.895l0,0c2.503-8.791,4.637-18.162,9.232-25.712l0,0c1.938-3.185,4.287-5.97,6.268-8.653l0,0
	c1.333-1.754,2.985-3.99,5.067-5.555l0,0c4.688-3.498,10.319-6.047,16.249-8.006l0,0c4.473-1.452,8.657-1.826,12.218-3.303l0,0
	c16.423-6.745,31.687-15.331,41.36-28.179l0,0c12.874-17.029,27.841-32.021,39.012-50.034l0,0c1.774-2.788,2.78-6.252,4.894-9.75
	l0,0c5.047-8.271,8.924-17.89,14.146-26.509l0,0c2.011-3.28,3.528-7.006,5.662-10.538l0,0c0.391-0.585,0.646-1.388,1.057-2.295l0,0
	l-0.246-0.069l0.195-1.721c0.852-5.252,6.504-8.445,8.227-10.635l0,0c4.627-5.206,9.54-10.558,12.249-16.931l0,0
	c0.82-1.962,1.364-4.272,1.364-6.245l0,0c-0.185-3.377-0.975-5.175-4.36-5.665l0,0l-1.148-0.131l-0.472-1.046
	c-0.134-0.272-0.185-0.642-0.175-0.849l0,0V44.42c-0.01-0.936-0.185-1.034-0.554-2.113l0,0c-0.123-0.426-1.159-0.99-3.19-0.979l0,0
	c-0.175,0-0.369,0-0.595,0.01l0,0l-1.837,0.077l-0.226-1.821c-0.39-2.1-0.205-1.893-1.066-2.593l0,0
	c-0.841-0.274-1.826-0.426-2.79-0.426l0,0c-1.334-0.018-2.605,0.315-3.231,0.618l0,0c-0.031,0.203-0.093,0.461-0.246,0.831l0,0
	c-0.134,0.261-0.554,1.297-2.042,1.395l0,0h-2.093l0.093-2.09c0.01-0.241,0.021-0.459,0.021-0.677l0,0
	c0.052-1.167-0.4-3.16-0.513-3.17l0,0c-1.047-1.472-0.975-1.428-2.739-2.277l0,0c-0.339-0.154-0.943-0.285-1.601-0.285l0,0
	c-0.738,0-1.508,0.175-2.01,0.436l0,0c-1.303,0.621-3.047,2.234-4.35,3.552l0,0c-1.426,1.402-1.631,1.946-3.057,3.19l0,0
	c-0.975,1.416-2.34,2.482-2.391,2.564l0,0l-0.82,0.674l-1.026-0.282c-1.456-0.416-7.067-1.841-9.468-2.649l0,0
	c-5.15-1.744-10.392-3.311-15.941-5.142l0,0c-16.219-5.383-32.806-9.743-51.014-13.838l0,0
	c-30.282-6.842-77.265-12.466-90.559-13.597l0,0c-16.978-1.505-41.782-1.821-50.614-1.821l0,0c-0.929,0-1.677,0.01-2.221,0.023l0,0
	c-12.571,0.131-31.303,0.349-38.017,1.013l0,0c-19.147,0.916-44.326,3.824-56.528,5.916l0,0c-17.434,3.006-32.6,6.004-53.999,11.287
	l0,0c-11.776,2.9-40.207,12.094-42.438,13.022l0,0c-7.227,2.972-14.556,5.642-21.562,8.737l0,0c-2.662,1.167-5.626,2.888-8.504,4.38
	l0,0c-1.359,0.6-2.744,1.198-3.877,1.667l0,0c-0.831,0.469-2.221,1.788-3.918,2.485l0,0l-0.236,0.074l-0.215,0.034
	c-1.292,0.174-2.57,0.349-3.56,0.459l0,0c-2.508,0.674-8.319,2.133-9.058,2.952l0,0l-0.687,0.577l-0.893-0.121
	c-4.011-0.805-4.965-4.237-5.857-4.38l0,0c-1.539-0.893-2.062-1.305-3.283-1.318l0,0c-0.379,0-0.867,0.057-1.487,0.198l0,0
	c-0.508,0.31-0.923,1.105-2.087,2.354l0,0l-0.718,0.718l-1.01-0.164c-1.18-0.195-2.031-0.457-2.811-0.446l0,0
	c-0.472,0-0.918,0.067-1.169,0.141l0,0c-1.036,0.633-0.872,1.274-2.411,3.236l0,0l-0.246,0.285l-0.328,0.174
	c-0.764,0.292-0.903,0.272-1.067,0.262l0,0c-0.067-0.013-0.144-0.023-0.287,0.01l0,0c-0.416,0-0.923-0.021-1.523-0.041l0,0v0.008
	c-1.677,0.121-2.888,0.762-3.021,3.431l0,0l-0.021,1.972l-1.97,0.013c-2.564,0.153-2.288,0.123-3.513,1.246l0,0
	c-0.18,0.482-0.375,1.449-0.354,2.349l0,0c-0.031,1.121,0.303,2.19,0.523,2.395l0,0l1.118,1.385l-1.252,1.274
	c-3.498,3.4-7.355,5.111-8.258,8.707l0,0c-0.051,0.174-0.087,0.369-0.087,0.577l0,0c-0.057,1.1,1.021,2.79,2.939,4.108l0,0
	c1.856,1.318,4.349,2.167,6.062,2.146l0,0c0.4,0,0.759-0.044,1.067-0.11l0,0c1.426-0.326,2.964-1.274,4.708-2.157l0,0l1.651-0.818
	l0.964,1.592c1.815,3.039,4.277,5.447,7.427,7.845l0,0c1.539,1.656,1.841,3.005,4.534,5.698l0,0l1.733,1.721l-0.343,0.229
	c0.082,0.236,0.164,0.531,0.241,0.905l0,0c0.016,0.087,0.011,0.182,0,0.279l0,0c0.616,2.403,2.344,4.19,4.145,6.955l0,0
	c3.816,6.058,7.591,11.725,11.746,17.38l0,0c2.062,2.811,4.873,5.601,7.211,8.748l0,0c7.663,10.353,16.736,19.57,24.691,30.084l0,0
	c2.016,2.713,5.406,5.142,7.976,8.499l0,0c1.667,2.244,4.293,4.162,6.417,6.937l0,0c2.857,3.775,6.668,7.576,10.443,10.433l0,0
	c3.97,3.026,7.017,6.95,10.499,9.499l0,0c7.006,5.129,15.167,9.273,23.035,14.054l0,0c3.211,1.964,6.996,3.108,10.812,5.396l0,0
	c12.679,7.745,27.138,13.705,40.15,21.629l0,0c5.904,3.616,11.797,6.642,16.244,12.592l0,0c0.395,0.636,1.893,1.626,2.626,3.693l0,0
	l0.087,0.297v0.318c0,3,0,6.001,0,9.012l0,0c1.488,6.816,1.621,12.951,3.714,18.008l0,0c5.231,12.741,10.699,25.03,15.951,37.832
	l0,0c3.042,7.396,3.914,14.925,6.017,22.64l0,0c1.472,5.478,1.616,10.556,1.616,16.311l0,0c0,1.539,0,3.119,0,4.786l0,0
	c0,2.657,0,5.309-0.036,7.657l0,0c0.087,0.493,0.174,1.005,0.262,1.56l0,0l0.067,0.415l-0.108,0.416
	c-1.036,3.744-3.959,8.319-5.252,11.314l0,0c-3.611,8.35-6.77,16.957-10.278,25.471l0,0c-1.231,2.97-1.744,6.135-3.057,9.715l0,0
	c-5.821,15.592-9.038,33.052-13.582,50.501l0,0c-1.816,6.853-1.56,14.756-3.334,22.578l0,0c-0.534,2.18-0.164,4.847-0.759,7.714l0,0
	c-0.862,3.564-0.092,7.93-1.046,12.356l0,0c-0.405,1.784-0.502,3.77-0.502,5.842l0,0c0,1.338,0.041,2.733,0.041,4.149l0,0
	c0,2.062-0.072,4.165-0.513,6.272l0,0c-0.164,8.182-0.338,16.352-0.508,24.518l0,0v0.199l-0.066,0.246
	c-0.031,0.123-0.072,0.534-0.062,1.037l0,0c-0.01,0.59,0.031,1.317,0.031,2.103l0,0c0,0.774-0.021,1.601-0.215,2.462l0,0
	c-1.139,4.949-0.328,10.854-1.826,16.562l0,0c-1.815,6.802-4.042,12.51-4.042,20.342l0,0c0,1.298,0,2.616,0,3.919l0,0
	c1.282,5.416,2.872,9.863,5.519,13.443l0,0c3.405,4.693,9.955,8.432,14.161,13.89l0,0c2.21,2.975,5.206,5.667,7.714,9.012l0,0
	c6.725,9.001,13.849,17.618,20.594,26.784l0,0c2.431,3.277,5.329,6.478,7.965,10.021l0,0c0.349,0.652,2.18,1.473,3.124,3.878l0,0
	l-1.046,0.56l1.149-0.134c0,0,0.01,0.066,0.01,0.241l0,0c0,0.005-0.005,0.016-0.005,0.021l0,0c0,0.046-0.005,0.097-0.005,0.164l0,0
	l-0.026-0.005l-1.4-0.139l-0.585,0.308l-0.01,1.646c1.19-0.062,1.693-0.872,1.898-1.385l0,0c-0.713,2.642-2.842,3.56-3.452,4.555
	l0,0c-1.482,1.708-2.811,3.616-4.457,5.76l0,0c-0.949,0.959-1.897,1.908-2.646,2.642l0,0c-2.985,3.929-6.288,7.176-9.284,11.1l0,0
	c-0.852,0.754-1.713,1.538-2.308,2.005l0,0c-3.16,4.195-7.622,9.002-12.433,11.854l0,0l-0.175,0.103l-0.174,0.051
	c-1.426,0.514-2.893,1.047-4.108,1.452l0,0c-7.637,3.888-16.141,8.529-18.295,16.29l0,0c-0.154,0.497-0.226,1.133-0.226,1.805l0,0
	c-0.01,1.529,0.431,3.258,0.903,4.263l0,0c0.708,1.677,2.734,3.334,4.411,5.544l0,0c2.647,3.606,5.581,7.114,8.248,10.833l0,0
	c4.883,6.821,10.833,13.967,14.382,22.532l0,0c0.569,1.385,0.656,2.765,0.656,4.072l0,0c0,1.2-0.077,2.365-0.077,3.468l0,0
	c0,0.989,0.077,1.929,0.282,2.765l0,0c0.601,2.39,1.493,4.872,2.596,6.637l0,0c4.011,6.483,10.515,10.463,17.618,14.797l0,0
	c3.18,1.996,10.361,5.658,15.69,5.602l0,0c1.498,0,2.8-0.257,3.882-0.806l0,0c0.385-1.574,0.857-3.318,0.847-4.749l0,0
	c0-0.61-0.077-1.134-0.231-1.57l0,0c-0.621-2.256-3.595-4.39-5.329-8.053l0,0c-1.785-4.139-2.626-8.662-3.703-12.925l0,0
	c-0.841-3.462-0.4-6.134-1.036-8.802l0,0c-1.251-5.503-1.349-11.647-1.349-17.869l0,0c0-1.492,0.011-2.975,0.011-4.447l0,0
	c0-1.646-0.036-3.268-0.036-4.883l0,0c0-3.231,0.113-6.416,0.862-9.499l0,0c2.39-9.771,5.601-17.793,9.699-25.661l0,0
	c2.529-4.738,4.458-11.514,9.351-15.146l0,0c0.097-0.098,0.154-0.149,0.195-0.205l0,0l1.805-2.006L276.165,706.915L276.165,706.915z
	 M339.252,751.173c-0.011-0.016-0.021-0.016-0.041-0.016l0,0c-0.011,0.005-0.011,0.005-0.021,0.005l0,0
	C339.211,751.163,339.232,751.168,339.252,751.173L339.252,751.173z M340.443,747.562c-0.041-0.036-0.072-0.066-0.113-0.092l0,0
	c0.01,0.005,0.01,0.015,0.01,0.021l0,0c0.031,0.021,0.062,0.046,0.104,0.066l0,0C340.443,747.557,340.443,747.557,340.443,747.562
	L340.443,747.562z M340.207,747.383c-0.113-0.072-0.226-0.113-0.318-0.123l0,0c0.062,0.02,0.113,0.046,0.175,0.071l0,0
	C340.125,747.352,340.166,747.368,340.207,747.383L340.207,747.383z M311.125,682.895L311.125,682.895L311.125,682.895
	L311.125,682.895z M530.71,88.189l0.021-0.013l0,0l0,0L530.71,88.189L530.71,88.189z M540.282,39.345l1.989-0.262L540.282,39.345
	L540.282,39.345z M252.74,682.665l0.026,0.005c0,0.011-0.031,0.185-0.123,0.426l0,0C252.679,682.957,252.715,682.813,252.74,682.665
	L252.74,682.665z M287.121,630.727c-1.149-1.979-1.626-3.026-2.498-4.236l0,0c-2.046-2.955-4.816-5.821-7.483-8.479l0,0
	c-6.134-6.263-15.459-11.253-19.028-21.911l0,0c-0.749-2.396-1.057-5.991-1.067-9.612l0,0c0.011-3.016,0.231-5.914,0.8-8.027l0,0
	c1.744-6.406,5.391-10.658,8.237-14.992l0,0c2.493-3.785,4.76-7.826,7.16-11.771l0,0c0.174,0.097-0.133-0.815,0.78-2.591l0,0
	c5.539-9.119,8.314-19.311,12.151-30.979l0,0c4.713-14.351,9.822-29.333,9.822-47.736l0,0c0-0.692-0.01-1.379-0.021-2.077l0,0
	l-0.062-5.108l3.529,3.693c2.729,3.406,1.979,9.52,3.118,11.72l0,0c2.924,7.16,5.509,15.008,8.012,22.512l0,0
	c1.497,4.533,2.195,8.575,3.806,12.479l0,0c6.35,15.49,12.74,29.831,20.978,43.223l0,0c3.088,5.021,5.868,10.232,8.986,15.167l0,0
	c0.985,1.59,2.801,3.549,3.97,5.826l0,0c1.057,2.277,0.985,5.006,1.098,7.694l0,0c0.021,2.595,0.298,5.2,0.637,5.59l0,0l0.451,0.806
	l-0.298,0.861c-1.312,3.19-4.35,3.673-5.58,4.478l0,0c-2.4,1.268-4.935,2.78-7.602,4.176l0,0c-1.385,0.61-2.76,1.195-3.878,1.677
	l0,0c-9.57,5.816-19.705,10.448-28.794,16.203l0,0c-3.58,2.267-6.853,5.175-10.207,7.724l0,0c-1.098,1.078-2.185,2.176-3.282,3.263
	l0,0v6.935L287.121,630.727L287.121,630.727z M276.678,553.77c-2.359,3.878-4.647,7.956-7.252,11.91l0,0
	c-3.062,4.621-6.257,8.412-7.714,13.838l0,0c-0.405,1.447-0.657,4.196-0.657,6.971l0,0c-0.01,3.313,0.359,6.842,0.872,8.371l0,0
	c2.832,8.848,11.192,13.541,18.055,20.311l0,0c2.693,2.698,5.622,5.699,7.935,9.007l0,0c0.523,0.749,0.918,1.405,1.308,2.093l0,0
	c0.719-0.718,1.468-1.462,2.268-2.252l0,0c3.405-2.595,6.771-5.601,10.709-8.099l0,0c9.396-5.95,19.562-10.581,29.093-16.366l0,0
	c1.364-0.596,2.738-1.195,3.979-1.739l0,0c2.421-1.267,4.935-2.77,7.458-4.099l0,0c1.467-0.687,2.749-1.303,3.334-1.779l0,0
	c-0.626-1.929-0.554-4.083-0.667-6.304l0,0c-0.03-2.616-0.246-5.288-0.688-6.017l0,0c-0.738-1.539-2.472-3.457-3.765-5.473l0,0
	c-3.211-5.108-6.011-10.324-9.017-15.207l0,0c-8.422-13.695-14.895-28.257-21.255-43.803l0,0c-1.826-4.422-2.514-8.565-3.908-12.735
	l0,0c-2.339-7.012-4.729-14.244-7.355-20.85l0,0c-1.528,14.212-5.683,26.409-9.427,37.837l0,0
	c-3.801,11.525-6.622,22.029-12.536,31.826l0,0c-0.01-0.006-0.01-0.006-0.01-0.006h-0.005
	C277.293,551.206,277.529,551.996,276.678,553.77L276.678,553.77z M296.527,469.664l1.468-1.375L296.527,469.664L296.527,469.664z
	 M336.554,173.309c-3.508-0.91-9.991-0.013-14.248-2.277l0,0h-1.785l-0.205-1.765c-0.595-4.914-2.103-9.12-4.011-16.246l0,0
	c-0.195-0.454-0.164-0.813-0.175-0.882l0,0c0.072-1.157,0.41-1.865,0.729-2.693l0,0c0.995-2.254,2.227-4.813,2.975-6.873l0,0
	c0.698-2.834,1.385-5.657,2.062-8.499l0,0l0.062-0.274l0.123-0.218c1.005-1.698,2.462-2.865,2.903-3.67l0,0
	c1.754-2.857,2.984-7.727,3.046-12.356l0,0c0.021-1.408,0.236-2.649,0.226-3.565l0,0c0.011-0.685-0.092-1.133-0.235-1.382l0,0
	c0.03-0.057-1.651-1.396-2.473-1.885l0,0l-0.861-0.61v-1.036c0-0.621,0.03-1.198,0.03-1.688l0,0c0.041-1.06-0.123-1.801-0.185-1.801
	l0,0l-0.379-0.543l0.021-0.664c0.021-0.087-0.031-0.372,0.164-1.09l0,0c0.082-0.051,0.062-0.364,0.317-0.702l0,0
	c-0.563-19.152-9.745-32.254-23.204-37.989l0,0c-3.539-1.503-8.75-2.636-13.822-2.626l0,0c-2.877-0.01-5.719,0.359-8.201,1.154l0,0
	c-3.734,1.188-7.606,2.78-10.602,4.665l0,0c-6.97,4.401-12.269,11.766-15.125,20.55l0,0c-0.729,2.2-0.862,5.121-1.487,8.062l0,0
	c-0.221,0.903-0.308,2.026-0.308,3.247l0,0c0,2.792,0.477,5.962,0.733,8.707l0,0h0.559l0.318,1.633
	c0.338,1.788,0.687,3.596,1.036,5.394l0,0l0.077,0.446l-0.098,0.436c-0.461,1.298-1.123,2.049-1.046,2.07l0,0
	c-0.123,0.426-0.195,1.177-0.195,2.049l0,0c-0.01,2.723,0.749,6.58,1.2,7.888l0,0c0.893,2.757,2.216,6.017,3.637,8.304l0,0
	c0.292,0.631,1.913,1.644,2.939,3.542l0,0l0.103,0.205l0.051,0.218c0.174,0.774,0.338,1.549,0.416,1.995l0,0
	c1.513,3.813,4.703,11.243,6.878,12.846l0,0l0.954,0.785l-0.272,1.208c-0.708,3.139-1.729,5.547-2.877,9.166l0,0l-0.271,0.839
	l-0.785,0.369c-2.462,1.156-5.221,2.224-8.334,3.019l0,0c-2.046,0.251-4.098,0.513-5.904,0.718l0,0
	c-2.575,0.688-5.437,1.626-7.955,2.311l0,0l-0.262,0.077h-0.271c-1.985,0-3.944,0-5.914,0l0,0c-2.359,0-5.149,0.164-7.868,0.174l0,0
	c-2.051-0.01-4.077-0.097-5.939-0.49l0,0c-1.036-0.218-2.19-0.305-3.411-0.305l0,0c-2.662,0-5.647,0.403-8.586,0.413l0,0
	c-1.257,0-2.508-0.069-3.744-0.315l0,0c-3.708,0-7.412,0-11.29-0.01l0,0c-5.832-0.546-12.627-0.285-18.218-1.536l0,0
	c-1.528-0.087-3.067-0.175-4.611-0.251l0,0l-0.185-0.01l-0.164-0.044c-4.786-1.113-10.602-1.297-15.536-2.539l0,0
	c-1.79-0.262-3.601-0.513-5.406-0.774l0,0l-0.241-0.034l-0.22-0.087c-3.375-1.416-5.642-4.739-7.273-6.832l0,0
	c-2.093-2.811-5.601-5.306-8.237-8.737l0,0c-1.093-1.459-2.216-2.995-3.227-3.736l0,0c-4.231-3.216-8.017-6.865-12.048-9.743l0,0
	c-10.31-7.409-20.66-14.522-31.123-21.868l0,0c-9.499-6.688-18.491-14.01-27.6-20.885l0,0c-1.113-0.885-2.519-2.496-4.042-4.119l0,0
	c-1.072-1.2-2.333-2.38-2.888-2.836l0,0l-2.472,0.613l0.688-3.149c0.718-3.27,0.913-7.681,1.795-11.812l0,0
	c0.133-0.621,0.174-1.405,0.165-2.277l0,0c0-0.564-0.011-1.164-0.011-1.775l0,0c0-0.523,0.021-1.067,0.052-1.459l0,0
	c0-1.275,0.144-4.306,0.338-5.742l0,0l0.056-0.469l0.272-0.402c1.841-1.908,3.262-1.375,5.262-1.58l0,0
	c3.139,0.01,6.935,0.511,9.022,1.121l0,0c2.616,0.828,4.349,2.549,5.755,3.236l0,0c1.364,0.777,1.472,1.023,2.021,1.054l0,0
	c3.452-0.559,8.622-6.898,13.351-9.553l0,0c13.777-7.158,28.518-12.835,43.135-18.859l0,0c16.967-6.973,35.155-11.659,53.84-16.039
	l0,0c11.823-2.78,42.443-8.193,57.39-9.578l0,0c10.284-1.046,43.669-2.583,47.167-2.583l0,0c1.241-0.077,3.231-0.097,5.673-0.097
	l0,0c7.652,0,19.521,0.262,22.804,0.349l0,0c4.062,0.098,25.061,1.285,41.617,2.593l0,0c10.258,1.111,16.987,1.982,25.276,3.096l0,0
	c7.693,1.033,12.053,1.677,18.115,2.844l0,0c16.772,3.224,29.041,5.632,45.085,9.281l0,0c10.729,2.431,21.604,5.047,32.108,8.542
	l0,0c3.682,1.231,7.775,2.311,11.816,3.596l0,0c2.647,0.841,6.053,1.918,8.012,2.572l0,0l0.503,0.165l0.359,0.402
	c0.021,0.033,0.062,0.077,0.071,0.087l0,0l0.811,0.697l-0.133,1.057c-0.195,1.503-0.257,3.008-0.257,4.534l0,0
	c-0.021,4.958,0.779,10.022,0.79,15.808l0,0c-0.011,1.832-0.349,3.803-0.339,5.306l0,0c-0.021,1.146,0.257,1.841,0.328,1.854l0,0
	l0.77,0.859l-0.358,1.1c-1.99,5.722-7.54,8.686-9.817,11.91l0,0c-2.688,3.532-5.898,6.168-8.679,8.968l0,0
	c-4.688,4.675-9.335,9.622-14.874,13.815l0,0c-2.247,1.656-4.257,4.665-7.212,6.942l0,0c-4.298,3.247-8.452,7.419-11.95,11.974l0,0
	c-0.954,0.872-1.898,1.721-2.575,2.298l0,0c-2.41,3.162-5.313,5.439-7.211,7.988l0,0c-2.698,3.529-7.346,9.489-11.254,12.269l0,0
	c-9.15,6.363-23.614,10.415-35.093,13.674l0,0c-5.099,1.416-9.694,1.352-14.187,2.583l0,0c-6.576,1.731-13.244,2.331-19.542,4.108
	l0,0c-4.606,1.285-9.745,2.482-14.27,3.626l0,0c-0.481,0.1-0.984,0.144-1.538,0.144l0,0
	C344.074,174.976,338.36,173.691,336.554,173.309L336.554,173.309z M337.406,169.388c1.683,0.379,7.581,1.623,10.033,1.6l0,0
	c0.349,0,0.604-0.033,0.636-0.043l0,0c4.493-1.134,9.602-2.332,14.095-3.585l0,0c6.76-1.885,13.448-2.482,19.582-4.119l0,0
	c5.171-1.362,9.756-1.318,14.137-2.57l0,0c11.427-3.205,25.706-7.345,33.872-13.086l0,0c2.995-2.07,7.816-8.009,10.351-11.407l0,0
	c2.369-3.095,5.262-5.362,7.457-8.25l0,0c0.944-0.872,1.908-1.731,2.596-2.308l0,0c3.478-4.598,7.868-9.001,12.484-12.487l0,0
	c2.236-1.646,4.236-4.655,7.19-6.942l0,0c5.19-3.911,9.735-8.717,14.464-13.457l0,0c2.985-2.964,6.021-5.491,8.32-8.542l0,0
	c2.984-3.79,7.375-6.552,8.894-9.886l0,0c-0.544-1.131-0.605-2.316-0.626-3.418l0,0c0.01-1.972,0.339-3.998,0.328-5.306l0,0
	c0.011-5.393-0.779-10.427-0.79-15.808l0,0c0-1.162,0.031-2.347,0.134-3.552l0,0c-1.929-0.628-4.555-1.459-6.688-2.136l0,0
	c-3.919-1.244-8.032-2.334-11.879-3.608l0,0c-10.289-3.432-21.029-6.014-31.718-8.442l0,0c-15.993-3.639-28.2-6.027-44.951-9.25l0,0
	c-5.98-1.157-10.218-1.777-17.901-2.813l0,0c-8.278-1.111-14.945-1.973-25.111-3.083l0,0c-16.393-1.285-37.494-2.472-41.351-2.559
	l0,0c-3.242-0.1-15.142-0.349-22.701-0.349l0,0c-2.411,0-4.391,0.021-5.55,0.087l0,0c-3.241,0-36.96,1.546-46.911,2.57l0,0
	c-14.566,1.341-45.336,6.768-56.84,9.481l0,0c-18.634,4.368-36.622,9.009-53.24,15.841l0,0
	c-14.68,6.057-29.308,11.702-42.807,18.718l0,0c-3.652,1.71-8.643,8.73-14.746,9.981l0,0l-0.159,0.023h-0.164
	c-2.298,0-3.565-1.341-4.021-1.505l0,0c-2.082-1.144-3.652-2.583-5.057-2.962l0,0c-1.375-0.426-5.221-0.97-7.858-0.949l0,0
	c-0.667-0.01-1.282,0.039-1.723,0.095l0,0c-0.103,1.385-0.195,3.4-0.195,4.231l0,0c-0.031,0.426-0.041,0.861-0.041,1.318l0,0
	c0,0.567,0.01,1.167,0.01,1.775l0,0c-0.01,0.982-0.031,2.016-0.262,3.105l0,0c-0.703,3.195-0.928,6.904-1.503,10.297l0,0
	c1.098,0.764,1.78,1.852,3.073,2.985l0,0c1.6,1.713,3.38,3.662,3.857,4.001l0,0c9.176,6.929,18.131,14.218,27.476,20.798l0,0
	c10.433,7.324,20.804,14.448,31.154,21.88l0,0c4.339,3.116,8.16,6.809,12.125,9.807l0,0c1.765,1.349,2.965,3.159,4.011,4.521l0,0
	c2.062,2.777,5.581,5.273,8.237,8.737l0,0c1.462,2.016,3.673,4.698,5.345,5.439l0,0c1.724,0.239,3.462,0.49,5.365,0.772l0,0
	c4.482,1.144,10.237,1.349,15.521,2.529l0,0c1.492,0.082,2.975,0.159,4.76,0.292l0,0c5.149,1.146,11.853,0.938,17.849,1.495l0,0
	c3.754,0,7.54,0,11.314,0l0,0h0.21l0.21,0.043c0.903,0.195,1.959,0.272,3.113,0.272l0,0c2.559,0,5.544-0.416,8.586-0.416l0,0
	c1.405,0,2.836,0.101,4.242,0.393l0,0c1.39,0.295,3.19,0.403,5.108,0.393l0,0c2.56,0.01,5.334-0.164,7.868-0.164l0,0
	c1.877,0,3.744,0,5.632,0l0,0c2.318-0.639,5.119-1.552,8.006-2.308l0,0c2.067-0.251,4.119-0.523,5.924-0.721l0,0
	c2.267-0.59,4.519-1.426,6.585-2.354l0,0c0.923-2.831,1.698-4.832,2.257-6.911l0,0c-3.216-3.524-5.565-9.974-7.201-13.823l0,0
	c-0.164-0.695-0.318-1.385-0.472-2.088l0,0c-0.37-0.5-1.652-1.541-2.636-2.967l0,0c-1.693-2.747-3.072-6.201-4.042-9.174l0,0
	c-0.61-1.897-1.375-5.742-1.395-9.132l0,0c0-1.067,0.062-2.093,0.328-3.083l0,0c0.256-0.864,0.641-1.408,0.877-1.79l0,0
	c-0.2-1.046-0.405-2.095-0.601-3.146l0,0h-1.041l-0.077-1.929c-0.087-2.603-0.861-6.821-0.872-10.786l0,0
	c0-1.405,0.097-2.811,0.4-4.142l0,0c0.559-2.429,0.656-5.458,1.595-8.412l0,0c3.103-9.522,8.889-17.692,16.788-22.696l0,0
	c3.446-2.167,7.575-3.844,11.53-5.098l0,0c2.985-0.959,6.211-1.338,9.422-1.351l0,0c5.668,0.013,11.258,1.21,15.382,2.954l0,0
	c15.408,6.493,25.687,22.009,25.687,43.276l0,0v2.265c0.011,0.318,0.021,0.631,0.031,0.941l0,0c0,0.22,0,0.436-0.011,0.644l0,0
	c0.882,0.587,2.021,1.39,2.821,2.646l0,0c0.615,1.131,0.729,2.288,0.738,3.311l0,0c-0.01,1.418-0.236,2.68-0.236,3.608l0,0
	c-0.102,5.283-1.364,10.623-3.641,14.393l0,0c-0.944,1.477-2.217,2.618-2.678,3.313l0,0c-0.646,2.744-1.313,5.488-2.052,8.432l0,0
	c-0.923,2.529-2.206,5.155-3.139,7.312l0,0c-0.082,0.195-0.206,0.523-0.277,0.795l0,0c-0.03,0.077-0.062,0.133-0.071,0.174l0,0
	c1.713,6.386,3.2,10.584,3.938,15.479l0,0C325.907,168.805,332.882,168.534,337.406,169.388L337.406,169.388z M251.545,110.362
	l-1.975,0.372L251.545,110.362v-0.028V110.362L251.545,110.362z"/>
<path d="M542.312,66.232c-2.523-0.531-4.308-2.268-5.601-3.731l0,0c-0.984,0.3-2.052,0.433-3.149,0.441l0,0
	c-2.369,0.041-5.519-0.785-6.903-3.267l0,0c-0.626,0.131-1.262,0.177-1.888,0.182l0,0c-1.888-0.033-3.621-0.392-5.016-1.336l0,0
	c-2.062-1.772-2.555-4.519-2.709-7.204l0,0c0.031-1.118,0.103-2.27,0.975-3.411l0,0c0.656-0.816,1.867-0.947,2.688-0.272l0,0
	c0.821,0.664,0.934,1.87,0.277,2.682l0,0c0.051,0.044-0.144,0.285-0.113,1l0,0c-0.021,1.228,0.462,3.054,0.913,3.803l0,0
	c0.144,0.249,0.175,0.282,0.185,0.282l0,0c0.236,0.218,1.621,0.661,2.801,0.631l0,0c0.913,0.021,1.733-0.229,1.959-0.436l0,0
	c0.575-0.423,1.334-0.5,1.98-0.185l0,0c0.636,0.315,1.057,0.957,1.077,1.675l0,0c0,1.095,1.354,1.964,3.774,2.031l0,0
	c1.139,0.01,2.257-0.282,2.76-0.577l0,0c0.811-0.457,1.826-0.259,2.41,0.467l0,0c1.119,1.457,3.129,3.357,4.227,3.457l0,0
	c0.052,0.01,0.134,0.021,0.175,0.021l0,0c0.369,0.141,1.333-0.815,3.016-2.021l0,0h0.011c0.882-0.554,2.072-0.272,2.626,0.621l0,0
	c0.554,0.9,0.267,2.075-0.616,2.629l0,0c-0.82,0.346-2.112,2.444-5.036,2.595l0,0C542.846,66.309,542.58,66.275,542.312,66.232
	L542.312,66.232z"/>
<path d="M37.827,75.402c-0.344,0-0.657-0.021-0.944-0.021l0,0c-1.139-0.021-2.042-0.944-2.021-2.083l0,0
	c0.021-1.128,0.943-2.031,2.082-2.018l0,0c0.359,0.01,0.657,0.021,0.882,0.021l0,0c1.221-0.043,1.503-0.054,3.565-1.182l0,0
	c1.385-0.718,1.687-2.18,2.964-4.414l0,0c0.59-0.964,1.857-1.254,2.816-0.665l0,0c0.964,0.601,1.251,1.857,0.662,2.824l0,0
	c-0.795,1.095-1.329,4.026-4.426,5.822l0,0c-2.088,1.236-3.724,1.718-5.417,1.718l0,0C37.94,75.405,37.878,75.405,37.827,75.402
	L37.827,75.402z"/>
<path d="M237.379,378.726c58.441,3.672,118.687-4.78,118.851-6.196c0.235-1.785-1.56-19.347-2.657-19.019
	c-30.016,9.694-116.696,5.97-116.748,7.468C236.661,368.221,236.804,378.685,237.379,378.726"/>
<path fill="#FFFFFF" d="M286.526,380.5c7.263,0.708,22.722-0.339,22.722-1.754c0,0,0.144-19.655-0.533-19.737
	c-3.345-0.39-22.712-0.441-22.732,1.077C285.787,367.277,285.951,380.449,286.526,380.5"/>
<path d="M286.331,382.496l0.195-2l-0.206,2c-1.493-0.323-1.549-1.087-1.713-1.272l0,0c-0.113-0.271-0.149-0.441-0.195-0.625l0,0
	c-0.072-0.349-0.113-0.708-0.159-1.139l0,0c-0.087-0.852-0.148-1.964-0.205-3.293l0,0c-0.108-2.646-0.159-6.093-0.159-9.422l0,0
	c0-2.421,0.031-4.775,0.082-6.678l0,0c0.185-1.677,1.21-1.944,1.569-2.159l0,0c0.472-0.205,0.918-0.313,1.437-0.421l0,0
	c1.016-0.195,2.287-0.328,3.77-0.431l0,0c2.949-0.215,6.673-0.297,10.038-0.297l0,0c3.651,0,6.76,0.103,8.155,0.251l0,0
	c1.806,0.528,1.549,1.308,1.743,1.461l0,0c0.093,0.267,0.123,0.452,0.154,0.657l0,0c0.062,0.39,0.113,0.831,0.154,1.375l0,0
	c0.071,1.067,0.133,2.482,0.174,4.083l0,0c0.072,3.186,0.093,7.068,0.093,9.961l0,0c0,2.462-0.011,4.206-0.011,4.206l0,0
	c-0.205,1.723-1.189,1.938-1.569,2.2l0,0c-0.492,0.241-0.984,0.375-1.56,0.518l0,0c-1.148,0.272-2.605,0.487-4.298,0.667l0,0
	c-3.396,0.37-7.684,0.585-11.54,0.585l0,0C290.085,382.721,288.034,382.66,286.331,382.496L286.331,382.496z M292.281,378.715
	c5.508,0.057,12.586-0.605,14.956-1.144l0,0c0-0.749,0-1.795,0-3.026l0,0c0.052-4.119-0.093-10.986-0.236-13.654l0,0
	c-1.497-0.072-3.774-0.118-6.216-0.113l0,0c-4.698-0.062-10.658,0.257-12.833,0.595l0,0c-0.036,1.626-0.046,3.478-0.046,5.37l0,0
	c-0.01,4.59,0.108,9.545,0.292,11.869l0,0C289.414,378.685,290.814,378.715,292.281,378.715L292.281,378.715z"/>
<path d="M292.547,374.335c7.263,0.708,11.191,0.544,11.191-0.862c0,0,0.226-8.535-0.872-8.812
	c-1.99-0.503-10.996-1.149-11.018,0.359C291.665,372.222,291.994,374.284,292.547,374.335"/>
</svg>
