<?xml version="1.0" encoding="UTF-8" standalone="no"?>
<!-- Created with Inkscape (http://www.inkscape.org/) -->

<svg
   xmlns:dc="http://purl.org/dc/elements/1.1/"
   xmlns:cc="http://creativecommons.org/ns#"
   xmlns:rdf="http://www.w3.org/1999/02/22-rdf-syntax-ns#"
   xmlns:svg="http://www.w3.org/2000/svg"
   xmlns="http://www.w3.org/2000/svg"
   xmlns:xlink="http://www.w3.org/1999/xlink"
   xmlns:sodipodi="http://sodipodi.sourceforge.net/DTD/sodipodi-0.dtd"
   xmlns:inkscape="http://www.inkscape.org/namespaces/inkscape"
   width="302"
   height="224.7795"
   viewBox="0 0 79.904166 59.472907"
   version="1.1"
   id="svg3570"
   inkscape:version="0.92.0 r15299"
   sodipodi:docname="sale sharks.svg">
  <defs
     id="defs3564">
    <rect
       height="742.59802"
       width="1000"
       y="0.029999999"
       id="SVGID_1_"
       x="0" />
    <rect
       height="742.59802"
       width="1000"
       y="0.029999999"
       id="SVGID_3_"
       x="0" />
  </defs>
  <sodipodi:namedview
     id="base"
     pagecolor="#ffffff"
     bordercolor="#666666"
     borderopacity="1.0"
     inkscape:pageopacity="0.0"
     inkscape:pageshadow="2"
     inkscape:zoom="2.3925003"
     inkscape:cx="150"
     inkscape:cy="111.38975"
     inkscape:document-units="mm"
     inkscape:current-layer="layer1"
     showgrid="false"
     fit-margin-top="0"
     fit-margin-left="0"
     fit-margin-right="0"
     fit-margin-bottom="0"
     units="px"
     inkscape:window-width="1280"
     inkscape:window-height="744"
     inkscape:window-x="-4"
     inkscape:window-y="-4"
     inkscape:window-maximized="1" />
  <metadata
     id="metadata3567">
    <rdf:RDF>
      <cc:Work
         rdf:about="">
        <dc:format>image/svg+xml</dc:format>
        <dc:type
           rdf:resource="http://purl.org/dc/dcmitype/StillImage" />
        <dc:title></dc:title>
      </cc:Work>
    </rdf:RDF>
  </metadata>
  <g
     inkscape:label="Layer 1"
     inkscape:groupmode="layer"
     id="layer1"
     transform="translate(119.81822,-187.59982)">
    <g
       style="overflow:visible;stroke-width:3.33332729"
       id="g3643"
       transform="matrix(0.07937514,0,0,0.07937514,-119.55364,187.86202)">
      <g
         id="g3582"
         style="stroke-width:3.33332729">
	<defs
   id="defs3575">
		<rect
   height="742.59802"
   width="1000"
   y="0.029999999"
   id="rect3620"
   x="0" />

	</defs>

	<clipPath
   id="SVGID_2_">
		<use
   id="use3577"
   overflow="visible"
   xlink:href="#SVGID_1_"
   style="overflow:visible"
   x="0"
   y="0"
   width="100%"
   height="100%" />

	</clipPath>

	<path
   id="path3580"
   d="m 546.249,307.716 c -0.557,-0.128 -12.648,-3.807 -12.648,-3.807 0,0 -66.901,-153.714 -206.128,-218.948 -0.516,-0.24 31.213,61.281 29.633,138.464 -1.858,90.609 -37.801,106.429 -37.801,106.429 l 40.174,0.787 c 0,0 -73.437,28.339 -133.953,81.136 -0.402,0.347 -47.285,0.789 -47.285,0.789 l 17.392,29.104 -41.757,48.08 -65.464,-182.034 c 0,0 -8.552,190.727 -10.923,236.424 -0.028,0.536 -35.688,25.148 -44.915,113.399 -3.954,37.806 3.163,85.088 3.163,85.088 0,0 67.694,-162.267 125.257,-217.458 l -7.12,28.461 c 0,0 54.854,-47.286 143.301,-47.286 1.669,0 -67.699,95.361 -77.187,140.133 -0.105,0.518 156.091,-91.264 248.936,-126.839 0.4,-0.154 81.272,7.904 81.272,7.904 0,0 62.961,40.175 133.021,85.875 L 665.182,551.26 c 0,0 10.407,-0.597 126.041,19.62 1.788,0.311 43.34,-35.431 43.34,-35.431 0,0 93.783,-7.113 165.428,-55.981 1.059,-0.717 -114.185,-93.633 -453.742,-171.752 m 214.022,238.742 13.538,-16.882 c 0,0 -25.9,14.74 -58.218,10.227 -0.338,-0.048 15.436,-11.891 14.723,-21.165 -0.027,-0.331 -31.84,11.409 -60.122,5.94 -0.33,-0.062 19.245,-17.332 19.245,-17.332 0,0 -24.239,9.513 -41.588,5.944 -0.238,-0.051 9.983,-11.655 9.983,-11.655 l -23.051,-8.553 h 86.993 l -17.834,14.023 c 0,0 27.562,10.441 107.423,14.253 0.524,0.024 -15.902,19.496 -51.092,25.2 z m 112.346,-77.537 c -8.276,6.977 -23.826,20.829 -23.826,20.829 l 8.553,-25.951 c 0,0 -115.771,-1.579 -201.645,-67.835 -0.533,-0.408 46.495,51.238 46.495,51.238 l -129.21,-11.145 -7.117,48.158 -13.916,-65.965 c 0,0 -10.385,28.763 -16.087,72.124 -1.654,12.583 -7.718,-46.883 -7.718,-87.423 0,-1.328 -16.701,42.161 -23.154,85.52 0,0 -10.008,-47.541 -8.683,-84.755 0.039,-0.937 -21.063,63.691 -21.063,81.283 0,0.667 -8.235,-73.671 -8.235,-73.671 0,0 -11.802,30.864 -12.363,30.914 -72.861,6.295 -129.809,23.14 -240.982,54.618 -0.76,0.217 -58.998,16.597 -58.998,16.597 0,0 90.999,-110.195 224.571,-160.037 0,0 29.105,-87.458 -3.934,-206.591 -0.176,-0.644 72.204,45.512 126.032,191.716 0,0 225.199,17.931 389.428,129.453 0.557,0.371 -14.015,-1.837 -18.148,0.923 z"
   clip-path="url(#SVGID_2_)"
   inkscape:connector-curvature="0"
   style="clip-rule:evenodd;fill:#0e2e4f;fill-rule:evenodd;stroke-width:3.33332729" />

</g>
      <path
         id="path3584"
         d="m 977.348,113.379 v 18.515 c -20.192,-7.24 -38.588,-10.863 -55.185,-10.863 -12.224,0 -22.043,2.411 -29.466,7.239 -7.424,4.821 -11.136,11.245 -11.136,19.256 0,11.28 9.538,21.365 28.608,30.238 17.774,7.76 35.482,15.519 53.141,23.277 19.179,10.947 28.774,24.615 28.774,40.986 0,17.243 -8.171,30.344 -24.515,39.306 -14.383,7.934 -33.331,11.894 -56.861,11.894 -16.781,0 -34.643,-1.759 -53.599,-5.277 v -18.296 c 20.172,7.77 39.633,11.656 58.383,11.656 31.186,0 46.783,-11.222 46.783,-33.667 0,-12.262 -9.269,-22.878 -27.822,-31.863 -17.235,-7.582 -34.525,-15.211 -51.868,-22.886 -18.548,-10.343 -27.815,-23.358 -27.815,-39.042 0,-14.226 6.599,-25.261 19.8,-33.107 12.871,-7.756 30.599,-11.637 53.19,-11.637 15.819,10e-4 32.353,1.426 49.588,4.271"
         inkscape:connector-curvature="0"
         style="clip-rule:evenodd;fill:#0e2e4f;fill-rule:evenodd;stroke-width:3.33332729" />
      <path
         id="path3586"
         d="m 73.32,87.566 29.961,-71.113 c 1.464,-3.421 2.246,-5.218 2.193,-6.88 0,-1.542 -0.965,-2.777 -2.896,-3.691 C 101.118,5.171 98.37,4.401 94.323,3.57 V 1.389 h 24.909 L 156.6,87.566 H 142.525 L 130.367,59.013 H 93.894 L 82.442,87.566 H 73.32 m 39.102,-72.604 -16.55,39.057 h 32.87 z"
         inkscape:connector-curvature="0"
         style="clip-rule:evenodd;fill:#0e2e4f;fill-rule:evenodd;stroke-width:3.33332729" />
      <path
         id="path3588"
         d="M 238.661,87.566 V 14.828 c 0,-3.796 -0.873,-6.401 -2.613,-7.824 -1.887,-1.58 -5.893,-2.729 -12.016,-3.438 V 1.389 h 73.536 v 7.718 l -37.976,0.008 c -4.01,0 -5.996,0.254 -6.989,1.339 -0.893,0.922 -1.343,3.19 -1.343,6.825 v 55.24 c 0,3.788 0.824,6.06 2.479,6.812 0.943,0.42 3.275,0.54 8.608,0.54 l 35.471,-0.009 0.061,7.704 h -59.218"
         inkscape:connector-curvature="0"
         style="clip-rule:evenodd;fill:#0e2e4f;fill-rule:evenodd;stroke-width:3.33332729" />
      <path
         id="path3590"
         d="m 122.822,112.999 v 18.549 c -20.234,-7.259 -38.662,-10.882 -55.289,-10.882 -12.248,0 -22.093,2.417 -29.527,7.25 -7.44,4.833 -11.159,11.265 -11.159,19.29 0,11.312 9.558,21.411 28.666,30.305 17.804,7.771 35.552,15.546 53.242,23.32 19.221,10.968 28.831,24.662 28.831,41.071 0,17.272 -8.183,30.396 -24.559,39.38 -14.41,7.947 -33.399,11.918 -56.97,11.918 -16.814,0 -34.715,-1.767 -53.709,-5.294 v -18.33 c 20.215,7.789 39.717,11.682 58.5,11.682 31.25,0 46.875,-11.248 46.875,-33.738 0,-12.281 -9.291,-22.925 -27.873,-31.923 C 62.578,208 45.253,200.351 27.876,192.67 9.292,182.306 0,169.263 0,153.545 0,139.292 6.616,128.238 19.843,120.38 c 12.899,-7.777 30.663,-11.664 53.29,-11.664 15.857,0.001 32.417,1.43 49.689,4.283"
         inkscape:connector-curvature="0"
         style="clip-rule:evenodd;fill:#0e2e4f;fill-rule:evenodd;stroke-width:3.33332729" />
      <rect
         id="rect3592"
         height="7.6030002"
         width="47.902"
         y="40.558998"
         x="250.041"
         style="fill:#0e2e4f;stroke-width:3.33332729" />
      <path
         id="path3594"
         d="M 169.528,87.566 V 14.828 c 0,-3.796 -0.871,-6.401 -2.612,-7.824 C 165.029,5.424 161.024,4.275 154.9,3.566 V 1.389 h 27.217 l 0.012,71.13 c 0,3.788 0.823,6.06 2.474,6.812 0.948,0.42 3.245,0.624 8.576,0.624 l 35.504,-0.093 0.061,7.704 h -59.216"
         inkscape:connector-curvature="0"
         style="clip-rule:evenodd;fill:#0e2e4f;fill-rule:evenodd;stroke-width:3.33332729" />
      <g
         id="g3604"
         style="stroke-width:3.33332729">
	<defs
   id="defs3597">
		<rect
   height="742.59802"
   width="1000"
   y="0.029999999"
   id="rect3633"
   x="0" />

	</defs>

	<clipPath
   id="SVGID_4_">
		<use
   id="use3599"
   overflow="visible"
   xlink:href="#SVGID_3_"
   style="overflow:visible"
   x="0"
   y="0"
   width="100%"
   height="100%" />

	</clipPath>

	<path
   id="path3602"
   d="m 61.299,2.062 v 8.946 C 52.567,7.511 44.616,5.76 37.436,5.76 c -5.286,0 -9.534,1.167 -12.742,3.5 -3.212,2.332 -4.818,5.432 -4.818,9.306 0,5.453 4.125,10.327 12.372,14.617 7.685,3.751 15.342,7.502 22.979,11.252 8.299,5.289 12.446,11.894 12.446,19.811 0,8.332 -3.533,14.666 -10.601,18.997 -6.222,3.832 -14.419,5.753 -24.593,5.753 -7.256,0 -14.981,-0.854 -23.18,-2.554 v -8.845 c 8.73,3.755 17.142,5.633 25.253,5.633 13.483,0 20.229,-5.427 20.229,-16.275 0,-5.921 -4.014,-11.058 -12.032,-15.396 C 35.297,47.894 27.822,44.203 20.32,40.497 12.298,35.497 8.289,29.208 8.289,21.623 8.289,14.75 11.145,9.413 16.854,5.626 22.418,1.875 30.089,0 39.855,0 46.696,0 53.846,0.684 61.299,2.062"
   clip-path="url(#SVGID_4_)"
   inkscape:connector-curvature="0"
   style="clip-rule:evenodd;fill:#0e2e4f;fill-rule:evenodd;stroke-width:3.33332729" />

</g>
      <path
         id="path3606"
         d="m 287.653,293.97 v -86.611 h -82.616 l 0.023,86.611 H 172.243 V 139.051 c 0,-8.433 -1.935,-14.225 -5.807,-17.376 -4.188,-3.519 -13.086,-6.064 -26.697,-7.64 v -4.84 h 65.273 l 0.022,80.922 h 82.619 v -51.066 c 0,-8.433 -1.94,-14.225 -5.81,-17.376 -4.187,-3.519 -13.088,-6.064 -26.698,-7.64 v -4.84 h 65.276 l 0.043,184.775 h -32.811"
         inkscape:connector-curvature="0"
         style="fill:#0e2e4f;stroke-width:3.33332729" />
      <path
         id="path3608"
         d="m 484.593,109.195 88.132,-0.221 c 22.07,0 38.521,2.516 49.349,8.447 13.792,7.555 20.694,20.5 20.694,38.838 0,25.713 -18.062,40.726 -54.183,45.042 l 63.282,92.976 H 621.221 L 558.705,202.919 H 543.48 l 0.023,91.05 H 510.688 V 139.051 c 0,-8.433 -1.937,-14.225 -5.81,-17.376 -4.185,-3.519 -13.083,-6.064 -26.694,-7.64 v -4.84 h 6.409 m 58.884,82.958 h 7.938 c 17.593,0 30.479,-1.616 38.655,-4.854 14.63,-5.671 21.94,-16.917 21.94,-33.738 0,-22.85 -15.594,-34.275 -46.786,-34.275 -9.72,0 -15.704,0.764 -17.953,2.294 -1.905,1.375 -3.171,4.219 -3.812,8.524 z"
         inkscape:connector-curvature="0"
         style="fill:#0e2e4f;stroke-width:3.33332729" />
      <path
         id="path3610"
         d="m 721.604,194.355 77.478,-84.869 h 20.843 l -69.07,78.955 85.676,104.383 -40.198,-0.105 -73.939,-91.972 -0.788,-1.68 0.028,94.902 H 688.81 V 139.051 c 0,-8.433 -1.935,-14.225 -5.804,-17.376 -4.188,-3.519 -13.087,-6.064 -26.697,-7.64 v -4.84 h 65.275 l 0.02,85.16"
         inkscape:connector-curvature="0"
         style="fill:#0e2e4f;stroke-width:3.33332729" />
    </g>
  </g>
</svg>
