<?xml version="1.0" encoding="utf-8"?>
<!-- Generator: Adobe Illustrator 15.1.0, SVG Export Plug-In  -->
<!DOCTYPE svg PUBLIC "-//W3C//DTD SVG 1.1//EN" "http://www.w3.org/Graphics/SVG/1.1/DTD/svg11.dtd" [
	<!ENTITY ns_flows "http://ns.adobe.com/Flows/1.0/">
]>
<svg version="1.1"
	 xmlns="http://www.w3.org/2000/svg" xmlns:xlink="http://www.w3.org/1999/xlink" xmlns:a="http://ns.adobe.com/AdobeSVGViewerExtensions/3.0/"
	 x="0px" y="0px" width="1000px" height="1000px" viewBox="-59.962 0 1000 1000"
	 overflow="visible" enable-background="new -59.962 0 1000 1000" xml:space="preserve">
<defs>
</defs>
<g>
	<defs>
		<rect id="SVGID_3_" x="0.131" width="879.814" height="1000"/>
	</defs>
	<clipPath id="SVGID_4_">
		<use xlink:href="#SVGID_3_"  overflow="visible"/>
	</clipPath>
	<path clip-path="url(#SVGID_4_)" fill="#FDB813" d="M6.649,418.669c17.43-110.063,206.426-171.597,422.124-137.424
		C644.46,315.41,805.199,432.334,787.758,542.407c-17.434,110.064-206.409,171.597-422.115,137.426
		C149.943,645.656-10.773,528.745,6.649,418.669"/>
	<path clip-path="url(#SVGID_4_)" d="M6.649,418.669l5.291,0.838c3.366-21.211,13.411-40.568,29.319-57.904
		c23.839-25.99,60.975-47.21,107.406-61.809c46.42-14.612,102.07-22.635,162.752-22.632c37.261,0,76.42,3.021,116.518,9.373
		c101.776,16.11,191.19,50.828,254.813,94.262c31.816,21.706,57.163,45.581,74.446,70.228
		c17.295,24.664,26.502,49.988,26.502,74.899c0,5.228-0.404,10.443-1.229,15.646c-3.368,21.212-13.411,40.567-29.319,57.904
		c-23.838,25.989-60.971,47.21-107.401,61.809C599.329,675.896,543.68,683.917,483,683.915c-37.26,0-76.42-3.021-116.518-9.374
		c-101.788-16.115-191.202-50.835-254.825-94.269c-31.814-21.707-57.163-45.582-74.443-70.231
		c-17.294-24.664-26.501-49.988-26.5-74.901c0-5.223,0.404-10.436,1.227-15.634v0.001L6.649,418.669l-5.29-0.837
		C0.448,423.587,0,429.363,0,435.14c0.001,27.605,10.209,55.065,28.442,81.055c27.379,38.997,72.819,74.977,130.704,104.415
		c57.891,29.42,128.275,52.249,205.659,64.514c40.645,6.439,80.354,9.504,118.194,9.504c82.17-0.013,155.498-14.42,210.507-40.396
		c27.5-12.997,50.443-28.908,67.533-47.51c17.082-18.587,28.291-39.954,32.011-63.475c0.911-5.762,1.36-11.542,1.36-17.322
		c-0.002-27.604-10.21-55.064-28.446-81.051c-27.38-38.997-72.822-74.976-130.705-104.413
		c-57.892-29.418-128.273-52.247-205.647-64.506c-40.644-6.439-80.354-9.505-118.194-9.505
		c-82.17,0.013-155.502,14.42-210.514,40.396c-27.501,12.998-50.444,28.907-67.535,47.51C16.285,372.943,5.076,394.31,1.359,417.831
		l0.097-0.617l-0.097,0.618L6.649,418.669z"/>
	<path clip-path="url(#SVGID_4_)" d="M456.729,281.561c0,0,68.25-131.291,148.905-196.25
		C686.275,20.349,818.03-44.728,795.276,41.274c-15.14,57.24-11.842,83.122-11.842,83.122s86.762-38.911,95.786,29.181
		c6.229,46.928-29.999,41.558-20.09,106.23c5.653,37.008-14.228,68.271-49.002,68.271c-173.665,0-225.416,21.744-276.059,37.428
		c0,0,0.827,2.759,3.306,15.141c0,0,134.59,24.223,134.59,192.126c0,167.901-160.465,203.669-160.465,203.669
		s10.725-23.397-3.308-61.655c-14.033-38.257-41.25-82.81-34.957-118.082c13.497-75.696-34.963-82.296-0.825-174.494
		c0,0-48.717,2.347-68.27-5.782c-42.375-17.612-100.451-55.051-103.751-99.921c0,0-13.207,5.784-39.084,5.784
		c0,0-74.043-3.3-74.043-53.122c0,0-3.301-56.703,89.721-70.735c63.319,0,60.001,52.196,64.145,51.466
		C392.597,240.824,456.729,281.561,456.729,281.561"/>
	<path clip-path="url(#SVGID_4_)" fill="#B2B2B2" d="M473.236,293.116c0,0,71.778-127.839,124.15-175.327
		c58.895-53.401,194.378-149.784,175.323-63.299c-20.27,91.969-3.318,94.96-3.318,94.96s102.402-46.806,92.207,6.6
		c-8.242,43.214-22.493,42.683-23.115,72.397c-0.818,39.908,21.563,83.568-66.606,80.636
		c-198.731-6.597-246.893,43.208-249.365,37.438C515.926,331.158,473.236,293.116,473.236,293.116"/>
</g>
<g>
	<defs>
		<path id="SVGID_2_" d="M756.308,19.874c-36.123,0.004-116.962,59.871-158.922,97.915
			c-52.372,47.486-124.15,175.327-124.15,175.327s42.69,38.047,49.275,53.404c1.222,2.868,13.709-7.958,50.266-18.784
			c37.105-10.99,98.999-21.974,199.1-18.654c88.166,2.93,65.784-40.73,66.606-80.636c0.618-29.716,14.873-29.183,23.115-72.397
			c10.195-53.402-92.202-6.602-92.202-6.602s-16.956-2.984,3.313-94.959c5.474-24.862-1.819-34.613-16.393-34.613H756.308"/>
	</defs>
	<clipPath id="SVGID_5_">
		<use xlink:href="#SVGID_2_"  overflow="visible"/>
	</clipPath>
	<path clip-path="url(#SVGID_5_)" fill-rule="evenodd" clip-rule="evenodd" d="M489.131,313.089c0,0,65.041-106.683,78.239-132.276
		c13.21-25.583,25.591-34.952,25.591-34.952s-16.517,17.712-16.517,45.975c0,10.73,27.812-16.292,39.914-35.786
		c14.045-22.575,38.803-72.931,55.606-82.298c0,0-38.81,56.713-36.327,74.866c2.472,18.165,73.218-59.179,92.205-104.037
		c0,0-8.546,48.703-58.36,101.28c0,0,32.369-11.224,52.584-23.944c0,0-11.653,17.62-74.879,46.513
		c-35.606,16.279-32.022,16.4-54.227,31.654c-26.415,18.163-24.762,13.221-40.74,39.086
		c-13.995,22.679,107.573-79.821,215.737-110.648l1.712,20.866c0,0-133.789,31.853-271.966,169.202L489.131,313.089"/>
	<path clip-path="url(#SVGID_5_)" fill-rule="evenodd" clip-rule="evenodd" d="M508.108,330.222c0,0,80.188-69.785,127.945-91.203
		c0,0,39.479-53.261,12.237-3.674c0,0,39.357-8.015,52.853-22.874c13.482-14.856,50.096-44.864,63.298-48.981
		c0,0-30.001,27.518-35.774,42.377c-5.778,14.865,75.688-18.989,113.117-58.067c0,0-27.229,39.908-47.33,50.639
		c-20.096,10.728,10.451,10.193,31.373-3.301c0,0-9.086,25.594-61.386,24.764c-52.283-0.824-124.678,30.295-154.678,46.804
		c0,0,73.863,18.898,99.628,3.3c20.924-12.675,34.126-28.351,34.126-28.351l-16.499,28.351c0,0,30,17.335,73.213-27.536
		c0,0-11.552,18.454-19.273,26.706c-7.719,8.26,34.13-4.13,39.904-25.874c0,0,9.371,20.095-20.631,32.474
		c-29.999,12.384-83.122,11.565-150.562,12.384c-58.401,0.722-37.371-12.817-80.642,12.667
		c-44.697,26.332-52.967,41.34-52.967,41.34L508.108,330.222"/>
</g>
<path d="M493.333,422.211c0,0-18.981,33.851-9.078,66.323c9.905,32.479,13.207,46.519,10.726,76.518
	c-2.474,29.996-0.276,76.516,14.045,100.741c14.306,24.225,32.47,73.754,24.224,85.598c-8.27,11.851,113.936-56.133,113.936-181.928
	c0-125.789-108.695-172.305-119.71-171.475C516.452,398.819,493.333,422.211,493.333,422.211"/>
<g>
	<defs>
		<path id="SVGID_1_" d="M527.47,397.988c-11.019,0.831-34.138,24.223-34.138,24.223s-18.985,33.851-9.074,66.323
			c9.901,32.479,13.203,46.519,10.722,76.518c-2.474,29.996-0.278,76.516,14.045,100.741c14.306,24.225,32.476,73.754,24.224,85.598
			c-8.27,11.851,113.936-56.133,113.936-181.928c0-124.683-106.795-171.481-119.4-171.483L527.47,397.988"/>
	</defs>
	<clipPath id="SVGID_6_">
		<use xlink:href="#SVGID_1_"  overflow="visible"/>
	</clipPath>
	<path clip-path="url(#SVGID_6_)" fill="#FDB813" d="M485.084,437.066c0,0,31.646,14.038,77.334-32.471
		c45.694-46.519-38.255-16.516-38.255-16.516l-35.783,20.635L485.084,437.066"/>
	<path clip-path="url(#SVGID_6_)" fill="#FDB813" d="M476.538,476.984c0,0,53.942,9.365,109.826-49.814l17.622,14.855
		c0,0-25.592,62.479-120.555,60.009L476.538,476.984"/>
	<path clip-path="url(#SVGID_6_)" fill="#FDB813" d="M490.033,532.857c0,0,84.488,4.125,137.882-61.66l12.668,27.533
		c0,0-74.86,78.989-152.196,50.65L490.033,532.857"/>
	<path clip-path="url(#SVGID_6_)" fill="#FDB813" d="M490.861,590.939c0,0,95.779,15.957,158.812-55.606l4.132,34.13
		c0,0-65.51,66.611-162.944,39.084V590.939"/>
	<path clip-path="url(#SVGID_6_)" fill="#FDB813" d="M495.807,646.812c0,0,62.49,23.116,148.911-20.925l-10.187,34.946
		c0,0-49.819,25.594-132.945,9.095L495.807,646.812"/>
	<path clip-path="url(#SVGID_6_)" fill="#FDB813" d="M527.286,708.349c0,0,43.762,18.995,69.633,0l-30.544,30.829l-35.772,18.45
		L527.286,708.349"/>
</g>
<path fill="#FFFFFF" d="M248.64,241.238c0-4.326,5.051-7.846,11.288-7.846c6.229,0,11.286,3.52,11.286,7.846
	c0,4.328-5.056,7.832-11.286,7.832C253.691,249.07,248.64,245.566,248.64,241.238"/>
<path d="M244.958,211.554c0,0-17.602-32.711-56.843-32.711c-39.237,0-64.465,30.113-64.465,30.113s-6.188,11.081,7.502,7.166
	c15.791-4.51,53.379-46.86,98.158,3.588L244.958,211.554"/>
<path d="M227.484,219.541c0,0-11.408-11.849-29.012-11.849c-17.599,0-50.082,10.243-59.572,26.852
	c-3.907,6.84,1.962,12.377,11.084,8.145c6.894-3.206,31.413-28.684,69.341-9.779L227.484,219.541"/>
<path d="M328.983,361.077c0,0-18.765,33.002-33.015,36.01c-6.777,1.428-30.759,0-33.759-0.747
	c-2.997-0.753-9.005-8.252-19.508-8.252c-10.498,0-16.5,5.245-16.5,5.245s-22.513,0-31.507-2.252
	c-9-2.252-23.259-12.738-32.259-11.998c-9,0.751-15.747,3.75-18.743,6.749c-3.008,2.997-12.774,2.997-21.016,3.753
	c-8.243,0.749-48.742,13.499-22.497,18.743c26.247,5.254,34.515,4.506,40.505,3.759c6.004-0.759,12.005,2.999,20.995,2.999
	c9.005,0,15.019-5.253,28.511-3.758c13.499,1.506,26.265,1.506,26.265,1.506s9.747,9.005,18.745,9.757
	c8.997,0.749,24.764-0.751,27.762-3.745c3.001-2.999,23.257-1.501,28.51-1.501c5.25,0,20.948,5.492,26.247,2.999
	c12.76-6.01,33.752-36.007,33.752-36.007L328.983,361.077"/>
<path d="M368.045,390.496c0,0-34.519,44.244-48.019,51.759c-13.499,7.512-17.244,2.258-29.247,6.01
	c-12.014,3.745-18.017,7.492-22.517,14.994c-4.499,7.503-14.994,9.007-19.496,9.007c-4.499,0-14.26-5.249-23.264-2.256
	c-8.996,3-17.244,11.254-17.244,11.254s-21.758,2.249-30.008,2.249c-8.251,0-17.266-2.995-27.017-2.995
	c-9.746,0-16.498,1.506-39.755,15.006c-23.257,13.494,6.758,18.745,21.76,17.254c15-1.504,61.504-6.757,71.258-5.256
	c9.751,1.496,23.996,0,33.751-0.754c9.767-0.747,17.269-8.248,20.261-11.244c3.009-3.005,13.507-1.501,16.505-3.758
	c3.006-2.246,21.01-5.257,29.257-8.253c8.248-2.995,15.771-11.995,19.51-18.756c3.748-6.742,25.508-18.008,37.515-24.753
	c11.989-6.747,37.491-35.258,37.491-35.258L368.045,390.496"/>
<path d="M458.259,413.329c0,0-41.445,10.067-48.663,22.978c-3.429,6.15-8.438,29.422-8.428,32.464c0,3.055,6.6,10.587,3.724,20.629
	c-2.885,10.045-10.306,14.524-10.306,14.524s-6.169,21.54-6.161,30.675c0.01,9.147,7.645,25.282,4.353,33.71
	c-3.29,8.424-8.448,14.177-12.571,16.325c-4.122,2.149-6.79,11.486-9.882,19.197c-3.085,7.703-28.21,43.401-26.791,17.045
	c1.429-26.358,4.51-34.081,6.979-39.635c2.475-5.562-0.006-12.191,2.468-20.803c2.465-8.607,9.89-13.106,11.94-26.367
	c2.054-13.262,5.551-25.464,5.551-25.464s-7.242-11.475-5.592-20.268c1.643-8.786,7.614-23.498,11.73-25.652
	c4.122-2.149,8.03-21.881,9.469-26.906c1.437-5.021-0.299-21.345,3.899-25.814c10.109-10.77,48.86-23.706,48.86-23.706
	L458.259,413.329"/>
<path d="M81.081,820.923v4.919c-5.636,0.178-9.651,0.646-12.055,1.436c-4.241,1.456-6.365,4.146-6.365,8.032
	c0,1.725,0.223,3.403,0.685,5.05c0.559,1.637,1.337,3.751,2.36,6.342l41,99.773l30.191-74.898l-13.43-32.002
	c-2.494-5.862-6.235-9.804-11.224-11.785c-2.953-1.211-7.435-1.85-13.44-1.947v-4.919h75.918v4.919
	c-7.111,0.098-12.007,0.567-14.684,1.436c-4.246,1.456-6.378,4.477-6.378,9.057c0,1.56,0.186,2.947,0.559,4.148
	c0.365,1.135,1.29,3.492,2.767,7.128l41.012,99.51l35.455-90.051c2.037-5.094,3.414-9.626,4.155-13.605
	c0.459-2.237,0.692-4.062,0.705-5.443c0-4.925-2.494-8.337-7.49-10.231c-2.77-1.117-6.92-1.77-12.462-1.947v-4.919h56.243v4.919
	c-5.091,0.686-8.969,1.778-11.641,3.236c-4.805,2.515-8.412,6.839-10.805,12.951l-30.201,78.915l-11.775,30.449L193.147,999.6
	h-4.299l-11.503-30.709l-33.79-81.635L99.915,999.6h-4.289l-20.364-55.197l-24.381-62.065
	c-10.069-25.565-17.092-41.249-21.063-47.027c-3.87-5.891-9.971-9.032-18.28-9.468v-4.919H81.081"/>
<path d="M375.758,971.617c11.263,12.348,30.043,18.523,46.758,18.523c9.047,0,16.856-2.672,23.41-8.025
	c6.65-5.359,9.964-12.833,9.964-22.423c0-8.645-3.313-16.141-9.964-22.542c-4.334-4.065-13.479-10.152-27.426-18.275l-24.236-14.124
	c-7.307-4.312-13.113-8.682-17.456-13.091c-8.039-8.378-12.055-17.612-12.055-27.725c0-13.385,4.76-24.533,14.268-33.434
	c9.511-8.895,22.12-13.34,37.821-13.348c6.465,0,14.218,1.531,23.265,4.55c9.137,2.943,14.362,4.4,15.664,4.4
	c3.505,0,5.895-0.772,7.19-2.332c1.393-1.558,2.448-3.768,3.193-6.618h5.821l6.225,56.494h-6.784
	c-4.607-17.018-12.05-28.883-22.304-35.628c-10.163-6.726-20.221-10.11-30.199-10.11c-7.757,0-14.536,2.163-20.354,6.479
	c-5.735,4.237-8.593,10.168-8.593,17.756c0,6.819,2.213,12.667,6.645,17.486c4.437,4.938,11.311,10.077,20.646,15.432l24.932,14.38
	c15.604,8.989,26.595,17.239,32.966,24.74c6.288,7.613,9.418,16.583,9.425,26.963c0,13.901-5.637,25.523-16.9,34.855
	c-11.18,9.325-25.49,13.994-42.947,13.994c-8.771,0-17.966-1.556-27.563-4.669c-9.515-3.113-14.959-4.669-16.344-4.669
	C377.498,990.657,369.293,964.529,375.758,971.617"/>
<path d="M636.227,943.104c4.798,11.917,10.435,21.426,16.894,28.513c11.269,12.343,25.259,18.523,41.965,18.523
	c9.062,0,16.858-2.672,23.413-8.03c6.659-5.351,9.979-12.828,9.979-22.418c0-8.64-3.32-16.141-9.979-22.542
	c-4.337-4.065-13.479-10.152-27.428-18.275l-24.232-14.128c-7.307-4.308-13.123-8.678-17.459-13.083
	c-8.027-8.377-12.048-17.616-12.048-27.729c0-13.385,4.75-24.537,14.261-33.429c9.529-8.896,22.12-13.345,37.811-13.353
	c6.482,0,14.233,1.531,23.277,4.55c9.152,2.943,14.369,4.396,15.658,4.396c3.501,0,5.9-0.768,7.19-2.33
	c1.407-1.555,2.465-3.765,3.202-6.615h5.814l6.243,56.494h-6.796c-4.616-17.018-12.054-28.883-22.298-35.628
	c-10.168-6.726-20.22-10.106-30.203-10.106c-7.753,0-14.541,2.159-20.361,6.475c-5.729,4.237-8.591,10.168-8.591,17.756
	c0,6.819,2.227,12.667,6.64,17.486c4.438,4.934,11.317,10.077,20.655,15.432l24.931,14.376c15.604,8.997,26.59,17.243,32.97,24.744
	c6.277,7.609,9.421,16.588,9.421,26.963c0,13.901-5.632,25.523-16.909,34.857C729.08,995.326,714.765,1000,697.315,1000
	c-8.784,0-17.964-1.561-27.571-4.674c-9.516-3.113-14.959-4.669-16.345-4.669c-3.324,0-5.595,0.957-6.789,2.854
	c-1.104,1.901-1.841,3.93-2.209,6.088h-6.244l-8.444-56.495H636.227"/>
<path fill-rule="evenodd" clip-rule="evenodd" d="M207.48,996.49v-4.788c7.299-0.782,12.746-3.365,16.344-7.786
	c3.702-4.402,9.97-16.365,18.847-35.884l59.149-130.227h5.538l70.647,150.435c4.707,10.024,8.448,16.245,11.22,18.66
	c2.864,2.334,7.61,3.926,14.263,4.802v4.788h-72.164v-4.788c8.308-0.686,13.661-1.515,16.069-2.468
	c2.393-1.045,3.595-3.496,3.595-7.386c0-1.298-0.463-3.584-1.386-6.867c-0.926-3.28-2.208-6.741-3.873-10.377l-11.771-25.521
	h-74.251c-7.393,17.376-11.823,28.009-13.299,31.88c-1.39,3.803-2.081,6.834-2.081,9.08c0,4.487,1.939,7.59,5.819,9.323
	c2.395,1.043,6.926,1.81,13.581,2.336v4.788H207.48 M329.936,928.335l-32.831-73.079l-32.419,73.079H329.936z"/>
<path fill-rule="evenodd" clip-rule="evenodd" d="M481.571,991.702c10.812-0.947,17.535-2.941,20.22-5.964
	c2.671-3.111,4.006-10.155,4.006-21.13V849.691c0-9.247-1.507-15.335-4.553-18.271c-2.963-2.948-9.516-4.796-19.673-5.583v-4.915
	h74.804c24.009,0,42.381,4.36,55.133,13.083c12.753,8.722,19.112,20.222,19.112,34.461c0,18.059-7.062,31.151-21.201,39.272
	c-14.118,8.111-31.804,12.181-53.044,12.181c-3.045,0-6.978-0.05-11.774-0.137c-4.702-0.172-8.22-0.259-10.526-0.264v48.207
	c0,10.027,1.62,16.331,4.841,18.915c3.334,2.598,10.663,4.278,22.028,5.061v4.788h-79.372V991.702 M577.29,835.696
	c-8.033-3.285-18.19-4.931-30.473-4.939c-5.818,0-9.418,0.586-10.819,1.693c-1.289,1.034-1.924,3.422-1.924,7.128v69.189
	c5.069,0.429,8.395,0.699,9.976,0.777c1.556,0.098,3.088,0.131,4.565,0.131c13.031,0,23.269-1.73,30.755-5.191
	c13.578-6.301,20.349-18.082,20.349-35.361C599.718,852.885,592.249,841.732,577.29,835.696"/>
</svg>
